<svg width="16" height="16" viewBox="0 0 16 16" fill="none" xmlns="http://www.w3.org/2000/svg">
<g clip-path="url(#clip0_991_15861)">
<path d="M6.34487 0.832777C6.06696 0.834715 5.79262 0.874215 5.52634 0.953808C5.26215 1.03287 5.01877 1.14746 4.7979 1.2934C5.03921 1.90659 5.65524 2.68496 6.36883 3.34943C7.1139 4.04325 7.96821 4.63271 8.51993 4.89856L8.5264 4.90168L8.53274 4.9049C9.03974 5.16537 9.39868 5.57531 9.60587 6.02753C9.7393 6.31871 9.81702 6.62371 9.86233 6.93378C10.2686 6.6169 10.6968 6.36315 11.1322 6.179C11.0991 5.60681 10.9732 5.00681 10.744 4.40603C10.2631 3.14603 9.42334 2.13165 8.47224 1.51303C7.78865 1.0684 7.05509 0.82784 6.34487 0.832777ZM3.95712 2.15481C3.79733 2.40275 3.6663 2.67918 3.56674 2.9794C3.23424 3.98171 3.26121 5.23903 3.74205 6.49909C4.03305 7.26168 4.45571 7.93409 4.95487 8.48346C5.44662 8.63059 5.93299 8.8579 6.38987 9.16634C6.74287 9.40468 7.05743 9.6775 7.33002 9.97421C7.41899 9.99584 7.50799 10.0143 7.5969 10.0288C7.76627 9.58696 7.98612 9.1474 8.25702 8.72096C8.42092 8.46272 8.60053 8.21478 8.79483 7.97856C8.79708 7.81631 8.79577 7.65909 8.78805 7.509C8.76712 7.10306 8.70212 6.75587 8.58305 6.49606C8.46405 6.23625 8.30899 6.05475 8.01868 5.90562L8.03149 5.91193C7.31655 5.5674 6.42377 4.93781 5.60212 4.17271C4.94899 3.56459 4.34312 2.88343 3.95712 2.15481ZM12.6994 6.39621C12.2773 6.39965 11.8307 6.49768 11.379 6.68521C10.4152 7.08528 9.44755 7.89615 8.7318 9.02262C8.36565 9.59893 8.10252 10.1998 7.93893 10.789C8.58112 11.8664 8.73884 13.104 8.27621 14.1434C8.35101 14.2502 8.43448 14.3507 8.52577 14.4438C9.20215 13.8602 9.98165 13.3768 10.5356 12.8804C10.8385 12.6092 11.0677 12.3406 11.1951 12.0848C11.3226 11.829 11.3664 11.5943 11.3001 11.2747L11.2963 11.2561L11.2937 11.2374C11.0421 9.41568 11.4836 8.34512 12.127 7.69018C12.6443 7.16362 13.1593 6.88628 13.5146 6.52012C13.2579 6.43481 12.9842 6.39387 12.6994 6.39621ZM14.4727 7.14475C13.953 7.79068 13.3123 8.08903 12.9295 8.47868C12.4896 8.92643 12.1859 9.4654 12.4071 11.0757C12.5136 11.6232 12.42 12.149 12.2022 12.5864C11.9804 13.0316 11.6487 13.3936 11.2864 13.7183C10.736 14.2115 10.1011 14.6338 9.56996 15.0458C10.1723 15.2023 10.8581 15.1266 11.5564 14.8367C12.5201 14.4367 13.4879 13.6257 14.2036 12.4992C14.9193 11.3727 15.2423 10.1522 15.1951 9.10978C15.1589 8.31259 14.9127 7.62953 14.4727 7.14478L14.4727 7.14475ZM12.4071 11.0757C12.4052 11.0658 12.4037 11.0561 12.4017 11.0462L12.4082 11.0835C12.4079 11.0809 12.4075 11.0783 12.4071 11.0757H12.4071ZM3.65015 8.84368C3.07568 8.8385 2.53452 8.96446 2.07905 9.21265C2.08218 9.21274 2.0849 9.21296 2.08802 9.21306C2.35771 9.22259 2.69627 9.19078 3.08608 9.244C3.47587 9.29725 3.93249 9.47425 4.2784 9.86565C4.62433 10.257 4.86152 10.8119 5.02674 11.6088L5.03065 11.6273L5.03321 11.6462C5.10987 12.2022 5.46402 12.5238 6.07802 12.825C6.6019 13.0819 7.27449 13.2654 7.91293 13.4522C8.19887 12.171 7.52043 10.6083 6.07512 9.63256C5.2958 9.10643 4.44155 8.85084 3.65021 8.84368H3.65015ZM1.11646 10.1389C0.326772 11.4992 0.960085 13.4953 2.68227 14.658C4.3768 15.8021 6.42558 15.6667 7.41165 14.4799C6.83552 14.3157 6.1824 14.1293 5.58258 13.8351C4.80915 13.4557 4.07196 12.8182 3.92321 11.8282C3.78155 11.15 3.59227 10.7882 3.4354 10.6107C3.2779 10.4323 3.15508 10.3889 2.93383 10.3588C2.71258 10.3285 2.40852 10.3501 2.04843 10.3374C1.7678 10.3276 1.43855 10.2873 1.11646 10.1389V10.1389ZM3.92324 11.8281C3.92393 11.8312 3.92462 11.8341 3.92527 11.8373L3.9188 11.7999C3.92012 11.8094 3.92183 11.8187 3.92327 11.8282L3.92324 11.8281Z" fill="#254434"/>
</g>
<defs>
<clipPath id="clip0_991_15861">
<rect width="16" height="16" fill="white"/>
</clipPath>
</defs>
</svg>
