<svg width="15" height="14" viewBox="0 0 15 14" fill="none" xmlns="http://www.w3.org/2000/svg">
<path d="M4.56238 1.13705V2.21073C4.56238 2.49926 4.79743 2.73316 5.08738 2.73316C5.37733 2.73316 5.61238 2.49926 5.61238 2.21073V1.06467C6.10164 1.0498 6.66143 1.0498 7.30453 1.0498H8.00345C8.64661 1.0498 9.2064 1.0498 9.6957 1.06467V2.21073C9.6957 2.49926 9.93076 2.73316 10.2207 2.73316C10.5106 2.73316 10.7457 2.49926 10.7457 2.21073V1.13706C11.3362 1.21108 11.8343 1.3523 12.276 1.63691C12.7114 1.91736 13.0822 2.28633 13.3641 2.71956C13.6386 3.14157 13.7803 3.61516 13.8571 4.17213C13.5278 4.14573 13.1097 4.11478 12.6201 4.08385C11.349 4.00353 9.59294 3.92316 7.65401 3.92316C5.71515 3.92316 3.95369 4.00353 2.67717 4.08384C2.19377 4.11425 1.77956 4.14467 1.45117 4.17077C1.52793 3.61439 1.66969 3.14122 1.94399 2.71956C2.22581 2.28633 2.5966 1.91736 3.03195 1.63691C3.47379 1.35228 3.97188 1.21107 4.56238 1.13705Z" fill="#254434" fill-opacity="0.7"/>
<path d="M1.37045 5.22578C1.35351 5.72719 1.35351 6.30429 1.35352 6.97151V7.02852C1.35351 8.0774 1.35351 8.90354 1.41929 9.56301C1.48652 10.2369 1.62649 10.793 1.9435 11.2802C2.22532 11.7135 2.5961 12.0824 3.03145 12.3629C3.52116 12.6784 4.07998 12.8177 4.75711 12.8846C5.41984 12.95 6.25004 12.95 7.30403 12.95H8.00303C8.44333 12.95 8.84457 12.95 9.21081 12.9453C8.24866 12.3397 7.60977 11.2715 7.60977 10.0548C7.60977 8.16728 9.14739 6.63717 11.0441 6.63717C12.2667 6.63717 13.3402 7.27289 13.9488 8.23035C13.9535 7.86586 13.9535 7.46658 13.9535 7.02852V6.97157C13.9535 6.30497 13.9535 5.72833 13.9366 5.22725C13.5928 5.19875 13.1223 5.16281 12.5531 5.12685C11.2976 5.04752 9.56466 4.96826 7.65352 4.96826C5.74245 4.96826 4.0039 5.04753 2.74292 5.12685C2.18113 5.1622 1.71461 5.19752 1.37045 5.22578Z" fill="#254434" fill-opacity="0.7"/>
<path fill-rule="evenodd" clip-rule="evenodd" d="M11.0445 7.68164C9.72766 7.68164 8.66016 8.74396 8.66016 10.0544C8.66016 11.3648 9.72766 12.4271 11.0445 12.4271C12.3614 12.4271 13.4289 11.3648 13.4289 10.0544C13.4289 8.74396 12.3614 7.68164 11.0445 7.68164ZM11.1757 9.21632C11.1757 8.92778 10.9408 8.69384 10.6507 8.69384C10.3608 8.69384 10.1257 8.92778 10.1257 9.21632V10.2612C10.1257 10.5498 10.3608 10.7836 10.6507 10.7836H11.7007C11.9908 10.7836 12.2257 10.5498 12.2257 10.2612C12.2257 9.97267 11.9908 9.73873 11.7007 9.73873H11.1757V9.21632Z" fill="#254434" fill-opacity="0.7"/>
</svg>
