<svg width="15" height="14" viewBox="0 0 15 14" fill="none" xmlns="http://www.w3.org/2000/svg">
<path fill-rule="evenodd" clip-rule="evenodd" d="M1.71381 3.10235C1.82896 2.55893 2.01469 2.10245 2.38523 1.73191C2.75576 1.36138 3.21224 1.17564 3.75566 1.06049C4.27743 0.949921 4.93727 0.893774 5.75164 0.824481L6.45834 0.764295C7.30697 0.691622 7.89705 0.64109 8.44438 0.84105C8.99178 1.041 9.41031 1.45998 10.0122 2.06256L11.7249 3.77525C12.4025 4.45277 12.9485 4.99888 13.3203 5.48615C13.7063 5.99203 13.9535 6.49577 13.9535 7.09218C13.9535 7.68858 13.7063 8.1923 13.3203 8.69819C12.9485 9.18546 12.4025 9.7316 11.7249 10.4091L11.0624 11.0715C10.3849 11.7491 9.83878 12.2952 9.35158 12.667C8.84569 13.053 8.3419 13.3002 7.7455 13.3002C7.14911 13.3002 6.64538 13.053 6.13949 12.667C5.65224 12.2953 5.10613 11.7491 4.42862 11.0716L2.71591 9.35899C2.11332 8.75699 1.69433 8.33846 1.49437 7.79106C1.29441 7.24373 1.34494 6.65365 1.41762 5.80502L1.4778 5.09832C1.54709 4.28396 1.60324 3.62412 1.71381 3.10235ZM5.73153 5.07811C6.00514 4.8045 6.00514 4.36088 5.73153 4.08726C5.45791 3.81365 5.0143 3.81365 4.74068 4.08726C4.46707 4.36088 4.46707 4.8045 4.74068 5.07811C5.0143 5.35173 5.45791 5.35173 5.73153 5.07811Z" fill="#254434" fill-opacity="0.7"/>
</svg>
