<svg width="18" height="18" viewBox="0 0 18 18" fill="none" xmlns="http://www.w3.org/2000/svg">
<path fill-rule="evenodd" clip-rule="evenodd" d="M0.00585938 2.47424C0.00585938 2.10176 0.308067 1.7998 0.680859 1.7998H6.08086C6.45366 1.7998 6.75586 2.10176 6.75586 2.47424C6.75586 2.84672 6.45366 3.14868 6.08086 3.14868H0.680859C0.308067 3.14868 0.00585938 2.84672 0.00585938 2.47424Z" fill="#254434"/>
<path fill-rule="evenodd" clip-rule="evenodd" d="M2.70605 5.17248C2.70605 4.8 3.00827 4.49805 3.38105 4.49805H11.931C12.3038 4.49805 12.606 4.8 12.606 5.17248C12.606 5.54496 12.3038 5.84691 11.931 5.84691H3.38105C3.00827 5.84691 2.70605 5.54496 2.70605 5.17248Z" fill="#254434"/>
<path fill-rule="evenodd" clip-rule="evenodd" d="M7.20605 2.47424C7.20605 2.10176 7.50827 1.7998 7.88105 1.7998H8.78105C9.15382 1.7998 9.45604 2.10176 9.45604 2.47424C9.45604 2.84672 9.15382 3.14868 8.78105 3.14868H7.88105C7.50827 3.14868 7.20605 2.84672 7.20605 2.47424Z" fill="#254434"/>
<path fill-rule="evenodd" clip-rule="evenodd" d="M0.00585938 5.17248C0.00585938 4.8 0.308067 4.49805 0.680859 4.49805H1.58086C1.95366 4.49805 2.25586 4.8 2.25586 5.17248C2.25586 5.54496 1.95366 5.84691 1.58086 5.84691H0.680859C0.308067 5.84691 0.00585938 5.54496 0.00585938 5.17248Z" fill="#254434"/>
<path d="M18.0004 12.2938C18.0004 14.4511 16.2501 16.1999 14.091 16.1999C11.9319 16.1999 10.1816 14.4511 10.1816 12.2938C10.1816 10.1365 11.9319 8.3877 14.091 8.3877C16.2501 8.3877 18.0004 10.1365 18.0004 12.2938Z" fill="#254434"/>
<path d="M10.6225 8.92144C10.0432 8.58218 9.36866 8.3877 8.64864 8.3877C6.48955 8.3877 4.73926 10.1365 4.73926 12.2938C4.73926 14.4511 6.48955 16.1999 8.64864 16.1999C9.36866 16.1999 10.0432 16.0054 10.6225 15.6662C9.76709 14.7987 9.23924 13.6078 9.23924 12.2938C9.23924 10.9797 9.76709 9.78895 10.6225 8.92144Z" fill="#254434"/>
<path d="M5.48021 8.71582C4.99947 8.50481 4.46811 8.3877 3.90937 8.3877C1.75028 8.3877 0 10.1365 0 12.2938C0 14.4511 1.75028 16.1999 3.90937 16.1999C4.46811 16.1999 4.99947 16.0828 5.48021 15.8718C4.49874 14.992 3.8813 13.7149 3.8813 12.2938C3.8813 10.8726 4.49874 9.59563 5.48021 8.71582Z" fill="#254434"/>
</svg>
