<svg width="19" height="18" viewBox="0 0 19 18" fill="none" xmlns="http://www.w3.org/2000/svg">
<path fill-rule="evenodd" clip-rule="evenodd" d="M3.67614 0.899912C3.69033 0.899921 3.70445 0.899922 3.71852 0.899922H5.12047C5.13454 0.899922 5.14867 0.899921 5.16284 0.899912C5.42284 0.89982 5.69992 0.89972 5.93311 0.930962C6.20494 0.967394 6.5475 1.06045 6.83537 1.34734C7.12322 1.63424 7.21659 1.97566 7.25314 2.24658C7.28448 2.47898 7.28439 2.75514 7.28429 3.01426C7.28429 3.02839 7.28428 3.04247 7.28428 3.05649V4.45376C7.28428 4.46778 7.28429 4.48186 7.28429 4.496C7.28439 4.75513 7.28448 5.03127 7.25314 5.26367C7.21659 5.5346 7.12322 5.87602 6.83537 6.16291C6.5475 6.44981 6.20494 6.54287 5.93311 6.57929C5.69993 6.61054 5.42284 6.61043 5.16285 6.61034C5.14867 6.61033 5.13454 6.61033 5.12047 6.61033H3.71852C3.70445 6.61033 3.69033 6.61033 3.67614 6.61034C3.41614 6.61043 3.13907 6.61054 2.90589 6.57929C2.63405 6.54287 2.29148 6.44981 2.00363 6.16291C1.71576 5.87602 1.6224 5.5346 1.58586 5.26367C1.5545 5.03127 1.5546 4.75512 1.5547 4.49599C1.55471 4.48186 1.55471 4.46778 1.55471 4.45376V3.05649C1.55471 3.04248 1.55471 3.02839 1.5547 3.01426C1.5546 2.75514 1.5545 2.47898 1.58586 2.24658C1.6224 1.97566 1.71576 1.63424 2.00363 1.34734C2.29148 1.06045 2.63405 0.967394 2.90589 0.930962C3.13907 0.89972 3.41615 0.89982 3.67614 0.899912ZM3.36019 2.69936C3.35794 2.79706 3.35788 2.91103 3.35788 3.05649V4.45376C3.35788 4.59923 3.35794 4.71319 3.36019 4.81089C3.45821 4.81313 3.57256 4.81318 3.71852 4.81318H5.12047C5.26643 4.81318 5.38078 4.81313 5.4788 4.81089C5.48105 4.71319 5.4811 4.59923 5.4811 4.45376V3.05649C5.4811 2.91103 5.48105 2.79706 5.4788 2.69936C5.38078 2.69712 5.26643 2.69707 5.12047 2.69707H3.71852C3.57256 2.69707 3.45821 2.69712 3.36019 2.69936Z" fill="#254434"/>
<path fill-rule="evenodd" clip-rule="evenodd" d="M3.67614 11.3897C3.69033 11.3897 3.70445 11.3897 3.71852 11.3897H5.12047C5.13454 11.3897 5.14867 11.3897 5.16284 11.3897C5.42284 11.3896 5.69992 11.3895 5.93311 11.4207C6.20494 11.4571 6.5475 11.5501 6.83537 11.837C7.12322 12.124 7.21659 12.4653 7.25314 12.7363C7.28448 12.9687 7.28439 13.2448 7.28429 13.5039C7.28429 13.5181 7.28428 13.5322 7.28428 13.5462V14.9435C7.28428 14.9575 7.28429 14.9716 7.28429 14.9857C7.28439 15.2448 7.28448 15.521 7.25314 15.7534C7.21659 16.0243 7.12322 16.3658 6.83537 16.6526C6.5475 16.9395 6.20494 17.0326 5.93311 17.069C5.69993 17.1002 5.42284 17.1002 5.16285 17.1001C5.14867 17.1001 5.13454 17.1001 5.12047 17.1001H3.71852C3.70445 17.1001 3.69033 17.1001 3.67614 17.1001C3.41614 17.1002 3.13907 17.1002 2.90589 17.069C2.63405 17.0326 2.29148 16.9395 2.00363 16.6526C1.71576 16.3658 1.6224 16.0243 1.58586 15.7534C1.5545 15.521 1.5546 15.2448 1.5547 14.9857C1.55471 14.9716 1.55471 14.9575 1.55471 14.9435V13.5462C1.55471 13.5322 1.55471 13.5181 1.5547 13.5039C1.5546 13.2448 1.5545 12.9687 1.58586 12.7363C1.6224 12.4653 1.71576 12.124 2.00363 11.837C2.29148 11.5501 2.63405 11.4571 2.90589 11.4207C3.13907 11.3895 3.41615 11.3896 3.67614 11.3897ZM3.36019 13.1891C3.35794 13.2868 3.35788 13.4007 3.35788 13.5462V14.9435C3.35788 15.0889 3.35794 15.203 3.36019 15.3006C3.45821 15.3029 3.57256 15.3029 3.71852 15.3029H5.12047C5.26643 15.3029 5.38078 15.3029 5.4788 15.3006C5.48105 15.203 5.4811 15.0889 5.4811 14.9435V13.5462C5.4811 13.4007 5.48105 13.2868 5.4788 13.1891C5.38078 13.1869 5.26643 13.1868 5.12047 13.1868H3.71852C3.57256 13.1868 3.45821 13.1869 3.36019 13.1891Z" fill="#254434"/>
<path fill-rule="evenodd" clip-rule="evenodd" d="M14.1468 0.899912C14.161 0.899921 14.1751 0.899922 14.1892 0.899922H15.5911C15.6052 0.899922 15.6194 0.899921 15.6335 0.899912C15.8935 0.89982 16.1706 0.89972 16.4038 0.930962C16.6756 0.967394 17.0182 1.06045 17.3061 1.34734C17.5939 1.63424 17.6873 1.97566 17.7238 2.24658C17.7552 2.47898 17.7551 2.75514 17.755 3.01426C17.755 3.02839 17.755 3.04247 17.755 3.05649V4.45376C17.755 4.46778 17.755 4.48186 17.755 4.496C17.7551 4.75513 17.7552 5.03127 17.7238 5.26367C17.6873 5.5346 17.5939 5.87602 17.3061 6.16291C17.0182 6.44981 16.6756 6.54287 16.4038 6.57929C16.1706 6.61054 15.8935 6.61043 15.6335 6.61034C15.6194 6.61033 15.6052 6.61033 15.5911 6.61033H14.1892C14.1751 6.61033 14.161 6.61033 14.1468 6.61034C13.8868 6.61043 13.6098 6.61054 13.3766 6.57929C13.1048 6.54287 12.7621 6.44981 12.4743 6.16291C12.1864 5.87602 12.0931 5.5346 12.0565 5.26367C12.0252 5.03127 12.0253 4.75512 12.0254 4.49599C12.0254 4.48186 12.0254 4.46778 12.0254 4.45376V3.05649C12.0254 3.04248 12.0254 3.02839 12.0254 3.01426C12.0253 2.75514 12.0252 2.47898 12.0565 2.24658C12.0931 1.97566 12.1864 1.63424 12.4743 1.34734C12.7621 1.06045 13.1048 0.967394 13.3766 0.930962C13.6098 0.89972 13.8869 0.89982 14.1468 0.899912ZM13.8309 2.69936C13.8286 2.79706 13.8286 2.91103 13.8286 3.05649V4.45376C13.8286 4.59923 13.8286 4.71319 13.8309 4.81089C13.9289 4.81313 14.0432 4.81318 14.1892 4.81318H15.5911C15.7371 4.81318 15.8515 4.81313 15.9495 4.81089C15.9517 4.71319 15.9517 4.59923 15.9517 4.45376V3.05649C15.9517 2.91103 15.9517 2.79706 15.9495 2.69936C15.8515 2.69712 15.7371 2.69707 15.5911 2.69707H14.1892C14.0432 2.69707 13.9289 2.69712 13.8309 2.69936Z" fill="#254434"/>
<path d="M8.78125 1.89269C8.78125 1.55382 8.78125 1.38437 8.88687 1.2791C8.9925 1.17383 9.16251 1.17383 9.50252 1.17383H9.805C10.145 1.17383 10.315 1.17383 10.4207 1.2791C10.5264 1.38437 10.5263 1.55382 10.5263 1.89269V2.1942C10.5263 2.53307 10.5264 2.70251 10.4207 2.80778C10.315 2.91306 10.145 2.91306 9.805 2.91306H9.50252C9.16251 2.91306 8.9925 2.91306 8.88687 2.80778C8.78125 2.70251 8.78125 2.53307 8.78125 2.1942V1.89269Z" fill="#254434"/>
<path d="M8.78125 5.37071C8.78125 5.03184 8.78125 4.8624 8.88687 4.75713C8.9925 4.65186 9.16251 4.65186 9.50252 4.65186H9.805C10.145 4.65186 10.315 4.65186 10.4207 4.75713C10.5264 4.8624 10.5263 5.03184 10.5263 5.37071V5.67223C10.5263 6.0111 10.5264 6.18053 10.4207 6.28581C10.315 6.39109 10.145 6.39109 9.805 6.39109H9.50252C9.16251 6.39109 8.9925 6.39109 8.88687 6.28581C8.78125 6.18053 8.78125 6.0111 8.78125 5.67223V5.37071Z" fill="#254434"/>
<path d="M8.78125 8.84923C8.78125 8.51036 8.78125 8.34092 8.88687 8.23564C8.9925 8.13037 9.16251 8.13037 9.50252 8.13037H9.805C10.145 8.13037 10.315 8.13037 10.4207 8.23564C10.5264 8.34092 10.5263 8.51036 10.5263 8.84923V9.15074C10.5263 9.48959 10.5264 9.65906 10.4207 9.76436C10.315 9.86957 10.145 9.86957 9.805 9.86957H9.50252C9.16251 9.86957 8.9925 9.86957 8.88687 9.76436C8.78125 9.65906 8.78125 9.48959 8.78125 9.15074V8.84923Z" fill="#254434"/>
<path d="M8.78125 12.3277C8.78125 11.9889 8.78125 11.8195 8.88687 11.7142C8.9925 11.6089 9.16251 11.6089 9.50252 11.6089H9.805C10.145 11.6089 10.315 11.6089 10.4207 11.7142C10.5264 11.8195 10.5263 11.9889 10.5263 12.3277V12.6293C10.5263 12.9682 10.5264 13.1375 10.4207 13.2428C10.315 13.3481 10.145 13.3481 9.805 13.3481H9.50252C9.16251 13.3481 8.9925 13.3481 8.88687 13.2428C8.78125 13.1375 8.78125 12.9682 8.78125 12.6293V12.3277Z" fill="#254434"/>
<path d="M8.78125 15.8062C8.78125 15.4674 8.78125 15.2979 8.88687 15.1926C8.9925 15.0874 9.16251 15.0874 9.50252 15.0874H9.805C10.145 15.0874 10.315 15.0874 10.4207 15.1926C10.5264 15.2979 10.5263 15.4674 10.5263 15.8062V16.1077C10.5263 16.4466 10.5264 16.6161 10.4207 16.7214C10.315 16.8266 10.145 16.8266 9.805 16.8266H9.50252C9.16251 16.8266 8.9925 16.8266 8.88687 16.7214C8.78125 16.6161 8.78125 16.4466 8.78125 16.1077V15.8062Z" fill="#254434"/>
<path d="M12.2715 15.8062C12.2715 15.4674 12.2715 15.2979 12.3771 15.1926C12.4827 15.0874 12.6527 15.0874 12.9927 15.0874H13.2953C13.6353 15.0874 13.8054 15.0874 13.9109 15.1926C14.0166 15.2979 14.0166 15.4674 14.0166 15.8062V16.1077C14.0166 16.4466 14.0166 16.6161 13.9109 16.7214C13.8054 16.8266 13.6353 16.8266 13.2953 16.8266H12.9927C12.6527 16.8266 12.4827 16.8266 12.3771 16.7214C12.2715 16.6161 12.2715 16.4466 12.2715 16.1077V15.8062Z" fill="#254434"/>
<path d="M15.625 15.8062C15.625 15.4674 15.625 15.2979 15.7307 15.1926C15.8363 15.0874 16.0063 15.0874 16.3463 15.0874H16.6488C16.9889 15.0874 17.1589 15.0874 17.2644 15.1926C17.3701 15.2979 17.3701 15.4674 17.3701 15.8062V16.1077C17.3701 16.4466 17.3701 16.6161 17.2644 16.7214C17.1589 16.8266 16.9889 16.8266 16.6488 16.8266H16.3463C16.0063 16.8266 15.8363 16.8266 15.7307 16.7214C15.625 16.6161 15.625 16.4466 15.625 16.1077V15.8062Z" fill="#254434"/>
<path d="M16.7856 8.13037C17.1256 8.13037 17.2956 8.13037 17.4012 8.23564C17.5068 8.34092 17.5068 8.51036 17.5068 8.84923V9.15074C17.5068 9.48959 17.5068 9.65906 17.4012 9.76436C17.2956 9.86957 17.1256 9.86957 16.7856 9.86957H16.4831C16.143 9.86957 15.973 9.86957 15.8674 9.76436C15.7617 9.65906 15.7617 9.48959 15.7617 9.15074V8.84923C15.7617 8.51036 15.7617 8.34092 15.8674 8.23564C15.973 8.13037 16.143 8.13037 16.4831 8.13037H16.7856Z" fill="#254434"/>
<path d="M16.7856 11.6089C17.1256 11.6089 17.2956 11.6089 17.4012 11.7142C17.5068 11.8195 17.5068 11.9889 17.5068 12.3277V12.6293C17.5068 12.9682 17.5068 13.1375 17.4012 13.2428C17.2956 13.3481 17.1256 13.3481 16.7856 13.3481H16.4831C16.143 13.3481 15.973 13.3481 15.8674 13.2428C15.7617 13.1375 15.7617 12.9682 15.7617 12.6293V12.3277C15.7617 11.9889 15.7617 11.8195 15.8674 11.7142C15.973 11.6089 16.143 11.6089 16.4831 11.6089H16.7856Z" fill="#254434"/>
<path d="M13.2953 8.13037C13.6353 8.13037 13.8054 8.13037 13.9109 8.23564C14.0166 8.34092 14.0166 8.51036 14.0166 8.84923V9.15074C14.0166 9.48959 14.0166 9.65906 13.9109 9.76436C13.8054 9.86957 13.6353 9.86957 13.2953 9.86957H12.9927C12.6527 9.86957 12.4827 9.86957 12.3771 9.76436C12.2715 9.65906 12.2715 9.48959 12.2715 9.15074V8.84923C12.2715 8.51036 12.2715 8.34092 12.3771 8.23564C12.4827 8.13037 12.6527 8.13037 12.9927 8.13037H13.2953Z" fill="#254434"/>
<path d="M13.2953 11.6089C13.6353 11.6089 13.8054 11.6089 13.9109 11.7142C14.0166 11.8195 14.0166 11.9889 14.0166 12.3277V12.6293C14.0166 12.9682 14.0166 13.1375 13.9109 13.2428C13.8054 13.3481 13.6353 13.3481 13.2953 13.3481H12.9927C12.6527 13.3481 12.4827 13.3481 12.3771 13.2428C12.2715 13.1375 12.2715 12.9682 12.2715 12.6293V12.3277C12.2715 11.9889 12.2715 11.8195 12.3771 11.7142C12.4827 11.6089 12.6527 11.6089 12.9927 11.6089H13.2953Z" fill="#254434"/>
<path d="M6.31481 8.13037C6.65481 8.13037 6.82482 8.13037 6.93045 8.23564C7.03608 8.34092 7.03608 8.51036 7.03608 8.84923V9.15074C7.03608 9.48959 7.03608 9.65906 6.93045 9.76436C6.82482 9.86957 6.65481 9.86957 6.3148 9.86957H6.01228C5.67227 9.86957 5.50226 9.86957 5.39664 9.76436C5.29102 9.65906 5.29102 9.48959 5.29102 9.15074V8.84923C5.29102 8.51036 5.29102 8.34092 5.39664 8.23564C5.50226 8.13037 5.67227 8.13037 6.01228 8.13037H6.31481Z" fill="#254434"/>
<path d="M2.82458 8.13037C3.16459 8.13037 3.3346 8.13037 3.44022 8.23564C3.54585 8.34092 3.54585 8.51036 3.54585 8.84923V9.15074C3.54585 9.48959 3.54585 9.65906 3.44022 9.76436C3.3346 9.86957 3.16459 9.86957 2.82458 9.86957H2.52205C2.18205 9.86957 2.01204 9.86957 1.90641 9.76436C1.80078 9.65906 1.80078 9.48959 1.80078 9.15074V8.84923C1.80078 8.51036 1.80078 8.34092 1.90641 8.23564C2.01204 8.13037 2.18205 8.13037 2.52205 8.13037H2.82458Z" fill="#254434"/>
</svg>
