<svg width="16" height="15" viewBox="0 0 16 15" fill="none" xmlns="http://www.w3.org/2000/svg">
<path fill-rule="evenodd" clip-rule="evenodd" d="M4.56055 3.43744C4.5605 3.01971 4.68925 2.61212 4.92925 2.27022C5.16925 1.92831 5.50883 1.66871 5.90171 1.52679C6.2946 1.38488 6.72169 1.36754 7.12478 1.47715C7.52788 1.58676 7.88738 1.81799 8.1543 2.13932C8.49416 1.72588 8.98346 1.46328 9.51586 1.40859C10.0483 1.3539 10.5807 1.51154 10.9976 1.84725C11.4144 2.18296 11.6819 2.66961 11.7419 3.20144C11.8019 3.73327 11.6496 4.26729 11.318 4.68744H11.9043C12.1095 4.68744 12.3127 4.72786 12.5022 4.80638C12.6918 4.88491 12.8641 5 13.0092 5.14509C13.1542 5.29018 13.2693 5.46243 13.3479 5.652C13.4264 5.84157 13.4668 6.04475 13.4668 6.24994V7.03119C13.4668 7.15552 13.4174 7.27474 13.3295 7.36265C13.2416 7.45056 13.1224 7.49994 12.998 7.49994H8.81055C8.78592 7.49994 8.76154 7.4951 8.73879 7.48567C8.71605 7.47625 8.69537 7.46244 8.67796 7.44503C8.66055 7.42762 8.64674 7.40695 8.63732 7.3842C8.6279 7.36145 8.62305 7.33707 8.62305 7.31244V5.14994C8.44663 5.03646 8.28857 4.89673 8.1543 4.73557C8.01998 4.89651 7.86191 5.03603 7.68555 5.14932V7.31244C7.68555 7.36217 7.66579 7.40986 7.63063 7.44503C7.59547 7.48019 7.54777 7.49994 7.49805 7.49994H3.31055C3.18623 7.49994 3.067 7.45056 2.97909 7.36265C2.89118 7.27474 2.8418 7.15552 2.8418 7.03119V6.24994C2.8418 6.04475 2.88221 5.84157 2.96074 5.652C3.03926 5.46243 3.15435 5.29018 3.29944 5.14509C3.44453 5 3.61678 4.88491 3.80635 4.80638C3.99593 4.72786 4.19911 4.68744 4.4043 4.68744H4.99055C4.71142 4.33061 4.56002 3.89048 4.56055 3.43744ZM7.68555 3.43744C7.68555 3.14736 7.57031 2.86916 7.3652 2.66405C7.16008 2.45893 6.88188 2.34369 6.5918 2.34369C6.30172 2.34369 6.02352 2.45893 5.8184 2.66405C5.61328 2.86916 5.49805 3.14736 5.49805 3.43744C5.49805 3.72753 5.61328 4.00572 5.8184 4.21084C6.02352 4.41596 6.30172 4.53119 6.5918 4.53119C6.88188 4.53119 7.16008 4.41596 7.3652 4.21084C7.57031 4.00572 7.68555 3.72753 7.68555 3.43744ZM8.62305 3.43744C8.62305 3.58108 8.65134 3.7233 8.7063 3.856C8.76127 3.9887 8.84183 4.10928 8.9434 4.21084C9.04496 4.31241 9.16554 4.39297 9.29824 4.44794C9.43094 4.5029 9.57316 4.53119 9.7168 4.53119C9.86043 4.53119 10.0027 4.5029 10.1354 4.44794C10.2681 4.39297 10.3886 4.31241 10.4902 4.21084C10.5918 4.10928 10.6723 3.9887 10.7273 3.856C10.7823 3.7233 10.8105 3.58108 10.8105 3.43744C10.8105 3.14736 10.6953 2.86916 10.4902 2.66405C10.2851 2.45893 10.0069 2.34369 9.7168 2.34369C9.42672 2.34369 9.14852 2.45893 8.9434 2.66405C8.73828 2.86916 8.62305 3.14736 8.62305 3.43744Z" fill="#254434" fill-opacity="0.7"/>
<path d="M7.68551 8.53125C7.68551 8.48152 7.66576 8.43383 7.63059 8.39867C7.59543 8.36351 7.54774 8.34375 7.49801 8.34375H4.18489C4.06209 8.34352 3.9432 8.38686 3.84935 8.46605C3.75551 8.54525 3.6928 8.65517 3.67239 8.77625C3.53368 9.58619 3.53368 10.4138 3.67239 11.2238L3.81239 12.0419C3.85856 12.3099 3.99045 12.5556 4.18824 12.7423C4.38603 12.9289 4.63904 13.0463 4.90926 13.0769L5.57489 13.1513C6.21364 13.2225 6.85343 13.2673 7.49426 13.2856C7.51915 13.2861 7.54388 13.2817 7.56702 13.2725C7.59016 13.2633 7.61125 13.2497 7.62905 13.2323C7.64685 13.2149 7.66101 13.1941 7.67071 13.1712C7.6804 13.1483 7.68543 13.1236 7.68551 13.0988V8.53125ZM8.81426 13.2856C8.78938 13.2861 8.76464 13.2817 8.7415 13.2725C8.71836 13.2633 8.69727 13.2497 8.67947 13.2323C8.66167 13.2149 8.64751 13.1941 8.63782 13.1712C8.62812 13.1483 8.62309 13.1236 8.62301 13.0988V8.53125C8.62301 8.48152 8.64277 8.43383 8.67793 8.39867C8.71309 8.36351 8.76078 8.34375 8.81051 8.34375H12.1236C12.3774 8.34375 12.5936 8.52625 12.6361 8.77625C12.7755 9.58625 12.7755 10.4138 12.6361 11.2238L12.4968 12.0419C12.4506 12.31 12.3186 12.5558 12.1207 12.7425C11.9227 12.9291 11.6696 13.0465 11.3993 13.0769L10.7336 13.1513C10.096 13.2227 9.45564 13.2675 8.81426 13.2856Z" fill="#254434" fill-opacity="0.7"/>
</svg>
