<svg width="15" height="14" viewBox="0 0 15 14" fill="none" xmlns="http://www.w3.org/2000/svg">
<path fill-rule="evenodd" clip-rule="evenodd" d="M4.8681 0.711426C4.00948 0.711426 3.30986 1.33249 3.14586 2.13569H2.58089C1.80786 2.13569 1.22807 2.85517 1.37967 3.62632L1.74279 5.47339C1.87847 6.1635 2.27643 6.77123 2.85017 7.16447L3.80726 7.82037C3.82335 7.93125 3.83911 8.02323 3.86045 8.11136C4.05237 8.90411 4.59022 9.564 5.32047 9.90266C5.44756 9.9616 5.58634 10.0086 5.78803 10.077L7.13015 10.5321L7.13014 12.2432H5.55513C5.26518 12.2432 5.03013 12.4824 5.03013 12.7773C5.03013 13.0723 5.26518 13.3114 5.55513 13.3114H9.75517C10.0451 13.3114 10.2802 13.0723 10.2802 12.7773C10.2802 12.4824 10.0451 12.2432 9.75517 12.2432H8.18017V10.5321L9.52235 10.077C9.72402 10.0086 9.86276 9.9616 9.98988 9.90266C10.7201 9.564 11.258 8.90411 11.4499 8.11136C11.4712 8.02323 11.487 7.93118 11.5031 7.82037L12.4601 7.16447C13.0339 6.77123 13.4318 6.1635 13.5675 5.47339L13.9306 3.62632C14.0822 2.85517 13.5024 2.13569 12.7294 2.13569H12.1645C12.0005 1.33249 11.3008 0.711426 10.4422 0.711426H4.8681ZM11.8734 6.27853L11.694 6.40158L12.1226 3.20389H12.7294C12.8399 3.20389 12.9227 3.30667 12.901 3.41683L12.5379 5.2639C12.4565 5.67796 12.2177 6.0426 11.8734 6.27853ZM2.58089 3.20389H3.18779L3.61641 6.40161L3.43683 6.27853C3.09259 6.0426 2.8538 5.67796 2.7724 5.2639L2.40928 3.41683C2.38762 3.30667 2.47046 3.20389 2.58089 3.20389ZM7.55855 3.54794C7.63395 3.52295 7.71537 3.52295 7.79083 3.54794C7.88659 3.57966 7.94868 3.66013 7.99831 3.7436C8.04871 3.82834 8.1024 3.94549 8.16827 4.08931L8.17142 4.09617C8.21594 4.1934 8.22644 4.21154 8.23897 4.22378C8.24744 4.23203 8.25703 4.23901 8.26753 4.24451C8.283 4.25268 8.30351 4.25703 8.40977 4.26935L8.43714 4.27252C8.58575 4.28976 8.70685 4.30379 8.79827 4.32394C8.88822 4.34377 8.97936 4.37508 9.039 4.4492C9.0957 4.51966 9.12454 4.60847 9.12013 4.69879C9.11544 4.79382 9.06007 4.87274 8.99896 4.94163C8.93687 5.01165 8.84713 5.0942 8.73702 5.19551L8.73177 5.20034C8.64938 5.27611 8.63468 5.29254 8.62684 5.30883C8.62054 5.32203 8.61662 5.33625 8.61536 5.35083C8.61368 5.36881 8.61795 5.39046 8.65001 5.49769L8.65701 5.52096C8.70846 5.69328 8.75032 5.83313 8.76957 5.94194C8.78854 6.0487 8.79351 6.16251 8.72778 6.25482C8.69222 6.30483 8.64469 6.34518 8.5896 6.37221C8.48789 6.42212 8.37638 6.39881 8.27411 6.36285C8.16981 6.32623 8.03856 6.26236 7.87686 6.18366L7.82429 6.15808C7.72209 6.10836 7.70151 6.10084 7.68261 6.09979C7.67771 6.09953 7.67281 6.09955 7.66798 6.09986C7.64905 6.10105 7.62852 6.10873 7.52674 6.15927L7.47948 6.18274C7.31606 6.26388 7.18352 6.3297 7.07823 6.36756C6.97501 6.40469 6.86229 6.42903 6.75942 6.37844C6.70574 6.35204 6.65928 6.31299 6.62404 6.26466C6.55649 6.17202 6.56108 6.05679 6.57989 5.94872C6.59908 5.8385 6.6411 5.69661 6.69291 5.52166L6.70003 5.49763C6.73178 5.39044 6.73599 5.36881 6.73432 5.35084C6.73297 5.33635 6.72907 5.32221 6.72278 5.30909C6.71499 5.29281 6.70027 5.27641 6.618 5.20072L6.61273 5.19588C6.50243 5.09441 6.41257 5.01174 6.35039 4.9416C6.28921 4.8726 6.2338 4.79354 6.22923 4.69835C6.22491 4.60833 6.25367 4.51984 6.31007 4.44955C6.36972 4.37523 6.46102 4.34384 6.55108 4.32397C6.6426 4.30378 6.76389 4.28972 6.91277 4.27246L6.9396 4.26935C7.04583 4.25703 7.06633 4.25268 7.08184 4.24451C7.0923 4.23901 7.10191 4.23203 7.11038 4.22378C7.12294 4.21154 7.13341 4.1934 7.17796 4.09617L7.1811 4.0893C7.24699 3.94548 7.30065 3.82834 7.35104 3.7436C7.40066 3.66013 7.46279 3.57966 7.55855 3.54794Z" fill="#254434" fill-opacity="0.7"/>
</svg>
