<svg width="29" height="26" viewBox="0 0 29 26" fill="none" xmlns="http://www.w3.org/2000/svg">
<path fill-rule="evenodd" clip-rule="evenodd" d="M24.5654 1.36113C21.1736 0.813581 17.7432 0.539986 14.3075 0.542993C10.8163 0.542993 7.39079 0.824031 4.04956 1.36113C1.80593 1.72179 0.255539 3.6875 0.255539 5.89209V13.9298C0.255539 16.1359 1.80593 18.0985 4.04956 18.4608C6.72771 18.8927 9.4306 19.154 12.1419 19.243C12.4511 19.2506 12.7459 19.3757 12.9663 19.5927L18.5543 25.1823C18.7181 25.3459 18.9268 25.4573 19.154 25.5023C19.3811 25.5474 19.6166 25.5241 19.8305 25.4353C20.0444 25.3466 20.2272 25.1964 20.3557 25.0038C20.4843 24.8112 20.5529 24.5848 20.5528 24.3532V18.9775C21.8954 18.8481 23.2336 18.6763 24.5654 18.4623C26.809 18.0985 28.3594 16.1344 28.3594 13.9282V5.89209C28.3594 3.68594 26.809 1.72335 24.5654 1.36113Z" fill="#254434"/>
</svg>
