<svg width="29" height="26" viewBox="0 0 29 26" fill="none" xmlns="http://www.w3.org/2000/svg">
<path fill-rule="evenodd" clip-rule="evenodd" d="M24.4365 0.995893C21.0446 0.448347 17.6143 0.174752 14.1786 0.177759C10.6874 0.177759 7.26188 0.458797 3.92065 0.995893C1.67703 1.35656 0.126633 3.32227 0.126633 5.52686V13.5646C0.126633 15.7707 1.67703 17.7333 3.92065 18.0955C6.5988 18.5275 9.30169 18.7887 12.013 18.8777C12.3222 18.8854 12.617 19.0104 12.8374 19.2275L18.4254 24.817C18.5892 24.9807 18.7979 25.0921 19.0251 25.1371C19.2522 25.1822 19.4876 25.1588 19.7016 25.0701C19.9155 24.9814 20.0983 24.8312 20.2268 24.6386C20.3554 24.446 20.424 24.2195 20.4238 23.988V18.6123C21.7665 18.4829 23.1047 18.3111 24.4365 18.0971C26.6801 17.7333 28.2305 15.7691 28.2305 13.563V5.52686C28.2305 3.3207 26.6801 1.35812 24.4365 0.995893Z" fill="#FFC783"/>
</svg>
