<svg width="29" height="26" viewBox="0 0 29 26" fill="none" xmlns="http://www.w3.org/2000/svg">
<path fill-rule="evenodd" clip-rule="evenodd" d="M24.7392 1.18095C21.3474 0.633406 17.917 0.359811 14.4813 0.362817C10.9902 0.362817 7.56462 0.643856 4.22338 1.18095C1.97976 1.54162 0.429367 3.50732 0.429367 5.71191V13.7496C0.429367 15.9558 1.97976 17.9183 4.22338 18.2806C6.90153 18.7125 9.60443 18.9738 12.3157 19.0628C12.625 19.0704 12.9197 19.1955 13.1401 19.4125L18.7281 25.0021C18.8919 25.1657 19.1006 25.2771 19.3278 25.3222C19.555 25.3672 19.7904 25.3439 20.0043 25.2552C20.2182 25.1664 20.401 25.0162 20.5296 24.8236C20.6581 24.631 20.7267 24.4046 20.7266 24.173V18.7974C22.0692 18.6679 23.4074 18.4961 24.7392 18.2821C26.9828 17.9183 28.5332 15.9542 28.5332 13.748V5.71191C28.5332 3.50576 26.9828 1.54318 24.7392 1.18095Z" fill="#FFE49F"/>
</svg>
