<svg width="42" height="40" viewBox="0 0 42 40" fill="none" xmlns="http://www.w3.org/2000/svg">
<path d="M37.6669 24.7671C38.304 24.0103 38.2724 22.9193 37.6393 22.1979C37.6768 22.1448 37.7142 22.0898 37.7478 22.0328C38.2428 21.1777 38.0219 20.1083 37.2724 19.5068C37.3 19.4479 37.3257 19.3869 37.3493 19.324C37.6886 18.3962 37.2843 17.3799 36.442 16.9199C36.4598 16.857 36.4756 16.7922 36.4854 16.7273C36.657 15.7543 36.0831 14.8245 35.1718 14.5159C35.1777 14.451 35.1817 14.3861 35.1817 14.3193C35.1817 13.3305 34.4539 12.5148 33.5032 12.3693C33.4973 12.3044 33.4894 12.2396 33.4795 12.1727C33.3079 11.1997 32.448 10.5215 31.4874 10.5432C31.4716 10.4803 31.4519 10.4173 31.4282 10.3544C31.089 9.42663 30.1245 8.90768 29.1817 9.09442C29.1541 9.03545 29.1245 8.97648 29.091 8.91947C28.5959 8.06439 27.5545 7.72038 26.659 8.06635C26.6215 8.01328 26.5821 7.9602 26.5387 7.90909C25.9016 7.15229 24.8168 6.99307 23.9943 7.4904C23.9489 7.44322 23.8996 7.39801 23.8484 7.35673C23.089 6.7218 21.9943 6.75325 21.2704 7.38425C21.2172 7.3469 21.162 7.30955 21.1048 7.27613C20.2468 6.78274 19.1738 7.0029 18.5702 7.74987C18.5111 7.72235 18.4499 7.6968 18.3868 7.67321C17.4558 7.3351 16.4361 7.73808 15.9746 8.57744C15.9115 8.55975 15.8464 8.54402 15.7813 8.53419C14.805 8.36317 13.872 8.9352 13.5624 9.84336C13.4973 9.83746 13.4322 9.83353 13.3651 9.83353C12.373 9.83353 11.5545 10.5589 11.4085 11.5064C11.3434 11.5123 11.2783 11.5201 11.2113 11.5299C10.2349 11.701 9.55446 12.558 9.57616 13.5153C9.51304 13.531 9.44993 13.5507 9.38681 13.5743C8.45584 13.9124 7.93513 14.8736 8.12251 15.8132C8.06334 15.8408 8.00417 15.8702 7.94697 15.9037C7.08898 16.3971 6.74381 17.435 7.09095 18.3274C7.0377 18.3647 6.98444 18.4041 6.93316 18.4473C6.17379 19.0822 6.01403 20.1634 6.51304 20.9831C6.46571 21.0283 6.42034 21.0774 6.37892 21.1285C5.74184 21.8853 5.7734 22.9763 6.40653 23.6977C6.36906 23.7508 6.33158 23.8058 6.29805 23.8629C5.80298 24.7179 6.02389 25.7873 6.7734 26.3888C6.74578 26.4478 6.72014 26.5087 6.69648 26.5716C6.35722 27.4994 6.76157 28.5157 7.60377 28.9757C7.58602 29.0386 7.57024 29.1035 7.56038 29.1683C7.38878 30.1414 7.96275 31.0711 8.87399 31.3798C8.86807 31.4446 8.86413 31.5095 8.86413 31.5763C8.86413 32.5651 9.59194 33.3809 10.5426 33.5263C10.5485 33.5912 10.5564 33.6561 10.5663 33.7229C10.7379 34.6959 11.5979 35.3741 12.5584 35.3525C12.5742 35.4154 12.5939 35.4783 12.6176 35.5412C12.9568 36.469 13.9213 36.9879 14.8641 36.8012C14.8917 36.8602 14.9213 36.9191 14.9549 36.9762C15.4499 37.8312 16.4913 38.1752 17.3868 37.8293C17.4243 37.8823 17.4637 37.9354 17.5071 37.9865C18.1442 38.7433 19.229 38.9025 20.0515 38.4052C20.0969 38.4524 20.1462 38.4976 20.1975 38.5389C20.9568 39.1738 22.0515 39.1424 22.7754 38.5114C22.8286 38.5487 22.8839 38.5861 22.9411 38.6195C23.799 39.1129 24.872 38.8927 25.4756 38.1458C25.5347 38.1733 25.5959 38.1988 25.659 38.2224C26.59 38.5605 27.6097 38.1575 28.0712 37.3182C28.1343 37.3359 28.1994 37.3516 28.2645 37.3614C29.2409 37.5324 30.1738 36.9604 30.4835 36.0523C30.5486 36.0582 30.6136 36.0621 30.6807 36.0621C31.6728 36.0621 32.4913 35.3367 32.6373 34.3893C32.7024 34.3834 32.7675 34.3755 32.8345 34.3657C33.8109 34.1947 34.4914 33.3376 34.4697 32.3803C34.5328 32.3646 34.5959 32.3449 34.659 32.3213C35.59 31.9832 36.1107 31.022 35.9233 30.0824C35.9825 30.0549 36.0416 30.0254 36.0988 29.992C36.9568 29.4986 37.302 28.4607 36.9549 27.5682C37.0081 27.5309 37.0614 27.4916 37.1127 27.4483C37.872 26.8134 38.0318 25.7323 37.5328 24.9125C37.5801 24.8673 37.6255 24.8182 37.6669 24.7671Z" fill="white" stroke="#B8B8B8" stroke-width="0.499077" stroke-miterlimit="10" stroke-linecap="round"/>
<path d="M22.0833 37.6149C30.1813 37.6149 36.746 31.0724 36.746 23.0018C36.746 14.9312 30.1813 8.38867 22.0833 8.38867C13.9853 8.38867 7.42053 14.9312 7.42053 23.0018C7.42053 31.0724 13.9853 37.6149 22.0833 37.6149Z" fill="white" stroke="#9D9D9D" stroke-opacity="0.7" stroke-width="0.499077" stroke-miterlimit="10" stroke-linecap="round"/>
<path d="M22.0535 33.7839C28.1439 33.7839 33.0811 28.8633 33.0811 22.7935C33.0811 16.7238 28.1439 11.8032 22.0535 11.8032C15.9631 11.8032 11.0259 16.7238 11.0259 22.7935C11.0259 28.8633 15.9631 33.7839 22.0535 33.7839Z" fill="#C8E0CA" stroke="#254434" stroke-opacity="0.5" stroke-width="0.499077" stroke-miterlimit="10"/>
<path d="M27.8839 24.0257C27.6946 23.153 25.807 22.8188 23.665 23.2788C23.089 23.4026 22.5545 23.5717 22.0831 23.7682C21.6117 23.5717 21.0772 23.4026 20.5013 23.2788C18.3592 22.8188 16.4717 23.153 16.2823 24.0257C16.093 24.8985 17.6768 25.9797 19.8168 26.4396C20.6354 26.6166 21.4184 26.6755 22.0811 26.6323C22.7458 26.6736 23.5269 26.6146 24.3454 26.4396C26.4874 25.9797 28.0693 24.8985 27.88 24.0257H27.8839Z" fill="#FFCA55" fill-opacity="0.7" stroke="#C9850E" stroke-opacity="0.5" stroke-width="0.499077" stroke-miterlimit="10"/>
<path d="M20.6394 19.7347C20.6276 19.7387 20.6177 19.7524 20.6039 19.7721C20.5546 19.8782 20.4658 20.0001 20.3514 20.0552C20.0043 20.2517 19.5368 19.9687 19.5664 19.5618C19.5664 19.4183 19.6512 19.2905 19.7321 19.1824C19.7834 19.0546 19.3435 19.1214 19.2587 19.1352C17.7143 19.4812 18.0102 21.6159 19.6118 21.5609C20.2844 21.5373 20.8879 20.9496 20.8347 20.2635C20.8169 20.0886 20.7735 19.8389 20.6453 19.7328H20.6374L20.6394 19.7347Z" fill="black"/>
<path d="M25.6868 19.7347C25.6749 19.7387 25.6651 19.7524 25.6513 19.7721C25.6019 19.8782 25.5132 20.0001 25.3988 20.0552C25.0517 20.2517 24.5842 19.9687 24.6138 19.5618C24.6138 19.4183 24.6986 19.2905 24.7795 19.1824C24.8307 19.0546 24.3909 19.1214 24.3061 19.1352C22.7617 19.4812 23.0576 21.6159 24.6591 21.5609C25.3317 21.5373 25.9353 20.9496 25.882 20.2635C25.8643 20.0886 25.8209 19.8389 25.6927 19.7328H25.6848L25.6868 19.7347Z" fill="black"/>
<path d="M15.1718 22.762C16.2666 22.762 17.1541 22.3598 17.1541 21.8637C17.1541 21.3675 16.2666 20.9653 15.1718 20.9653C14.0771 20.9653 13.1896 21.3675 13.1896 21.8637C13.1896 22.3598 14.0771 22.762 15.1718 22.762Z" fill="#FFC0C0" stroke="#D88080" stroke-opacity="0.7" stroke-width="0.499077" stroke-miterlimit="10"/>
<path d="M28.8741 22.762C29.9689 22.762 30.8563 22.3598 30.8563 21.8637C30.8563 21.3675 29.9689 20.9653 28.8741 20.9653C27.7793 20.9653 26.8918 21.3675 26.8918 21.8637C26.8918 22.3598 27.7793 22.762 28.8741 22.762Z" fill="#FFC0C0" stroke="#D88080" stroke-opacity="0.7" stroke-width="0.499077" stroke-miterlimit="10"/>
<path d="M4.97408 8.92128C7.1689 8.92128 8.94816 7.14804 8.94816 4.96064C8.94816 2.77324 7.1689 1 4.97408 1C2.77926 1 1 2.77324 1 4.96064C1 7.14804 2.77926 8.92128 4.97408 8.92128Z" fill="#C8E0CA" stroke="#254434" stroke-opacity="0.5" stroke-width="0.425908" stroke-miterlimit="10"/>
<path d="M37.026 8.92128C39.2208 8.92128 41 7.14804 41 4.96064C41 2.77324 39.2208 1 37.026 1C34.8311 1 33.0519 2.77324 33.0519 4.96064C33.0519 7.14804 34.8311 8.92128 37.026 8.92128Z" fill="#C8E0CA" stroke="#254434" stroke-opacity="0.5" stroke-width="0.425908" stroke-miterlimit="10"/>
</svg>
