<svg width="52" height="38" viewBox="0 0 52 38" fill="none" xmlns="http://www.w3.org/2000/svg">
<path d="M48.1364 4.43323C45.4202 4.04088 43.298 5.23777 42.513 5.69405C42.1892 5.88361 39.7618 7.33399 39.3705 9.3222C39.2214 10.076 39.4753 10.3626 39.5358 10.4265C39.9482 10.8541 40.838 10.6558 41.1898 10.5852C44.4395 9.91955 45.4342 11.0922 47.8056 10.1113C49.7694 9.30016 51.8683 7.34501 51.4443 6.00925C51.0763 4.85644 48.9448 4.54785 48.1364 4.43103V4.43323Z" fill="#EFE8DC" stroke="#756238" stroke-width="0.533713" stroke-miterlimit="10" stroke-linecap="round"/>
<path d="M4.36304 4.43323C7.07925 4.04088 9.20144 5.23777 9.98649 5.69405C10.3103 5.88361 12.7376 7.33399 13.129 9.3222C13.2781 10.076 13.0242 10.3626 12.9636 10.4265C12.5513 10.8541 11.6614 10.6558 11.3097 10.5852C8.05998 9.91955 7.06528 11.0922 4.69383 10.1113C2.73005 9.30016 0.631157 7.34501 1.05513 6.00925C1.42319 4.85644 3.5547 4.54785 4.36304 4.43103V4.43323Z" fill="#EFE8DC" stroke="#756238" stroke-width="0.533713" stroke-miterlimit="10" stroke-linecap="round"/>
<path d="M2.03357 5.89883C6.07528 5.44476 9.66273 6.66149 11.1187 9.12141C11.4308 9.65042 11.7663 10.4417 11.8292 11.5394" fill="#EFE8DC"/>
<path d="M2.03357 5.89883C6.07528 5.44476 9.66273 6.66149 11.1187 9.12141C11.4308 9.65042 11.7663 10.4417 11.8292 11.5394" stroke="#756238" stroke-width="0.533713" stroke-miterlimit="10" stroke-linecap="round"/>
<path d="M50.2939 5.89883C46.2522 5.44476 42.6647 6.66149 41.2088 9.12141C40.8966 9.65042 40.5612 10.4417 40.4983 11.5394" fill="#EFE8DC"/>
<path d="M50.2939 5.89883C46.2522 5.44476 42.6647 6.66149 41.2088 9.12141C40.8966 9.65042 40.5612 10.4417 40.4983 11.5394" stroke="#756238" stroke-width="0.533713" stroke-miterlimit="10" stroke-linecap="round"/>
<path d="M44.7098 21.04C45.4622 20.1914 45.4249 18.968 44.6771 18.1591C44.7214 18.0996 44.7657 18.0379 44.8053 17.9739C45.39 17.0151 45.1291 15.816 44.2439 15.1415C44.2765 15.0754 44.3068 15.007 44.3347 14.9365C44.7354 13.8961 44.2578 12.7565 43.2631 12.2407C43.2841 12.1702 43.3027 12.0975 43.3144 12.0247C43.517 10.9336 42.8392 9.89103 41.7629 9.54497C41.7699 9.47223 41.7746 9.39949 41.7746 9.32455C41.7746 8.21582 40.915 7.30107 39.7921 7.13796C39.7852 7.06522 39.7758 6.99248 39.7642 6.91753C39.5615 5.82644 38.5459 5.06598 37.4114 5.09023C37.3927 5.01969 37.3695 4.94916 37.3415 4.87862C36.9408 3.83823 35.8017 3.25631 34.6882 3.46571C34.6556 3.39959 34.6206 3.33346 34.581 3.26954C33.9963 2.3107 32.7663 1.92496 31.7087 2.31291C31.6645 2.25339 31.6179 2.19388 31.5666 2.13657C30.8142 1.28794 29.533 1.1094 28.5616 1.66707C28.508 1.61416 28.4497 1.56347 28.3892 1.51718C27.4923 0.805215 26.1994 0.840482 25.3445 1.54804C25.2816 1.50616 25.2164 1.46428 25.1488 1.42681C24.1355 0.873545 22.8682 1.12042 22.1554 1.95803C22.0855 1.92717 22.0133 1.89851 21.9387 1.87206C20.8392 1.49293 19.6349 1.9448 19.0897 2.886C19.0152 2.86616 18.9383 2.84853 18.8615 2.83751C17.7083 2.64574 16.6065 3.28717 16.2408 4.30552C16.1639 4.29891 16.087 4.2945 16.0078 4.2945C14.8361 4.2945 13.8693 5.10786 13.6969 6.1703C13.62 6.17691 13.5432 6.18573 13.464 6.19675C12.3109 6.38852 11.5072 7.34956 11.5328 8.42302C11.4583 8.44065 11.3837 8.46269 11.3092 8.48914C10.2096 8.86827 9.59465 9.94614 9.81595 10.9998C9.74606 11.0306 9.67618 11.0637 9.60862 11.1012C8.59528 11.6544 8.18762 12.8182 8.59761 13.819C8.53472 13.8608 8.47182 13.9049 8.41125 13.9534C7.51439 14.6654 7.3257 15.8777 7.91506 16.7969C7.85916 16.8476 7.80558 16.9027 7.75666 16.96C7.00423 17.8086 7.0415 19.032 7.78927 19.8409C7.74501 19.9004 7.70075 19.9621 7.66115 20.0261C7.07644 20.9849 7.33735 22.184 8.22256 22.8585C8.18995 22.9246 8.15967 22.993 8.13171 23.0635C7.73103 24.1039 8.20858 25.2435 9.20329 25.7593C9.18232 25.8298 9.16368 25.9025 9.15204 25.9753C8.94937 27.0664 9.62726 28.109 10.7035 28.455C10.6965 28.5278 10.6918 28.6005 10.6918 28.6755C10.6918 29.7842 11.5514 30.6989 12.6743 30.862C12.6813 30.9348 12.6906 31.0075 12.7022 31.0825C12.9049 32.1736 13.9206 32.934 15.055 32.9098C15.0737 32.9803 15.097 33.0508 15.1249 33.1214C15.5256 34.1618 16.6647 34.7437 17.7782 34.5343C17.8108 34.6004 17.8458 34.6665 17.8854 34.7305C18.4701 35.6893 19.7001 36.075 20.7577 35.6871C20.8019 35.7466 20.8485 35.8061 20.8998 35.8634C21.6522 36.7121 22.9334 36.8906 23.9049 36.3329C23.9584 36.3858 24.0167 36.4365 24.0772 36.4828C24.9741 37.1948 26.267 37.1595 27.1219 36.452C27.1848 36.4938 27.25 36.5357 27.3176 36.5732C28.3309 37.1264 29.5982 36.8796 30.311 36.042C30.3809 36.0728 30.4531 36.1015 30.5277 36.1279C31.6272 36.5071 32.8316 36.0552 33.3767 35.114C33.4512 35.1338 33.5281 35.1515 33.605 35.1625C34.7581 35.3543 35.8599 34.7128 36.2257 33.6945C36.3025 33.7011 36.3794 33.7055 36.4586 33.7055C37.6304 33.7055 38.5971 32.8921 38.7695 31.8297C38.8464 31.8231 38.9232 31.8143 39.0024 31.8032C40.1556 31.6115 40.9592 30.6504 40.9336 29.577C41.0082 29.5593 41.0827 29.5373 41.1572 29.5108C42.2568 29.1317 42.8718 28.0539 42.6505 27.0002C42.7204 26.9694 42.7902 26.9363 42.8578 26.8988C43.8711 26.3456 44.2788 25.1818 43.8688 24.181C43.9317 24.1392 43.9946 24.0951 44.0552 24.0466C44.952 23.3346 45.1407 22.1223 44.5513 21.2031C44.6073 21.1524 44.6608 21.0973 44.7098 21.04Z" fill="white" stroke="#B8B8B8" stroke-miterlimit="10" stroke-linecap="round"/>
<path d="M26.3065 35.4492C35.8708 35.4492 43.6241 28.1128 43.6241 19.063C43.6241 10.0131 35.8708 2.67676 26.3065 2.67676C16.7423 2.67676 8.98889 10.0131 8.98889 19.063C8.98889 28.1128 16.7423 35.4492 26.3065 35.4492Z" fill="white" stroke="#B8B8B8" stroke-miterlimit="10" stroke-linecap="round"/>
<path d="M26.2697 31.4196C33.4628 31.4196 39.294 25.9021 39.294 19.0958C39.294 12.2895 33.4628 6.77197 26.2697 6.77197C19.0765 6.77197 13.2454 12.2895 13.2454 19.0958C13.2454 25.9021 19.0765 31.4196 26.2697 31.4196Z" fill="#EFE8DC" stroke="#756238" stroke-width="0.533713" stroke-miterlimit="10" stroke-linecap="round"/>
<path d="M23.4599 15.2693C23.4459 15.2738 23.4342 15.2892 23.4203 15.3112C23.362 15.4303 23.2572 15.5647 23.1244 15.6264C22.7167 15.8468 22.1646 15.5294 22.1996 15.0754C22.1996 14.9145 22.2998 14.7712 22.3953 14.6522C22.4558 14.5089 21.9387 14.5838 21.8362 14.5993C20.0168 14.9872 20.3639 17.3744 22.2532 17.3127C23.0452 17.2862 23.7557 16.6293 23.6928 15.8601C23.6718 15.6639 23.6206 15.3862 23.4715 15.2649H23.4622L23.4599 15.2693Z" fill="black"/>
<path d="M31.6763 15.2693C31.6623 15.2738 31.6507 15.2892 31.6367 15.3112C31.5784 15.4303 31.4736 15.5647 31.3408 15.6264C30.9332 15.8468 30.3811 15.5294 30.416 15.0754C30.416 14.9145 30.5162 14.7712 30.6117 14.6522C30.6723 14.5089 30.1551 14.5838 30.0526 14.5993C28.2333 14.9872 28.5804 17.3744 30.4696 17.3127C31.2616 17.2862 31.9721 16.6293 31.9092 15.8601C31.8883 15.6639 31.837 15.3862 31.6879 15.2649H31.6786L31.6763 15.2693Z" fill="black"/>
<path d="M18.1444 20.1362C19.4374 20.1362 20.4855 19.6852 20.4855 19.1289C20.4855 18.5726 19.4374 18.1216 18.1444 18.1216C16.8514 18.1216 15.8032 18.5726 15.8032 19.1289C15.8032 19.6852 16.8514 20.1362 18.1444 20.1362Z" fill="#FFC0C0" stroke="#D88080" stroke-width="0.533713" stroke-miterlimit="10"/>
<path d="M34.3252 20.1362C35.6182 20.1362 36.6663 19.6852 36.6663 19.1289C36.6663 18.5726 35.6182 18.1216 34.3252 18.1216C33.0322 18.1216 31.984 18.5726 31.984 19.1289C31.984 19.6852 33.0322 20.1362 34.3252 20.1362Z" fill="#FFC0C0" stroke="#D88080" stroke-width="0.533713" stroke-miterlimit="10"/>
<path d="M26.3002 18.9283C25.762 18.9349 25.2309 18.7674 24.7604 18.5558C24.5251 18.4698 24.2991 18.3552 24.0708 18.4433C23.7097 18.677 23.938 19.3427 24.2618 19.7637C25.1564 20.8592 27.1248 20.9121 28.1265 19.9334C28.462 19.6358 28.9418 18.6968 28.4293 18.4808C28.0287 18.4037 27.5721 18.7563 26.9734 18.8622C26.7614 18.9062 26.5471 18.9283 26.3304 18.9283H26.3002Z" fill="black" stroke="white" stroke-width="0.533713" stroke-miterlimit="10" stroke-linecap="round"/>
<path d="M25.312 21.2783L26.1996 22.1512L27.0871 21.2783" stroke="black" stroke-width="0.533713" stroke-miterlimit="10"/>
</svg>
