<svg width="40" height="48" viewBox="0 0 40 48" fill="none" xmlns="http://www.w3.org/2000/svg">
<path d="M11.1319 1.02016C9.75215 1.46473 9.23097 5.57755 8.90756 7.71479C8.72376 9.44075 8.26773 12.5646 9.20305 13.9815C9.96853 14.9633 11.0528 14.8207 11.9323 14.7993C13.5307 14.6234 18.6401 13.7485 18.9751 11.4211C19.1496 9.68086 17.1161 6.99921 16.118 5.57042C14.8313 3.89676 12.5395 0.734878 11.1458 1.01778L11.1319 1.02254V1.02016Z" fill="#FFC783" stroke="#775026" stroke-width="0.480159" stroke-miterlimit="10" stroke-linecap="round"/>
<path d="M28.9634 1.02016C30.3431 1.46473 30.8643 5.57755 31.1877 7.71479C31.3715 9.44075 31.8276 12.5646 30.8922 13.9815C30.1268 14.9633 29.0425 14.8207 28.163 14.7993C26.5646 14.6234 21.4552 13.7485 21.1202 11.4211C20.9457 9.68086 22.9792 6.99921 23.9773 5.57042C25.264 3.89676 27.5558 0.734878 28.9495 1.01778L28.9634 1.02254V1.02016Z" fill="#FFC783" stroke="#775026" stroke-width="0.480159" stroke-miterlimit="10" stroke-linecap="round"/>
<path d="M10.8479 1.31006C10.8479 1.31006 16.3831 8.33276 12.4138 12.8236C8.44447 17.3144 8.36304 12.1151 8.36304 12.1151C8.36304 12.1151 8.85397 2.25387 10.8456 1.31006H10.8479Z" fill="#FFF2E3" stroke="#775026" stroke-width="0.480159" stroke-miterlimit="10" stroke-linecap="round"/>
<path d="M29.2289 1.31006C29.2289 1.31006 23.6937 8.33276 27.663 12.8236C31.6323 17.3144 31.7138 12.1151 31.7138 12.1151C31.7138 12.1151 31.2228 2.25387 29.2312 1.31006H29.2289Z" fill="#FFF2E3" stroke="#775026" stroke-width="0.480159" stroke-miterlimit="10" stroke-linecap="round"/>
<path d="M38.4541 29.5862C39.2056 28.6709 39.1684 27.3515 38.4215 26.479C38.4657 26.4148 38.5099 26.3482 38.5495 26.2793C39.1335 25.2451 38.8729 23.9519 37.9888 23.2244C38.0213 23.1531 38.0516 23.0794 38.0795 23.0033C38.4797 21.8812 38.0027 20.6521 37.0092 20.0958C37.0302 20.0197 37.0488 19.9413 37.0604 19.8628C37.2628 18.686 36.5858 17.5615 35.5108 17.1883C35.5178 17.1098 35.5225 17.0314 35.5225 16.9506C35.5225 15.7547 34.6639 14.7681 33.5425 14.5922C33.5355 14.5138 33.5262 14.4353 33.5145 14.3545C33.3121 13.1777 32.2977 12.3575 31.1646 12.3837C31.146 12.3076 31.1227 12.2315 31.0948 12.1554C30.6946 11.0333 29.5569 10.4057 28.4447 10.6315C28.4121 10.5602 28.3772 10.4889 28.3377 10.42C27.7537 9.38582 26.5252 8.96978 25.4689 9.38819C25.4247 9.32401 25.3781 9.25982 25.3269 9.19801C24.5754 8.28272 23.2958 8.09016 22.3255 8.69163C22.272 8.63457 22.2138 8.57989 22.1533 8.52997C21.2576 7.76208 19.9663 7.80012 19.1124 8.56325C19.0496 8.51808 18.9844 8.47291 18.9169 8.4325C17.9048 7.83578 16.6391 8.10205 15.9271 9.00544C15.8573 8.97216 15.7852 8.94125 15.7108 8.91272C14.6126 8.50382 13.4097 8.99117 12.8652 10.0063C12.7908 9.98491 12.714 9.96589 12.6372 9.954C11.4855 9.74717 10.385 10.439 10.0197 11.5373C9.94291 11.5302 9.86613 11.5254 9.78702 11.5254C8.6167 11.5254 7.65113 12.4027 7.47895 13.5486C7.40217 13.5557 7.32539 13.5652 7.24629 13.5771C6.09458 13.7839 5.29187 14.8204 5.31747 15.9782C5.24301 15.9972 5.16856 16.021 5.0941 16.0495C3.99591 16.4584 3.38166 17.621 3.6027 18.7573C3.5329 18.7906 3.4631 18.8263 3.39562 18.8667C2.38352 19.4634 1.97635 20.7187 2.38584 21.798C2.32302 21.8432 2.2602 21.8907 2.19971 21.943C1.30394 22.7109 1.11548 24.0184 1.70413 25.0098C1.64829 25.0645 1.59477 25.1239 1.54591 25.1857C0.794393 26.101 0.83162 27.4204 1.57849 28.2929C1.53428 28.3571 1.49007 28.4237 1.45052 28.4926C0.86652 29.5268 1.12711 30.82 2.01125 31.5475C1.97868 31.6188 1.94843 31.6925 1.92051 31.7686C1.52032 32.8907 1.99729 34.1198 2.99078 34.6761C2.96984 34.7522 2.95123 34.8306 2.9396 34.9091C2.73717 36.0859 3.41424 37.2104 4.48916 37.5836C4.48218 37.6621 4.47753 37.7405 4.47753 37.8214C4.47753 39.0172 5.33608 40.0038 6.45754 40.1797C6.46452 40.2581 6.47383 40.3366 6.48546 40.4174C6.68788 41.5942 7.70232 42.4144 8.83541 42.3883C8.85402 42.4643 8.87729 42.5404 8.90521 42.6165C9.3054 43.7386 10.4431 44.3662 11.5553 44.1404C11.5879 44.2117 11.6228 44.283 11.6623 44.3519C12.2463 45.3861 13.4748 45.8021 14.5311 45.3837C14.5753 45.4479 14.6219 45.5121 14.6731 45.5739C15.4246 46.4892 16.7043 46.6818 17.6745 46.0803C17.728 46.1373 17.7862 46.192 17.8467 46.2419C18.7424 47.0098 20.0337 46.9718 20.8876 46.2087C20.9504 46.2538 21.0156 46.299 21.0831 46.3394C22.0952 46.9361 23.3609 46.6699 24.0729 45.7665C24.1427 45.7998 24.2148 45.8307 24.2892 45.8592C25.3874 46.2681 26.5903 45.7807 27.1348 44.7656C27.2092 44.787 27.286 44.806 27.3628 44.8179C28.5145 45.0247 29.615 44.3329 29.9803 43.2346C30.0571 43.2417 30.1339 43.2465 30.213 43.2465C31.3833 43.2465 32.3489 42.3692 32.521 41.2234C32.5978 41.2162 32.6746 41.2067 32.7537 41.1948C33.9054 40.988 34.7081 39.9515 34.6825 38.7937C34.757 38.7747 34.8314 38.7509 34.9059 38.7224C36.0041 38.3135 36.6183 37.1509 36.3973 36.0146C36.4671 35.9813 36.5369 35.9456 36.6044 35.9052C37.6165 35.3085 38.0237 34.0532 37.6142 32.9739C37.677 32.9288 37.7398 32.8812 37.8003 32.8289C38.6961 32.061 38.8845 30.7535 38.2959 29.7621C38.3517 29.7074 38.4052 29.648 38.4541 29.5862Z" fill="white" stroke="#B8B8B8" stroke-width="0.480159" stroke-miterlimit="10" stroke-linecap="round"/>
<path d="M20.071 45.1268C29.6236 45.1268 37.3675 37.2142 37.3675 27.4535C37.3675 17.6929 29.6236 9.78027 20.071 9.78027C10.5183 9.78027 2.77441 17.6929 2.77441 27.4535C2.77441 37.2142 10.5183 45.1268 20.071 45.1268Z" fill="white" stroke="#B8B8B8" stroke-width="0.480159" stroke-miterlimit="10" stroke-linecap="round"/>
<path d="M20.036 40.7813C27.2203 40.7813 33.0444 34.8304 33.0444 27.4895C33.0444 20.1487 27.2203 14.1978 20.036 14.1978C12.8516 14.1978 7.02747 20.1487 7.02747 27.4895C7.02747 34.8304 12.8516 40.7813 20.036 40.7813Z" fill="#FFC783" stroke="#775026" stroke-width="0.480159" stroke-miterlimit="10" stroke-linecap="round"/>
<path d="M11.9206 28.6114C13.212 28.6114 14.2589 28.125 14.2589 27.5249C14.2589 26.9249 13.212 26.4385 11.9206 26.4385C10.6292 26.4385 9.58228 26.9249 9.58228 27.5249C9.58228 28.125 10.6292 28.6114 11.9206 28.6114Z" fill="#FFC0C0" stroke="#D88080" stroke-width="0.480159" stroke-miterlimit="10"/>
<path d="M28.0817 28.6114C29.3731 28.6114 30.42 28.125 30.42 27.5249C30.42 26.9249 29.3731 26.4385 28.0817 26.4385C26.7903 26.4385 25.7434 26.9249 25.7434 27.5249C25.7434 28.125 26.7903 28.6114 28.0817 28.6114Z" fill="#FFC0C0" stroke="#D88080" stroke-width="0.480159" stroke-miterlimit="10"/>
<path d="M15.1477 23.8972C16.3646 23.6809 17.3907 24.3822 17.7117 25.3973C17.8444 25.8181 17.9398 26.0012 17.8234 26.0725C17.6489 26.1819 17.3023 25.4354 16.3041 25.0431C15.185 24.6033 13.7657 25.288 13.291 25.1929C12.9351 25.1192 13.8611 24.1278 15.1454 23.8972H15.1477Z" fill="black" stroke="black" stroke-width="0.480159" stroke-miterlimit="10" stroke-linecap="round"/>
<path d="M24.7338 23.8972C23.5169 23.6809 22.4909 24.3822 22.1698 25.3973C22.0372 25.8181 21.9418 26.0012 22.0581 26.0725C22.2326 26.1818 22.5793 25.4354 23.5774 25.0431C24.6966 24.6033 26.1158 25.288 26.5905 25.1929C26.9465 25.1192 26.0204 24.1278 24.7361 23.8972H24.7338Z" fill="black" stroke="black" stroke-width="0.480159" stroke-miterlimit="10" stroke-linecap="round"/>
<path d="M20.0639 28.4665C19.5543 28.4689 18.4771 28.2764 18.8749 27.6083C19.3915 26.8856 21.1853 27.0449 21.3412 27.8627C21.3087 28.3976 20.5432 28.4451 20.1011 28.4665H20.0639Z" fill="black" stroke="black" stroke-width="0.480159" stroke-miterlimit="10" stroke-linecap="round"/>
</svg>
