<svg width="197" height="111" viewBox="0 0 197 111" fill="none" xmlns="http://www.w3.org/2000/svg">
<path d="M99.5276 62.5186C99.4358 62.731 99.0456 62.6903 99.0714 62.4732C99.495 58.9447 101.016 52.9459 106.759 49.6824C109.052 48.3807 112.275 47.3741 112.606 47.777C112.992 48.2449 109.288 50.344 106.021 53.3915C102.654 56.5312 100.704 59.7941 99.5216 62.5187L99.5276 62.5186Z" fill="#C8E0CA" stroke="#92948C" stroke-width="1.1163" stroke-miterlimit="10"/>
<path d="M101.618 62.1291C101.506 62.2095 101.308 62.1953 101.348 62.0982C101.869 60.8726 102.838 58.2905 107.579 57.1163C109.338 56.6794 113.483 56.5999 113.582 56.7604C113.693 56.9509 110.668 57.5746 107.843 58.6699C104.94 59.7967 103.066 61.1024 101.612 62.1293L101.618 62.1291Z" fill="#C8E0CA" stroke="#92948C" stroke-width="1.1163" stroke-miterlimit="10"/>
<path d="M151.843 115.667C153.733 113.314 153.573 109.977 151.608 107.806C151.719 107.641 151.829 107.471 151.928 107.294C153.381 104.649 152.647 101.389 150.336 99.592C150.416 99.41 150.491 99.222 150.559 99.0281C151.534 96.169 150.247 93.0825 147.663 91.724C147.713 91.5304 147.757 91.331 147.783 91.1319C148.247 88.1442 146.449 85.3323 143.664 84.441C143.678 84.2421 143.687 84.0434 143.683 83.8389C143.625 80.813 141.367 78.359 138.471 77.9692C138.45 77.7711 138.422 77.573 138.388 77.3691C137.81 74.4014 135.159 72.3761 132.243 72.4982C132.191 72.3067 132.128 72.1153 132.052 71.9242C130.968 69.1046 128.008 67.5727 125.156 68.1991C125.069 68.0203 124.976 67.8415 124.871 67.669C123.317 65.0811 120.135 64.0891 117.436 65.2C117.319 65.0397 117.196 64.8796 117.061 64.7257C115.082 62.4469 111.779 62.0228 109.31 63.5927C109.17 63.4509 109.018 63.3155 108.859 63.1921C106.516 61.2933 103.194 61.4534 101.033 63.4265C100.869 63.3153 100.699 63.2043 100.524 63.1053C97.8892 61.6454 94.644 62.3817 92.8551 64.7027C92.6738 64.622 92.4867 64.5473 92.2936 64.4788C89.4468 63.4984 86.374 64.791 85.0218 67.3865C84.8291 67.336 84.6305 67.2917 84.4323 67.2654C81.4576 66.799 78.6582 68.6038 77.7712 71.401C77.5732 71.3868 77.3754 71.3786 77.1717 71.3825C74.1591 71.4403 71.7162 73.7077 71.3286 76.6157C71.1313 76.6375 70.9341 76.6654 70.731 76.6994C67.7764 77.2796 65.7604 79.942 65.8825 82.8703C65.6917 82.9221 65.5012 82.9859 65.311 83.0618C62.5039 84.1507 60.9791 87.1226 61.6033 89.9872C61.4252 90.0748 61.2473 90.1685 61.0756 90.2741C58.4992 91.834 57.512 95.0303 58.6185 97.7411C58.459 97.8585 58.2996 97.9819 58.1464 98.1173C55.8778 100.105 55.4562 103.422 57.0196 105.902C56.8785 106.043 56.7436 106.196 56.6209 106.355C54.7307 108.708 54.8906 112.045 56.8556 114.215C56.7449 114.38 56.6343 114.551 56.5358 114.727C55.0827 117.373 55.8163 120.632 58.1276 122.429C58.0472 122.611 57.9729 122.799 57.9047 122.993C56.929 125.852 58.2165 128.939 60.8009 130.297C60.7507 130.491 60.7066 130.69 60.6805 130.889C60.2166 133.877 62.014 136.689 64.7992 137.58C64.7851 137.779 64.7769 137.978 64.7808 138.183C64.8389 141.208 67.0968 143.662 69.9922 144.052C70.014 144.25 70.0417 144.448 70.0756 144.652C70.6538 147.62 73.3049 149.645 76.2205 149.523C76.2721 149.715 76.3357 149.906 76.4112 150.097C77.4959 152.917 80.4551 154.449 83.307 153.822C83.3943 154.001 83.4876 154.18 83.5928 154.352C85.1463 156.94 88.3288 157.932 91.0277 156.821C91.1446 156.982 91.2675 157.142 91.4022 157.296C93.3812 159.574 96.6847 159.999 99.153 158.429C99.2935 158.57 99.4459 158.706 99.6041 158.829C101.947 160.728 105.269 160.568 107.43 158.595C107.594 158.706 107.764 158.817 107.94 158.916C110.574 160.376 113.819 159.64 115.608 157.319C115.79 157.399 115.977 157.474 116.17 157.543C119.017 158.523 122.089 157.23 123.442 154.635C123.634 154.685 123.833 154.73 124.031 154.756C127.006 155.222 129.805 153.418 130.692 150.62C130.89 150.635 131.088 150.643 131.292 150.639C134.304 150.581 136.747 148.314 137.135 145.406C137.332 145.384 137.529 145.356 137.732 145.322C140.687 144.742 142.703 142.079 142.581 139.151C142.772 139.099 142.962 139.035 143.152 138.96C145.96 137.871 147.484 134.899 146.86 132.034C147.038 131.947 147.216 131.853 147.388 131.747C149.964 130.187 150.951 126.991 149.845 124.28C150.004 124.163 150.164 124.039 150.317 123.904C152.586 121.917 153.007 118.599 151.444 116.12C151.585 115.978 151.72 115.825 151.843 115.667Z" fill="white" stroke="#B8B8B8" stroke-width="1.1163" stroke-miterlimit="10" stroke-linecap="round"/>
<path d="M105.277 155.892C129.867 155.42 149.417 135.016 148.943 110.318C148.469 85.62 128.151 65.9808 103.561 66.4526C78.9704 66.9244 59.4203 87.3285 59.8941 112.026C60.368 136.724 80.6864 156.363 105.277 155.892Z" fill="white" stroke="#9D9D9D" stroke-opacity="0.7" stroke-width="1.1163" stroke-miterlimit="10" stroke-linecap="round"/>
<path d="M104.961 144.17C123.455 143.815 138.158 128.469 137.802 109.894C137.446 91.3194 122.165 76.5491 103.671 76.9039C85.1768 77.2587 70.4735 92.6043 70.8299 111.179C71.1863 129.754 86.4674 144.524 104.961 144.17Z" fill="#C8E0CA" stroke="#254434" stroke-opacity="0.5" stroke-width="1.1163" stroke-miterlimit="10"/>
<path d="M122.093 113.968C121.467 111.308 115.716 110.396 109.238 111.928C107.497 112.341 105.884 112.889 104.464 113.518C103.021 112.944 101.388 112.458 99.6316 112.112C93.1002 110.829 87.3881 111.962 86.8643 114.644C86.3406 117.326 91.2135 120.542 97.7389 121.825C100.235 122.319 102.616 122.454 104.626 122.283C106.647 122.37 109.015 122.144 111.49 121.561C117.968 120.029 122.708 116.628 122.081 113.968L122.093 113.968Z" fill="#FFCA55" fill-opacity="0.7" stroke="#C9850E" stroke-opacity="0.5" stroke-width="1.1163" stroke-miterlimit="10"/>
<path d="M99.841 101.258C99.8053 101.271 99.7761 101.314 99.7354 101.375C99.5919 101.702 99.3295 102.08 98.9854 102.256C97.9428 102.877 96.5067 102.038 96.5727 100.791C96.5642 100.352 96.8143 99.9563 97.0535 99.6208C97.2017 99.2268 95.87 99.4569 95.6133 99.504C90.944 100.653 91.9677 107.168 96.8278 106.907C98.8687 106.795 100.667 104.961 100.465 102.865C100.401 102.331 100.254 101.569 99.8588 101.252L99.8349 101.252L99.841 101.258Z" fill="black"/>
<path d="M115.167 100.964C115.131 100.977 115.102 101.019 115.062 101.08C114.918 101.408 114.656 101.786 114.312 101.961C113.269 102.583 111.833 101.744 111.899 100.497C111.89 100.058 112.14 99.6621 112.38 99.3266C112.528 98.9326 111.196 99.1627 110.939 99.2098C106.27 100.359 107.294 106.874 112.154 106.612C114.195 106.501 115.993 104.667 115.791 102.571C115.727 102.037 115.581 101.275 115.185 100.958L115.161 100.958L115.167 100.964Z" fill="black"/>
<path d="M83.4177 110.841C86.742 110.778 89.4133 109.495 89.3842 107.977C89.3551 106.459 86.6365 105.279 83.3122 105.343C79.9879 105.407 77.3166 106.69 77.3457 108.208C77.3748 109.726 80.0934 110.905 83.4177 110.841Z" fill="#FFC0C0" stroke="#D88080" stroke-opacity="0.7" stroke-width="1.1163" stroke-miterlimit="10"/>
<path d="M125.025 110.043C128.349 109.98 131.021 108.697 130.992 107.179C130.962 105.66 128.244 104.481 124.92 104.545C121.595 104.609 118.924 105.891 118.953 107.41C118.982 108.928 121.701 110.107 125.025 110.043Z" fill="#FFC0C0" stroke="#D88080" stroke-opacity="0.7" stroke-width="1.1163" stroke-miterlimit="10"/>
<path d="M51.6381 69.0802C58.3029 68.9523 63.6016 63.4221 63.4732 56.7282C63.3447 50.0342 57.8378 44.7114 51.173 44.8393C44.5083 44.9671 39.2096 50.4973 39.338 57.1912C39.4665 63.8852 44.9734 69.208 51.6381 69.0802Z" fill="#C8E0CA" stroke="#254434" stroke-opacity="0.5" stroke-width="0.952641" stroke-miterlimit="10"/>
<path d="M148.966 67.2125C155.631 67.0846 160.93 61.5544 160.801 54.8605C160.673 48.1666 155.166 42.8437 148.501 42.9716C141.836 43.0995 136.538 48.6296 136.666 55.3236C136.795 62.0175 142.302 67.3404 148.966 67.2125Z" fill="#C8E0CA" stroke="#254434" stroke-opacity="0.5" stroke-width="0.952641" stroke-miterlimit="10"/>
</svg>
