<svg width="41" height="41" viewBox="0 0 41 41" fill="none" xmlns="http://www.w3.org/2000/svg">
<path fill-rule="evenodd" clip-rule="evenodd" d="M33.9677 5.17409C29.5143 4.45516 25.0103 4.09594 20.4992 4.09989C15.9154 4.09989 11.4177 4.46889 7.03072 5.17409C4.08487 5.64764 2.04922 8.22859 2.04922 11.1232V21.6766C2.04922 24.5732 4.08487 27.1501 7.03072 27.6257C10.5471 28.1928 14.096 28.5359 17.6559 28.6527C18.0619 28.6628 18.4489 28.827 18.7383 29.1119L26.0752 36.4509C26.2904 36.6658 26.5644 36.8121 26.8626 36.8712C27.1609 36.9304 27.47 36.8997 27.7509 36.7832C28.0317 36.6667 28.2717 36.4695 28.4405 36.2166C28.6093 35.9637 28.6994 35.6665 28.6992 35.3624V28.3042C30.4621 28.1343 32.2191 27.9087 33.9677 27.6277C36.9136 27.1501 38.9492 24.5712 38.9492 21.6745V11.1232C38.9492 8.22654 36.9136 5.64969 33.9677 5.17409Z" fill="#254434"/>
<path d="M17.66 17.82C17.7667 17.6333 17.8533 17.41 17.92 17.15C17.9867 16.8833 18.02 16.6333 18.02 16.4C18.02 15.84 17.91 15.3467 17.69 14.92C17.4767 14.4867 17.17 14.1533 16.77 13.92C16.3767 13.68 15.9233 13.56 15.41 13.56C14.8967 13.56 14.4433 13.68 14.05 13.92C13.6567 14.1533 13.35 14.4867 13.13 14.92C12.9167 15.3467 12.81 15.84 12.81 16.4C12.81 16.96 12.9167 17.4533 13.13 17.88C13.35 18.3067 13.6567 18.64 14.05 18.88C14.4433 19.1133 14.8967 19.23 15.41 19.23C15.7033 19.23 15.9967 19.1767 16.29 19.07C16.59 18.9567 16.8367 18.8133 17.03 18.64L16.02 17.57L16.77 16.86L17.66 17.82ZM18.45 20.15L17.69 19.34C17.4167 19.58 17.0667 19.7767 16.64 19.93C16.22 20.0833 15.81 20.16 15.41 20.16C14.7033 20.16 14.07 20 13.51 19.68C12.9567 19.36 12.5233 18.9167 12.21 18.35C11.8967 17.7767 11.74 17.1267 11.74 16.4C11.74 15.6733 11.8967 15.0233 12.21 14.45C12.5233 13.8767 12.9567 13.43 13.51 13.11C14.07 12.79 14.7033 12.63 15.41 12.63C16.1233 12.63 16.7567 12.79 17.31 13.11C17.87 13.43 18.3067 13.8767 18.62 14.45C18.9333 15.0233 19.09 15.6733 19.09 16.4C19.0767 16.7667 19.0067 17.1567 18.88 17.57C18.76 17.9833 18.6033 18.33 18.41 18.61L19.2 19.44L18.45 20.15ZM23.0445 16.38C23.4511 16.38 23.7778 16.2567 24.0245 16.01C24.2778 15.7567 24.4045 15.42 24.4045 15C24.4045 14.58 24.2778 14.2467 24.0245 14C23.7778 13.7533 23.4511 13.63 23.0445 13.63H21.4345V16.38H23.0445ZM24.5345 20.08L22.6645 17.31H21.4345V20.08H20.3745V12.7H23.1745C23.6211 12.7 24.0178 12.7967 24.3645 12.99C24.7111 13.1833 24.9811 13.4567 25.1745 13.81C25.3678 14.1567 25.4645 14.5567 25.4645 15.01C25.4645 15.4967 25.3278 15.93 25.0545 16.31C24.7811 16.6833 24.3778 16.9667 23.8445 17.16L25.8145 20.08H24.5345ZM28.7771 18.05H27.7571L27.5671 12.45H28.9371L28.7771 18.05ZM28.2771 18.99C28.4571 18.99 28.6038 19.0467 28.7171 19.16C28.8304 19.2733 28.8871 19.4233 28.8871 19.61C28.8871 19.7967 28.8304 19.9467 28.7171 20.06C28.6038 20.18 28.4571 20.24 28.2771 20.24C28.0904 20.24 27.9371 20.18 27.8171 20.06C27.7038 19.9467 27.6471 19.7967 27.6471 19.61C27.6471 19.4233 27.7038 19.2733 27.8171 19.16C27.9371 19.0467 28.0904 18.99 28.2771 18.99Z" fill="white"/>
</svg>
