<svg width="37" height="35" viewBox="0 0 37 35" fill="none" xmlns="http://www.w3.org/2000/svg">
<path d="M33.0834 21.6735C33.6409 21.0061 33.6133 20.0441 33.0593 19.408C33.0921 19.3611 33.1248 19.3126 33.1542 19.2623C33.5874 18.5083 33.3941 17.5653 32.7383 17.0349C32.7624 16.9829 32.7849 16.9292 32.8056 16.8737C33.1024 16.0556 32.7486 15.1594 32.0117 14.7538C32.0272 14.6983 32.041 14.6411 32.0497 14.5839C32.1998 13.7259 31.6976 12.906 30.9002 12.6338C30.9054 12.5766 30.9089 12.5194 30.9089 12.4605C30.9089 11.5886 30.272 10.8692 29.4402 10.7409C29.435 10.6837 29.4281 10.6265 29.4195 10.5676C29.2693 9.70957 28.5169 9.11155 27.6764 9.13062C27.6626 9.07515 27.6453 9.01968 27.6246 8.96421C27.3278 8.14604 26.4838 7.68843 25.6589 7.8531C25.6347 7.8011 25.6088 7.7491 25.5795 7.69883C25.1463 6.9448 24.2351 6.64145 23.4515 6.94653C23.4187 6.89973 23.3842 6.85293 23.3462 6.80786C22.7888 6.1405 21.8396 6.00009 21.1199 6.43864C21.0802 6.39704 21.0371 6.35717 20.9922 6.32077C20.3278 5.76088 19.3699 5.78862 18.7365 6.34504C18.6899 6.3121 18.6416 6.27917 18.5916 6.2497C17.8408 5.81462 16.902 6.00876 16.3739 6.66745C16.3221 6.64318 16.2686 6.62065 16.2134 6.59985C15.3988 6.3017 14.5065 6.65705 14.1027 7.39722C14.0474 7.38161 13.9905 7.36775 13.9335 7.35908C13.0792 7.20827 12.2629 7.71269 11.992 8.51353C11.935 8.50833 11.878 8.50486 11.8194 8.50486C10.9513 8.50486 10.235 9.14448 10.1073 9.97998C10.0504 9.98518 9.99343 9.99212 9.93475 10.0008C9.08046 10.1516 8.48505 10.9074 8.50403 11.7515C8.44881 11.7654 8.39358 11.7827 8.33835 11.8035C7.52376 12.1017 7.06813 12.9493 7.23209 13.7779C7.18031 13.8021 7.12854 13.8281 7.07849 13.8576C6.32775 14.2927 6.02573 15.2079 6.32948 15.9949C6.28288 16.0278 6.23628 16.0625 6.19141 16.1006C5.52696 16.6605 5.38717 17.6139 5.82381 18.3367C5.78239 18.3766 5.74269 18.4199 5.70645 18.465C5.149 19.1323 5.17662 20.0944 5.73061 20.7305C5.69782 20.7773 5.66503 20.8259 5.63569 20.8761C5.2025 21.6302 5.3958 22.5731 6.05162 23.1036C6.02745 23.1556 6.00502 23.2093 5.98431 23.2648C5.68746 24.0829 6.04126 24.9791 6.7782 25.3847C6.76266 25.4402 6.74886 25.4974 6.74023 25.5546C6.59008 26.4126 7.0923 27.2325 7.88964 27.5047C7.88446 27.5619 7.88101 27.6191 7.88101 27.678C7.88101 28.5499 8.51784 29.2693 9.34969 29.3975C9.35487 29.4547 9.36177 29.5119 9.3704 29.5709C9.52055 30.4289 10.273 31.0269 11.1135 31.0079C11.1273 31.0633 11.1446 31.1188 11.1653 31.1743C11.4621 31.9924 12.3061 32.4501 13.131 32.2854C13.1552 32.3374 13.1811 32.3894 13.2104 32.4397C13.6436 33.1937 14.5548 33.497 15.3384 33.192C15.3711 33.2388 15.4057 33.2856 15.4436 33.3306C16.0011 33.998 16.9503 34.1384 17.67 33.6998C17.7097 33.7414 17.7528 33.7813 17.7977 33.8177C18.4621 34.3776 19.42 34.3499 20.0533 33.7934C20.0999 33.8264 20.1483 33.8593 20.1983 33.8888C20.9491 34.3239 21.8879 34.1297 22.416 33.471C22.4678 33.4953 22.5213 33.5178 22.5765 33.5386C23.3911 33.8368 24.2834 33.4814 24.6872 32.7413C24.7424 32.7569 24.7994 32.7707 24.8564 32.7794C25.7106 32.9302 26.527 32.4258 26.7979 31.625C26.8549 31.6302 26.9118 31.6336 26.9705 31.6336C27.8386 31.6336 28.5548 30.994 28.6825 30.1585C28.7395 30.1533 28.7964 30.1464 28.8551 30.1377C29.7094 29.9869 30.3048 29.2311 30.2858 28.387C30.3411 28.3731 30.3963 28.3558 30.4515 28.335C31.2661 28.0368 31.7217 27.1892 31.5578 26.3606C31.6096 26.3364 31.6613 26.3104 31.7114 26.2809C32.4621 25.8458 32.7641 24.9306 32.4604 24.1436C32.507 24.1107 32.5536 24.076 32.5985 24.0379C33.2629 23.478 33.4027 22.5246 32.9661 21.8018C33.0075 21.7619 33.0472 21.7186 33.0834 21.6735Z" fill="white" stroke="#B8B8B8" stroke-width="0.321607" stroke-miterlimit="10" stroke-linecap="round"/>
<path d="M19.4473 33.0027C26.5331 33.0027 32.2772 27.2334 32.2772 20.1166C32.2772 12.9998 26.5331 7.23047 19.4473 7.23047C12.3616 7.23047 6.61743 12.9998 6.61743 20.1166C6.61743 27.2334 12.3616 33.0027 19.4473 33.0027Z" fill="white" stroke="#9D9D9D" stroke-opacity="0.7" stroke-width="0.321607" stroke-miterlimit="10" stroke-linecap="round"/>
<path d="M19.4216 29.6246C24.7507 29.6246 29.0708 25.2856 29.0708 19.9331C29.0708 14.5807 24.7507 10.2417 19.4216 10.2417C14.0925 10.2417 9.77246 14.5807 9.77246 19.9331C9.77246 25.2856 14.0925 29.6246 19.4216 29.6246Z" fill="#C8E0CA" stroke="#254434" stroke-opacity="0.5" stroke-width="0.321607" stroke-miterlimit="10"/>
<path d="M24.523 21.02C24.3573 20.2504 22.7057 19.9557 20.8314 20.3613C20.3275 20.4705 19.8598 20.6196 19.4473 20.7929C19.0348 20.6196 18.5671 20.4705 18.0632 20.3613C16.1889 19.9557 14.5373 20.2504 14.3716 21.02C14.2059 21.7896 15.5918 22.743 17.4643 23.1486C18.1805 23.3046 18.8657 23.3566 19.4456 23.3185C20.0272 23.3549 20.7106 23.3029 21.4268 23.1486C23.3011 22.743 24.6852 21.7896 24.5195 21.02H24.523Z" fill="#FFCA55" fill-opacity="0.7" stroke="#C9850E" stroke-opacity="0.5" stroke-width="0.321607" stroke-miterlimit="10"/>
<path d="M18.184 17.2356C18.1736 17.239 18.165 17.2512 18.1529 17.2685C18.1098 17.3621 18.0321 17.4696 17.932 17.5181C17.6282 17.6915 17.2192 17.4418 17.2451 17.083C17.2451 16.9565 17.3193 16.8438 17.3901 16.7485C17.435 16.6358 17.0501 16.6947 16.9759 16.7069C15.6245 17.012 15.8834 18.8944 17.2848 18.8459C17.8733 18.8251 18.4014 18.3068 18.3548 17.7019C18.3393 17.5476 18.3013 17.3274 18.1891 17.2338H18.1822L18.184 17.2356Z" fill="black"/>
<path d="M22.6005 17.2356C22.5901 17.239 22.5815 17.2512 22.5694 17.2685C22.5263 17.3621 22.4486 17.4696 22.3485 17.5181C22.0448 17.6915 21.6357 17.4418 21.6616 17.083C21.6616 16.9565 21.7358 16.8438 21.8066 16.7485C21.8515 16.6358 21.4666 16.6947 21.3924 16.7069C20.0411 17.012 20.2999 18.8944 21.7013 18.8459C22.2898 18.8251 22.8179 18.3068 22.7713 17.7019C22.7558 17.5476 22.7178 17.3274 22.6056 17.2338H22.5987L22.6005 17.2356Z" fill="black"/>
<path d="M13.4 19.9051C14.3579 19.9051 15.1345 19.5505 15.1345 19.113C15.1345 18.6755 14.3579 18.3208 13.4 18.3208C12.4421 18.3208 11.6655 18.6755 11.6655 19.113C11.6655 19.5505 12.4421 19.9051 13.4 19.9051Z" fill="#FFC0C0" stroke="#D88080" stroke-opacity="0.7" stroke-width="0.321607" stroke-miterlimit="10"/>
<path d="M25.3895 19.9051C26.3474 19.9051 27.124 19.5505 27.124 19.113C27.124 18.6755 26.3474 18.3208 25.3895 18.3208C24.4316 18.3208 23.655 18.6755 23.655 19.113C23.655 19.5505 24.4316 19.9051 25.3895 19.9051Z" fill="#FFC0C0" stroke="#D88080" stroke-opacity="0.7" stroke-width="0.321607" stroke-miterlimit="10"/>
<path d="M4.47732 7.70044C6.39779 7.70044 7.95464 6.13677 7.95464 4.20789C7.95464 2.279 6.39779 0.715332 4.47732 0.715332C2.55685 0.715332 1 2.279 1 4.20789C1 6.13677 2.55685 7.70044 4.47732 7.70044Z" fill="#C8E0CA" stroke="#254434" stroke-opacity="0.5" stroke-width="0.274457" stroke-miterlimit="10"/>
<path d="M32.5227 7.70044C34.4432 7.70044 36 6.13677 36 4.20789C36 2.279 34.4432 0.715332 32.5227 0.715332C30.6023 0.715332 29.0454 2.279 29.0454 4.20789C29.0454 6.13677 30.6023 7.70044 32.5227 7.70044Z" fill="#C8E0CA" stroke="#254434" stroke-opacity="0.5" stroke-width="0.274457" stroke-miterlimit="10"/>
</svg>
