<svg width="25" height="25" viewBox="0 0 25 25" fill="none" xmlns="http://www.w3.org/2000/svg">
<path d="M23.5743 13.8553C24.0243 13.311 24.002 12.5262 23.5548 12.0073C23.5813 11.9691 23.6077 11.9295 23.6314 11.8885C23.9811 11.2734 23.8251 10.5042 23.2956 10.0715C23.3151 10.0291 23.3332 9.98529 23.35 9.94004C23.5896 9.27265 23.304 8.54162 22.709 8.21075C22.7216 8.1655 22.7327 8.11884 22.7397 8.07218C22.8609 7.37226 22.4554 6.70345 21.8117 6.48146C21.8159 6.4348 21.8187 6.38814 21.8187 6.34006C21.8187 5.62883 21.3046 5.04203 20.633 4.9374C20.6288 4.89074 20.6232 4.84408 20.6162 4.796C20.495 4.09608 19.8875 3.60826 19.209 3.62381C19.1978 3.57857 19.1839 3.53332 19.1672 3.48807C18.9275 2.82068 18.2462 2.44739 17.5802 2.58172C17.5607 2.5393 17.5398 2.49688 17.5161 2.45587C17.1664 1.84079 16.4307 1.59335 15.7981 1.84221C15.7717 1.80403 15.7438 1.76585 15.7131 1.72909C15.2631 1.18471 14.4968 1.07018 13.9157 1.42791C13.8837 1.39398 13.8489 1.36146 13.8126 1.33176C13.2762 0.875048 12.5029 0.897672 11.9916 1.35156C11.9539 1.32469 11.9149 1.29783 11.8745 1.27379C11.2684 0.918881 10.5105 1.07725 10.0841 1.61456C10.0423 1.59476 9.9991 1.57638 9.95451 1.55941C9.29686 1.31621 8.57651 1.60607 8.25047 2.20984C8.20589 2.19711 8.15991 2.1858 8.11393 2.17873C7.42423 2.05572 6.76519 2.46718 6.54643 3.12044C6.50045 3.1162 6.45447 3.11337 6.4071 3.11337C5.70626 3.11337 5.12803 3.63513 5.02492 4.31666C4.97894 4.32091 4.93296 4.32656 4.88559 4.33363C4.19589 4.45665 3.71519 5.07314 3.73052 5.76175C3.68593 5.77306 3.64135 5.7872 3.59676 5.80416C2.93911 6.04737 2.57127 6.7388 2.70364 7.41468C2.66184 7.43448 2.62004 7.45569 2.57963 7.47973C1.97353 7.83463 1.7297 8.58121 1.97493 9.22316C1.93731 9.25002 1.89969 9.2783 1.86346 9.30941C1.32703 9.76612 1.21417 10.5438 1.56668 11.1334C1.53324 11.166 1.5012 11.2013 1.47194 11.2381C1.02189 11.7825 1.04419 12.5672 1.49144 13.0861C1.46497 13.1243 1.4385 13.1639 1.41481 13.2049C1.06509 13.82 1.22114 14.5892 1.7506 15.0219C1.7311 15.0643 1.71298 15.1081 1.69626 15.1534C1.45661 15.8208 1.74224 16.5518 2.33719 16.8827C2.32465 16.9279 2.31351 16.9746 2.30654 17.0212C2.18532 17.7211 2.59078 18.39 3.2345 18.612C3.23032 18.6586 3.22753 18.7053 3.22753 18.7534C3.22753 19.4646 3.74167 20.0514 4.41325 20.156C4.41743 20.2027 4.423 20.2493 4.42997 20.2974C4.55119 20.9973 5.15868 21.4852 5.83723 21.4696C5.84838 21.5148 5.86231 21.5601 5.87903 21.6053C6.11868 22.2727 6.80002 22.646 7.46603 22.5117C7.48554 22.5541 7.50644 22.5965 7.53012 22.6375C7.87985 23.2526 8.61553 23.5001 9.2481 23.2512C9.27457 23.2894 9.30244 23.3276 9.33309 23.3643C9.78313 23.9087 10.5495 24.0232 11.1305 23.6655C11.1625 23.6994 11.1974 23.732 11.2336 23.7617C11.77 24.2184 12.5433 24.1957 13.0547 23.7419C13.0923 23.7687 13.1313 23.7956 13.1717 23.8196C13.7778 24.1745 14.5358 24.0162 14.9621 23.4789C15.0039 23.4987 15.0471 23.517 15.0917 23.534C15.7494 23.7772 16.4697 23.4873 16.7957 22.8836C16.8403 22.8963 16.8863 22.9076 16.9323 22.9147C17.622 23.0377 18.281 22.6262 18.4998 21.973C18.5458 21.9772 18.5917 21.98 18.6391 21.98C19.34 21.98 19.9182 21.4583 20.0213 20.7768C20.0673 20.7725 20.1133 20.7669 20.1606 20.7598C20.8503 20.6368 21.331 20.0203 21.3157 19.3317C21.3603 19.3204 21.4049 19.3062 21.4495 19.2892C22.1071 19.046 22.4749 18.3546 22.3426 17.6787C22.3844 17.6589 22.4262 17.6377 22.4666 17.6137C23.0727 17.2588 23.3165 16.5122 23.0713 15.8703C23.1089 15.8434 23.1465 15.8151 23.1828 15.784C23.7192 15.3273 23.8321 14.5496 23.4795 13.96C23.513 13.9275 23.545 13.8921 23.5743 13.8553Z" fill="white" stroke="#B8B8B8" stroke-width="0.536831" stroke-miterlimit="10" stroke-linecap="round"/>
<path d="M12.5655 23.0984C18.2861 23.0984 22.9235 18.3923 22.9235 12.5869C22.9235 6.78159 18.2861 2.07544 12.5655 2.07544C6.84495 2.07544 2.20752 6.78159 2.20752 12.5869C2.20752 18.3923 6.84495 23.0984 12.5655 23.0984Z" fill="white" stroke="#B8B8B8" stroke-width="0.536831" stroke-miterlimit="10" stroke-linecap="round"/>
<path d="M12.5445 20.5137C16.8468 20.5137 20.3346 16.9743 20.3346 12.6082C20.3346 8.24207 16.8468 4.70264 12.5445 4.70264C8.24214 4.70264 4.75439 8.24207 4.75439 12.6082C4.75439 16.9743 8.24214 20.5137 12.5445 20.5137Z" fill="#FFE49F" stroke="#E2B249" stroke-width="0.536831" stroke-miterlimit="10" stroke-linecap="round"/>
<path d="M11.122 9.67424C11.1137 9.67989 11.1067 9.69827 11.0969 9.72514C11.0621 9.86654 10.9994 10.0277 10.9186 10.1013C10.6734 10.3643 10.3432 9.98531 10.3641 9.44376C10.3641 9.25146 10.424 9.08178 10.4811 8.93897C10.5173 8.76788 10.2066 8.85696 10.1467 8.87675C9.05572 9.33912 9.26472 12.1826 10.3961 12.1105C10.8712 12.0794 11.2976 11.2947 11.26 10.3798C11.2474 10.1451 11.2168 9.81563 11.1262 9.67141H11.1206L11.122 9.67424Z" fill="black"/>
<path d="M15.4511 9.67424C15.4428 9.67989 15.4358 9.69827 15.426 9.72514C15.3912 9.86654 15.3285 10.0277 15.2477 10.1013C15.0025 10.3643 14.6723 9.98531 14.6932 9.44376C14.6932 9.25146 14.7531 9.08178 14.8102 8.93897C14.8464 8.76788 14.5357 8.85696 14.4758 8.87675C13.3848 9.33912 13.5938 12.1826 14.7252 12.1105C15.2003 12.0794 15.6267 11.2947 15.5891 10.3798C15.5765 10.1451 15.5459 9.81563 15.4553 9.67141H15.4497L15.4511 9.67424Z" fill="black"/>
<path d="M7.6835 13.1893C8.45686 13.1893 9.08379 12.9 9.08379 12.5432C9.08379 12.1863 8.45686 11.897 7.6835 11.897C6.91013 11.897 6.2832 12.1863 6.2832 12.5432C6.2832 12.9 6.91013 13.1893 7.6835 13.1893Z" fill="#FFC0C0" stroke="#D88080" stroke-width="0.536831" stroke-miterlimit="10"/>
<path d="M17.3627 13.1893C18.1361 13.1893 18.763 12.9 18.763 12.5432C18.763 12.1863 18.1361 11.897 17.3627 11.897C16.5893 11.897 15.9624 12.1863 15.9624 12.5432C15.9624 12.9 16.5893 13.1893 17.3627 13.1893Z" fill="#FFC0C0" stroke="#D88080" stroke-width="0.536831" stroke-miterlimit="10"/>
<path d="M12.6533 12.9067C12.6449 12.8685 12.6407 12.8304 12.6407 12.7908C12.6115 12.7908 12.4986 12.7908 12.4694 12.7908C12.4694 12.8289 12.4652 12.8671 12.4568 12.9067C12.369 13.2913 11.9747 13.5091 11.4634 13.4016C11.4731 14.0945 11.7281 15.5212 12.539 15.6159C13.1605 15.688 13.6704 14.1553 13.6704 13.4483C13.6704 13.437 13.669 13.4256 13.6676 13.4143C13.1813 13.4907 12.7383 13.2758 12.6547 12.9067H12.6533Z" fill="#FFA4A4" stroke="#7F2525" stroke-width="0.536831" stroke-miterlimit="10"/>
<path d="M11.9707 12.5007C12.6674 12.9433 12.4556 12.956 13.1453 12.5007Z" fill="#FF929F"/>
<path d="M11.9707 12.5007C12.6674 12.9433 12.4556 12.956 13.1453 12.5007" stroke="#7F2525" stroke-width="0.536831" stroke-miterlimit="10" stroke-linecap="round"/>
</svg>
