<svg width="24" height="25" viewBox="0 0 24 25" fill="none" xmlns="http://www.w3.org/2000/svg">
<path d="M20.998 3.5V5.5C20.998 15.127 15.625 19.5 8.99805 19.5H5.24105C5.07151 20.4908 4.99019 21.4948 4.99805 22.5H2.99805C2.99805 21.137 3.11405 19.9 3.34405 18.768C3.11405 17.474 2.99871 15.718 2.99805 13.5C2.99805 7.977 7.47505 3.5 12.998 3.5C14.998 3.5 16.998 4.5 20.998 3.5ZM12.998 5.5C10.8763 5.5 8.84148 6.34285 7.34119 7.84315C5.8409 9.34344 4.99805 11.3783 4.99805 13.5C4.99805 13.862 5.00138 14.2107 5.00805 14.546C6.26205 12.568 8.09905 11.005 10.502 9.632L11.494 11.368C8.64005 13 6.74605 14.854 5.77405 17.5H8.99805C15.013 17.5 18.869 13.527 18.995 5.888C17.623 6.021 16.348 5.936 14.775 5.7C13.625 5.527 13.399 5.5 12.998 5.5Z" fill="#9C9CA1" fill-opacity="0.5"/>
</svg>
