<svg width="23" height="22" viewBox="0 0 23 22" fill="none" xmlns="http://www.w3.org/2000/svg">
<path fill-rule="evenodd" clip-rule="evenodd" d="M11.6061 1.02319C6.03914 1.02319 1.52344 5.5226 1.52344 11.144C1.52344 15.8779 4.69317 19.7625 10.1347 20.9136C11.2848 21.1569 12.2938 20.6788 12.8944 19.8763C13.4833 19.0893 13.6822 17.9969 13.3261 16.9538C12.7878 15.3768 12.5216 14.4063 12.4642 13.7522C12.4368 13.4394 12.4623 13.2449 12.5027 13.1153C12.54 12.9959 12.6021 12.8913 12.7181 12.7749C13.071 12.4205 13.7779 12.2111 14.8496 12.2257C15.8778 12.2395 17.0401 12.4563 18.0674 12.7159C18.9497 12.9388 19.8579 12.7286 20.5165 12.2184C21.1895 11.697 21.6196 10.8387 21.4342 9.84591C20.4157 4.39144 16.4323 1.02319 11.6061 1.02319ZM3.21677 11.144C3.21677 6.46411 6.97128 2.72241 11.6061 2.72241C15.5363 2.72241 18.886 5.42537 19.7698 10.1588C19.8234 10.4456 19.7175 10.6908 19.4816 10.8734C19.2308 11.0677 18.8557 11.1628 18.4808 11.0681C17.3987 10.7947 16.0908 10.5431 14.8724 10.5266C13.6977 10.5107 12.3819 10.7088 11.5204 11.5736C11.2365 11.8586 11.0155 12.1945 10.8866 12.6081C10.7608 13.0116 10.7372 13.4427 10.7774 13.9012C10.8553 14.7898 11.192 15.9453 11.7242 17.5045C11.8991 18.0167 11.7914 18.5205 11.5404 18.856C11.3012 19.1756 10.9369 19.3467 10.4839 19.2509C5.73445 18.2463 3.21677 14.9844 3.21677 11.144Z" fill="#9C9CA1" fill-opacity="0.5"/>
<path fill-rule="evenodd" clip-rule="evenodd" d="M15.7794 7.16289C16.3846 7.16289 16.8752 6.67041 16.8752 6.06289C16.8752 5.45538 16.3846 4.96289 15.7794 4.96289C15.1742 4.96289 14.6836 5.45538 14.6836 6.06289C14.6836 6.67041 15.1742 7.16289 15.7794 7.16289Z" fill="#9C9CA1" fill-opacity="0.5"/>
<path fill-rule="evenodd" clip-rule="evenodd" d="M11.6749 6.13335C12.2801 6.13335 12.7707 5.64086 12.7707 5.03335C12.7707 4.42583 12.2801 3.93335 11.6749 3.93335C11.0697 3.93335 10.5791 4.42583 10.5791 5.03335C10.5791 5.64086 11.0697 6.13335 11.6749 6.13335Z" fill="#9C9CA1" fill-opacity="0.5"/>
<path fill-rule="evenodd" clip-rule="evenodd" d="M7.57043 7.67803C8.17563 7.67803 8.66624 7.18555 8.66624 6.57803C8.66624 5.97052 8.17563 5.47803 7.57043 5.47803C6.96522 5.47803 6.47461 5.97052 6.47461 6.57803C6.47461 7.18555 6.96522 7.67803 7.57043 7.67803Z" fill="#9C9CA1" fill-opacity="0.5"/>
<path fill-rule="evenodd" clip-rule="evenodd" d="M5.5177 11.2835C6.12289 11.2835 6.61352 10.791 6.61352 10.1835C6.61352 9.57599 6.12289 9.0835 5.5177 9.0835C4.9125 9.0835 4.42188 9.57599 4.42188 10.1835C4.42188 10.791 4.9125 11.2835 5.5177 11.2835Z" fill="#9C9CA1" fill-opacity="0.5"/>
</svg>
