<svg width="23" height="22" viewBox="0 0 23 22" fill="none" xmlns="http://www.w3.org/2000/svg">
<path fill-rule="evenodd" clip-rule="evenodd" d="M11.6175 0C5.47926 0 0.5 4.96091 0.5 11.1599C0.5 16.3748 3.98914 20.6597 10.0002 21.9312C11.2426 22.1941 12.3312 21.6786 12.9804 20.8111C13.6177 19.9594 13.8342 18.7752 13.4476 17.6428C12.8498 15.8915 12.5504 14.8039 12.4856 14.0653C12.4544 13.7104 12.4828 13.4825 12.5319 13.3248C12.578 13.1773 12.6549 13.0493 12.7923 12.9114C13.2101 12.492 14.0263 12.2599 15.2224 12.276C16.3745 12.2916 17.6733 12.5343 18.8176 12.8234C19.7721 13.0646 20.7543 12.8369 21.4654 12.286C22.1914 11.7237 22.6528 10.8007 22.4534 9.73315C21.3285 3.70867 16.9342 0 11.6175 0ZM12.9123 4.36998C12.9123 5.04499 12.3672 5.5922 11.6947 5.5922C11.0222 5.5922 10.4771 5.04499 10.4771 4.36998C10.4771 3.69496 11.0222 3.14776 11.6947 3.14776C12.3672 3.14776 12.9123 3.69496 12.9123 4.36998ZM17.4732 5.51462C17.4732 6.18964 16.9281 6.73684 16.2557 6.73684C15.5832 6.73684 15.0381 6.18964 15.0381 5.51462C15.0381 4.83961 15.5832 4.2924 16.2557 4.2924C16.9281 4.2924 17.4732 4.83961 17.4732 5.51462ZM7.13372 7.30886C7.80617 7.30886 8.3513 6.76166 8.3513 6.08664C8.3513 5.41163 7.80617 4.86442 7.13372 4.86442C6.46128 4.86442 5.91615 5.41163 5.91615 6.08664C5.91615 6.76166 6.46128 7.30886 7.13372 7.30886ZM6.07083 10.0929C6.07083 10.7679 5.52569 11.3151 4.85325 11.3151C4.1808 11.3151 3.63567 10.7679 3.63567 10.0929C3.63567 9.41787 4.1808 8.87066 4.85325 8.87066C5.52569 8.87066 6.07083 9.41787 6.07083 10.0929Z" fill="#B5CDB7"/>
</svg>
