<svg width="26" height="26" viewBox="0 0 26 26" fill="none" xmlns="http://www.w3.org/2000/svg">
<path d="M14.4362 1.43923C13.4876 1.25366 12.512 1.25366 11.5635 1.43923C10.22 1.70207 8.99627 2.46083 7.00711 3.69422L6.66798 3.90443C4.87441 5.0157 3.77057 5.69963 2.98143 6.6651C2.42356 7.34764 1.99129 8.12348 1.70468 8.95662C1.29926 10.1351 1.29948 11.432 1.29982 13.5392L1.29984 19.6489C1.29984 22.4386 3.56533 24.7 6.35997 24.7C8.59043 24.7 10.3986 22.8951 10.3986 20.6686V17.7795C10.3986 16.3455 11.5632 15.1829 12.9998 15.1829C14.4364 15.1829 15.601 16.3455 15.601 17.7795V20.6686C15.601 22.8951 17.4091 24.7 19.6397 24.7C22.4343 24.7 24.6998 22.4386 24.6998 19.6489V13.5393C24.7001 11.432 24.7003 10.1351 24.2948 8.95662C24.0083 8.12348 23.5761 7.34764 23.0181 6.6651C22.229 5.69963 21.1252 5.0157 19.3316 3.90442L18.9925 3.69422C17.0033 2.46083 15.7796 1.70207 14.4362 1.43923Z" fill="#B5CDB7"/>
</svg>
