<svg width="24" height="25" viewBox="0 0 24 25" fill="none" xmlns="http://www.w3.org/2000/svg">
<path fill-rule="evenodd" clip-rule="evenodd" d="M6.34961 5.66456C6.34961 2.70174 8.99508 0.5 12.0002 0.5C15.0053 0.5 17.6507 2.70174 17.6507 5.66456C17.6507 8.62737 15.0053 10.8291 12.0002 10.8291C8.99508 10.8291 6.34961 8.62737 6.34961 5.66456ZM12.0002 2.32279C9.74931 2.32279 8.134 3.92946 8.134 5.66456C8.134 7.39965 9.74931 9.00633 12.0002 9.00633C14.2511 9.00633 15.8664 7.39965 15.8664 5.66456C15.8664 3.92946 14.2511 2.32279 12.0002 2.32279Z" fill="#9C9CA1" fill-opacity="0.5"/>
<path fill-rule="evenodd" clip-rule="evenodd" d="M5.91957 13.9503C9.65241 11.5901 14.3483 11.5901 18.0811 13.9503C20.2678 15.3328 21.6004 17.7923 21.6004 20.4417V21.0584C21.6004 21.3008 21.6005 21.494 21.582 21.6677C21.4252 23.1475 20.2954 24.3184 18.8615 24.4811C18.6931 24.5002 18.5062 24.5001 18.2719 24.5001H5.72878C5.49462 24.5001 5.30763 24.5002 5.13929 24.4811C3.70536 24.3184 2.57554 23.1475 2.4187 21.6677C2.40028 21.494 2.40033 21.3008 2.4004 21.0583V20.4417C2.4004 17.7923 3.73304 15.3328 5.91957 13.9503ZM17.142 15.533C13.9855 13.5371 10.0152 13.5371 6.85874 15.533C5.20682 16.5775 4.19838 18.4369 4.19838 20.4417V21.0085C4.19838 21.3241 4.19974 21.4066 4.20602 21.4659C4.27149 22.0837 4.74241 22.5689 5.33576 22.6363C5.39259 22.6427 5.47202 22.6441 5.77715 22.6441H18.2236C18.5287 22.6441 18.6082 22.6427 18.6651 22.6363C19.2583 22.5689 19.7292 22.0837 19.7947 21.4659C19.801 21.4066 19.8024 21.3241 19.8024 21.0085V20.4417C19.8024 18.4369 18.7939 16.5775 17.142 15.533Z" fill="#9C9CA1" fill-opacity="0.5"/>
</svg>
