<svg width="25" height="25" viewBox="0 0 25 25" fill="none" xmlns="http://www.w3.org/2000/svg">
<path d="M7.05078 5.66456C7.05078 2.70175 9.7194 0.5 12.7508 0.5C15.7821 0.5 18.4508 2.70175 18.4508 5.66456C18.4508 8.62737 15.7821 10.8291 12.7508 10.8291C9.7194 10.8291 7.05078 8.62737 7.05078 5.66456Z" fill="#B5CDB7"/>
<path d="M5.28878 24.4865C5.41919 24.501 5.57417 24.501 5.88416 24.501H19.6167C19.9266 24.501 20.0816 24.501 20.212 24.4865C21.3304 24.3623 22.2135 23.468 22.3361 22.3355C22.3504 22.2035 22.3504 22.0465 22.3504 21.7326V21.1205C22.3504 18.6074 21.059 16.2756 18.9414 14.9652C15.1408 12.6132 10.36 12.6132 6.55939 14.9652C4.44187 16.2756 3.15039 18.6074 3.15039 21.1205V21.7326C3.15039 22.0465 3.15039 22.2035 3.16469 22.3355C3.28733 23.468 4.1704 24.3623 5.28878 24.4865Z" fill="#B5CDB7"/>
</svg>
