<svg width="16" height="15" viewBox="0 0 16 15" fill="none" xmlns="http://www.w3.org/2000/svg">
<g id="icon/bin">
<path id="Vector" fill-rule="evenodd" clip-rule="evenodd" d="M8.87542 4.86386e-07H7.36606C6.94709 -1.16794e-05 6.59121 -2.20109e-05 6.30215 0.0301399C5.99731 0.0619491 5.7056 0.131987 5.442 0.313727C5.26044 0.438899 5.1035 0.596848 4.97914 0.779572C4.79856 1.04489 4.72897 1.33847 4.69736 1.64528C4.67855 1.82802 4.67155 2.03727 4.66895 2.27213C4.61946 2.2779 4.57093 2.2841 4.52333 2.29078C3.81662 2.38986 3.2265 2.60231 2.78033 3.09915C2.33415 3.59598 2.1836 4.2083 2.15687 4.92593C2.13105 5.61892 2.2194 6.49676 2.3294 7.58963L2.63196 10.5962C2.72315 11.5025 2.79689 12.2354 2.92994 12.8098C3.06836 13.4074 3.2855 13.9046 3.71117 14.2918C4.13684 14.6789 4.6502 14.8463 5.25488 14.9247C5.8361 15 6.56793 15 7.47299 15H8.97337C9.90314 15 10.6543 15 11.2492 14.9219C11.8678 14.8406 12.3917 14.6671 12.8211 14.2651C13.2505 13.8631 13.4602 13.3496 13.5854 12.7346C13.7057 12.143 13.7599 11.389 13.827 10.4557L14.0431 7.44878C14.1199 6.38188 14.1815 5.52401 14.1378 4.84754C14.0925 4.14643 13.9303 3.55057 13.4863 3.0701C13.0421 2.58965 12.4633 2.38383 11.7718 2.28778C11.7071 2.27879 11.6407 2.27068 11.5724 2.26335C11.5698 2.03206 11.5627 1.82575 11.5441 1.64528C11.5125 1.33847 11.443 1.04489 11.2624 0.779572C11.138 0.596848 10.981 0.438899 10.7995 0.313727C10.5359 0.131987 10.2442 0.0619491 9.93937 0.0301399C9.65032 -2.20109e-05 9.29444 -1.16794e-05 8.87542 4.86386e-07ZM10.4809 2.20321C10.4781 2.02503 10.4721 1.88113 10.4594 1.75847C10.437 1.54036 10.3984 1.45232 10.3627 1.39985C10.3144 1.32899 10.2536 1.26775 10.1832 1.21922C10.1311 1.18327 10.0436 1.14446 9.82687 1.12185C9.60074 1.09826 9.30194 1.09757 8.84774 1.09757H7.39373C6.93954 1.09757 6.64074 1.09826 6.41462 1.12185C6.1979 1.14446 6.11043 1.18327 6.05829 1.21922C5.9879 1.26775 5.92704 1.32899 5.87882 1.39985C5.8431 1.45232 5.80454 1.54036 5.78207 1.75847C5.76939 1.88162 5.76337 2.0262 5.76051 2.20539C6.18455 2.19512 6.65494 2.19512 7.17387 2.19512H9.18712C9.65879 2.19512 10.0894 2.19511 10.4809 2.20321ZM6.64949 5.99086C6.95051 5.99086 7.19455 6.23655 7.19455 6.53963V10.1982C7.19455 10.5013 6.95051 10.747 6.64949 10.747C6.34847 10.747 6.10443 10.5013 6.10443 10.1982V6.53963C6.10443 6.23655 6.34847 5.99086 6.64949 5.99086ZM10.1026 6.53963C10.1026 6.23655 9.85859 5.99086 9.55754 5.99086C9.25657 5.99086 9.01252 6.23655 9.01252 6.53963V10.1982C9.01252 10.5013 9.25657 10.747 9.55754 10.747C9.85859 10.747 10.1026 10.5013 10.1026 10.1982V6.53963Z" fill="#254434"/>
</g>
</svg>
