<svg width="15" height="15" viewBox="0 0 15 15" fill="none" xmlns="http://www.w3.org/2000/svg">
<path fill-rule="evenodd" clip-rule="evenodd" d="M7.87049 14.536L7.86361 14.5373L7.81924 14.5592L7.80674 14.5617L7.79799 14.5592L7.75361 14.5373C7.74695 14.5352 7.74195 14.5362 7.73861 14.5404L7.73611 14.5467L7.72549 14.8142L7.72861 14.8267L7.73486 14.8348L7.79986 14.881L7.80924 14.8835L7.81674 14.881L7.88174 14.8348L7.88924 14.8248L7.89174 14.8142L7.88111 14.5473C7.87945 14.5406 7.87591 14.5369 7.87049 14.536ZM8.03611 14.4654L8.02799 14.4667L7.91236 14.5248L7.90611 14.531L7.90424 14.5379L7.91549 14.8067L7.91861 14.8142L7.92361 14.8185L8.04924 14.8767C8.05715 14.8787 8.0632 14.8771 8.06736 14.8717L8.06986 14.8629L8.04861 14.4792C8.04653 14.4717 8.04236 14.4671 8.03611 14.4654ZM7.58924 14.4667C7.58648 14.465 7.58319 14.4644 7.58005 14.4651C7.5769 14.4658 7.57415 14.4677 7.57236 14.4704L7.56861 14.4792L7.54736 14.8629C7.54778 14.8704 7.55132 14.8754 7.55799 14.8779L7.56736 14.8767L7.69299 14.8185L7.69924 14.8135L7.70174 14.8067L7.71236 14.5379L7.71049 14.5304L7.70424 14.5242L7.58924 14.4667Z" fill="#EFE8DC"/>
<path fill-rule="evenodd" clip-rule="evenodd" d="M6.375 1.875C6.375 1.18437 6.81 0.625 7.5 0.625C8.19 0.625 8.625 1.18437 8.625 1.875L8.75 6.875C8.75 6.6475 9.0625 3.3375 9.0625 3.125C9.0625 2.5 9.43438 1.875 10.125 1.875C10.8156 1.875 11.25 2.43438 11.25 3.125V7.6675C11.3019 7.6375 11.4375 5.26375 11.4375 5C11.4375 4.375 11.6019 3.75 12.1875 3.75C12.7738 3.75 13.125 4.30938 13.125 5V8.75C13.125 10.0761 12.5982 11.3479 11.6605 12.2855C10.7229 13.2232 9.45108 13.75 8.125 13.75H7.70375C6.77525 13.75 5.86511 13.4914 5.07528 13.0033C4.28545 12.5151 3.64715 11.8167 3.23188 10.9862L1.45563 7.43375C1.22813 6.97875 1.40313 6.39125 1.90563 6.16875C2.17 6.05188 2.46625 5.98625 2.745 6.075C3.4375 6.29563 3.335 6.6125 3.75 7.00625V3.125C3.75 2.43438 4.18438 1.875 4.875 1.875C5.5 1.875 5.88063 2.69688 5.9375 3.125C6.01563 3.71125 6.25 6.64625 6.25 6.87375L6.375 1.875Z" fill="#EFE8DC"/>
</svg>
