<svg width="14" height="13" viewBox="0 0 14 13" fill="none" xmlns="http://www.w3.org/2000/svg">
<path fill-rule="evenodd" clip-rule="evenodd" d="M13.5 6.5C13.5 10.0898 10.5898 13 7 13C3.41015 13 0.5 10.0898 0.5 6.5C0.5 2.91015 3.41015 0 7 0C10.5898 0 13.5 2.91015 13.5 6.5ZM7.4875 3.25C7.4875 2.98076 7.26923 2.7625 7 2.7625C6.73076 2.7625 6.5125 2.98076 6.5125 3.25V6.5C6.5125 6.68466 6.61682 6.85347 6.78198 6.93602L8.73199 7.91102C8.97281 8.03146 9.26564 7.93383 9.38602 7.69301C9.50646 7.45218 9.40883 7.15936 9.16801 7.03898L7.4875 6.19871V3.25Z" fill="#254434" fill-opacity="0.7"/>
</svg>
