<svg width="16" height="16" viewBox="0 0 16 16" fill="none" xmlns="http://www.w3.org/2000/svg">
<g id="icon/coffee" clip-path="url(#clip0_297_1123)">
<path id="Vector" d="M6.34487 0.832838C6.06696 0.834776 5.79262 0.874276 5.52634 0.953869C5.26215 1.03293 5.01877 1.14753 4.7979 1.29346C5.03921 1.90665 5.65524 2.68503 6.36883 3.34949C7.1139 4.04331 7.96821 4.63278 8.51993 4.89862L8.5264 4.90174L8.53274 4.90496C9.03974 5.16543 9.39868 5.57537 9.60587 6.02759C9.7393 6.31878 9.81702 6.62378 9.86233 6.93384C10.2686 6.61696 10.6968 6.36321 11.1322 6.17906C11.0991 5.60687 10.9732 5.00687 10.744 4.40609C10.2631 3.14609 9.42334 2.13171 8.47224 1.51309C7.78865 1.06846 7.05509 0.827901 6.34487 0.832838ZM3.95712 2.15487C3.79733 2.40281 3.6663 2.67924 3.56674 2.97946C3.23424 3.98178 3.26121 5.23909 3.74205 6.49915C4.03305 7.26174 4.45571 7.93415 4.95487 8.48353C5.44662 8.63065 5.93299 8.85796 6.38987 9.1664C6.74287 9.40474 7.05743 9.67756 7.33002 9.97428C7.41899 9.9959 7.50799 10.0143 7.5969 10.0288C7.76627 9.58703 7.98612 9.14746 8.25702 8.72103C8.42092 8.46278 8.60053 8.21484 8.79483 7.97862C8.79708 7.81637 8.79577 7.65915 8.78805 7.50906C8.76712 7.10312 8.70212 6.75593 8.58305 6.49612C8.46405 6.23631 8.30899 6.05481 8.01868 5.90568L8.03149 5.91199C7.31655 5.56746 6.42377 4.93787 5.60212 4.17278C4.94899 3.56465 4.34312 2.88349 3.95712 2.15487ZM12.6994 6.39628C12.2773 6.39971 11.8307 6.49774 11.379 6.68528C10.4152 7.08534 9.44755 7.89621 8.7318 9.02268C8.36565 9.59899 8.10252 10.1999 7.93893 10.789C8.58112 11.8665 8.73884 13.1041 8.27621 14.1435C8.35101 14.2503 8.43448 14.3508 8.52577 14.4439C9.20215 13.8603 9.98165 13.3769 10.5356 12.8805C10.8385 12.6092 11.0677 12.3407 11.1951 12.0849C11.3226 11.829 11.3664 11.5943 11.3001 11.2748L11.2963 11.2562L11.2937 11.2374C11.0421 9.41574 11.4836 8.34518 12.127 7.69024C12.6443 7.16368 13.1593 6.88634 13.5146 6.52018C13.2579 6.43487 12.9842 6.39393 12.6994 6.39628ZM14.4727 7.14481C13.953 7.79074 13.3123 8.08909 12.9295 8.47874C12.4896 8.92649 12.1859 9.46546 12.4071 11.0757C12.5136 11.6232 12.42 12.1491 12.2022 12.5864C11.9804 13.0317 11.6487 13.3937 11.2864 13.7184C10.736 14.2116 10.1011 14.6339 9.56996 15.0459C10.1723 15.2023 10.8581 15.1266 11.5564 14.8367C12.5201 14.4367 13.4879 13.6258 14.2036 12.4993C14.9193 11.3728 15.2423 10.1522 15.1951 9.10984C15.1589 8.31265 14.9127 7.62959 14.4727 7.14484L14.4727 7.14481ZM12.4071 11.0757C12.4052 11.0659 12.4037 11.0561 12.4017 11.0463L12.4082 11.0836C12.4079 11.0809 12.4075 11.0783 12.4071 11.0757H12.4071ZM3.65015 8.84374C3.07568 8.83856 2.53452 8.96453 2.07905 9.21271C2.08218 9.21281 2.0849 9.21303 2.08802 9.21312C2.35771 9.22265 2.69627 9.19084 3.08608 9.24406C3.47587 9.29731 3.93249 9.47431 4.2784 9.86571C4.62433 10.2571 4.86152 10.812 5.02674 11.6088L5.03065 11.6274L5.03321 11.6462C5.10987 12.2022 5.46402 12.5239 6.07802 12.825C6.6019 13.082 7.27449 13.2655 7.91293 13.4523C8.19887 12.1711 7.52043 10.6084 6.07512 9.63262C5.2958 9.10649 4.44155 8.8509 3.65021 8.84374H3.65015ZM1.11646 10.139C0.326772 11.4993 0.960085 13.4954 2.68227 14.6581C4.3768 15.8022 6.42558 15.6667 7.41165 14.48C6.83552 14.3158 6.1824 14.1293 5.58258 13.8351C4.80915 13.4558 4.07196 12.8183 3.92321 11.8282C3.78155 11.1501 3.59227 10.7882 3.4354 10.6107C3.2779 10.4324 3.15508 10.389 2.93383 10.3588C2.71258 10.3286 2.40852 10.3502 2.04843 10.3375C1.7678 10.3276 1.43855 10.2873 1.11646 10.139V10.139ZM3.92324 11.8282C3.92393 11.8313 3.92462 11.8342 3.92527 11.8373L3.9188 11.8C3.92012 11.8095 3.92183 11.8187 3.92327 11.8282L3.92324 11.8282Z" fill="#254434"/>
</g>
<defs>
<clipPath id="clip0_297_1123">
<rect width="16" height="16" fill="white"/>
</clipPath>
</defs>
</svg>
