<svg width="80" height="20" viewBox="0 0 80 20" fill="none" xmlns="http://www.w3.org/2000/svg">
<path d="M11.5744 16.7811C12.9094 16.6643 14.1525 16.4462 15.3056 16.1284C15.8718 16.0786 16.1831 16.3122 16.2394 16.8326V18.0899C16.185 18.6928 15.9468 19.062 15.5268 19.196C14.4656 19.7147 13.185 19.9844 11.6869 19.9998H7.2975C4.8825 19.7319 3.01687 19.0861 1.70062 18.0641C1.18875 17.2775 0.798756 16.2795 0.534381 15.0738C0.268131 13.8681 0.0899998 12.5696 0 11.1783V7.33263C0.0918748 5.57382 0.365627 4.30109 0.823126 3.51272C1.97625 2.47358 3.87749 1.88788 6.52874 1.75391H11.9606C13.0219 1.78826 13.9762 1.91364 14.8275 2.13006C15.6787 2.34819 16.3687 2.62473 16.8993 2.95966C17.3925 3.17779 17.5575 4.26674 17.3925 6.22651C17.2275 6.96335 16.77 7.26564 16.02 7.13167C15.0319 6.6456 13.8075 6.41201 12.3431 6.42747H8.11875C7.77187 6.56144 7.56937 6.84656 7.51499 7.28111V10.0962H13.9894C14.61 10.1804 14.9775 10.5325 15.0862 11.1525V12.1573C14.9587 12.7774 14.5931 13.1295 13.9894 13.2137H7.62374C7.65937 13.6997 7.70624 14.1944 7.76061 14.6959C7.83374 15.6337 7.95187 16.3294 8.11687 16.7811H11.5744Z" fill="#C2DAC4"/>
<path d="M24.9674 17.4235H25.7792C25.9986 17.0078 26.1374 16.5389 26.1955 16.0168C26.2686 15.5204 26.5761 15.2662 27.118 15.2525H30.5417C31.1699 15.292 31.5373 15.6681 31.6386 16.3775C31.4474 17.4098 30.838 18.2634 29.8067 18.9401C28.7755 19.6169 27.8286 19.969 26.9642 19.9965H24.133C23.1374 19.9432 22.1943 19.6186 21.3018 19.0209C20.4093 18.4249 19.693 17.6073 19.1511 16.5681C18.6093 15.529 18.2961 14.3937 18.208 13.1605V10.7077C18.238 10.0379 18.4311 9.29073 18.7893 8.46629C19.1474 7.64184 19.7211 6.94107 20.5124 6.36567C21.3017 5.79028 22.2317 5.46738 23.3005 5.40039H27.6017C28.5824 5.4399 29.4917 5.72158 30.3336 6.24544C31.1755 6.76759 31.7567 7.43917 32.0792 8.25674C32.4017 9.07431 32.548 9.82489 32.518 10.5085C32.4148 11.2316 32.0492 11.6078 31.4211 11.6335H27.8211C27.1911 11.606 26.8255 11.2316 26.7242 10.5085C26.5199 9.85238 26.2555 9.3955 25.9349 9.1413H24.7499C24.4274 9.3955 24.253 9.99837 24.223 10.9499V13.6843C24.2661 14.3284 24.343 15.0206 24.4536 15.766C24.5642 16.5097 24.7349 17.0628 24.9692 17.4252L24.9674 17.4235Z" fill="#C2DAC4"/>
<path d="M52.1304 19.8256C51.5454 19.7191 51.1348 19.3429 50.9004 18.7005C50.7392 18.0444 50.5536 17.062 50.3417 15.7549C50.1298 14.4478 49.9948 13.1115 49.9348 11.7443V8.76944C49.9929 7.92438 50.1111 7.06731 50.2854 6.19649C50.3867 5.67435 50.7092 5.35144 51.2511 5.23121H55.5092C56.1373 5.27072 56.5048 5.64687 56.6061 6.35795C56.5179 6.92132 56.4017 7.64442 56.2554 8.52898C56.1092 9.41353 55.9779 10.5403 55.8598 11.9058H56.7823C58.0554 11.6241 58.5973 10.8065 58.406 9.45304C58.2017 7.95187 58.0554 6.9196 57.9673 6.35623C58.0686 5.64515 58.4361 5.27071 59.0642 5.22949H63.3223C63.8642 5.34972 64.1848 5.67091 64.2879 6.19478C64.4642 7.06559 64.5804 7.92439 64.6385 8.76772V9.61277C64.5654 10.2826 64.2542 10.9731 63.7067 11.6842C63.1573 12.3953 62.2985 12.95 61.1285 13.352C62.8554 14.5457 63.7479 16.0469 63.806 17.8555L63.6748 18.7005C63.4404 19.3446 63.0317 19.7191 62.4467 19.8256H59.2648C58.6948 19.786 58.3498 19.4099 58.2336 18.7005C58.4679 17.4415 58.5692 16.4883 58.541 15.8459C58.4098 14.9751 57.8248 14.4924 56.7861 14.398H55.9517C55.9817 16.0056 56.1129 17.4415 56.3473 18.7005C56.2311 19.4116 55.8861 19.786 55.3161 19.8256H52.1342H52.1304Z" fill="#C2DAC4"/>
<path d="M11.8556 15.2371C13.1906 15.1203 14.4337 14.9022 15.5868 14.5845C16.1531 14.5346 16.4644 14.7682 16.5206 15.2887V16.5459C16.4662 17.1488 16.2281 17.5181 15.8081 17.6521C14.7469 18.1708 13.4662 18.4404 11.9681 18.4559H7.57875C5.16375 18.188 3.29812 17.5421 1.98187 16.5202C1.47 15.7335 1.08001 14.7356 0.815631 13.5299C0.549381 12.3241 0.37125 11.0256 0.28125 9.63436V5.78869C0.373125 4.02988 0.646877 2.75714 1.10438 1.96877C2.2575 0.929628 4.15875 0.343933 6.80999 0.209961H12.2419C13.3031 0.244313 14.2575 0.369697 15.1087 0.586113C15.96 0.804247 16.65 1.08078 17.1806 1.41571C17.6737 1.63384 17.8387 2.72279 17.6737 4.68256C17.5087 5.41941 17.0512 5.7217 16.3012 5.58773C15.3131 5.10165 14.0887 4.86806 12.6244 4.88352H8.4C8.05312 5.01749 7.85062 5.30261 7.79624 5.73888V8.554H14.2706C14.8912 8.63816 15.2587 8.99027 15.3675 9.61032V10.6151C15.24 11.2352 14.8744 11.5873 14.2706 11.6714H7.90499C7.94062 12.1575 7.98749 12.6522 8.04186 13.1537C8.11499 14.0915 8.23312 14.7871 8.39812 15.2389H11.8556V15.2371Z" fill="#00683B"/>
<path d="M25.2486 15.8796H26.0605C26.2799 15.4639 26.4186 14.995 26.4767 14.4729C26.5499 13.9765 26.8574 13.7223 27.3992 13.7085H30.823C31.4511 13.748 31.8186 14.1242 31.9198 14.8335C31.7286 15.8658 31.1192 16.7195 30.088 17.3962C29.0567 18.0729 28.1099 18.425 27.2455 18.4525H24.4142C23.4186 18.3993 22.4755 18.0746 21.583 17.4769C20.6905 16.8809 19.9742 16.0633 19.4324 15.0242C18.8905 13.9851 18.5774 12.8497 18.4893 11.6165V9.16379C18.5193 8.49393 18.7124 7.74678 19.0705 6.92233C19.4286 6.09789 20.0024 5.39712 20.7936 4.82173C21.583 4.24634 22.513 3.92343 23.5817 3.85645H27.883C28.8636 3.89595 29.773 4.17763 30.6149 4.7015C31.4567 5.22364 32.038 5.89522 32.3605 6.71279C32.683 7.53036 32.8292 8.28095 32.7992 8.96455C32.6961 9.68765 32.3305 10.0638 31.7024 10.0896H28.1024C27.4724 10.0621 27.1067 9.68765 27.0055 8.96455C26.8011 8.30843 26.5367 7.85155 26.2161 7.59735H25.0311C24.7086 7.85155 24.5342 8.45443 24.5042 9.40597V12.1404C24.5474 12.7845 24.6242 13.4766 24.7349 14.2221C24.8455 14.9658 25.0161 15.5189 25.2505 15.8813L25.2486 15.8796Z" fill="#00683B"/>
<path d="M52.4119 18.2806C51.8269 18.1741 51.4163 17.798 51.1819 17.1556C51.0207 16.4995 50.8351 15.517 50.6232 14.2099C50.4113 12.9029 50.2763 11.5666 50.2163 10.1994V7.22452C50.2744 6.37946 50.3926 5.52238 50.5669 4.65157C50.6682 4.12942 50.9907 3.80652 51.5326 3.68628H55.7907C56.4188 3.72579 56.7863 4.10194 56.8875 4.81131C56.7994 5.37468 56.6832 6.09778 56.5369 6.98234C56.3907 7.86689 56.2594 8.99363 56.1413 10.3591H57.0638C58.3369 10.0774 58.8788 9.25986 58.6875 7.9064C58.4832 6.40523 58.3369 5.37296 58.2488 4.80959C58.35 4.09851 58.7175 3.72407 59.3457 3.68457H63.6038C64.1456 3.8048 64.4663 4.12599 64.5694 4.64985C64.7457 5.52067 64.8619 6.37946 64.92 7.2228V8.06785C64.8469 8.73771 64.5357 9.42818 63.9882 10.1393C63.4388 10.8503 62.58 11.4051 61.41 11.807C63.1369 13.0008 64.0294 14.5019 64.0875 16.3106L63.9563 17.1556C63.7219 17.7997 63.3132 18.1741 62.7282 18.2806H59.5463C58.9763 18.2411 58.6313 17.865 58.5151 17.1556C58.7494 15.8966 58.8507 14.9434 58.8225 14.301C58.6913 13.4302 58.1063 12.9475 57.0676 12.853H56.2332C56.2632 14.4607 56.3944 15.8966 56.6288 17.1556C56.5125 17.8667 56.1675 18.2411 55.5976 18.2806H52.4157H52.4119Z" fill="#00683B"/>
<path d="M73.7212 14.7924C73.2011 14.7188 72.7283 15.1109 72.445 15.5777C72.1588 16.0491 72.0611 16.6486 72.0156 17.2095C71.9702 17.7705 72.0156 18.3393 72.2585 18.8187C72.5013 19.298 72.9405 19.621 73.4054 19.7615C73.8703 19.902 74.4191 19.8975 74.885 19.6935C75.3509 19.4895 75.7141 19.1552 76.0023 18.7019C76.5501 17.8385 76.5807 16.635 76.1395 15.7069C75.6252 14.6236 74.4072 14.1647 73.4676 14.8185C73.2692 14.9568 73.1764 15.282 73.3087 15.5166C73.4409 15.7511 73.7035 15.8474 73.9167 15.699C73.9532 15.6729 73.9897 15.6491 74.0282 15.6265C74.044 15.6174 74.0608 15.6083 74.0776 15.5993C74.0716 15.6027 74.0075 15.6276 74.0549 15.6117C74.1358 15.5845 74.2148 15.5596 74.2967 15.5358C74.3599 15.5177 74.2197 15.5403 74.2849 15.5369C74.3026 15.5369 74.3204 15.5335 74.3381 15.5324C74.3737 15.5301 74.4092 15.529 74.4448 15.529C74.4862 15.529 74.5277 15.5347 74.5691 15.5369C74.6204 15.5392 74.5444 15.5335 74.5395 15.5324C74.5691 15.5392 74.5987 15.5449 74.6274 15.5517C74.7043 15.5709 74.7774 15.5993 74.8514 15.631C74.7784 15.5993 74.8455 15.631 74.8771 15.6491C74.9205 15.6752 74.9629 15.7035 75.0034 15.7341C75.0301 15.7534 75.0922 15.81 75.033 15.7545C75.0666 15.7862 75.0992 15.8191 75.1307 15.8531C75.1604 15.886 75.189 15.92 75.2156 15.9551C75.2275 15.9698 75.2383 15.9868 75.2502 16.0016C75.2926 16.0537 75.2117 15.9347 75.2462 15.9948C75.2897 16.0695 75.3331 16.1421 75.3706 16.2214C75.3913 16.2645 75.4071 16.3086 75.4278 16.3517C75.4515 16.4027 75.4219 16.3324 75.4199 16.3268C75.4288 16.3528 75.4377 16.3789 75.4466 16.4061C75.4762 16.499 75.5009 16.5942 75.5196 16.6917C75.5275 16.7336 75.5344 16.7755 75.5414 16.8175C75.5453 16.8401 75.5522 16.9172 75.5414 16.8095C75.5443 16.8378 75.5473 16.8662 75.5492 16.8945C75.5562 16.9874 75.5581 17.0804 75.5562 17.1733C75.5552 17.2231 75.5512 17.273 75.5483 17.3229C75.5483 17.3331 75.5394 17.4044 75.5483 17.3399C75.5571 17.2753 75.5433 17.3659 75.5414 17.3772C75.5265 17.4702 75.5058 17.562 75.4811 17.6515C75.4673 17.7002 75.4515 17.7489 75.4357 17.7965C75.418 17.8521 75.4407 17.7818 75.4436 17.7761C75.4318 17.8022 75.4219 17.8294 75.4111 17.8555C75.3716 17.9461 75.3272 18.0334 75.2778 18.1172C75.261 18.1467 75.2117 18.2215 75.2591 18.1523C75.2285 18.1965 75.1959 18.2407 75.1633 18.2815C75.109 18.3484 75.0518 18.4118 74.9916 18.4719C74.9777 18.4855 74.9629 18.498 74.9501 18.5116C74.9541 18.507 75.0093 18.4628 74.9679 18.4946C74.9264 18.5263 74.8899 18.558 74.8484 18.5864C74.7754 18.6385 74.6994 18.6861 74.6204 18.7235C74.6895 18.6906 74.5701 18.7416 74.5504 18.7484C74.504 18.7654 74.4576 18.7801 74.4102 18.7937C74.3628 18.8073 74.3154 18.8153 74.2681 18.8266C74.2167 18.8391 74.275 18.8255 74.2839 18.8243C74.2631 18.8266 74.2424 18.8289 74.2217 18.8311C74.118 18.8402 74.0144 18.8402 73.9108 18.8311C73.8841 18.8289 73.7874 18.8141 73.8634 18.8277C73.815 18.8187 73.7676 18.8085 73.7203 18.7971C73.6344 18.7756 73.5495 18.7473 73.4676 18.7121C73.4498 18.7053 73.433 18.6974 73.4163 18.6895C73.4232 18.6929 73.4804 18.7269 73.438 18.6985C73.4005 18.6736 73.36 18.6544 73.3225 18.6294C73.2899 18.6079 73.2593 18.5841 73.2277 18.5614C73.1586 18.5093 73.2149 18.5501 73.2277 18.5637C73.209 18.5456 73.1892 18.5263 73.1715 18.507C73.1389 18.473 73.1113 18.4322 73.0797 18.3971C73.0451 18.3586 73.0846 18.4062 73.0895 18.4141C73.0787 18.396 73.0668 18.3779 73.057 18.3586C73.0323 18.3144 73.0106 18.2691 72.9889 18.2226C72.9859 18.2169 72.9593 18.1489 72.979 18.2011C72.9987 18.2532 72.9691 18.1659 72.9662 18.1569C72.9356 18.0549 72.9178 17.9518 72.9 17.8464C72.8902 17.7875 72.902 17.8577 72.902 17.8668C72.9 17.843 72.8981 17.8203 72.8961 17.7965C72.8921 17.7342 72.8892 17.6707 72.8882 17.6084C72.8862 17.4906 72.8911 17.3716 72.899 17.2537C72.904 17.1914 72.9099 17.1279 72.9158 17.0656C72.9069 17.1574 72.9237 17.0135 72.9277 16.9852C72.9464 16.8582 72.9701 16.7313 73.0017 16.6078C73.0155 16.5545 73.0293 16.5013 73.0461 16.448C73.055 16.4186 73.0649 16.3891 73.0757 16.3596C73.0589 16.4084 73.0649 16.3868 73.0807 16.3517C73.1053 16.2962 73.129 16.2407 73.1576 16.1874C73.1685 16.167 73.1794 16.1477 73.1902 16.1285C73.1942 16.1205 73.2416 16.0435 73.2129 16.0877C73.1843 16.1319 73.2228 16.0741 73.2267 16.0695C73.2485 16.0423 73.2702 16.0152 73.2929 15.9891C73.3126 15.9664 73.3995 15.886 73.3333 15.9404C73.3738 15.9064 73.4163 15.878 73.4597 15.8486C73.4656 15.844 73.5219 15.81 73.4725 15.8384C73.4182 15.869 73.509 15.8248 73.5209 15.8202C73.5377 15.8146 73.5564 15.8123 73.5732 15.8044C73.6265 15.7806 73.5031 15.8044 73.5604 15.8044C73.6176 15.8044 73.666 15.8021 73.7212 15.81C73.9532 15.8429 74.1753 15.5517 74.1654 15.3001C74.1536 14.9953 73.969 14.8253 73.7212 14.7902V14.7924Z" fill="#C2DAC4"/>
<path d="M73.4455 16.9356C73.7439 15.3744 74.0132 13.722 73.1884 12.2509C72.833 11.6182 72.2742 11.0899 71.5735 10.7777C71.3746 10.6886 71.169 10.6128 70.9633 10.5361C70.8728 10.5023 70.7823 10.4695 70.6929 10.4347C70.5453 10.3794 70.7789 10.4716 70.6336 10.4112C70.5744 10.3866 70.5152 10.363 70.4571 10.3364C70.2984 10.2658 70.1497 10.1849 70.0044 10.0928C69.8905 10.0211 70.0737 10.1542 69.972 10.0692C69.9407 10.0436 69.9083 10.0191 69.877 9.99142C69.8457 9.96378 69.8167 9.93819 69.7876 9.90952C69.772 9.89416 69.6636 9.76824 69.7329 9.85629C69.677 9.78462 69.6301 9.71091 69.5865 9.63208C69.6401 9.72934 69.5853 9.62492 69.5775 9.60444C69.5608 9.55735 69.5496 9.50923 69.5384 9.46009C69.5619 9.57066 69.5418 9.46214 69.5406 9.43654C69.5406 9.41402 69.5406 9.39252 69.5429 9.37C69.5317 9.43757 69.5306 9.44576 69.5418 9.39355C69.5518 9.36181 69.5619 9.32905 69.5719 9.29731C69.5921 9.2492 69.5887 9.25534 69.5641 9.31472C69.5753 9.29424 69.5865 9.27479 69.5988 9.25534C69.6178 9.22565 69.6379 9.19801 69.6591 9.17036C69.582 9.26967 69.6792 9.15706 69.7016 9.13761L69.7284 9.11508C69.7709 9.08232 69.7653 9.08642 69.7116 9.12532C69.7172 9.11406 69.8212 9.05468 69.8335 9.0598L69.7765 9.0813C69.7977 9.07413 69.8189 9.06697 69.8413 9.06185C69.8625 9.0557 69.8849 9.05161 69.9072 9.04752C69.829 9.05571 69.8178 9.05775 69.8737 9.05468C69.9955 9.0639 69.8759 9.04137 69.8737 9.04956C69.896 9.05366 69.9184 9.0598 69.9396 9.06594C69.8737 9.0383 69.867 9.03625 69.9162 9.05877L70.4235 8.26331C70.3274 8.22544 70.2335 8.18244 70.1453 8.13125C70.1251 8.11999 69.9866 8.02682 70.0871 8.09951C70.0458 8.06982 70.0067 8.03911 69.9676 8.00635C69.8904 7.94083 69.82 7.87019 69.7541 7.79545C69.8335 7.88657 69.7306 7.76065 69.7183 7.74222C69.6893 7.70229 69.6625 7.66032 69.6379 7.61835C69.6133 7.57637 69.5898 7.53235 69.5675 7.48935C69.544 7.44226 69.5462 7.44533 69.5719 7.49959C69.5619 7.47707 69.5529 7.45454 69.5451 7.43202C69.5149 7.35319 69.4904 7.27129 69.4725 7.18939C69.4669 7.16584 69.4624 7.1423 69.4579 7.11875C69.4658 7.18222 69.4669 7.18734 69.4602 7.13411C69.4568 7.08599 69.4512 7.0389 69.4501 6.99078C69.449 6.94266 69.4501 6.89455 69.4535 6.84745C69.4557 6.82391 69.4579 6.79934 69.4602 6.77579C69.4501 6.83824 69.4501 6.84336 69.4591 6.79115C69.4814 6.69594 69.5094 6.60585 69.5406 6.51371C69.5608 6.46559 69.5585 6.46866 69.5339 6.52395C69.544 6.50245 69.5552 6.47992 69.5663 6.45842C69.5887 6.41543 69.6144 6.37345 69.6401 6.33148C69.6658 6.2895 69.6949 6.24958 69.725 6.21068C69.7407 6.1902 69.8178 6.1083 69.7418 6.18917C69.8111 6.11649 69.8804 6.04585 69.9586 5.98033C69.9765 5.966 70.1106 5.86874 70.0089 5.93733C70.0514 5.90866 70.0938 5.88102 70.1385 5.85543C70.2268 5.80322 70.3196 5.75919 70.4146 5.71927C70.295 5.76841 70.4526 5.70903 70.4772 5.70084C70.5264 5.68548 70.5766 5.6732 70.6281 5.66194C70.6795 5.65068 70.732 5.63532 70.7823 5.6343C70.6426 5.63737 70.8169 5.6343 70.8438 5.6343C71.0572 5.62406 71.2785 5.49916 71.3288 5.29645C71.3768 5.10501 71.3008 4.8716 71.0974 4.77639C71.0404 4.74977 70.9857 4.70677 70.9287 4.68425C70.8672 4.6607 71.0136 4.75591 70.9331 4.68732C70.9074 4.66582 70.8806 4.64432 70.856 4.6218C70.8393 4.60644 70.8236 4.59109 70.808 4.57573C70.7856 4.55321 70.7029 4.49588 70.7968 4.56959C70.7488 4.53171 70.713 4.45697 70.6817 4.40681C70.6705 4.38736 70.6593 4.36893 70.6482 4.34948C70.6292 4.31569 70.5699 4.25631 70.6403 4.34026C70.6091 4.30341 70.5956 4.22765 70.5822 4.18465C70.5655 4.13142 70.5509 4.07716 70.5398 4.0229C70.5386 4.01573 70.5196 3.90619 70.5319 3.98502C70.5442 4.06385 70.5275 3.92564 70.5263 3.91233C70.5196 3.81917 70.4928 3.66151 70.5353 3.57551L70.5275 3.6308C70.5308 3.60827 70.5353 3.58678 70.5398 3.56425C70.5442 3.54275 70.5498 3.52023 70.5543 3.49873C70.571 3.43321 70.5912 3.36871 70.6146 3.30626C70.6202 3.29193 70.6672 3.18956 70.6225 3.28067C70.6336 3.2561 70.6459 3.23255 70.6582 3.20798C70.6929 3.14246 70.7309 3.07899 70.7711 3.01654C70.8113 2.95409 70.8571 2.89574 70.9019 2.83636C70.913 2.82203 70.9611 2.76981 70.9019 2.83636C70.9343 2.80053 70.9656 2.7647 70.9991 2.72989C71.0997 2.62547 71.2092 2.52718 71.3232 2.43505C71.3779 2.39102 71.4349 2.34803 71.4919 2.30605C71.4171 2.36133 71.4931 2.30605 71.5132 2.29274C71.5545 2.2651 71.597 2.23746 71.6384 2.20982C71.8999 2.04397 72.1759 1.89655 72.4631 1.77062C72.5078 1.75117 72.5525 1.73275 72.5984 1.71432C72.5279 1.74401 72.6028 1.71227 72.6151 1.70818C72.6922 1.68156 72.7693 1.65494 72.8476 1.63242C72.9325 1.60785 73.0197 1.58635 73.1069 1.56894C73.146 1.56075 73.1862 1.55461 73.2253 1.54847C73.1236 1.56485 73.2834 1.54335 73.3058 1.54233C73.3929 1.53721 73.479 1.54028 73.5662 1.54335C73.5863 1.54335 73.6623 1.55768 73.5729 1.54335C73.6198 1.55154 73.6656 1.55973 73.7126 1.57099C73.7439 1.57816 73.7741 1.58839 73.8042 1.59556C73.9506 1.63344 73.7204 1.54847 73.821 1.59966C73.8657 1.62218 73.9685 1.65392 73.992 1.69589C73.9719 1.65904 73.926 1.64368 73.9685 1.68258C73.9998 1.71227 74.0333 1.73889 74.0646 1.7696C74.0669 1.77165 74.1082 1.8085 74.1082 1.81669C74.0646 1.76346 74.059 1.75732 74.0903 1.79827C74.1026 1.81567 74.1149 1.83205 74.1272 1.85048C74.1395 1.86788 74.1507 1.88631 74.1607 1.90371C74.1719 1.92214 74.182 1.93955 74.192 1.95797C74.2144 2.00302 74.211 1.99483 74.182 1.93238C74.2032 1.93443 74.2345 2.08594 74.239 2.10539C74.2423 2.11768 74.2446 2.15658 74.2501 2.16375C74.2401 2.09004 74.2378 2.07775 74.2423 2.12894C74.2434 2.14839 74.2445 2.16784 74.2445 2.18627C74.2445 2.20572 74.2423 2.22415 74.2423 2.2436C74.2412 2.33165 74.2781 2.1402 74.239 2.24667C74.2311 2.26817 74.2244 2.29172 74.2177 2.31424C74.1931 2.39409 74.2803 2.23132 74.211 2.31936C74.2054 2.32653 74.1674 2.37464 74.1686 2.37874C74.2155 2.32448 74.2211 2.31527 74.1853 2.35212C74.1697 2.36645 74.154 2.38079 74.1373 2.3941C73.9797 2.52616 73.9428 2.78722 74.059 2.95204C74.1875 3.13427 74.3988 3.20389 74.6268 3.16396C75.3163 3.04418 75.855 2.94385 76.5546 2.94897C76.7155 2.95 76.8753 2.95819 77.0363 2.97354C77.1357 2.98378 76.9189 2.95409 77.0888 2.97968C77.1246 2.9848 77.1592 2.98992 77.195 2.99606C77.2609 3.00733 77.3268 3.02064 77.3928 3.03497C77.5113 3.06159 77.6286 3.09537 77.7426 3.13427C77.7437 3.13427 77.8689 3.17829 77.7962 3.1527C77.7236 3.12711 77.8465 3.1742 77.8488 3.1742C77.9102 3.20082 77.9717 3.22846 78.0309 3.25815C78.1382 3.31138 78.2399 3.37179 78.3394 3.43526C78.4154 3.48338 78.3483 3.44038 78.3338 3.43014C78.3595 3.44959 78.3863 3.46904 78.4109 3.48849C78.4668 3.53149 78.5204 3.57756 78.5718 3.62568C78.6087 3.66049 78.6445 3.69632 78.6791 3.73215C78.6959 3.75058 78.7126 3.76901 78.7294 3.78743C78.6601 3.70963 78.7171 3.77412 78.7339 3.79562C78.8065 3.88981 78.8646 3.98911 78.9205 4.09251C78.8725 4.0014 78.9127 4.07511 78.9228 4.09968C78.9339 4.12834 78.9451 4.15701 78.9552 4.1867C78.9697 4.2297 78.982 4.2727 78.992 4.31569C78.9943 4.32491 79.0233 4.42728 79.001 4.34948C78.9786 4.27167 79.0021 4.37097 79.0032 4.38428C79.0077 4.43854 79.0088 4.49178 79.0066 4.54604C79.0066 4.56754 79.0043 4.58904 79.0021 4.61054C79.0021 4.62282 78.9786 4.7211 78.9988 4.64637C79.0178 4.57675 78.9809 4.72213 78.9753 4.74465C78.963 4.79174 78.9473 4.83883 78.9306 4.8849C78.9239 4.90333 78.9161 4.94838 78.9004 4.96169L78.9239 4.91152C78.9149 4.93097 78.9049 4.95145 78.8948 4.9709C78.849 5.05792 78.7909 5.17872 78.7126 5.24527C78.7931 5.1777 78.7473 5.20636 78.7261 5.22581C78.7026 5.24834 78.6802 5.27291 78.6568 5.29543C78.6367 5.31386 78.6165 5.33229 78.5953 5.34969C78.5841 5.35891 78.4947 5.43364 78.5551 5.38347C78.6154 5.33331 78.5338 5.39678 78.5238 5.4019C78.4958 5.41931 78.4668 5.43569 78.4377 5.45002C78.4187 5.46026 78.3975 5.46845 78.3785 5.47868C78.2813 5.52885 78.4813 5.449 78.3751 5.48073C78.3215 5.49711 78.269 5.51349 78.2131 5.52373L78.1796 5.52987C78.1349 5.53704 78.1349 5.53704 78.1796 5.52987C78.2243 5.52475 78.2232 5.52373 78.1773 5.52783C78.1539 5.52885 78.1304 5.52987 78.1069 5.52987C77.8555 5.53499 77.6465 5.70187 77.6129 5.92914C77.5772 6.17075 77.737 6.34888 77.9728 6.43488C77.851 6.39085 78.0075 6.45126 78.0298 6.46149C78.0644 6.47787 78.098 6.4963 78.1304 6.51473C78.1516 6.52702 78.288 6.61813 78.1874 6.54544C78.2176 6.56797 78.2477 6.59049 78.2757 6.61506C78.3439 6.67137 78.4008 6.73484 78.4634 6.79627C78.3841 6.71744 78.4645 6.79934 78.478 6.81776C78.507 6.85667 78.535 6.89762 78.5607 6.93857C78.5797 6.96928 78.5987 7.00102 78.6154 7.03378C78.6266 7.05528 78.6378 7.07678 78.6478 7.09827C78.6255 7.04811 78.621 7.0389 78.6344 7.07063C78.659 7.14434 78.6892 7.21601 78.7071 7.29279C78.7138 7.32145 78.7663 7.46273 78.7216 7.34603C78.7328 7.37674 78.7294 7.42076 78.7305 7.45249C78.7328 7.49447 78.7328 7.53542 78.7305 7.57739C78.7294 7.60401 78.7294 7.73915 78.7317 7.61528C78.7294 7.69513 78.6937 7.78726 78.6657 7.862C78.659 7.88043 78.6065 7.98792 78.659 7.88657C78.6389 7.92445 78.6199 7.96335 78.5975 8.00021C78.5562 8.06982 78.5104 8.13534 78.459 8.19882C78.5338 8.10565 78.4277 8.22851 78.4109 8.24489C78.3841 8.27151 78.3561 8.2971 78.3271 8.32269C78.2891 8.35648 78.2488 8.38719 78.2075 8.41892C78.2734 8.36876 78.2198 8.40971 78.1818 8.43326C78.1047 8.48035 78.0242 8.52028 77.9415 8.55918C77.8275 8.61242 78.0376 8.53154 77.9158 8.5684C77.8655 8.58375 77.8163 8.59911 77.7649 8.61139C77.7269 8.62061 77.6878 8.62675 77.6498 8.63494C77.5928 8.64313 77.5984 8.64313 77.6666 8.63494C77.6398 8.63801 77.6141 8.64006 77.5872 8.64108C77.3257 8.65849 77.072 8.84072 77.0843 9.10177C77.0966 9.36283 77.3056 9.55735 77.5872 9.56247C77.6822 9.56451 77.6264 9.59216 77.5783 9.5553C77.5906 9.56451 77.6487 9.57168 77.6655 9.57475C77.7448 9.59113 77.6353 9.56861 77.6275 9.55837C77.6342 9.56861 77.6912 9.59113 77.7046 9.59727C77.7951 9.64027 77.6241 9.52356 77.6968 9.59011C77.7113 9.60342 77.7258 9.61468 77.7404 9.62799C77.7571 9.64334 77.7806 9.6802 77.8007 9.68941C77.7538 9.63311 77.7448 9.62389 77.7761 9.66382C77.7873 9.67917 77.7985 9.69555 77.8085 9.71194C77.8186 9.72832 77.8275 9.74572 77.8376 9.7621C77.8923 9.84912 77.8029 9.66177 77.8376 9.75903C77.8543 9.80612 77.8711 9.85219 77.8834 9.90031C77.8879 9.91771 77.889 9.97504 77.9013 9.98835L77.8912 9.92488C77.8935 9.94433 77.8946 9.9648 77.8957 9.98426C77.8979 10.0221 77.8711 10.1399 77.889 10.1634C77.8633 10.1296 77.9091 10.0651 77.8856 10.1583C77.8812 10.1777 77.8756 10.1972 77.8689 10.2156C77.8666 10.2228 77.8353 10.2975 77.8376 10.2996C77.8231 10.2873 77.889 10.2023 77.8331 10.2955C77.8007 10.3497 77.7627 10.4019 77.7225 10.4511C77.7951 10.363 77.7113 10.4583 77.6979 10.4705C77.6711 10.4972 77.642 10.5238 77.6129 10.5494C77.5839 10.575 77.5526 10.5985 77.5224 10.6231C77.4241 10.704 77.6062 10.575 77.4956 10.6415C77.4386 10.6763 77.3827 10.7122 77.3246 10.7439C77.2665 10.7756 77.205 10.8063 77.1436 10.835C77.1067 10.8524 77.0687 10.8688 77.0307 10.8852C77.0173 10.8903 76.8787 10.9466 76.9368 10.9241C77.0072 10.8974 76.8798 10.9445 76.8798 10.9445C76.8407 10.9589 76.8016 10.9722 76.7625 10.9855C76.6976 11.008 76.6317 11.0285 76.5658 11.049C76.4037 11.0991 76.2406 11.1462 76.0785 11.1974C75.7533 11.2998 75.4247 11.4144 75.1274 11.5752C74.4982 11.914 74.0602 12.4689 73.9585 13.1354C73.8478 13.8582 74.03 14.5748 74.2557 15.2648C74.3317 15.4952 74.6122 15.6641 74.8749 15.5863C75.1375 15.5085 75.3074 15.2669 75.2258 15.0191C75.1241 14.7089 75.0302 14.3967 74.971 14.0783C74.9643 14.0455 74.9598 14.0117 74.9531 13.9779C74.9374 13.9001 74.9643 14.0885 74.9509 13.9605C74.9419 13.8807 74.933 13.8019 74.9285 13.722C74.9252 13.6565 74.924 13.591 74.9252 13.5254C74.9252 13.4865 74.9274 13.4476 74.9307 13.4098C74.9319 13.3872 74.9542 13.2214 74.9341 13.3422C74.9576 13.204 74.9956 13.0729 75.047 12.9419C75.0056 13.0453 75.0537 12.9317 75.0626 12.9143C75.0816 12.8805 75.1006 12.8467 75.1218 12.8139C75.1364 12.7924 75.1509 12.7699 75.1666 12.7484C75.1822 12.7269 75.1979 12.7054 75.2146 12.6849C75.1789 12.7259 75.18 12.7269 75.2146 12.686C75.2727 12.6297 75.3286 12.5733 75.3923 12.5211C75.4046 12.5109 75.5152 12.4341 75.4214 12.4966C75.4437 12.4812 75.4672 12.4669 75.4895 12.4515C75.6304 12.3635 75.7812 12.2898 75.9366 12.2253C75.95 12.2191 76.083 12.17 75.9757 12.2089C76.0159 12.1946 76.0561 12.1792 76.0975 12.1649C76.1791 12.1362 76.2607 12.1096 76.3434 12.084C76.5054 12.0328 76.6686 11.9857 76.8306 11.9355C77.1603 11.8332 77.4911 11.7165 77.794 11.5568C78.3997 11.2363 78.8948 10.7081 78.8982 10.0406C78.9015 9.37307 78.3919 8.64927 77.5828 8.63494V9.55632C78.3841 9.50207 79.1418 9.06594 79.4983 8.39538C79.8548 7.72482 79.7934 6.94062 79.3296 6.33455C79.049 5.96804 78.687 5.70698 78.2332 5.54421L78.0991 6.44921C79.3921 6.42362 80.2069 5.15313 79.9543 4.06282C79.8168 3.46802 79.3653 2.97764 78.8401 2.63058C78.3148 2.28353 77.6554 2.1013 77.0028 2.03987C76.1165 1.95592 75.2213 2.11461 74.353 2.26613L74.8425 3.03599C75.3878 2.58042 75.332 1.78496 74.9129 1.2741C74.6737 0.981306 74.3641 0.768362 73.9741 0.674177C73.5315 0.567705 73.0566 0.60456 72.6229 0.72434C71.8473 0.938306 71.0818 1.36214 70.4962 1.87198C69.9106 2.38181 69.5395 3.00425 69.5116 3.72191C69.4836 4.43957 69.8558 5.22479 70.5845 5.56673L70.8382 4.70779C69.9664 4.74874 69.1428 5.21455 68.7282 5.92402C68.3113 6.63553 68.3605 7.50573 68.8332 8.18551C69.0914 8.55713 69.4624 8.87962 69.9094 9.05366C70.1508 9.14784 70.4593 9.12737 70.5979 8.88883C70.7197 8.67794 70.6672 8.37593 70.4179 8.2582C69.5518 7.85176 68.6153 8.52949 68.5348 9.3485C68.4544 10.1675 69.2378 10.8176 69.9653 11.136C70.1799 11.2302 70.4012 11.3111 70.6225 11.393C70.6672 11.4093 70.713 11.4267 70.7577 11.4431C70.78 11.4513 70.8024 11.4605 70.8247 11.4687C70.8046 11.4615 70.7465 11.438 70.8393 11.4749C70.932 11.5117 71.0315 11.5537 71.1243 11.5967C71.217 11.6397 71.3098 11.6868 71.3981 11.739C71.4338 11.7595 71.4685 11.781 71.5031 11.8035C71.5199 11.8147 71.5367 11.826 71.5545 11.8373C71.6182 11.8762 71.4674 11.7697 71.5679 11.8475C71.7065 11.954 71.835 12.0686 71.9524 12.1956C71.9759 12.2212 72.0306 12.2846 71.9781 12.2212C72.0038 12.2519 72.0284 12.2826 72.0519 12.3143C72.1077 12.388 72.1614 12.4628 72.2106 12.5406C72.2564 12.6133 72.2999 12.687 72.3402 12.7617C72.3592 12.7965 72.3771 12.8313 72.395 12.8672C72.4039 12.8846 72.4117 12.903 72.4207 12.9204C72.4017 12.8825 72.4005 12.8754 72.4195 12.9184C72.4888 13.0822 72.5492 13.249 72.5972 13.419C72.6185 13.4947 72.6375 13.5705 72.6542 13.6473C72.6643 13.6913 72.6732 13.7363 72.6811 13.7814C72.6844 13.8008 72.6878 13.8193 72.6911 13.8387C72.6933 13.849 72.7045 13.9329 72.6967 13.8735C72.6889 13.8111 72.6989 13.893 72.6989 13.9001C72.7023 13.9329 72.7068 13.9657 72.7101 13.9984C72.7168 14.0639 72.7224 14.1295 72.7258 14.196C72.7336 14.3189 72.7369 14.4427 72.7358 14.5666C72.7358 14.8062 72.7202 15.0447 72.6956 15.2832C72.6833 15.4071 72.6676 15.53 72.6498 15.6538C72.6419 15.7081 72.6486 15.6661 72.6498 15.6538C72.6453 15.6866 72.6397 15.7194 72.6341 15.7521C72.624 15.8176 72.6129 15.8832 72.6017 15.9487C72.5604 16.1944 72.5134 16.4391 72.4665 16.6848C72.4195 16.9305 72.5358 17.1926 72.8174 17.2519C73.0621 17.3031 73.3874 17.1844 73.4365 16.9305L73.4455 16.9356Z" fill="#C2DAC4"/>
<path d="M72.653 4.70928C72.6988 4.7615 72.7458 4.81371 72.7905 4.86694C72.7223 4.78709 72.8106 4.89254 72.8184 4.90175C72.8363 4.92325 72.8531 4.94475 72.871 4.96625C72.9659 5.085 73.0576 5.20581 73.1459 5.32968C73.3057 5.55389 73.4543 5.78526 73.5907 6.02175C73.6589 6.1405 73.7237 6.26028 73.7863 6.38108C73.8176 6.44149 73.8477 6.50291 73.8768 6.56434C73.8947 6.60119 73.9126 6.63805 73.9293 6.67491C73.8947 6.60017 73.9338 6.68616 73.9461 6.71381C74.0589 6.96872 74.1584 7.22876 74.2445 7.49186C74.3305 7.75497 74.4043 8.02217 74.4635 8.29142C74.4926 8.42246 74.5183 8.55453 74.5417 8.68762C74.5462 8.71423 74.5507 8.74085 74.5552 8.76747C74.5574 8.78283 74.5775 8.91592 74.5619 8.80433C74.5719 8.87701 74.582 8.95072 74.5898 9.02443C74.6524 9.57112 74.6613 10.1229 74.6122 10.6706C74.6055 10.7444 74.5976 10.817 74.5898 10.8908C74.5853 10.9307 74.5797 10.9706 74.5753 11.0105C74.5719 11.0341 74.554 11.1528 74.5708 11.0474C74.5473 11.1999 74.5194 11.3514 74.487 11.503C74.421 11.8121 74.335 12.1172 74.2311 12.4182C74.1517 12.6485 74.3238 12.9311 74.582 12.9854C74.8558 13.0427 75.1162 12.9096 75.2011 12.6639C75.9846 10.3901 75.7163 7.86349 74.5596 5.73714C74.2333 5.13619 73.8276 4.57927 73.3649 4.06022C73.1973 3.87287 72.8251 3.88925 72.6541 4.06022C72.4541 4.25985 72.4753 4.5117 72.6541 4.71133L72.653 4.70928Z" fill="#C2DAC4"/>
<path d="M75.1071 4.6398C75.1171 4.72068 75.1216 4.80156 75.1205 4.88346C75.1205 4.92441 75.1183 4.96434 75.1149 5.00529C75.1138 5.02371 75.1115 5.04112 75.1093 5.05954C75.1004 5.13633 75.1037 5.06466 75.1138 5.03088C75.0903 5.10869 75.0814 5.19059 75.0568 5.26941C75.0445 5.30832 75.0311 5.34722 75.0166 5.38612C75.0031 5.42093 74.9417 5.54173 75.0087 5.41581C74.9327 5.56016 74.8523 5.6953 74.7506 5.82634C74.7148 5.87241 74.8221 5.74649 74.7651 5.80791C74.7528 5.82122 74.7394 5.83555 74.7271 5.84886C74.698 5.87958 74.6679 5.90926 74.6366 5.93793C74.5706 5.99936 74.5002 6.05566 74.4253 6.10787C74.3315 6.17544 74.2778 6.33003 74.2778 6.43343C74.2778 6.54604 74.3326 6.68118 74.4253 6.75899C74.5181 6.83679 74.6466 6.89924 74.7807 6.89412C74.9227 6.88798 75.0244 6.83884 75.1361 6.75899C75.8167 6.27475 76.2068 5.42195 76.1118 4.63775C76.0961 4.51183 76.066 4.40434 75.9643 4.3122C75.8771 4.23234 75.734 4.17194 75.6089 4.17706C75.3608 4.1873 75.0747 4.38079 75.106 4.63775L75.1071 4.6398Z" fill="#C2DAC4"/>
<path d="M71.8997 7.36912C72.3065 8.51061 73.7236 9.22622 74.9942 8.88121C75.2457 8.81262 75.4301 8.55463 75.3452 8.31405C75.2602 8.07346 74.9965 7.91887 74.726 7.99259C74.6679 8.00897 74.6087 8.02228 74.5483 8.03354C74.5349 8.03559 74.4757 8.03661 74.4667 8.04684C74.5405 8.03865 74.5573 8.03559 74.5182 8.03968C74.5014 8.04173 74.4857 8.04275 74.469 8.04377C74.3472 8.05196 74.2265 8.03149 74.1069 8.03661C74.1538 8.03456 74.2052 8.05094 74.1259 8.03763C74.0991 8.03354 74.0711 8.02842 74.0443 8.0233C73.9851 8.01101 73.9258 7.99771 73.8677 7.98133C73.8096 7.96495 73.7526 7.93628 73.6956 7.92502C73.7426 7.93423 73.7772 7.95778 73.709 7.92911C73.6788 7.9158 73.6487 7.9025 73.6196 7.88816C73.566 7.86257 73.5123 7.8339 73.4609 7.80421C73.4319 7.78681 73.3369 7.74689 73.3246 7.7172C73.3782 7.75508 73.3905 7.76429 73.3615 7.74279C73.348 7.73358 73.3358 7.72334 73.3235 7.71412C73.3022 7.69774 73.2821 7.68136 73.262 7.66396C73.2173 7.62608 73.1748 7.58718 73.1335 7.5452C73.1145 7.52677 73.0977 7.50732 73.0798 7.48787C73.0139 7.41621 73.072 7.49811 73.0877 7.49811C73.0653 7.49811 72.9915 7.36707 72.9793 7.34659C72.9513 7.30257 72.9278 7.25753 72.9021 7.21248C72.8507 7.11932 72.9379 7.30974 72.9021 7.21043C72.891 7.18177 72.8798 7.1531 72.8697 7.12444C72.7881 6.89614 72.5177 6.72312 72.2506 6.80298C72.0014 6.87669 71.8114 7.12444 71.8997 7.37014V7.36912Z" fill="#C2DAC4"/>
<path d="M73.2835 16.1284C73.5729 14.6112 73.8456 12.9926 73.0432 11.5625C72.7001 10.9502 72.1659 10.4466 71.4886 10.1445C70.8505 9.85994 70.0369 9.70228 69.5888 9.16992C69.477 9.03684 69.4021 8.9017 69.3775 8.73687C69.3619 8.62835 69.391 8.51472 69.4547 8.41439C69.5284 8.2987 69.6122 8.22295 69.7486 8.16459C69.6961 8.18711 69.7955 8.15026 69.7966 8.15026C69.8179 8.14411 69.8402 8.14002 69.8626 8.13593C69.829 8.14002 69.8324 8.14002 69.8737 8.13695C69.9486 8.14104 69.9464 8.13695 70.0012 8.16152L70.3398 7.63121C69.9654 7.48481 69.6871 7.2514 69.4938 6.92994C69.4044 6.78047 69.3507 6.64226 69.3105 6.46413C69.2982 6.40987 69.2971 6.40679 69.2926 6.36789C69.287 6.3208 69.2837 6.27268 69.2825 6.22456C69.2803 6.13959 69.287 6.03926 69.2982 5.98398C69.4278 5.29601 70.1118 4.74932 70.8449 4.71452C71.1567 4.70018 71.3277 4.28966 71.0137 4.14223C70.6046 3.95079 70.3867 3.55357 70.3588 3.14509C70.342 2.89734 70.3644 2.73047 70.4538 2.49808C70.5432 2.26568 70.703 2.04046 70.8829 1.85311C71.292 1.42825 71.8273 1.11293 72.3805 0.870296C72.6677 0.744374 72.9862 0.637902 73.3058 0.619474C73.459 0.61026 73.6076 0.616403 73.7562 0.652235C73.8836 0.682948 73.9507 0.703422 74.0759 0.79249C74.0379 0.764848 74.0814 0.798633 74.0859 0.802728C74.1194 0.830369 74.1519 0.859035 74.182 0.889748C74.1966 0.905105 74.2122 0.92046 74.2256 0.93684C74.1954 0.902032 74.2647 0.9911 74.2714 1.00134C74.2837 1.01874 74.2949 1.03717 74.305 1.05457C74.3106 1.06481 74.3631 1.16719 74.3418 1.12009C74.3664 1.17538 74.3854 1.23373 74.3988 1.29311C74.4033 1.31256 74.4078 1.33201 74.41 1.35147C74.4011 1.28697 74.41 1.40265 74.41 1.41494C74.41 1.43439 74.4078 1.45282 74.4078 1.47227C74.4044 1.50912 74.4044 1.51015 74.4078 1.47534C74.4055 1.48967 74.4022 1.50298 74.3977 1.51629C74.3899 1.53881 74.3843 1.56133 74.3765 1.58386C74.3631 1.61764 74.362 1.61867 74.3743 1.58795C74.3676 1.60024 74.3597 1.61355 74.3519 1.62481C74.3374 1.64426 74.3251 1.66576 74.3094 1.68419C74.3463 1.64017 74.2625 1.72309 74.2524 1.73025C74.1429 1.82137 74.1273 1.98927 74.1999 2.10291C74.2793 2.22678 74.4312 2.26978 74.5788 2.24418C75.731 2.04455 77.0408 1.82035 78.1115 2.35475C78.5227 2.5595 78.8714 2.84923 79.0614 3.24542C79.0893 3.30275 79.1307 3.42048 79.1497 3.50546C79.1665 3.58019 79.1609 3.53924 79.1676 3.615C79.172 3.66926 79.1732 3.72249 79.1709 3.77675C79.1664 3.88834 79.1631 3.90779 79.134 4.01631C79.1217 4.06341 79.1061 4.1105 79.0893 4.15657C79.0625 4.22926 79.0692 4.21697 79.0368 4.2784C78.9865 4.37463 78.9262 4.46881 78.8546 4.55276C78.8815 4.52103 78.8457 4.56095 78.8424 4.56505C78.82 4.58859 78.7965 4.61214 78.7731 4.63466C78.7418 4.66435 78.668 4.72578 78.6546 4.73499C78.4937 4.84965 78.2947 4.91415 78.1059 4.91722C77.9405 4.92029 77.7963 5.03188 77.7762 5.1834C77.7549 5.34515 77.8566 5.46289 78.0165 5.52022C78.2947 5.62055 78.5473 5.83963 78.706 6.09352C78.8558 6.33411 78.9306 6.63611 78.8949 6.88694C78.8099 7.48891 78.2132 7.98236 77.5895 8.02434C77.4085 8.03662 77.2543 8.1564 77.2543 8.33146C77.2543 8.50653 77.4074 8.63552 77.5895 8.63859C77.5996 8.63859 77.7002 8.64985 77.6242 8.63757C77.6544 8.64269 77.6823 8.65088 77.7114 8.65702C77.7695 8.6693 77.7292 8.66316 77.7136 8.65599C77.7404 8.66726 77.765 8.68261 77.7907 8.6949C77.8656 8.73073 77.7561 8.65804 77.8164 8.71128C77.8309 8.72356 77.8455 8.73585 77.86 8.74916C77.8812 8.76861 77.9013 8.78908 77.9203 8.81058C77.879 8.76144 77.9483 8.8546 77.9539 8.86484C77.9639 8.88122 77.974 8.89863 77.9829 8.91501C78.0288 8.99691 77.965 8.86075 77.9997 8.94879C78.0187 8.99486 78.0332 9.04195 78.0455 9.09007C78.0522 9.11874 78.0589 9.14842 78.0634 9.17811C78.0545 9.11259 78.0634 9.21087 78.0634 9.21599C78.0668 9.27537 78.0656 9.33679 78.0567 9.39515C78.0656 9.32963 78.0478 9.42586 78.0466 9.43098C78.0422 9.45043 78.0366 9.46988 78.0299 9.48831C78.0209 9.51698 78.0109 9.54462 77.9986 9.57226C78.0243 9.51493 77.9796 9.60195 77.9773 9.60502C77.9081 9.72071 77.8354 9.79953 77.7315 9.89065C77.5326 10.0637 77.2621 10.1968 77.0028 10.2971C76.4161 10.5223 75.7701 10.639 75.2136 10.94C74.6179 11.2615 74.2189 11.7785 74.1217 12.4091C74.0155 13.1012 74.2033 13.7973 74.419 14.4566C74.543 14.8344 75.1901 14.6737 75.066 14.2928C74.8816 13.7308 74.6928 13.1053 74.7743 12.534C74.8123 12.2668 74.9107 12.017 75.0996 11.8102C75.3019 11.5891 75.5712 11.4447 75.8562 11.326C76.463 11.0741 77.1302 10.9656 77.7136 10.6574C78.297 10.3493 78.7317 9.88655 78.7351 9.27435C78.7384 8.66521 78.3037 8.03457 77.5873 8.02229V8.63654C78.3316 8.58638 79.029 8.17176 79.3576 7.55136C79.6861 6.93096 79.6168 6.20511 79.1888 5.64512C78.9362 5.31444 78.6032 5.07283 78.193 4.92439L78.1036 5.52738C79.2827 5.50384 80.027 4.32753 79.7968 3.33551C79.5274 2.17354 78.193 1.53779 77.0062 1.42518C76.1333 1.34225 75.2549 1.49684 74.4011 1.64528L74.7274 2.15819C75.2214 1.74561 75.1454 1.04126 74.771 0.58262C74.2748 -0.0254938 73.4232 -0.104323 72.6699 0.103501C71.9167 0.311324 71.1824 0.719803 70.6169 1.21223C70.0894 1.6719 69.7072 2.27592 69.6815 2.95365C69.6558 3.63138 69.9922 4.34801 70.6717 4.6664L70.8405 4.09412C70.0257 4.132 69.2613 4.57426 68.8746 5.23459C68.4879 5.89491 68.5394 6.70778 68.9797 7.34149C69.2244 7.69366 69.5742 7.98953 69.9956 8.15435C70.1621 8.21885 70.3543 8.20042 70.4538 8.04379C70.5409 7.9066 70.4951 7.6998 70.3331 7.62404C69.5854 7.27289 68.7752 7.88203 68.7014 8.58228C68.6221 9.34089 69.3753 9.94286 70.0492 10.2367C70.4292 10.4025 70.8326 10.5223 71.2081 10.6974C71.5456 10.854 71.8251 11.0547 72.0709 11.3198C72.518 11.8041 72.7739 12.4634 72.861 13.0858C72.994 14.0369 72.8096 15.0156 72.6297 15.9585C72.5984 16.1213 72.6778 16.2892 72.8644 16.3362C73.0265 16.3772 73.2455 16.2861 73.2768 16.1213L73.2835 16.1284Z" fill="#00683B"/>
<path d="M72.7716 3.83386C74.2725 5.51794 74.971 7.74872 74.7799 9.90271C74.7263 10.5078 74.5933 11.1077 74.3921 11.6912C74.2613 12.069 74.9095 12.2307 75.0392 11.855C75.8092 9.62117 75.5521 7.13651 74.4144 5.04599C74.0948 4.45733 73.6992 3.90859 73.2455 3.39978C73.1303 3.27079 72.8901 3.29126 72.7716 3.39978C72.633 3.52673 72.6565 3.70486 72.7716 3.83386Z" fill="#00683B"/>
<path d="M75.275 3.87203C75.285 3.95291 75.2895 4.03379 75.2884 4.11569C75.2884 4.15664 75.2862 4.19656 75.2828 4.23751C75.2817 4.25594 75.2794 4.27335 75.2772 4.29177C75.2739 4.31941 75.2672 4.3491 75.2761 4.30406C75.2616 4.38493 75.2437 4.46376 75.2191 4.54259C75.2068 4.5815 75.1934 4.6204 75.1789 4.6593C75.1722 4.67671 75.1655 4.69309 75.1588 4.71049C75.1543 4.72175 75.1286 4.78113 75.1543 4.72482C75.0861 4.87122 74.9967 5.00636 74.8961 5.13535C74.8738 5.16402 74.9252 5.10464 74.8849 5.14764C74.8726 5.16094 74.8592 5.17528 74.8469 5.18859C74.8179 5.2193 74.7877 5.24899 74.7564 5.27765C74.6905 5.33908 74.6201 5.39538 74.5452 5.4476C74.4055 5.5469 74.4234 5.7793 74.5452 5.88167C74.6927 6.00555 74.8704 5.98712 75.0191 5.88167C75.6695 5.41893 76.0372 4.61938 75.9455 3.86896C75.9265 3.71028 75.8047 3.55364 75.6103 3.56183C75.4448 3.569 75.2537 3.69799 75.275 3.86896V3.87203Z" fill="#00683B"/>
<path d="M72.0616 6.56232C72.4405 7.62601 73.7704 8.28838 74.9495 7.96692C75.1227 7.91983 75.2322 7.75091 75.1842 7.58915C75.1361 7.4274 74.9461 7.32707 74.7718 7.37416C74.7136 7.39054 74.6544 7.40385 74.5941 7.41511C74.5672 7.42023 74.5404 7.42433 74.5125 7.42842C74.5784 7.42023 74.4734 7.43047 74.47 7.43047C74.3493 7.43866 74.2286 7.43559 74.1079 7.4233C74.1571 7.42842 74.1034 7.4233 74.0822 7.41921C74.0554 7.41511 74.0275 7.40999 74.0006 7.40487C73.9414 7.39259 73.8822 7.37928 73.824 7.3629C73.6821 7.32298 73.6586 7.31376 73.5357 7.25438C73.4329 7.20524 73.3334 7.14894 73.2407 7.08342C73.2854 7.11515 73.2049 7.05578 73.2049 7.05578C73.1837 7.03939 73.1636 7.02301 73.1434 7.00561C73.0987 6.96773 73.0563 6.92883 73.0149 6.88685C72.9959 6.86842 72.978 6.84897 72.9613 6.82952C72.9501 6.81724 72.9154 6.77526 72.9423 6.80802C72.9032 6.75991 72.8663 6.70872 72.8339 6.65651C72.8059 6.61248 72.7813 6.56744 72.7568 6.52239C72.7121 6.44049 72.7724 6.57153 72.7389 6.48451C72.7277 6.45585 72.7165 6.42718 72.7065 6.39852C72.6506 6.24086 72.474 6.13848 72.2941 6.18353C72.1253 6.2255 72.0035 6.40261 72.0594 6.5613L72.0616 6.56232Z" fill="#00683B"/>
<path d="M73.594 13.976C73.1622 13.903 72.7293 14.2115 72.4657 14.6553C72.202 15.0992 72.0847 15.6595 72.0297 16.2129C71.9664 16.8416 71.9861 17.5256 72.2715 18.0424C72.5228 18.498 72.9452 18.7535 73.3698 18.8759C73.975 19.0502 74.629 18.983 75.1864 18.6346C75.7438 18.2861 76.1964 17.6468 76.3687 16.8828C76.5847 15.9303 76.3283 14.826 75.7324 14.1926C75.1376 13.5593 74.2345 13.4415 73.5577 13.9219" fill="#00683B"/>
<path d="M41.3548 16.7863C41.8179 15.3212 41.8873 13.784 41.5967 12.2863C41.4504 11.534 41.1898 10.8177 40.8617 10.1187C40.8223 10.0345 40.7811 9.95034 40.7417 9.8679C40.6854 9.74767 40.7811 9.95721 40.7267 9.83526C40.7117 9.79919 40.6948 9.76312 40.6798 9.72705C40.6048 9.54671 40.5429 9.36292 40.5036 9.17227C40.4848 9.07952 40.5073 9.17227 40.5073 9.18773C40.5073 9.15338 40.5036 9.11903 40.5036 9.08296C40.5036 9.04689 40.5111 9.0091 40.5073 8.97132C40.4998 8.87513 40.5036 9.04689 40.4961 9.0383C40.4698 9.00051 40.5486 8.89231 40.5504 8.84765C40.5523 8.7652 40.5223 8.89746 40.5223 8.90089C40.5223 8.86311 40.5748 8.80986 40.5954 8.77723C40.6048 8.76349 40.6292 8.71368 40.6461 8.70681C40.6498 8.70509 40.5298 8.80471 40.6086 8.7549C40.6386 8.736 40.6723 8.70337 40.6948 8.6776C40.7586 8.60375 40.6404 8.72398 40.6442 8.71368C40.6461 8.70165 40.7548 8.65871 40.7492 8.65699C40.7586 8.66043 40.5879 8.69822 40.6911 8.68104C40.7211 8.67589 40.7548 8.66558 40.7829 8.65871C40.6761 8.68963 40.7136 8.67933 40.8054 8.66559C40.8917 8.65356 40.7792 8.66043 40.7567 8.65528C40.8035 8.66559 40.8486 8.67589 40.8936 8.6862C41.0379 8.72055 40.8279 8.6381 40.9536 8.71024C40.9929 8.73257 41.0361 8.75833 41.0754 8.77894C41.0623 8.77207 40.9817 8.69822 41.0454 8.75833C41.0698 8.78066 41.0979 8.80127 41.1223 8.8236C41.1223 8.8236 41.2498 8.96444 41.1954 8.89574C41.1411 8.82704 41.2142 8.92494 41.2179 8.93181C41.2423 8.97131 41.2704 9.01082 41.2948 9.05204C41.3192 9.09326 41.3886 9.23926 41.3361 9.11903C41.4054 9.28048 41.4579 9.44709 41.5067 9.61541C41.6117 9.98126 41.6998 10.3505 41.7786 10.7215C41.8161 10.8967 41.8498 11.0719 41.8798 11.2488C41.8967 11.3433 41.9117 11.4395 41.9267 11.534C41.9323 11.5752 41.9398 11.6147 41.9454 11.6559C41.9286 11.5425 41.9529 11.716 41.9548 11.7366C42.0054 12.1179 42.0429 12.501 42.0673 12.884C42.1161 13.65 42.1104 14.4195 42.0504 15.1855C42.0336 15.4037 42.0129 15.6235 41.9867 15.8417C41.981 15.8829 41.9773 15.9241 41.9717 15.9636C41.9717 15.9653 41.9492 16.2178 41.9567 16.0804C41.9623 15.9739 41.9586 16.0667 41.9548 16.089C41.9454 16.1354 41.9379 16.1835 41.9267 16.2298C41.9173 16.2711 41.8067 16.6489 41.801 16.6455C41.7842 16.6386 41.8779 16.5098 41.8142 16.618C41.7954 16.6506 41.7786 16.685 41.7579 16.7176C41.7467 16.7348 41.7073 16.8087 41.6942 16.8104C41.7148 16.8052 41.8067 16.7022 41.7148 16.7829C41.6998 16.7949 41.6436 16.8602 41.6304 16.8602C41.6454 16.8602 41.7729 16.7829 41.6567 16.8379C41.6323 16.8499 41.5985 16.8636 41.576 16.8791C41.5217 16.9031 41.5386 16.8963 41.6286 16.8585L41.5648 16.8757C41.5517 16.8757 41.4298 16.8842 41.5442 16.8825C41.6717 16.8808 41.4786 16.8739 41.4542 16.8739C41.4711 16.8739 41.5967 16.9083 41.5123 16.8791C41.4711 16.8653 41.3267 16.8155 41.4917 16.8894C41.4636 16.8774 41.4317 16.855 41.4036 16.8464C41.3173 16.8207 41.4729 16.922 41.4148 16.8602C41.3961 16.8396 41.3117 16.7417 41.3679 16.8224C41.4429 16.9289 41.3079 16.7142 41.3754 16.8327C41.4261 16.922 41.3736 16.8035 41.3623 16.7795C41.3267 16.7005 41.3511 16.886 41.3679 16.8035C41.3736 16.776 41.3679 16.74 41.3717 16.7125C41.3586 16.9117 41.4373 16.6455 41.3511 16.8104C41.5404 16.4463 41.4748 15.9585 41.0492 15.7523C40.6723 15.5703 40.0986 15.6407 39.8942 16.0289C39.6354 16.5235 39.6111 17.0543 39.8885 17.5489C40.1229 17.968 40.5954 18.2824 41.096 18.3768C41.5967 18.4713 42.1498 18.4026 42.5848 18.1261C43.0198 17.8495 43.2598 17.4888 43.4323 17.0594C43.5767 16.697 43.6198 16.3054 43.6667 15.9241C43.721 15.4741 43.7586 15.0224 43.7754 14.5706C43.8111 13.6672 43.7717 12.7603 43.6592 11.8603C43.5467 10.9603 43.376 10.0036 43.1042 9.10529C42.8323 8.20699 42.2492 7.36022 41.2029 7.16613C40.1567 6.97204 39.1742 7.57663 38.8948 8.51959C38.7654 8.95414 38.8048 9.41789 38.9398 9.84557C39.0148 10.0843 39.1236 10.3127 39.2304 10.5412C39.2754 10.6374 39.3204 10.7336 39.3673 10.8297C39.4367 10.974 39.3954 10.8916 39.3823 10.8607C39.4142 10.9328 39.4461 11.0032 39.4761 11.0754C39.6561 11.5065 39.7986 11.9496 39.9036 12.3996C39.9317 12.525 39.9579 12.6504 39.9823 12.7758C39.9917 12.8256 39.9992 12.8771 40.0086 12.9269L40.0198 13.0025C40.0104 12.9355 40.0086 12.9303 40.0161 12.987C40.0404 13.2155 40.0667 13.4422 40.0779 13.6724C40.1004 14.1447 40.0779 14.6153 40.0254 15.0842C40.0067 15.2422 40.0198 15.1409 40.0254 15.1065C40.0161 15.1701 40.0048 15.2319 39.9936 15.2955C39.9729 15.4088 39.9504 15.5222 39.9261 15.6338C39.8698 15.8846 39.8023 16.1319 39.7254 16.3776C39.6036 16.7657 39.8754 17.2363 40.3142 17.3291C40.7529 17.4218 41.2198 17.2054 41.3529 16.7898L41.3548 16.7863Z" fill="#C2DAC4"/>
<path d="M41.2912 4.54176C39.7218 4.54863 38.0925 4.90761 36.7818 5.72346C35.3718 6.60115 34.4756 7.92884 34.0443 9.4283C33.6131 10.9278 33.6112 12.5749 33.8793 14.1207C34.0106 14.8799 34.2562 15.6236 34.6443 16.3072C35.0587 17.0406 35.6662 17.6435 36.3787 18.1399C37.7737 19.1086 39.5887 19.6256 41.3193 19.7493C43.0499 19.8729 44.8162 19.4968 46.1812 18.5487C47.5462 17.6006 48.3881 16.1303 48.7387 14.5536C49.0893 12.9768 49.1418 11.4173 48.7781 9.88174C48.4443 8.47332 47.6812 7.07348 46.4756 6.12194C45.2699 5.1704 43.9106 4.75474 42.4087 4.59672C42.0374 4.55722 41.6643 4.54176 41.2912 4.54004C40.8506 4.54004 40.4268 4.8973 40.4475 5.31295C40.4681 5.72861 40.8187 6.08415 41.2912 6.08587C41.6418 6.08587 41.9906 6.10133 42.3393 6.13568C42.4068 6.14255 42.6018 6.16832 42.4256 6.14255C42.5043 6.15286 42.5831 6.16488 42.6618 6.1769C42.8268 6.20266 42.9918 6.23358 43.1549 6.26965C43.4512 6.33492 43.7381 6.4208 44.0231 6.5187C44.1674 6.56851 44.0231 6.51698 43.9987 6.50668C44.0268 6.5187 44.0568 6.529 44.0849 6.54103C44.1524 6.56851 44.2181 6.59771 44.2837 6.62691C44.4243 6.69046 44.5612 6.75916 44.6962 6.83302C44.8199 6.90172 44.9418 6.97386 45.0599 7.05115C45.1199 7.09066 45.2437 7.18169 45.1124 7.08379C45.1762 7.13188 45.2418 7.17997 45.3037 7.22978C45.5268 7.40841 45.7349 7.6025 45.9243 7.81033C45.9524 7.84124 45.9787 7.87216 46.0068 7.90308C45.9899 7.88247 45.9037 7.77426 45.9937 7.88933C46.0331 7.93743 46.0724 7.98724 46.1099 8.03705C46.2149 8.17446 46.3124 8.31701 46.4043 8.46301C46.4962 8.609 46.5787 8.75328 46.6574 8.90271C46.6968 8.97657 46.7343 9.05215 46.7699 9.12772C46.7643 9.11398 46.7249 9.02295 46.7587 9.10539C46.7812 9.16035 46.8056 9.21531 46.8281 9.27028C46.9574 9.59147 47.0624 9.91953 47.1431 10.2545C47.1787 10.4056 47.2106 10.5567 47.2387 10.7079C47.2462 10.7543 47.2537 10.8024 47.2631 10.8487C47.2612 10.8367 47.2481 10.7285 47.2593 10.8195C47.2724 10.926 47.2856 11.0325 47.2968 11.139C47.3643 11.8175 47.3493 12.5028 47.2743 13.1812C47.2649 13.2637 47.2537 13.3478 47.2443 13.4303C47.2443 13.4406 47.2256 13.5574 47.2387 13.4698C47.2537 13.3736 47.2293 13.5213 47.2274 13.5436C47.1993 13.7205 47.1656 13.8957 47.1281 14.0692C47.0587 14.3956 46.9706 14.7202 46.8618 15.0379C46.8074 15.196 46.7456 15.3523 46.6799 15.5068C46.6706 15.5309 46.6162 15.6425 46.6762 15.5189C46.6612 15.5515 46.6443 15.5841 46.6293 15.615C46.5862 15.7009 46.5412 15.7851 46.4943 15.8693C46.4118 16.0152 46.3218 16.1595 46.2243 16.2969C46.1756 16.3656 46.1231 16.4343 46.0724 16.5013C46.0687 16.5065 45.9937 16.6009 46.0462 16.5374C46.1043 16.4653 45.9787 16.613 45.9674 16.6267C45.8549 16.7487 45.7368 16.8654 45.6112 16.9771C45.5587 17.0235 45.5024 17.0698 45.4481 17.1145C45.4106 17.1437 45.3731 17.1746 45.3356 17.2021C45.3206 17.2141 45.1612 17.3258 45.2456 17.2691C45.3206 17.2193 45.2193 17.2845 45.2118 17.2897C45.1706 17.3155 45.1312 17.3429 45.0899 17.367C45.0281 17.4048 44.9662 17.4426 44.9024 17.4786C44.7431 17.5679 44.5799 17.6521 44.4131 17.7277C44.3343 17.7637 44.2556 17.7964 44.1749 17.829C44.3212 17.7689 44.1112 17.8513 44.0643 17.8685C43.8881 17.9286 43.7099 17.9819 43.5281 18.0283C43.3593 18.0712 43.1887 18.1073 43.0162 18.1382C42.93 18.1536 42.8437 18.1674 42.7575 18.1777C42.6712 18.188 42.7574 18.1777 42.7743 18.176C42.7031 18.1828 42.6318 18.1897 42.5606 18.1966C42.1481 18.2292 41.7318 18.2292 41.3193 18.2C41.2331 18.1931 41.1487 18.1863 41.0624 18.1777C40.8899 18.1622 40.9931 18.1708 41.0306 18.1777C40.9874 18.1725 40.9462 18.1657 40.9031 18.1605C40.6912 18.1296 40.4793 18.0935 40.2693 18.0489C39.8662 17.9647 39.4687 17.8548 39.0806 17.7242C38.9962 17.6968 38.9137 17.6676 38.8293 17.6366C38.7937 17.6229 38.7581 17.6109 38.7225 17.5971C38.5987 17.5525 38.8331 17.6452 38.7131 17.592C38.5406 17.5164 38.3643 17.4443 38.1956 17.3635C37.8787 17.2107 37.5806 17.0355 37.2918 16.8448C37.4175 16.929 37.2262 16.795 37.1962 16.771C37.1287 16.7195 37.0631 16.6662 36.9975 16.6095C36.8587 16.491 36.7275 16.3673 36.6056 16.2351C36.5775 16.2042 36.4425 16.0376 36.5231 16.1458C36.4725 16.0788 36.42 16.0135 36.3693 15.9448C36.2643 15.7988 36.1687 15.6477 36.0825 15.4931C36.0431 15.421 36.0075 15.3454 35.9681 15.2732C35.925 15.1942 35.9718 15.2853 35.9775 15.2973C35.9568 15.2544 35.94 15.2114 35.9212 15.1668C35.8518 15.0036 35.7918 14.837 35.7393 14.6687C35.6381 14.3526 35.5631 14.0297 35.5068 13.7051C35.4993 13.6587 35.4693 13.4492 35.4881 13.5952C35.4768 13.5127 35.4675 13.432 35.4581 13.3495C35.4375 13.1744 35.4225 12.9974 35.4112 12.8222C35.3643 12.1232 35.3812 11.4207 35.4731 10.7251C35.4562 10.859 35.4787 10.6907 35.4881 10.6443C35.5031 10.5619 35.5181 10.4777 35.535 10.3953C35.5706 10.2184 35.6137 10.0432 35.6625 9.86971C35.7075 9.70826 35.76 9.54681 35.8162 9.38879C35.8443 9.30978 35.8743 9.23077 35.9062 9.15348C35.9193 9.12085 35.9343 9.08649 35.9475 9.05386C36.0356 8.8426 35.9081 9.126 35.9662 9.00749C36.12 8.68973 36.2962 8.384 36.5043 8.09373C36.5493 8.03018 36.6 7.97006 36.645 7.90823C36.6975 7.83609 36.6206 7.934 36.615 7.94087C36.6431 7.90823 36.6712 7.87732 36.6993 7.84468C36.7987 7.73476 36.9056 7.62826 37.0162 7.52693C37.1268 7.42559 37.245 7.32768 37.3668 7.23493C37.4025 7.20917 37.4381 7.18341 37.4718 7.15593C37.4643 7.16108 37.3575 7.2315 37.4362 7.18169C37.515 7.13188 37.5843 7.08379 37.6593 7.03741C37.9387 6.86565 38.2331 6.71622 38.5368 6.58912C38.5687 6.57538 38.6006 6.56336 38.6325 6.54962C38.7468 6.49981 38.5068 6.59256 38.6268 6.55305C38.7037 6.52729 38.7806 6.49809 38.8593 6.47233C39.0281 6.41736 39.1987 6.36755 39.3712 6.3229C39.5231 6.28339 39.675 6.24904 39.8287 6.21984C39.9112 6.20438 39.9956 6.18893 40.0799 6.17519C40.1287 6.1666 40.1756 6.15973 40.2243 6.15286C40.2431 6.14942 40.3968 6.12881 40.2937 6.14255C40.1831 6.15801 40.3387 6.1374 40.365 6.13568C40.4025 6.13224 40.4381 6.12881 40.4756 6.12537C40.5618 6.11679 40.6481 6.11163 40.7343 6.10648C40.9199 6.09446 41.1056 6.08931 41.2912 6.08931C41.7318 6.08759 42.1556 5.73548 42.1349 5.31639C42.1143 4.8973 41.7637 4.54176 41.2912 4.54348V4.54176Z" fill="#C2DAC4"/>
<path d="M41.6642 16.3641C42.1124 14.9454 42.1873 13.4528 41.9061 11.9997C41.7655 11.2715 41.518 10.5724 41.1992 9.89224C41.0474 9.56934 40.8655 9.23441 40.813 8.8823C40.7755 8.6281 40.813 8.47695 40.933 8.28802C40.948 8.26397 40.9649 8.23992 40.9836 8.21759C40.9742 8.2279 40.9498 8.25538 40.9911 8.21416C41.0098 8.19527 41.1224 8.10595 41.083 8.13172C41.1805 8.06988 41.248 8.04412 41.3867 8.04927C41.6061 8.05957 41.8517 8.1987 41.9998 8.38248C42.1911 8.61779 42.2792 8.90806 42.3599 9.18803C42.4649 9.55388 42.553 9.92316 42.6317 10.2942C42.943 11.785 43.033 13.3137 42.9148 14.8269C42.8848 15.2202 42.8511 15.6204 42.7817 15.9399C42.7517 16.0807 42.7123 16.2216 42.6561 16.3555C42.6411 16.3916 42.5324 16.5702 42.4967 16.6046C42.3505 16.7523 42.1217 16.8176 41.9305 16.7506C41.8217 16.7128 41.7392 16.6492 41.6999 16.5702C41.6755 16.5221 41.6699 16.4689 41.668 16.4414C41.6661 16.371 41.6755 16.3435 41.6886 16.3177C41.8199 16.067 41.7636 15.7612 41.4861 15.6135C41.2405 15.4813 40.8486 15.5465 40.7174 15.799C40.2955 16.6097 40.7605 17.5853 41.7523 17.7674C42.6861 17.9391 43.4286 17.405 43.7417 16.6303C43.8786 16.2885 43.9217 15.9227 43.9667 15.5637C44.0211 15.1137 44.0586 14.662 44.0755 14.2103C44.1111 13.3068 44.0717 12.3999 43.9592 11.4999C43.8467 10.5999 43.6799 9.68957 43.4136 8.81188C43.1736 8.02007 42.658 7.22655 41.7092 7.05135C40.7605 6.87616 39.9842 7.42235 39.7461 8.22447C39.4911 9.0867 40.003 9.86648 40.3255 10.6428C41.0511 12.3845 41.1411 14.2944 40.5749 16.0841C40.3724 16.7231 41.458 16.9945 41.6605 16.359L41.6642 16.3641Z" fill="#00683B"/>
<path d="M41.2895 3.8218C39.7651 3.82867 38.1939 4.17734 36.9226 4.96915C35.5745 5.80905 34.727 7.08865 34.3145 8.5194C33.902 9.95015 33.8889 11.5767 34.1495 13.0744C34.277 13.8113 34.5095 14.5361 34.8863 15.2008C35.2632 15.8655 35.8464 16.4718 36.5214 16.9407C37.8751 17.8837 39.6376 18.3955 41.3195 18.5158C43.0013 18.636 44.7076 18.2736 46.0388 17.3495C47.3701 16.4255 48.1332 15.0102 48.4669 13.509C48.8007 12.0078 48.8588 10.462 48.5063 8.97284C48.182 7.60221 47.4488 6.25219 46.2751 5.32641C45.1801 4.46246 43.8282 4.0262 42.407 3.87677C42.0357 3.83726 41.6626 3.8218 41.2895 3.82008C40.5657 3.81836 40.5638 4.84892 41.2895 4.85063C42.5401 4.85407 43.7776 5.05159 44.8388 5.63385C45.9001 6.21612 46.6595 7.14018 47.1001 8.22741C47.6157 9.49843 47.7038 10.8673 47.5538 12.2071C47.4132 13.4626 47.072 14.8453 46.1645 15.8363C44.1845 18.0005 40.5676 17.827 38.0532 16.611C37.4307 16.3104 36.8645 15.9342 36.4051 15.443C35.9457 14.9518 35.6589 14.3678 35.4676 13.7632C35.0626 12.4887 34.9988 11.0614 35.1901 9.7492C35.3701 8.5194 35.8632 7.2398 36.8176 6.36727C37.7232 5.53939 38.987 5.0722 40.2563 4.90903C40.5901 4.86609 40.9463 4.85064 41.2895 4.84892C42.0132 4.84549 42.0151 3.81493 41.2895 3.81837V3.8218Z" fill="#00683B"/>
</svg>
