<svg width="20" height="20" viewBox="0 0 20 20" fill="none" xmlns="http://www.w3.org/2000/svg">
<g id="modal/icon/jpg">
<path id="Vector" d="M8.65981 1.00004C8.86933 0.999892 9.06 0.999762 9.23851 1.00779V2.75043C9.23848 3.6496 9.23845 4.3994 9.31836 4.99464C9.4027 5.62292 9.58822 6.19016 10.0433 6.64599C10.4984 7.10181 11.0648 7.28762 11.6921 7.37209C12.2864 7.45212 13.0351 7.4521 13.9328 7.45207H15.6671C15.681 7.69473 15.6807 7.95466 15.6805 8.23864L15.6804 11.6881C15.6804 11.8388 15.6804 11.9856 15.6803 12.1285H7.86347C6.85735 12.1285 6.3543 12.1285 6.04174 12.4988C5.72918 12.8691 5.72918 13.4651 5.72918 14.6572V18.9597C5.62784 18.9533 5.52958 18.9459 5.43427 18.9375C4.66431 18.8694 4.01543 18.7272 3.43039 18.3997C2.66413 17.9707 2.03168 17.3372 1.60334 16.5698C1.27631 15.9838 1.13438 15.3339 1.06641 14.5628C0.999989 13.8091 0.999994 12.8714 1 11.6881V8.54714C0.999992 7.25553 0.999986 6.23205 1.07862 5.41243C1.15914 4.57316 1.3275 3.86958 1.71427 3.24583C2.09934 2.62482 2.62221 2.10113 3.24225 1.71546C3.86503 1.32809 4.5675 1.15947 5.40546 1.07882C6.22381 1.00006 7.24569 1.00007 8.53529 1.00008L8.65981 1.00004Z" fill="#254434"/>
<path id="Vector_2" d="M11.4569 2.16055C11.1947 1.89754 10.9742 1.67644 10.7373 1.50293V2.69848C10.7373 3.66324 10.7389 4.3113 10.8038 4.79471C10.8658 5.25653 10.9729 5.45418 11.1032 5.5846C11.2334 5.71501 11.4307 5.82232 11.8918 5.88441C12.3745 5.9494 13.0215 5.95099 13.9848 5.95099H15.1682C14.958 5.66595 14.6874 5.39538 14.3757 5.08383L11.4569 2.16055Z" fill="#254434"/>
<path id="Vector_3" d="M18.6006 16.1231C18.789 16.1231 18.8832 16.1231 18.9418 16.1817C19.0003 16.2404 19.0003 16.3347 19.0003 16.5234V18.1635C19.0003 18.2436 19.0003 18.2837 18.9823 18.3232C18.9644 18.3627 18.9382 18.3856 18.8857 18.4313C18.8247 18.4845 18.7519 18.5421 18.6673 18.6043C18.5234 18.7093 18.3343 18.8022 18.1001 18.8828C17.8684 18.961 17.5854 19.0001 17.2512 19.0001C16.956 19.0001 16.6877 18.9537 16.4462 18.8608C16.2071 18.768 16.001 18.6275 15.8278 18.4394C15.657 18.2488 15.5265 18.0118 15.4362 17.7284C15.346 17.4425 15.3008 17.1041 15.3008 16.7132V15.8043C15.3008 15.4182 15.3435 15.0823 15.4289 14.7964C15.5167 14.5081 15.6436 14.2687 15.8095 14.0781C15.9753 13.8875 16.1729 13.7458 16.4023 13.6529C16.634 13.5601 16.895 13.5137 17.1853 13.5137C17.5854 13.5137 17.9135 13.5809 18.1697 13.7153C18.4282 13.8496 18.6234 14.0488 18.7551 14.3126C18.8365 14.4726 18.8981 14.6546 18.94 14.8586C18.978 15.0438 18.9971 15.1365 18.9371 15.2102C18.8771 15.2838 18.7741 15.2838 18.568 15.2838H18.3315C18.1684 15.2838 18.0868 15.2838 18.0329 15.2423C17.9791 15.2008 17.9541 15.1064 17.9043 14.9177C17.8882 14.8571 17.8694 14.8032 17.8476 14.7561C17.7915 14.629 17.7123 14.5386 17.6098 14.4849C17.5073 14.4287 17.3744 14.4006 17.2109 14.4006C17.0695 14.4006 16.9463 14.4262 16.8414 14.4776C16.7365 14.5264 16.6486 14.6071 16.5779 14.7194C16.5072 14.8318 16.4547 14.976 16.4205 15.1519C16.3864 15.3278 16.3693 15.5428 16.3693 15.7969V16.7132C16.3693 16.9648 16.3888 17.1798 16.4279 17.3582C16.4669 17.5366 16.5242 17.6819 16.5999 17.7943C16.6779 17.9067 16.7755 17.9886 16.8926 18.0399C17.0121 18.0887 17.1524 18.1132 17.3134 18.1132C17.4427 18.1132 17.5464 18.0997 17.6244 18.0729C17.7025 18.046 17.7647 18.0179 17.8111 17.9886C17.836 17.9723 17.8485 17.9642 17.8557 17.9585C17.9024 17.9216 17.9256 17.8789 17.931 17.8196C17.9318 17.8105 17.9318 17.7982 17.9318 17.7738V17.3161C17.9318 17.1441 17.9318 17.0582 17.8825 17.0016C17.8766 16.9948 17.8702 16.9884 17.8634 16.9824C17.8069 16.9331 17.7211 16.9331 17.5494 16.9331C17.3778 16.9331 17.2919 16.9331 17.2355 16.8837C17.2287 16.8778 17.2222 16.8713 17.2163 16.8645C17.167 16.808 17.167 16.722 17.167 16.5501V16.5234C17.167 16.3347 17.167 16.2404 17.2256 16.1817C17.2841 16.1231 17.3783 16.1231 17.5667 16.1231H18.6006Z" fill="#254434"/>
<path id="Vector_4" d="M9.05022 17.2814V13.9912C9.05022 13.8024 9.05022 13.7081 9.10875 13.6495C9.16729 13.5908 9.26149 13.5908 9.44991 13.5908H9.71903C9.90744 13.5908 10.0016 13.5908 10.0602 13.6495C10.1187 13.7081 10.1187 13.8024 10.1187 13.9912V17.2851C10.1187 17.6394 10.0504 17.946 9.9138 18.205C9.77963 18.4616 9.59667 18.6582 9.36491 18.7951C9.13316 18.9319 8.87214 19.0003 8.58184 19.0003C8.28423 19.0003 8.01832 18.9417 7.78413 18.8244C7.55238 18.7047 7.36942 18.5239 7.23525 18.282C7.15186 18.1301 7.09438 17.9528 7.06282 17.75C7.03596 17.5773 7.02253 17.491 7.08235 17.4211C7.14217 17.3511 7.23934 17.3511 7.43368 17.3511H7.71012C7.87624 17.3511 7.9593 17.3511 8.01308 17.3923C8.06685 17.4336 8.09512 17.5384 8.15167 17.7481C8.15677 17.767 8.16233 17.7849 8.16835 17.8019C8.20738 17.9118 8.26227 17.9912 8.33301 18.0401C8.4062 18.0889 8.48914 18.1134 8.58184 18.1134C8.68186 18.1134 8.76602 18.0804 8.83433 18.0144C8.90507 17.9485 8.95874 17.8544 8.99533 17.7322C9.03193 17.6076 9.05022 17.4574 9.05022 17.2814Z" fill="#254434"/>
<path id="Vector_5" fill-rule="evenodd" clip-rule="evenodd" d="M12.1153 17.045H12.8618C13.2204 17.045 13.529 16.9753 13.7875 16.836C14.0461 16.6968 14.2437 16.5013 14.3803 16.2497C14.5194 15.9956 14.5889 15.6963 14.5889 15.3517C14.5889 15.0097 14.5194 14.7067 14.3803 14.4428C14.2437 14.1765 14.0461 13.9676 13.7875 13.8161C13.529 13.6647 13.2204 13.5889 12.8618 13.5889H11.4465C11.2581 13.5889 11.1638 13.5889 11.1053 13.6475C11.0468 13.7062 11.0468 13.8005 11.0468 13.9892V18.5248C11.0468 18.7135 11.0468 18.8078 11.1053 18.8664C11.1638 18.9251 11.2581 18.9251 11.4465 18.9251H11.7156C11.904 18.9251 11.9982 18.9251 12.0567 18.8664C12.1153 18.8078 12.1153 18.7135 12.1153 18.5248V17.045ZM12.8618 16.1544H12.1153V14.8798C12.1153 14.6911 12.1153 14.5967 12.1738 14.5381C12.2323 14.4795 12.3265 14.4795 12.515 14.4795H12.8618C13.0154 14.4795 13.1386 14.521 13.2313 14.6041C13.3265 14.6872 13.396 14.7959 13.4399 14.9303C13.4863 15.0622 13.5094 15.2051 13.5094 15.3591C13.5094 15.5106 13.4875 15.6474 13.4436 15.7696C13.3997 15.8893 13.3289 15.9833 13.2313 16.0518C13.1362 16.1202 13.013 16.1544 12.8618 16.1544Z" fill="#254434"/>
</g>
</svg>
