<svg width="20" height="20" viewBox="0 0 20 20" fill="none" xmlns="http://www.w3.org/2000/svg">
<path d="M8.64231 1.00004C8.8517 0.999892 9.04225 0.999762 9.22065 1.00779V2.74957C9.22062 3.64831 9.22059 4.39774 9.30045 4.99269C9.38473 5.62067 9.57014 6.18763 10.025 6.64323C10.4798 7.09883 11.0458 7.28455 11.6727 7.36898C12.2666 7.44897 13.0148 7.44895 13.912 7.44892H15.6452C15.6591 7.69146 15.6588 7.95126 15.6586 8.23511L15.6585 11.6829C15.6585 11.8226 15.6585 11.9589 15.6584 12.0918H7.09144C6.01884 12.0918 5.48254 12.0918 5.14932 12.4619C4.81611 12.8321 4.81611 13.4278 4.81611 14.6192V18.8544C4.30097 18.7696 3.84168 18.6295 3.41617 18.3912C2.65039 17.9624 2.01834 17.3293 1.59027 16.5622C1.26344 15.9765 1.1216 15.3269 1.05368 14.5562C0.987293 13.8028 0.987298 12.8656 0.987305 11.6829V8.54346C0.987297 7.25247 0.987291 6.2295 1.06588 5.41027C1.14635 4.57141 1.3146 3.86818 1.70113 3.24474C2.08595 2.62403 2.6085 2.10059 3.22815 1.71511C3.85054 1.32793 4.55257 1.15939 5.39 1.07878C6.20784 1.00006 7.22908 1.00007 8.51787 1.00008L8.64231 1.00004Z" fill="#254434"/>
<path d="M11.438 2.16024C11.1759 1.89735 10.9556 1.67636 10.7188 1.50293V2.6979C10.7188 3.66219 10.7203 4.30993 10.7852 4.79311C10.8471 5.2547 10.9542 5.45225 11.0843 5.58261C11.2145 5.71296 11.4118 5.82021 11.8726 5.88227C12.3549 5.94723 13.0015 5.94883 13.9641 5.94883H15.1469C14.9368 5.66393 14.6663 5.39349 14.3548 5.08208L11.438 2.16024Z" fill="#254434"/>
<path d="M18.5879 16.1605C18.7762 16.1605 18.8703 16.1605 18.9288 16.2191C18.9873 16.2777 18.9873 16.372 18.9873 16.5606V18.1691C18.9873 18.2491 18.9873 18.2892 18.9693 18.3287C18.9513 18.3682 18.9251 18.391 18.8727 18.4367C18.813 18.4887 18.7418 18.545 18.6592 18.6057C18.5174 18.7092 18.3311 18.8007 18.1003 18.8802C17.872 18.9572 17.5931 18.9957 17.2638 18.9957C16.973 18.9957 16.7085 18.95 16.4706 18.8585C16.235 18.767 16.0319 18.6285 15.8612 18.4431C15.693 18.2553 15.5644 18.0218 15.4754 17.7425C15.3865 17.4607 15.342 17.1273 15.342 16.742V15.8463C15.342 15.4658 15.3841 15.1348 15.4682 14.853C15.5547 14.5689 15.6797 14.3329 15.8432 14.1451C16.0067 13.9573 16.2014 13.8177 16.4273 13.7262C16.6557 13.6347 16.9129 13.5889 17.1989 13.5889C17.5931 13.5889 17.9164 13.6551 18.1688 13.7876C18.4236 13.92 18.6159 14.1162 18.7457 14.3763C18.8251 14.5324 18.8854 14.7098 18.9267 14.9084C18.9651 15.0933 18.9843 15.1858 18.9243 15.2596C18.8644 15.3334 18.7613 15.3334 18.5553 15.3334H18.3335C18.1709 15.3334 18.0896 15.3334 18.0358 15.2921C17.9821 15.2508 17.9567 15.1564 17.906 14.9676C17.8905 14.9099 17.8723 14.8585 17.8515 14.8133C17.7962 14.6881 17.7181 14.599 17.6172 14.546C17.5162 14.4907 17.3852 14.463 17.2242 14.463C17.0847 14.463 16.9633 14.4883 16.86 14.5388C16.7566 14.587 16.6701 14.6664 16.6004 14.7772C16.5307 14.888 16.479 15.03 16.4453 15.2034C16.4117 15.3767 16.3949 15.5886 16.3949 15.8391V16.742C16.3949 16.99 16.4141 17.2019 16.4525 17.3777C16.491 17.5534 16.5475 17.6967 16.622 17.8075C16.6989 17.9182 16.7951 17.9989 16.9105 18.0495C17.0282 18.0976 17.1665 18.1217 17.3251 18.1217C17.4525 18.1217 17.5547 18.1084 17.6316 18.082C17.7085 18.0555 17.7698 18.0278 17.8155 17.9989C17.8388 17.9837 17.8505 17.9761 17.8571 17.971C17.9051 17.9337 17.9287 17.8901 17.9338 17.8294C17.9345 17.8211 17.9345 17.8098 17.9345 17.7872V17.3361C17.9345 17.1695 17.9345 17.0861 17.888 17.0304C17.8804 17.0213 17.8719 17.0129 17.8628 17.0053C17.8072 16.9587 17.724 16.9587 17.5577 16.9587C17.3913 16.9587 17.3081 16.9587 17.2525 16.9121C17.2434 16.9045 17.235 16.8961 17.2274 16.887C17.1809 16.8313 17.1809 16.7479 17.1809 16.5813V16.5596C17.1809 16.372 17.1809 16.2782 17.2388 16.2197L17.2399 16.2185C17.2983 16.1605 17.392 16.1605 17.5793 16.1605H18.5879Z" fill="#254434"/>
<path d="M14.0215 13.666C14.2098 13.666 14.304 13.666 14.3625 13.7246C14.421 13.7832 14.421 13.8775 14.421 14.0662V18.5995C14.421 18.7881 14.421 18.8824 14.3625 18.941C14.304 18.9996 14.2098 18.9996 14.0215 18.9996H13.6326C13.5126 18.9996 13.4526 18.9996 13.4044 18.9698C13.3562 18.94 13.3293 18.8863 13.2755 18.7789L12.4713 17.173C12.1719 16.5752 12.0222 16.2763 11.8685 16.3128C11.7148 16.3492 11.7148 16.6836 11.7148 17.3524V18.5995C11.7148 18.7881 11.7148 18.8824 11.6563 18.941C11.5979 18.9996 11.5037 18.9996 11.3154 18.9996H11.0976C10.9094 18.9996 10.8152 18.9996 10.7567 18.941C10.6982 18.8824 10.6982 18.7881 10.6982 18.5995V14.0662C10.6982 13.8775 10.6982 13.7832 10.7567 13.7246C10.8152 13.666 10.9094 13.666 11.0976 13.666H11.4718C11.5918 13.666 11.6518 13.666 11.7001 13.6959C11.7483 13.7258 11.7752 13.7795 11.8289 13.8871L12.6477 15.5256C12.9471 16.1247 13.0968 16.4243 13.2506 16.3879C13.4043 16.3515 13.4043 16.0165 13.4043 15.3465V14.0662C13.4043 13.8775 13.4043 13.7832 13.4628 13.7246C13.5213 13.666 13.6155 13.666 13.8038 13.666H14.0215Z" fill="#254434"/>
<path fill-rule="evenodd" clip-rule="evenodd" d="M8.27391 17.0433H7.9279C7.73934 17.0433 7.64506 17.0433 7.58648 17.1019C7.5279 17.1604 7.5279 17.2547 7.5279 17.4433V18.5224C7.5279 18.711 7.5279 18.8053 7.46941 18.8639C7.41091 18.9225 7.31676 18.9225 7.12847 18.9225H6.85951C6.67122 18.9225 6.57707 18.9225 6.51857 18.8639C6.46008 18.8053 6.46008 18.711 6.46008 18.5224V13.989C6.46008 13.8004 6.46008 13.7061 6.51857 13.6475C6.57707 13.5889 6.67122 13.5889 6.85951 13.5889H8.27391C8.63229 13.5889 8.94069 13.6646 9.19912 13.816C9.45754 13.9675 9.65501 14.1762 9.79154 14.4424C9.9305 14.7062 9.99994 15.009 9.99994 15.3509C9.99994 15.6952 9.9305 15.9944 9.79154 16.2484C9.65501 16.4999 9.45754 16.6953 9.19912 16.8345C8.94069 16.9737 8.63229 17.0433 8.27391 17.0433ZM7.5279 15.7531C7.5279 15.9417 7.5279 16.036 7.58648 16.0946C7.64506 16.1531 7.73934 16.1531 7.9279 16.1531H8.27391C8.42507 16.1531 8.54818 16.1189 8.64326 16.0506C8.74078 15.9822 8.81148 15.8882 8.85536 15.7685C8.89925 15.6464 8.92119 15.5096 8.92119 15.3582C8.92119 15.2044 8.89803 15.0615 8.85171 14.9296C8.80783 14.7953 8.73834 14.6866 8.64326 14.6036C8.55062 14.5206 8.4275 14.4791 8.27391 14.4791H7.92733C7.73904 14.4791 7.64489 14.4791 7.5864 14.5377C7.5279 14.5963 7.5279 14.6906 7.5279 14.8792V15.7531Z" fill="#254434"/>
</svg>
