<svg width="20" height="20" viewBox="0 0 20 20" fill="none" xmlns="http://www.w3.org/2000/svg">
<g id="modal/icon/pdf">
<path id="Vector" d="M8.67236 1.00004C8.88223 0.999892 9.07321 0.999762 9.25201 1.00779V2.74957C9.25198 3.64831 9.25195 4.39774 9.33199 4.99269C9.41646 5.62067 9.60229 6.18763 10.0581 6.64323C10.514 7.09883 11.0813 7.28455 11.7096 7.36898C12.3049 7.44897 13.0548 7.44895 13.954 7.44892H15.6911C15.7051 7.69146 15.7048 7.95126 15.7045 8.23511V11.6829C15.7045 11.7932 15.7045 11.9015 15.7044 12.0075H7.98536C6.98943 12.0075 6.49146 12.0075 6.18206 12.3777C5.87266 12.7478 5.87266 13.3435 5.87266 14.535V18.9589C5.72258 18.9507 5.579 18.9408 5.44153 18.9287C4.67032 18.8607 4.02037 18.7186 3.43437 18.3912C2.66686 17.9624 2.03337 17.3293 1.60433 16.5622C1.27676 15.9765 1.1346 15.3269 1.06652 14.5562C0.999989 13.8028 0.999994 12.8656 1 11.6829V8.54346C0.999992 7.25247 0.999986 6.2295 1.07875 5.41027C1.1594 4.57141 1.32804 3.86818 1.71544 3.24474C2.10114 2.62403 2.62487 2.10059 3.24592 1.71511C3.86972 1.32793 4.57335 1.15939 5.41268 1.07878C6.23237 1.00006 7.25592 1.00007 8.54764 1.00008L8.67236 1.00004Z" fill="#254434"/>
<path id="Vector_2" d="M11.4737 2.16024C11.211 1.89735 10.9902 1.67636 10.7529 1.50293V2.6979C10.7529 3.66219 10.7545 4.30993 10.8195 4.79311C10.8816 5.2547 10.9889 5.45225 11.1193 5.58261C11.2497 5.71296 11.4474 5.82021 11.9093 5.88227C12.3927 5.94723 13.0408 5.94883 14.0056 5.94883H15.191C14.9805 5.66393 14.7094 5.39349 14.3972 5.08208L11.4737 2.16024Z" fill="#254434"/>
<path id="Vector_3" d="M16.4501 18.9996H16.7136C16.9065 18.9996 17.003 18.9996 17.0619 18.9393C17.1208 18.879 17.1185 18.7826 17.1139 18.5899L17.0713 16.82H18.3947C18.5834 16.82 18.6778 16.82 18.7364 16.7614C18.795 16.7028 18.795 16.6085 18.795 16.4199V16.3337C18.795 16.145 18.795 16.0507 18.7364 15.9921C18.6778 15.9335 18.5834 15.9335 18.3947 15.9335H17.05V14.5562H18.6C18.7887 14.5562 18.883 14.5562 18.9417 14.4976C19.0003 14.439 19.0003 14.3447 19.0003 14.1561V14.0662C19.0003 13.8775 19.0003 13.7832 18.9417 13.7246C18.883 13.666 18.7887 13.666 18.6 13.666H16.4501C16.2614 13.666 16.1671 13.666 16.1084 13.7246C16.0498 13.7832 16.0498 13.8775 16.0498 14.0662V18.5995C16.0498 18.7881 16.0498 18.8824 16.1084 18.941C16.1671 18.9996 16.2614 18.9996 16.4501 18.9996Z" fill="#254434"/>
<path id="Vector_4" fill-rule="evenodd" clip-rule="evenodd" d="M8.05857 18.9996H7.78901C7.60028 18.9996 7.50592 18.9996 7.44729 18.941C7.38867 18.8824 7.38867 18.7881 7.38867 18.5995V14.0662C7.38867 13.8775 7.38867 13.7832 7.44729 13.7246C7.50592 13.666 7.60028 13.666 7.78901 13.666H9.20661C9.56581 13.666 9.87491 13.7418 10.134 13.8932C10.393 14.0446 10.5909 14.2534 10.7277 14.5196C10.867 14.7833 10.9366 15.0861 10.9366 15.428C10.9366 15.7724 10.867 16.0715 10.7277 16.3255C10.5909 16.577 10.393 16.7724 10.134 16.9116C9.87491 17.0508 9.56581 17.1204 9.20661 17.1204H8.85925C8.67053 17.1204 8.57617 17.1204 8.51754 17.179C8.45891 17.2376 8.45891 17.3319 8.45891 17.5205V18.5995C8.45891 18.7881 8.45891 18.8824 8.40028 18.941C8.34165 18.9996 8.24729 18.9996 8.05857 18.9996ZM9.20661 16.2303C9.35811 16.2303 9.4815 16.1961 9.5768 16.1277C9.67454 16.0593 9.7454 15.9653 9.78938 15.8456C9.83337 15.7235 9.85536 15.5868 9.85536 15.4354C9.85536 15.2815 9.83214 15.1386 9.78572 15.0068C9.74174 14.8724 9.6721 14.7638 9.5768 14.6807C9.48395 14.5977 9.36055 14.5562 9.20661 14.5562H8.85925C8.67053 14.5562 8.57617 14.5562 8.51754 14.6148C8.45891 14.6734 8.45891 14.7677 8.45891 14.9563V15.8301C8.45891 16.0188 8.45891 16.1131 8.51754 16.1717C8.57617 16.2303 8.67053 16.2303 8.85925 16.2303H9.20661Z" fill="#254434"/>
<path id="Vector_5" fill-rule="evenodd" clip-rule="evenodd" d="M13.1233 18.9996H12.1309C11.9422 18.9996 11.8478 18.9996 11.7892 18.941C11.7305 18.8824 11.7305 18.7881 11.7305 18.5995V14.0662C11.7305 13.8775 11.7305 13.7832 11.7892 13.7246C11.8478 13.666 11.9422 13.666 12.1309 13.666H13.138C13.4459 13.666 13.7256 13.7161 13.9773 13.8162C14.229 13.9164 14.4452 14.0629 14.6261 14.2558C14.8069 14.4463 14.9462 14.682 15.0439 14.9628C15.1416 15.2436 15.1905 15.5636 15.1905 15.9226V16.7468C15.1905 17.1082 15.1416 17.4281 15.0439 17.7065C14.9462 17.9849 14.8069 18.2206 14.6261 18.4135C14.4477 18.604 14.2314 18.7493 13.9773 18.8494C13.7232 18.9495 13.4385 18.9996 13.1233 18.9996ZM13.1233 18.1131C13.3823 18.1131 13.5839 18.0667 13.7281 17.9739C13.8723 17.8811 13.9737 17.7346 14.0323 17.5343C14.0934 17.3341 14.1239 17.0716 14.1239 16.7468V15.9152C14.1239 15.6686 14.108 15.4598 14.0763 15.2888C14.0445 15.1154 13.9908 14.9762 13.915 14.8712C13.8393 14.7638 13.7379 14.6844 13.6108 14.6331C13.4837 14.5818 13.3261 14.5562 13.138 14.5562C13.0133 14.5562 12.951 14.5562 12.9046 14.583C12.8741 14.6005 12.8488 14.6258 12.8312 14.6563C12.8045 14.7027 12.8045 14.765 12.8045 14.8895V17.7944C12.8045 17.9051 12.8045 17.9605 12.8258 18.0029C12.8451 18.0413 12.8763 18.0725 12.9147 18.0918C12.9571 18.1131 13.0125 18.1131 13.1233 18.1131Z" fill="#254434"/>
</g>
</svg>
