<svg width="41" height="41" viewBox="0 0 41 41" fill="none" xmlns="http://www.w3.org/2000/svg">
<path fill-rule="evenodd" clip-rule="evenodd" d="M33.9687 5.17433C29.5153 4.45541 25.0112 4.09618 20.5002 4.10013C15.9164 4.10013 11.4187 4.46913 7.03169 5.17433C4.08584 5.64788 2.05019 8.22883 2.05019 11.1234V21.6768C2.05019 24.5735 4.08584 27.1503 7.03169 27.6259C10.5481 28.1931 14.0969 28.5361 17.6568 28.653C18.0629 28.663 18.4499 28.8272 18.7392 29.1122L26.0762 36.4512C26.2913 36.6661 26.5654 36.8123 26.8636 36.8715C27.1619 36.9306 27.471 36.9 27.7518 36.7835C28.0327 36.667 28.2727 36.4698 28.4415 36.2169C28.6103 35.964 28.7003 35.6667 28.7002 35.3626V28.3045C30.463 28.1345 32.2201 27.9089 33.9687 27.628C36.9145 27.1503 38.9502 24.5714 38.9502 21.6748V11.1234C38.9502 8.22678 36.9145 5.64993 33.9687 5.17433Z" fill="#254434"/>
<path d="M17.66 17.82C17.7667 17.6333 17.8533 17.41 17.92 17.15C17.9867 16.8833 18.02 16.6333 18.02 16.4C18.02 15.84 17.91 15.3467 17.69 14.92C17.4767 14.4867 17.17 14.1533 16.77 13.92C16.3767 13.68 15.9233 13.56 15.41 13.56C14.8967 13.56 14.4433 13.68 14.05 13.92C13.6567 14.1533 13.35 14.4867 13.13 14.92C12.9167 15.3467 12.81 15.84 12.81 16.4C12.81 16.96 12.9167 17.4533 13.13 17.88C13.35 18.3067 13.6567 18.64 14.05 18.88C14.4433 19.1133 14.8967 19.23 15.41 19.23C15.7033 19.23 15.9967 19.1767 16.29 19.07C16.59 18.9567 16.8367 18.8133 17.03 18.64L16.02 17.57L16.77 16.86L17.66 17.82ZM18.45 20.15L17.69 19.34C17.4167 19.58 17.0667 19.7767 16.64 19.93C16.22 20.0833 15.81 20.16 15.41 20.16C14.7033 20.16 14.07 20 13.51 19.68C12.9567 19.36 12.5233 18.9167 12.21 18.35C11.8967 17.7767 11.74 17.1267 11.74 16.4C11.74 15.6733 11.8967 15.0233 12.21 14.45C12.5233 13.8767 12.9567 13.43 13.51 13.11C14.07 12.79 14.7033 12.63 15.41 12.63C16.1233 12.63 16.7567 12.79 17.31 13.11C17.87 13.43 18.3067 13.8767 18.62 14.45C18.9333 15.0233 19.09 15.6733 19.09 16.4C19.0767 16.7667 19.0067 17.1567 18.88 17.57C18.76 17.9833 18.6033 18.33 18.41 18.61L19.2 19.44L18.45 20.15ZM23.0445 16.38C23.4511 16.38 23.7778 16.2567 24.0245 16.01C24.2778 15.7567 24.4045 15.42 24.4045 15C24.4045 14.58 24.2778 14.2467 24.0245 14C23.7778 13.7533 23.4511 13.63 23.0445 13.63H21.4345V16.38H23.0445ZM24.5345 20.08L22.6645 17.31H21.4345V20.08H20.3745V12.7H23.1745C23.6211 12.7 24.0178 12.7967 24.3645 12.99C24.7111 13.1833 24.9811 13.4567 25.1745 13.81C25.3678 14.1567 25.4645 14.5567 25.4645 15.01C25.4645 15.4967 25.3278 15.93 25.0545 16.31C24.7811 16.6833 24.3778 16.9667 23.8445 17.16L25.8145 20.08H24.5345ZM28.7771 18.05H27.7571L27.5671 12.45H28.9371L28.7771 18.05ZM28.2771 18.99C28.4571 18.99 28.6038 19.0467 28.7171 19.16C28.8304 19.2733 28.8871 19.4233 28.8871 19.61C28.8871 19.7967 28.8304 19.9467 28.7171 20.06C28.6038 20.18 28.4571 20.24 28.2771 20.24C28.0904 20.24 27.9371 20.18 27.8171 20.06C27.7038 19.9467 27.6471 19.7967 27.6471 19.61C27.6471 19.4233 27.7038 19.2733 27.8171 19.16C27.9371 19.0467 28.0904 18.99 28.2771 18.99Z" fill="white"/>
</svg>
