<svg width="16" height="15" viewBox="0 0 16 15" fill="none" xmlns="http://www.w3.org/2000/svg">
<g id="icon/hamburger">
<path id="Vector" d="M7.02734 3.75C7.02734 3.12868 7.53102 2.625 8.15234 2.625C8.77364 2.625 9.27734 3.12868 9.27734 3.75C9.27734 4.37132 8.77364 4.875 8.15234 4.875C7.53102 4.875 7.02734 4.37132 7.02734 3.75Z" fill="#254434"/>
<path id="Vector_2" d="M7.02734 11.25C7.02734 10.6287 7.53102 10.125 8.15234 10.125C8.77364 10.125 9.27734 10.6287 9.27734 11.25C9.27734 11.8713 8.77364 12.375 8.15234 12.375C7.53102 12.375 7.02734 11.8713 7.02734 11.25Z" fill="#254434"/>
<path id="Vector_3" d="M7.02734 7.5C7.02734 6.87868 7.53102 6.375 8.15234 6.375C8.77364 6.375 9.27734 6.87868 9.27734 7.5C9.27734 8.1213 8.77364 8.625 8.15234 8.625C7.53102 8.625 7.02734 8.1213 7.02734 7.5Z" fill="#254434"/>
</g>
</svg>
