<svg width="26" height="26" viewBox="0 0 26 26" fill="none" xmlns="http://www.w3.org/2000/svg">
<path fill-rule="evenodd" clip-rule="evenodd" d="M14.0614 3.34761C13.3603 3.21045 12.6393 3.21045 11.9382 3.34761C10.9883 3.53344 10.0831 4.07678 7.85571 5.45736C5.85018 6.7004 5.04903 7.21166 4.49091 7.89449C4.07857 8.39897 3.75907 8.97242 3.54723 9.58821C3.2605 10.4217 3.24799 11.3708 3.24799 13.7273V19.6489C3.24799 21.3645 4.64127 22.7554 6.35997 22.7554C7.5145 22.7554 8.45042 21.8211 8.45042 20.6686V17.7795C8.45042 15.2714 10.4873 13.2382 12.9998 13.2382C15.5123 13.2382 17.5492 15.2714 17.5492 17.7795V20.6686C17.5492 21.8211 18.4851 22.7554 19.6397 22.7554C21.3583 22.7554 22.7516 21.3645 22.7516 19.6489V13.7273C22.7516 11.3708 22.7391 10.4217 22.4524 9.58821C22.2406 8.97242 21.921 8.39897 21.5087 7.89449C20.9506 7.21166 20.1494 6.7004 18.1439 5.45736C15.9165 4.07678 15.0113 3.53344 14.0614 3.34761ZM11.5635 1.43923C12.512 1.25366 13.4876 1.25366 14.4362 1.43923C15.7796 1.70207 17.0033 2.46083 18.9925 3.69422C19.0514 3.7308 19.1112 3.76781 19.1716 3.80523C19.2255 3.83868 19.2789 3.87174 19.3316 3.90443C21.1252 5.0157 22.229 5.69963 23.0181 6.6651C23.5761 7.34764 24.0083 8.12348 24.2948 8.95662C24.7003 10.1351 24.7001 11.432 24.6998 13.5393C24.6998 13.6012 24.6998 13.664 24.6998 13.7273V19.6489C24.6998 22.4386 22.4343 24.7 19.6397 24.7C17.4091 24.7 15.601 22.8951 15.601 20.6686V17.7795C15.601 16.3455 14.4364 15.1829 12.9998 15.1829C11.5632 15.1829 10.3986 16.3455 10.3986 17.7795V20.6686C10.3986 22.8951 8.59043 24.7 6.35997 24.7C3.56533 24.7 1.29984 22.4386 1.29984 19.6489V13.7273C1.29984 13.664 1.29982 13.6012 1.29982 13.5392C1.29948 11.432 1.29926 10.1351 1.70468 8.95662C1.99129 8.12348 2.42356 7.34764 2.98143 6.6651C3.77057 5.69963 4.87441 5.0157 6.66798 3.90443C6.72073 3.87174 6.7741 3.83868 6.82806 3.80523C6.88843 3.76781 6.94812 3.7308 7.00711 3.69422C8.99627 2.46083 10.22 1.70207 11.5635 1.43923Z" fill="#9C9CA1" fill-opacity="0.5"/>
</svg>
