<svg width="18" height="18" viewBox="0 0 18 18" fill="none" xmlns="http://www.w3.org/2000/svg">
<path fill-rule="evenodd" clip-rule="evenodd" d="M8.9999 0.899994C4.5264 0.899994 0.899902 4.52649 0.899902 8.99999C0.899902 13.4735 4.5264 17.1 8.9999 17.1C13.4734 17.1 17.0999 13.4735 17.0999 8.99999C17.0999 4.52649 13.4734 0.899994 8.9999 0.899994ZM8.9999 5.06249C8.50285 5.06249 8.0999 5.46543 8.0999 5.96249C8.0999 6.45955 8.50285 6.86249 8.9999 6.86249C9.49697 6.86249 9.8999 6.45955 9.8999 5.96249C9.8999 5.46543 9.49697 5.06249 8.9999 5.06249ZM8.3249 12.2625C8.3249 12.6353 8.62711 12.9375 8.9999 12.9375C9.37268 12.9375 9.6749 12.6353 9.6749 12.2625V8.66249C9.6749 8.2897 9.37268 7.98749 8.9999 7.98749C8.62711 7.98749 8.3249 8.2897 8.3249 8.66249V12.2625Z" fill="#254434"/>
</svg>
