<svg width="27" height="26" viewBox="0 0 27 26" fill="none" xmlns="http://www.w3.org/2000/svg">
<g id="icon/magazine/activated">
<path id="Vector" d="M3.4849 15.9423L4.04499 18.0353C4.69932 20.4782 5.02757 21.7002 5.76965 22.4921C6.35535 23.117 7.11308 23.5543 7.94715 23.7488C9.00449 23.9958 10.2265 23.6686 12.6705 23.0143C15.1123 22.36 16.3343 22.0328 17.1262 21.2907C17.192 21.2286 17.2555 21.1651 17.3169 21.1001C16.9479 21.0668 16.5812 21.0126 16.2184 20.9376C15.4644 20.7881 14.5685 20.5476 13.509 20.2637L13.3931 20.2323L13.366 20.2258C12.2133 19.916 11.2502 19.6581 10.4811 19.3808C9.67182 19.0883 8.93732 18.7276 8.31224 18.1426C7.45241 17.337 6.85073 16.2946 6.58324 15.1471C6.38824 14.3141 6.44457 13.4972 6.59624 12.6511C6.7414 11.8397 7.0014 10.8669 7.3134 9.70231L7.89298 7.54214L7.91249 7.46631C5.83249 8.02639 4.73724 8.35789 4.00707 9.04147C3.38144 9.62762 2.94372 10.3862 2.74932 11.2211C2.50232 12.2774 2.82949 13.4994 3.4849 15.9423Z" fill="#B5CDB7"/>
<path id="Vector_2" fill-rule="evenodd" clip-rule="evenodd" d="M23.0655 11.608L22.5043 13.701C21.8489 16.1439 21.5218 17.3659 20.7797 18.1578C20.1941 18.7831 19.4364 19.2208 18.6022 19.4156C18.4974 19.4401 18.3909 19.4589 18.2826 19.4719C17.2913 19.5943 16.0813 19.2704 13.8799 18.6811C11.437 18.0257 10.215 17.6985 9.42308 16.9564C8.79764 16.3706 8.35994 15.6124 8.16533 14.7778C7.91833 13.7205 8.2455 12.4996 8.90092 10.0567L9.461 7.96366L9.72533 6.98324C10.2183 5.17841 10.5498 4.18499 11.1857 3.50574C11.7714 2.88087 12.5291 2.44358 13.3632 2.24907C14.4205 2.00207 15.6425 2.32924 18.0865 2.98466C20.5283 3.63899 21.7503 3.96616 22.5423 4.70716C23.1679 5.2933 23.6056 6.05185 23.8 6.88682C24.047 7.94416 23.7198 9.16507 23.0655 11.608ZM12.4716 10.6222C12.4992 10.5191 12.5469 10.4225 12.6119 10.3378C12.6769 10.2532 12.758 10.1821 12.8504 10.1288C12.9429 10.0755 13.0449 10.0409 13.1508 10.0271C13.2566 10.0132 13.3641 10.0203 13.4672 10.048L18.6997 11.4509C18.8055 11.476 18.9051 11.5221 18.9928 11.5864C19.0805 11.6507 19.1543 11.7319 19.21 11.8253C19.2657 11.9187 19.3021 12.0223 19.317 12.13C19.3319 12.2377 19.3251 12.3473 19.2969 12.4523C19.2687 12.5573 19.2197 12.6556 19.1528 12.7413C19.0859 12.827 19.0025 12.8984 18.9075 12.9513C18.8125 13.0042 18.7079 13.0375 18.5998 13.0493C18.4917 13.061 18.3824 13.0509 18.2782 13.0196L13.0458 11.6177C12.8378 11.5619 12.6605 11.4258 12.5529 11.2393C12.4452 11.0528 12.416 10.8302 12.4716 10.6222ZM11.6309 13.7627C11.6868 13.5548 11.8229 13.3775 12.0094 13.2699C12.1958 13.1622 12.4174 13.133 12.6254 13.1886L15.7649 14.0303C15.8712 14.0549 15.9715 14.1005 16.0597 14.1647C16.148 14.2288 16.2224 14.31 16.2786 14.4035C16.3348 14.497 16.3716 14.6009 16.3868 14.7089C16.402 14.817 16.3952 14.9269 16.367 15.0323C16.3388 15.1377 16.2896 15.2363 16.2224 15.3223C16.1553 15.4082 16.0715 15.4798 15.9761 15.5327C15.8807 15.5855 15.7756 15.6187 15.6671 15.6301C15.5586 15.6415 15.4489 15.6309 15.3446 15.599L12.2051 14.7583C12.102 14.7307 12.0054 14.683 11.9207 14.618C11.8361 14.553 11.7651 14.4719 11.7117 14.3795C11.6584 14.287 11.6238 14.185 11.61 14.0792C11.5961 13.9733 11.6032 13.8658 11.6309 13.7627Z" fill="#B5CDB7"/>
</g>
</svg>
