<svg width="24" height="24" viewBox="0 0 24 24" fill="none" xmlns="http://www.w3.org/2000/svg">
<path fill-rule="evenodd" clip-rule="evenodd" d="M17.2604 1.18938L17.3319 1.20888C18.5235 1.52846 19.4671 1.78088 20.2092 2.04954C20.9686 2.32363 21.5883 2.63671 22.0985 3.11446C22.8412 3.81053 23.3607 4.71119 23.5914 5.70254C23.7506 6.38288 23.7127 7.07621 23.5697 7.87029C23.4321 8.64813 23.1797 9.59171 22.8601 10.7823L22.2795 12.9479C21.961 14.1385 21.7075 15.082 21.4399 15.8252C21.1647 16.5835 20.8516 17.2032 20.3739 17.7135C19.7005 18.4324 18.835 18.943 17.88 19.1846C17.6002 19.8261 17.1925 20.4037 16.6819 20.8822C16.1716 21.36 15.552 21.673 14.7925 21.9482C14.0505 22.2169 13.1069 22.4693 11.9163 22.7889L11.8437 22.8084C10.652 23.1269 9.70954 23.3793 8.93171 23.519C8.13762 23.661 7.44429 23.6989 6.76287 23.5407C5.77166 23.3092 4.87136 22.7889 4.17587 22.0457C3.6992 21.5365 3.38504 20.9169 3.10987 20.1575C2.84229 19.4154 2.58987 18.4718 2.27029 17.2801L1.68962 15.1156C1.37112 13.924 1.11762 12.9815 0.978955 12.2036C0.837038 11.4095 0.799122 10.7162 0.957288 10.0348C1.18879 9.04358 1.70906 8.14329 2.45229 7.44779C2.96145 6.97113 3.58112 6.65696 4.34054 6.38179C5.08262 6.11421 6.02621 5.86179 7.21679 5.54221L7.25362 5.53138L8.0672 5.31471C8.49187 3.79913 8.86454 2.72771 9.59254 1.95096C10.2882 1.20813 11.1885 0.688243 12.1795 0.457044C12.861 0.298877 13.5532 0.336794 14.3484 0.478711C15.1251 0.617377 16.0687 0.870877 17.2604 1.18938ZM7.57645 7.12821C6.39237 7.44563 5.54412 7.67529 4.89196 7.91038C4.23112 8.14871 3.84437 8.36971 3.56271 8.63404C3.05424 9.10997 2.69835 9.726 2.54004 10.4042C2.45337 10.7812 2.45446 11.2275 2.57904 11.9176C2.70362 12.6185 2.9387 13.496 3.26912 14.731L3.83029 16.824C4.16071 18.059 4.39687 18.9365 4.63846 19.605C4.87679 20.2658 5.09779 20.6536 5.36212 20.9353C5.83804 21.4438 6.45407 21.7997 7.13229 21.958C7.5082 22.0446 7.95562 22.0425 8.64571 21.919C9.34662 21.7944 10.2241 21.5593 11.4591 21.2289C12.6941 20.8974 13.5716 20.6623 14.2411 20.4196C14.9009 20.1813 15.2887 19.9603 15.5704 19.697C15.7199 19.5562 15.8556 19.4049 15.9777 19.2431C15.7767 19.2145 15.5766 19.1801 15.3775 19.1402C14.6495 18.995 13.7742 18.761 12.6963 18.4718L12.6335 18.4555C11.4429 18.136 10.4993 17.8835 9.75721 17.6149C8.99779 17.3408 8.37812 17.0277 7.86787 16.55C7.12485 15.854 6.60496 14.9534 6.37395 13.9619C6.21579 13.2815 6.2537 12.5882 6.39562 11.7941C6.53429 11.0163 6.78779 10.0727 7.10629 8.88213L7.57645 7.12821ZM14.0624 2.07879C13.3712 1.95421 12.9249 1.95204 12.549 2.03979C11.8707 2.1981 11.2547 2.554 10.7788 3.06246C10.3065 3.56621 10.015 4.34621 9.5102 6.19654L9.24695 7.17371L8.68579 9.26671C8.35537 10.5017 8.12029 11.3792 7.99571 12.0801C7.87112 12.7702 7.86896 13.2176 7.95671 13.5935C8.11502 14.2718 8.47091 14.8878 8.97937 15.3637C9.26104 15.628 9.64887 15.848 10.3086 16.0874C10.9781 16.329 11.8556 16.564 13.0906 16.8955C14.201 17.1935 15.0244 17.4134 15.6939 17.5455C16.3601 17.6788 16.813 17.7113 17.1835 17.6658C17.2643 17.655 17.3423 17.6412 17.4175 17.6246C18.0957 17.4663 18.7117 17.1104 19.1876 16.602C19.452 16.3203 19.673 15.9325 19.9113 15.2727C20.1529 14.6032 20.388 13.7257 20.7195 12.4907L21.2806 10.3977C21.611 9.16271 21.8461 8.28521 21.9707 7.58429C22.0942 6.89421 22.0975 6.44679 22.0097 6.07088C21.8514 5.39266 21.4955 4.77663 20.987 4.30071C20.7054 4.03638 20.3175 3.81646 19.6578 3.57704C18.9872 3.33546 18.1108 3.10038 16.8758 2.76888C15.6408 2.43846 14.7633 2.20338 14.0624 2.07879ZM11.4732 9.62313C11.5009 9.52004 11.5485 9.42342 11.6135 9.33877C11.6786 9.25412 11.7596 9.18311 11.852 9.12979C11.9445 9.07647 12.0466 9.04189 12.1524 9.02802C12.2582 9.01415 12.3657 9.02127 12.4688 9.04896L17.7013 10.4508C17.9037 10.5116 18.0744 10.6489 18.1772 10.8336C18.28 11.0182 18.3068 11.2356 18.252 11.4397C18.1972 11.6438 18.065 11.8185 17.8835 11.9267C17.702 12.0349 17.4855 12.0682 17.2799 12.0195L12.0474 10.6176C11.8394 10.5618 11.6622 10.4257 11.5545 10.2392C11.4468 10.0527 11.4176 9.83114 11.4732 9.62313ZM10.6315 12.7626C10.6591 12.6594 10.7068 12.5627 10.7719 12.478C10.837 12.3932 10.9181 12.3222 11.0107 12.2688C11.1033 12.2155 11.2055 12.1809 11.3114 12.1672C11.4174 12.1534 11.525 12.1606 11.6281 12.1885L14.7665 13.0291C14.9747 13.0849 15.1522 13.221 15.26 13.4076C15.3678 13.5942 15.397 13.816 15.3412 14.0242C15.2855 14.2323 15.1494 14.4098 14.9628 14.5176C14.7761 14.6254 14.5544 14.6546 14.3462 14.5989L11.2067 13.7571C10.9988 13.7013 10.8215 13.5652 10.7138 13.3787C10.6062 13.1922 10.5769 12.9706 10.6325 12.7626" fill="#9C9CA1" fill-opacity="0.5"/>
</svg>
