<svg width="15" height="15" viewBox="0 0 15 15" fill="none" xmlns="http://www.w3.org/2000/svg">
<path fill-rule="evenodd" clip-rule="evenodd" d="M4.21875 5.15639C4.21873 4.58763 4.36654 4.02863 4.6477 3.53422C4.92886 3.03981 5.33371 2.62697 5.82253 2.3362C6.31135 2.04543 6.86735 1.88672 7.43601 1.87562C8.00466 1.86453 8.56644 2.00144 9.06622 2.27293C9.56601 2.54441 9.98665 2.94115 10.2869 3.42422C10.5871 3.90729 10.7566 4.4601 10.7788 5.02843C10.8009 5.59676 10.675 6.16109 10.4133 6.66607C10.1515 7.17104 9.76307 7.59932 9.28594 7.90889C9.04781 8.06452 8.92219 8.26233 8.90812 8.43764H11.7188C12.0917 8.43764 12.4494 8.5858 12.7131 8.84952C12.9768 9.11325 13.125 9.47093 13.125 9.84389V11.2501H1.875V9.84389C1.875 9.47093 2.02316 9.11325 2.28688 8.84952C2.5506 8.5858 2.90829 8.43764 3.28125 8.43764H6.09188C6.07781 8.26233 5.95219 8.06452 5.71406 7.90889C5.25511 7.61112 4.8779 7.20332 4.61674 6.7226C4.35559 6.24187 4.21877 5.70347 4.21875 5.15639ZM13.125 12.1876V13.1251H1.875V12.1876H13.125Z" fill="#FFC783"/>
</svg>
