<svg width="60" height="60" viewBox="0 0 60 60" fill="none" xmlns="http://www.w3.org/2000/svg">
<g id="icon/design-deactivated">
<path id="Vector" fill-rule="evenodd" clip-rule="evenodd" d="M30.291 2.79053C15.1085 2.79053 2.79297 15.0616 2.79297 30.3928C2.79297 43.3033 11.4377 53.8978 26.2782 57.037C29.4149 57.7006 32.1666 56.3968 33.8046 54.208C35.4108 52.0618 35.9532 49.0825 34.9821 46.2376C33.5139 41.9368 32.7879 39.2899 32.6313 37.5061C32.5566 36.6529 32.6262 36.1225 32.7363 35.7691C32.838 35.4433 33.0075 35.158 33.3237 34.8406C34.2864 33.874 36.2142 33.3031 39.1371 33.3427C41.9412 33.3805 45.111 33.9718 47.9127 34.6798C50.319 35.2876 52.7961 34.7143 54.5922 33.3229C56.4276 31.9009 57.6006 29.56 57.0951 26.8525C54.3174 11.9766 43.4535 2.79053 30.291 2.79053ZM7.41115 30.3928C7.41115 17.6294 17.6507 7.42474 30.291 7.42474C41.0097 7.42474 50.1453 14.7965 52.5558 27.7059C52.7019 28.4881 52.413 29.1566 51.7698 29.6548C51.0858 30.1846 50.0628 30.4441 49.0404 30.1858C46.089 29.4401 42.522 28.7538 39.1992 28.7088C35.9955 28.6655 32.4069 29.2059 30.0573 31.5643C29.283 32.3416 28.6804 33.2578 28.3288 34.3858C27.9858 35.4862 27.9213 36.6619 28.031 37.9123C28.2436 40.3357 29.1617 43.4872 30.6132 47.7394C31.0902 49.1365 30.7965 50.5105 30.1119 51.4255C29.4595 52.297 28.4661 52.7638 27.2307 52.5025C14.2776 49.7626 7.41115 40.8664 7.41115 30.3928Z" fill="#254434" fill-opacity="0.7"/>
<path id="Vector_2" fill-rule="evenodd" clip-rule="evenodd" d="M41.6722 19.5352C43.3228 19.5352 44.6608 18.192 44.6608 16.5352C44.6608 14.8783 43.3228 13.5352 41.6722 13.5352C40.0216 13.5352 38.6836 14.8783 38.6836 16.5352C38.6836 18.192 40.0216 19.5352 41.6722 19.5352Z" fill="#254434" fill-opacity="0.7"/>
<path id="Vector_3" fill-rule="evenodd" clip-rule="evenodd" d="M30.4769 16.7271C32.1275 16.7271 33.4655 15.3839 33.4655 13.7271C33.4655 12.0702 32.1275 10.7271 30.4769 10.7271C28.8263 10.7271 27.4883 12.0702 27.4883 13.7271C27.4883 15.3839 28.8263 16.7271 30.4769 16.7271Z" fill="#254434" fill-opacity="0.7"/>
<path id="Vector_4" fill-rule="evenodd" clip-rule="evenodd" d="M19.2816 20.9399C20.9321 20.9399 22.2701 19.5968 22.2701 17.9399C22.2701 16.2831 20.9321 14.9399 19.2816 14.9399C17.631 14.9399 16.293 16.2831 16.293 17.9399C16.293 19.5968 17.631 20.9399 19.2816 20.9399Z" fill="#254434" fill-opacity="0.7"/>
<path id="Vector_5" fill-rule="evenodd" clip-rule="evenodd" d="M13.6839 30.7734C15.3345 30.7734 16.6725 29.4303 16.6725 27.7734C16.6725 26.1166 15.3345 24.7734 13.6839 24.7734C12.0334 24.7734 10.6953 26.1166 10.6953 27.7734C10.6953 29.4303 12.0334 30.7734 13.6839 30.7734Z" fill="#254434" fill-opacity="0.7"/>
</g>
</svg>
