<svg width="16" height="16" viewBox="0 0 16 16" fill="none" xmlns="http://www.w3.org/2000/svg">
<g id="icon/pencil">
<path id="Vector" d="M11.7115 2.40874L12.439 3.06031C12.8109 3.39331 13.1313 3.68024 13.3568 3.94435C13.5986 4.2274 13.7871 4.54642 13.8085 4.95064C13.8299 5.35487 13.6761 5.69183 13.4655 5.99857C13.2691 6.2848 12.9807 6.60362 12.6461 6.97366L6.86085 13.3708C6.54531 13.7203 6.29574 13.9967 5.96504 14.1694C5.63435 14.3419 5.26393 14.389 4.79559 14.4487L3.3984 14.6276C3.02632 14.6753 2.68987 14.7184 2.41569 14.7151C2.11664 14.7114 1.79104 14.6533 1.51775 14.4085C1.24445 14.1637 1.15219 13.8476 1.1171 13.5521C1.08491 13.2811 1.09269 12.9436 1.1013 12.5703L1.13341 11.1689C1.14377 10.6992 1.15198 10.3276 1.28972 9.98225C1.42748 9.6368 1.67753 9.3608 1.99367 9.01183L7.77897 2.61478C8.1136 2.24471 8.4019 1.92586 8.66732 1.70143C8.9518 1.4609 9.27235 1.27326 9.67855 1.25198C10.0847 1.23069 10.4234 1.38379 10.7316 1.59326C11.0192 1.78871 11.3396 2.07569 11.7115 2.40874Z" fill="#254434"/>
<path id="Vector_2" d="M8.76352 13.627C8.45189 13.627 8.19922 13.8784 8.19922 14.1886C8.19922 14.4988 8.45189 14.7502 8.76352 14.7502H14.0307C14.3424 14.7502 14.5951 14.4988 14.5951 14.1886C14.5951 13.8784 14.3424 13.627 14.0307 13.627H8.76352Z" fill="#254434"/>
</g>
</svg>
