<svg width="46" height="45" viewBox="0 0 46 45" fill="none" xmlns="http://www.w3.org/2000/svg">
<path fill-rule="evenodd" clip-rule="evenodd" d="M22.8096 2.25C11.6258 2.25 2.55957 11.3162 2.55957 22.5C2.55957 33.6838 11.6258 42.75 22.8096 42.75C33.9934 42.75 43.0596 33.6838 43.0596 22.5C43.0596 11.3162 33.9934 2.25 22.8096 2.25ZM21.0944 16.6256C21.0944 15.6783 21.8623 14.9104 22.8095 14.9104C23.7568 14.9104 24.5247 15.6783 24.5247 16.6256V20.7848H28.6841C29.6313 20.7848 30.3993 21.5527 30.3993 22.5C30.3993 23.4473 29.6313 24.2152 28.6839 24.2152H24.5247V28.3745C24.5247 29.3218 23.7568 30.0897 22.8095 30.0897C21.8623 30.0897 21.0944 29.3218 21.0944 28.3743V24.2152H16.9351C15.9879 24.2152 15.2199 23.4473 15.2199 22.5C15.2199 21.5527 15.9879 20.7848 16.9351 20.7848H21.0944V16.6256Z" fill="#254434"/>
</svg>
