<svg width="36" height="35" viewBox="0 0 36 35" fill="none" xmlns="http://www.w3.org/2000/svg">
<path fill-rule="evenodd" clip-rule="evenodd" d="M18.1562 1.75C9.45777 1.75 2.40625 8.80152 2.40625 17.5C2.40625 26.1986 9.45777 33.25 18.1562 33.25C26.8548 33.25 33.9062 26.1986 33.9062 17.5C33.9062 8.80152 26.8548 1.75 18.1562 1.75ZM16.8222 12.931C16.8222 12.1942 17.4194 11.597 18.1562 11.597C18.893 11.597 19.4903 12.1942 19.4903 12.931V16.1659H22.7253C23.4621 16.1659 24.0594 16.7632 24.0594 17.5C24.0594 18.2368 23.4621 18.834 22.7251 18.834H19.4903V22.0691C19.4903 22.8058 18.893 23.4031 18.1562 23.4031C17.4194 23.4031 16.8222 22.8058 16.8222 22.0689V18.834H13.5872C12.8505 18.834 12.2532 18.2368 12.2532 17.5C12.2532 16.7632 12.8505 16.1659 13.5872 16.1659H16.8222V12.931Z" fill="#254434"/>
</svg>
