<svg width="41" height="42" viewBox="0 0 41 42" fill="none" xmlns="http://www.w3.org/2000/svg">
<path fill-rule="evenodd" clip-rule="evenodd" d="M33.9685 6.14357C29.5151 5.42465 25.011 5.06542 20.5 5.06937C15.9161 5.06937 11.4184 5.43837 7.03145 6.14357C4.0856 6.61712 2.04995 9.19807 2.04995 12.0927V22.6461C2.04995 25.5427 4.0856 28.1196 7.03145 28.5952C10.5478 29.1623 14.0967 29.5053 17.6566 29.6222C18.0626 29.6323 18.4496 29.7964 18.739 30.0814L26.0759 37.4204C26.2911 37.6353 26.5651 37.7816 26.8634 37.8407C27.1616 37.8998 27.4707 37.8692 27.7516 37.7527C28.0324 37.6362 28.2725 37.439 28.4413 37.1861C28.6101 36.9332 28.7001 36.6359 28.7 36.3319V29.2737C30.4628 29.1038 32.2198 28.8782 33.9685 28.5972C36.9143 28.1196 38.95 25.5407 38.95 22.644V12.0927C38.95 9.19602 36.9143 6.61917 33.9685 6.14357Z" fill="#254434"/>
<path d="M17.66 18.7892C17.7667 18.6026 17.8533 18.3792 17.92 18.1192C17.9867 17.8526 18.02 17.6026 18.02 17.3692C18.02 16.8092 17.91 16.3159 17.69 15.8892C17.4767 15.4559 17.17 15.1226 16.77 14.8892C16.3767 14.6492 15.9233 14.5292 15.41 14.5292C14.8967 14.5292 14.4433 14.6492 14.05 14.8892C13.6567 15.1226 13.35 15.4559 13.13 15.8892C12.9167 16.3159 12.81 16.8092 12.81 17.3692C12.81 17.9292 12.9167 18.4226 13.13 18.8492C13.35 19.2759 13.6567 19.6092 14.05 19.8492C14.4433 20.0826 14.8967 20.1992 15.41 20.1992C15.7033 20.1992 15.9967 20.1459 16.29 20.0392C16.59 19.9259 16.8367 19.7826 17.03 19.6092L16.02 18.5392L16.77 17.8292L17.66 18.7892ZM18.45 21.1192L17.69 20.3092C17.4167 20.5492 17.0667 20.7459 16.64 20.8992C16.22 21.0526 15.81 21.1292 15.41 21.1292C14.7033 21.1292 14.07 20.9692 13.51 20.6492C12.9567 20.3292 12.5233 19.8859 12.21 19.3192C11.8967 18.7459 11.74 18.0959 11.74 17.3692C11.74 16.6426 11.8967 15.9926 12.21 15.4192C12.5233 14.8459 12.9567 14.3992 13.51 14.0792C14.07 13.7592 14.7033 13.5992 15.41 13.5992C16.1233 13.5992 16.7567 13.7592 17.31 14.0792C17.87 14.3992 18.3067 14.8459 18.62 15.4192C18.9333 15.9926 19.09 16.6426 19.09 17.3692C19.0767 17.7359 19.0067 18.1259 18.88 18.5392C18.76 18.9526 18.6033 19.2992 18.41 19.5792L19.2 20.4092L18.45 21.1192ZM23.0445 17.3492C23.4511 17.3492 23.7778 17.2259 24.0245 16.9792C24.2778 16.7259 24.4045 16.3892 24.4045 15.9692C24.4045 15.5492 24.2778 15.2159 24.0245 14.9692C23.7778 14.7226 23.4511 14.5992 23.0445 14.5992H21.4345V17.3492H23.0445ZM24.5345 21.0492L22.6645 18.2792H21.4345V21.0492H20.3745V13.6692H23.1745C23.6211 13.6692 24.0178 13.7659 24.3645 13.9592C24.7111 14.1526 24.9811 14.4259 25.1745 14.7792C25.3678 15.1259 25.4645 15.5259 25.4645 15.9792C25.4645 16.4659 25.3278 16.8992 25.0545 17.2792C24.7811 17.6526 24.3778 17.9359 23.8445 18.1292L25.8145 21.0492H24.5345ZM28.7771 19.0192H27.7571L27.5671 13.4192H28.9371L28.7771 19.0192ZM28.2771 19.9592C28.4571 19.9592 28.6038 20.0159 28.7171 20.1292C28.8304 20.2426 28.8871 20.3926 28.8871 20.5792C28.8871 20.7659 28.8304 20.9159 28.7171 21.0292C28.6038 21.1492 28.4571 21.2092 28.2771 21.2092C28.0904 21.2092 27.9371 21.1492 27.8171 21.0292C27.7038 20.9159 27.6471 20.7659 27.6471 20.5792C27.6471 20.3926 27.7038 20.2426 27.8171 20.1292C27.9371 20.0159 28.0904 19.9592 28.2771 19.9592Z" fill="white"/>
</svg>
