<svg width="18" height="19" viewBox="0 0 18 19" fill="none" xmlns="http://www.w3.org/2000/svg">
<g id="icon/redo">
<path id="Vector" fill-rule="evenodd" clip-rule="evenodd" d="M12.6491 1.59741C12.3864 1.8601 12.3864 2.28601 12.6491 2.5487L14.8018 4.70143H7.34792C3.78597 4.70143 0.898438 7.58896 0.898438 11.1509C0.898438 14.7128 3.78597 17.6004 7.34792 17.6004H16.4258C16.7973 17.6004 17.0984 17.2993 17.0984 16.9277C17.0984 16.5562 16.7973 16.2551 16.4258 16.2551H7.34792C4.52897 16.2551 2.24377 13.9699 2.24377 11.1509C2.24377 8.33197 4.52897 6.04676 7.34792 6.04676H14.8018L12.6491 8.19949C12.3864 8.46218 12.3864 8.88808 12.6491 9.15078C12.9118 9.41347 13.3377 9.41347 13.6004 9.15078L16.9014 5.84974C17.1641 5.58705 17.1641 5.16114 16.9014 4.89845L13.6004 1.59741C13.3377 1.33472 12.9118 1.33472 12.6491 1.59741Z" fill="#254434" fill-opacity="0.5"/>
</g>
</svg>
