<svg width="16" height="17" viewBox="0 0 16 17" fill="none" xmlns="http://www.w3.org/2000/svg">
<g clip-path="url(#clip0_441_2135)">
<path d="M6.34487 1.80208C6.06696 1.80401 5.79262 1.84351 5.52634 1.92311C5.26215 2.00217 5.01877 2.11676 4.7979 2.2627C5.03921 2.87589 5.65524 3.65426 6.36883 4.31873C7.1139 5.01255 7.96821 5.60201 8.51993 5.86786L8.5264 5.87098L8.53274 5.8742C9.03974 6.13467 9.39868 6.54461 9.60587 6.99683C9.7393 7.28801 9.81702 7.59301 9.86233 7.90308C10.2686 7.5862 10.6968 7.33245 11.1322 7.1483C11.0991 6.57611 10.9732 5.97611 10.744 5.37533C10.2631 4.11533 9.42334 3.10095 8.47224 2.48233C7.78865 2.0377 7.05509 1.79714 6.34487 1.80208ZM3.95712 3.12411C3.79733 3.37205 3.6663 3.64848 3.56674 3.9487C3.23424 4.95101 3.26121 6.20833 3.74205 7.46839C4.03305 8.23098 4.45571 8.90339 4.95487 9.45276C5.44662 9.59989 5.93299 9.8272 6.38987 10.1356C6.74287 10.374 7.05743 10.6468 7.33002 10.9435C7.41899 10.9651 7.50799 10.9836 7.5969 10.9981C7.76627 10.5563 7.98612 10.1167 8.25702 9.69026C8.42092 9.43202 8.60053 9.18408 8.79483 8.94786C8.79708 8.78561 8.79577 8.62839 8.78805 8.4783C8.76712 8.07236 8.70212 7.72517 8.58305 7.46536C8.46405 7.20555 8.30899 7.02405 8.01868 6.87492L8.03149 6.88123C7.31655 6.5367 6.42377 5.90711 5.60212 5.14201C4.94899 4.53389 4.34312 3.85273 3.95712 3.12411ZM12.6994 7.36551C12.2773 7.36895 11.8307 7.46698 11.379 7.65451C10.4152 8.05458 9.44755 8.86545 8.7318 9.99192C8.36565 10.5682 8.10252 11.1691 7.93893 11.7583C8.58112 12.8357 8.73884 14.0733 8.27621 15.1127C8.35101 15.2195 8.43448 15.32 8.52577 15.4131C9.20215 14.8295 9.98165 14.3461 10.5356 13.8497C10.8385 13.5785 11.0677 13.3099 11.1951 13.0541C11.3226 12.7983 11.3664 12.5636 11.3001 12.244L11.2963 12.2254L11.2937 12.2067C11.0421 10.385 11.4836 9.31442 12.127 8.65948C12.6443 8.13292 13.1593 7.85558 13.5146 7.48942C13.2579 7.40411 12.9842 7.36317 12.6994 7.36551ZM14.4727 8.11405C13.953 8.75998 13.3123 9.05833 12.9295 9.44798C12.4896 9.89573 12.1859 10.4347 12.4071 12.045C12.5136 12.5925 12.42 13.1183 12.2022 13.5557C11.9804 14.0009 11.6487 14.3629 11.2864 14.6876C10.736 15.1808 10.1011 15.6031 9.56996 16.0151C10.1723 16.1716 10.8581 16.0959 11.5564 15.806C12.5201 15.406 13.4879 14.595 14.2036 13.4685C14.9193 12.342 15.2423 11.1215 15.1951 10.0791C15.1589 9.28189 14.9127 8.59883 14.4727 8.11408L14.4727 8.11405ZM12.4071 12.045C12.4052 12.0351 12.4037 12.0254 12.4017 12.0155L12.4082 12.0528C12.4079 12.0502 12.4075 12.0476 12.4071 12.045H12.4071ZM3.65015 9.81298C3.07568 9.8078 2.53452 9.93376 2.07905 10.182C2.08218 10.182 2.0849 10.1823 2.08802 10.1824C2.35771 10.1919 2.69627 10.1601 3.08608 10.2133C3.47587 10.2665 3.93249 10.4435 4.2784 10.835C4.62433 11.2263 4.86152 11.7812 5.02674 12.5781L5.03065 12.5966L5.03321 12.6155C5.10987 13.1715 5.46402 13.4931 6.07802 13.7943C6.6019 14.0512 7.27449 14.2347 7.91293 14.4215C8.19887 13.1403 7.52043 11.5776 6.07512 10.6019C5.2958 10.0757 4.44155 9.82014 3.65021 9.81298H3.65015ZM1.11646 11.1082C0.326772 12.4685 0.960085 14.4646 2.68227 15.6273C4.3768 16.7714 6.42558 16.636 7.41165 15.4492C6.83552 15.285 6.1824 15.0986 5.58258 14.8044C4.80915 14.425 4.07196 13.7875 3.92321 12.7975C3.78155 12.1193 3.59227 11.7575 3.4354 11.58C3.2779 11.4016 3.15508 11.3582 2.93383 11.3281C2.71258 11.2978 2.40852 11.3194 2.04843 11.3067C1.7678 11.2969 1.43855 11.2566 1.11646 11.1082V11.1082ZM3.92324 12.7974C3.92393 12.8005 3.92462 12.8034 3.92527 12.8066L3.9188 12.7692C3.92012 12.7787 3.92183 12.788 3.92327 12.7975L3.92324 12.7974Z" fill="#254434"/>
</g>
<defs>
<clipPath id="clip0_441_2135">
<rect width="16" height="16" fill="white" transform="translate(0 0.96936)"/>
</clipPath>
</defs>
</svg>
