<svg width="24" height="25" viewBox="0 0 24 25" fill="none" xmlns="http://www.w3.org/2000/svg">
<g id="icon/list/deactivted">
<path id="Vector" fill-rule="evenodd" clip-rule="evenodd" d="M6.18118 1.69995H6.26921C7.03874 1.69993 7.68089 1.69992 8.20185 1.75075C8.74668 1.80392 9.25365 1.91936 9.71568 2.21193C10.1279 2.47299 10.4772 2.82222 10.7382 3.23446C11.0308 3.6965 11.1462 4.20346 11.1994 4.74831C11.2502 5.26926 11.2502 5.91142 11.2502 6.68095V6.76897C11.2502 7.53849 11.2502 8.18065 11.1994 8.7016C11.1462 9.24644 11.0308 9.7534 10.7382 10.2154C10.4772 10.6277 10.1279 10.9769 9.71568 11.238C9.25365 11.5306 8.74668 11.646 8.20185 11.6992C7.68089 11.75 7.03874 11.75 6.26921 11.75H6.18119C5.41167 11.75 4.7695 11.75 4.24856 11.6992C3.70371 11.646 3.19674 11.5306 2.73471 11.238C2.32246 10.9769 1.97324 10.6277 1.71218 10.2154C1.4196 9.7534 1.30416 9.24644 1.25099 8.7016C1.20016 8.18065 1.20018 7.53849 1.2002 6.76897V6.68094C1.20018 5.91141 1.20016 5.26926 1.25099 4.74831C1.30416 4.20346 1.4196 3.6965 1.71218 3.23446C1.97324 2.82222 2.32246 2.47299 2.73471 2.21193C3.19674 1.91936 3.70371 1.80392 4.24856 1.75075C4.7695 1.69992 5.41166 1.69993 6.18118 1.69995ZM4.42336 3.54224C4.01421 3.58216 3.82367 3.6529 3.6977 3.73267C3.51032 3.85134 3.35158 4.01007 3.23291 4.19745C3.15315 4.32343 3.08241 4.51396 3.04248 4.92312C3.00119 5.34626 3.0002 5.90005 3.0002 6.72495C3.0002 7.54987 3.00119 8.10364 3.04248 8.52679C3.08241 8.93594 3.15315 9.12648 3.23291 9.25245C3.35158 9.43983 3.51032 9.59857 3.6977 9.71724C3.82367 9.797 4.01421 9.86774 4.42336 9.90766C4.8465 9.94896 5.40029 9.94995 6.2252 9.94995C7.05011 9.94995 7.60389 9.94896 8.02703 9.90766C8.43618 9.86774 8.62672 9.797 8.7527 9.71724C8.94008 9.59857 9.09881 9.43983 9.21748 9.25245C9.29724 9.12648 9.36798 8.93594 9.40791 8.52679C9.4492 8.10364 9.4502 7.54987 9.4502 6.72495C9.4502 5.90005 9.4492 5.34626 9.40791 4.92312C9.36798 4.51396 9.29724 4.32343 9.21748 4.19745C9.09881 4.01007 8.94008 3.85134 8.7527 3.73267C8.62672 3.6529 8.43618 3.58216 8.02703 3.54224C7.60389 3.50095 7.05011 3.49995 6.2252 3.49995C5.40029 3.49995 4.8465 3.50095 4.42336 3.54224Z" fill="#9C9CA1" fill-opacity="0.5"/>
<path id="Vector_2" fill-rule="evenodd" clip-rule="evenodd" d="M6.18118 13.25H6.26921C7.03874 13.25 7.68089 13.25 8.20185 13.3008C8.74668 13.3539 9.25365 13.4694 9.71568 13.762C10.1279 14.023 10.4772 14.3722 10.7382 14.7846C11.0308 15.2466 11.1462 15.7536 11.1994 16.2984C11.2502 16.8193 11.2502 17.4615 11.2502 18.231V18.319C11.2502 19.0885 11.2502 19.7307 11.1994 20.2516C11.1462 20.7964 11.0308 21.3034 10.7382 21.7654C10.4772 22.1778 10.1279 22.527 9.71568 22.788C9.25365 23.0806 8.74668 23.1961 8.20185 23.2492C7.68089 23.3 7.03874 23.3 6.26921 23.3H6.18119C5.41167 23.3 4.7695 23.3 4.24856 23.2492C3.70371 23.1961 3.19674 23.0806 2.73471 22.788C2.32246 22.527 1.97324 22.1778 1.71218 21.7654C1.4196 21.3034 1.30416 20.7964 1.25099 20.2516C1.20016 19.7307 1.20018 19.0885 1.2002 18.319V18.231C1.20018 17.4615 1.20016 16.8193 1.25099 16.2984C1.30416 15.7536 1.4196 15.2466 1.71218 14.7846C1.97324 14.3722 2.32246 14.023 2.73471 13.762C3.19674 13.4694 3.70371 13.3539 4.24856 13.3008C4.7695 13.25 5.41166 13.25 6.18118 13.25ZM4.42336 15.0922C4.01421 15.1322 3.82367 15.203 3.6977 15.2827C3.51032 15.4014 3.35158 15.5601 3.23291 15.7476C3.15315 15.8734 3.08241 16.064 3.04248 16.4732C3.00119 16.8963 3.0002 17.4501 3.0002 18.275C3.0002 19.0999 3.00119 19.6537 3.04248 20.0768C3.08241 20.486 3.15315 20.6766 3.23291 20.8024C3.35158 20.9899 3.51032 21.1486 3.6977 21.2673C3.82367 21.347 4.01421 21.4178 4.42336 21.4578C4.8465 21.499 5.40029 21.5 6.2252 21.5C7.05011 21.5 7.60389 21.499 8.02703 21.4578C8.43618 21.4178 8.62672 21.347 8.7527 21.2673C8.94008 21.1486 9.09881 20.9899 9.21748 20.8024C9.29724 20.6766 9.36798 20.486 9.40791 20.0768C9.4492 19.6537 9.4502 19.0999 9.4502 18.275C9.4502 17.4501 9.4492 16.8963 9.40791 16.4732C9.36798 16.064 9.29724 15.8734 9.21748 15.7476C9.09881 15.5601 8.94008 15.4014 8.7527 15.2827C8.62672 15.203 8.43618 15.1322 8.02703 15.0922C7.60389 15.051 7.05011 15.05 6.2252 15.05C5.40029 15.05 4.8465 15.051 4.42336 15.0922Z" fill="#9C9CA1" fill-opacity="0.5"/>
<path id="Vector_3" fill-rule="evenodd" clip-rule="evenodd" d="M17.731 1.69995H17.819C18.5885 1.69993 19.2307 1.69992 19.7516 1.75075C20.2964 1.80392 20.8034 1.91936 21.2654 2.21193C21.6778 2.47299 22.027 2.82222 22.288 3.23446C22.5806 3.6965 22.6961 4.20346 22.7492 4.74831C22.8 5.26926 22.8 5.91142 22.8 6.68095V6.76897C22.8 7.53849 22.8 8.18065 22.7492 8.7016C22.6961 9.24644 22.5806 9.7534 22.288 10.2154C22.027 10.6277 21.6778 10.9769 21.2654 11.238C20.8034 11.5306 20.2964 11.646 19.7516 11.6992C19.2307 11.75 18.5885 11.75 17.819 11.75H17.731C16.9615 11.75 16.3193 11.75 15.7984 11.6992C15.2536 11.646 14.7466 11.5306 14.2846 11.238C13.8722 10.9769 13.523 10.6277 13.262 10.2154C12.9694 9.7534 12.8539 9.24644 12.8008 8.7016C12.75 8.18065 12.75 7.53849 12.75 6.76897V6.68094C12.75 5.91141 12.75 5.26926 12.8008 4.74831C12.8539 4.20346 12.9694 3.6965 13.262 3.23446C13.523 2.82222 13.8722 2.47299 14.2846 2.21193C14.7466 1.91936 15.2536 1.80392 15.7984 1.75075C16.3193 1.69992 16.9615 1.69993 17.731 1.69995ZM15.9732 3.54224C15.564 3.58216 15.3734 3.6529 15.2476 3.73267C15.0601 3.85134 14.9014 4.01007 14.7827 4.19745C14.703 4.32343 14.6322 4.51396 14.5922 4.92312C14.551 5.34626 14.55 5.90005 14.55 6.72495C14.55 7.54987 14.551 8.10364 14.5922 8.52679C14.6322 8.93594 14.703 9.12648 14.7827 9.25245C14.9014 9.43983 15.0601 9.59857 15.2476 9.71724C15.3734 9.797 15.564 9.86774 15.9732 9.90766C16.3963 9.94896 16.9501 9.94995 17.775 9.94995C18.5999 9.94995 19.1537 9.94896 19.5768 9.90766C19.986 9.86774 20.1766 9.797 20.3024 9.71724C20.4899 9.59857 20.6486 9.43983 20.7673 9.25245C20.847 9.12648 20.9178 8.93594 20.9578 8.52679C20.999 8.10364 21 7.54987 21 6.72495C21 5.90005 20.999 5.34626 20.9578 4.92312C20.9178 4.51396 20.847 4.32343 20.7673 4.19745C20.6486 4.01007 20.4899 3.85134 20.3024 3.73267C20.1766 3.6529 19.986 3.58216 19.5768 3.54224C19.1537 3.50095 18.5999 3.49995 17.775 3.49995C16.9501 3.49995 16.3963 3.50095 15.9732 3.54224Z" fill="#9C9CA1" fill-opacity="0.5"/>
<path id="Vector_4" fill-rule="evenodd" clip-rule="evenodd" d="M17.225 13.25C14.7535 13.25 12.75 15.2535 12.75 17.725C12.75 20.1964 14.7535 22.2 17.225 22.2C18.1352 22.2 18.9821 21.9282 19.6886 21.4614L21.2636 23.0362C21.6151 23.3877 22.185 23.3877 22.5364 23.0362C22.8878 22.6848 22.8878 22.115 22.5364 21.7635L20.9615 20.1885C21.4283 19.482 21.7 18.6352 21.7 17.725C21.7 15.2535 19.6964 13.25 17.225 13.25ZM14.55 17.725C14.55 16.2476 15.7476 15.05 17.225 15.05C18.7024 15.05 19.9 16.2476 19.9 17.725C19.9 19.2024 18.7024 20.4 17.225 20.4C15.7476 20.4 14.55 19.2024 14.55 17.725Z" fill="#9C9CA1" fill-opacity="0.5"/>
</g>
</svg>
