<svg width="24" height="25" viewBox="0 0 24 25" fill="none" xmlns="http://www.w3.org/2000/svg">
<g id="icon/list/activated">
<path id="Vector" d="M6.26922 1.69995H6.18117C5.41167 1.69993 4.76949 1.69992 4.24855 1.75075C3.70371 1.80392 3.19674 1.91936 2.7347 2.21193C2.32245 2.47299 1.97323 2.82222 1.71218 3.23446C1.4196 3.6965 1.30416 4.20346 1.251 4.74831C1.20016 5.26926 1.20018 5.9114 1.2002 6.68091V6.76897C1.20018 7.53848 1.20016 8.18066 1.251 8.7016C1.30416 9.24644 1.4196 9.7534 1.71218 10.2154C1.97323 10.6277 2.32245 10.9769 2.7347 11.238C3.19674 11.5306 3.70371 11.646 4.24855 11.6992C4.76951 11.75 5.41166 11.75 6.18119 11.75H6.26921C7.03873 11.75 7.6809 11.75 8.20184 11.6992C8.74669 11.646 9.25365 11.5306 9.71569 11.238C10.1279 10.9769 10.4772 10.6277 10.7382 10.2154C11.0308 9.7534 11.1462 9.24644 11.1994 8.7016C11.2502 8.18065 11.2502 7.53849 11.2502 6.76897V6.68095C11.2502 5.91142 11.2502 5.26926 11.1994 4.74831C11.1462 4.20346 11.0308 3.6965 10.7382 3.23446C10.4772 2.82222 10.1279 2.47299 9.71569 2.21193C9.25365 1.91936 8.74669 1.80392 8.20184 1.75075C7.6809 1.69992 7.03872 1.69993 6.26922 1.69995Z" fill="#B5CDB7"/>
<path id="Vector_2" d="M6.26922 13.25H6.18117C5.41167 13.25 4.76949 13.25 4.24855 13.3008C3.70371 13.3539 3.19674 13.4694 2.7347 13.762C2.32245 14.023 1.97323 14.3722 1.71218 14.7846C1.4196 15.2466 1.30416 15.7536 1.251 16.2984C1.20016 16.8193 1.20018 17.4614 1.2002 18.231V18.319C1.20018 19.0885 1.20016 19.7307 1.251 20.2516C1.30416 20.7964 1.4196 21.3034 1.71218 21.7654C1.97323 22.1778 2.32245 22.527 2.7347 22.788C3.19674 23.0806 3.70371 23.1961 4.24855 23.2492C4.76948 23.3 5.41161 23.3 6.18108 23.3H6.26921C7.03868 23.3 7.68091 23.3 8.20184 23.2492C8.74669 23.1961 9.25365 23.0806 9.71569 22.788C10.1279 22.527 10.4772 22.1778 10.7382 21.7654C11.0308 21.3034 11.1462 20.7964 11.1994 20.2516C11.2502 19.7307 11.2502 19.0885 11.2502 18.319V18.231C11.2502 17.4615 11.2502 16.8193 11.1994 16.2984C11.1462 15.7536 11.0308 15.2466 10.7382 14.7846C10.4772 14.3722 10.1279 14.023 9.71569 13.762C9.25365 13.4694 8.74669 13.3539 8.20184 13.3008C7.6809 13.25 7.03872 13.25 6.26922 13.25Z" fill="#B5CDB7"/>
<path id="Vector_3" d="M17.819 1.69995H17.731C16.9614 1.69993 16.3193 1.69992 15.7984 1.75075C15.2534 1.80392 14.7466 1.91936 14.2844 2.21193C13.8722 2.47299 13.523 2.82222 13.2619 3.23446C12.9694 3.6965 12.8539 4.20346 12.8008 4.74831C12.75 5.26924 12.75 5.9114 12.75 6.6809V6.76897C12.75 7.53848 12.75 8.18066 12.8008 8.7016C12.8539 9.24644 12.9694 9.7534 13.2619 10.2154C13.523 10.6277 13.8722 10.9769 14.2844 11.238C14.7466 11.5306 15.2534 11.646 15.7984 11.6992C16.3193 11.75 16.9614 11.75 17.731 11.75H17.819C18.5885 11.75 19.2307 11.75 19.7516 11.6992C20.2964 11.646 20.8034 11.5306 21.2654 11.238C21.6778 10.9769 22.027 10.6277 22.288 10.2154C22.5806 9.7534 22.6961 9.24644 22.7492 8.7016C22.8 8.18066 22.8 7.5385 22.8 6.769V6.68095C22.8 5.91144 22.8 5.26926 22.7492 4.74831C22.6961 4.20346 22.5806 3.6965 22.288 3.23446C22.027 2.82222 21.6778 2.47299 21.2654 2.21193C20.8034 1.91936 20.2964 1.80392 19.7516 1.75075C19.2307 1.69992 18.5885 1.69993 17.819 1.69995Z" fill="#B5CDB7"/>
<path id="Vector_4" fill-rule="evenodd" clip-rule="evenodd" d="M17.225 13.25C14.7535 13.25 12.75 15.2535 12.75 17.725C12.75 20.1964 14.7535 22.2 17.225 22.2C18.1352 22.2 18.9821 21.9282 19.6886 21.4614L21.2636 23.0362C21.6151 23.3877 22.1849 23.3877 22.5364 23.0362C22.8878 22.6848 22.8878 22.115 22.5364 21.7635L20.9615 20.1885C21.4283 19.482 21.7 18.6352 21.7 17.725C21.7 15.2535 19.6964 13.25 17.225 13.25ZM14.55 17.725C14.55 16.2476 15.7476 15.05 17.225 15.05C18.7024 15.05 19.9 16.2476 19.9 17.725C19.9 19.2024 18.7024 20.4 17.225 20.4C15.7476 20.4 14.55 19.2024 14.55 17.725Z" fill="#B5CDB7"/>
</g>
</svg>
