<svg width="15" height="16" viewBox="0 0 15 16" fill="none" xmlns="http://www.w3.org/2000/svg">
<g clip-path="url(#clip0_441_2129)">
<path d="M1.875 14.5631C1.875 14.4387 1.92439 14.3195 2.01229 14.2316C2.1002 14.1437 2.21943 14.0943 2.34375 14.0943H12.6562C12.7806 14.0943 12.8998 14.1437 12.9877 14.2316C13.0756 14.3195 13.125 14.4387 13.125 14.5631C13.125 14.6874 13.0756 14.8066 12.9877 14.8945C12.8998 14.9824 12.7806 15.0318 12.6562 15.0318H2.34375C2.21943 15.0318 2.1002 14.9824 2.01229 14.8945C1.92439 14.8066 1.875 14.6874 1.875 14.5631ZM4.6875 3.78181C4.68747 3.31055 4.80585 2.84683 5.03179 2.43326C5.25772 2.01968 5.58395 1.66951 5.98052 1.4149C6.37709 1.1603 6.83127 1.00942 7.30136 0.97614C7.77145 0.942856 8.24236 1.02823 8.67085 1.22442C9.09933 1.4206 9.47165 1.72132 9.7536 2.09893C10.0356 2.47655 10.2181 2.91896 10.2845 3.38552C10.3508 3.85209 10.2989 4.32786 10.1334 4.76912C9.96797 5.21038 9.69428 5.60298 9.3375 5.91088C9.22031 6.299 9.14062 6.69744 9.14062 7.06306C9.14062 7.83181 9.21094 8.74119 9.27375 9.40681H11.25C11.9959 9.40681 12.7113 9.70313 13.2387 10.2306C13.7662 10.758 14.0625 11.4734 14.0625 12.2193C14.0625 12.468 13.9637 12.7064 13.7879 12.8822C13.6121 13.058 13.3736 13.1568 13.125 13.1568H1.875C1.62636 13.1568 1.3879 13.058 1.21209 12.8822C1.03627 12.7064 0.9375 12.468 0.9375 12.2193C0.9375 11.4734 1.23382 10.758 1.76126 10.2306C2.28871 9.70313 3.00408 9.40681 3.75 9.40681H5.72625C5.78906 8.74119 5.85938 7.83181 5.85938 7.06306C5.85938 6.69744 5.77969 6.299 5.6625 5.91088C5.35657 5.64687 5.11113 5.32004 4.94288 4.95264C4.77463 4.58525 4.68753 4.18591 4.6875 3.78181Z" fill="#254434"/>
</g>
<defs>
<clipPath id="clip0_441_2129">
<rect width="15" height="15" fill="white" transform="translate(0 0.96936)"/>
</clipPath>
</defs>
</svg>
