<svg width="21" height="24" viewBox="0 0 21 24" fill="none" xmlns="http://www.w3.org/2000/svg">
<g id="Group">
<path id="Vector" d="M2.91683 22.8333H18.0835M18.376 13.8741C18.124 13.6227 17.825 13.4235 17.496 13.2878C17.1669 13.1521 16.8144 13.0826 16.4585 13.0833H4.54183C3.82353 13.0833 3.13466 13.3686 2.62675 13.8765C2.11884 14.3844 1.8335 15.0733 1.8335 15.7916V17.4166C1.8335 17.7039 1.94763 17.9795 2.1508 18.1826C2.35396 18.3858 2.62951 18.4999 2.91683 18.4999H18.0835C18.3708 18.4999 18.6464 18.3858 18.8495 18.1826C19.0527 17.9795 19.1668 17.7039 19.1668 17.4166V15.7916C19.1668 15.0766 18.8852 14.3833 18.376 13.8741Z" stroke="#9C9CA1" stroke-opacity="0.5" stroke-width="1.73333" stroke-linecap="round" stroke-linejoin="round"/>
<path id="Vector_2" d="M12.6667 13.0834V8.20841C12.6667 6.58341 13.75 6.58341 13.75 4.41675C13.75 3.55479 13.4076 2.72814 12.7981 2.11865C12.1886 1.50916 11.362 1.16675 10.5 1.16675C8.70167 1.16675 7.25 2.25008 7.25 4.41675C7.25 6.58341 8.33333 6.58341 8.33333 8.20841V13.0834" stroke="#9C9CA1" stroke-opacity="0.5" stroke-width="1.73333" stroke-linecap="round" stroke-linejoin="round"/>
</g>
</svg>
