<svg width="25" height="24" viewBox="0 0 25 24" fill="none" xmlns="http://www.w3.org/2000/svg">
<g id="icon/stamp/activated" clip-path="url(#clip0_254_819)">
<path id="Vector" d="M3.5 21.7501C3.5 21.5512 3.57902 21.3604 3.71967 21.2197C3.86032 21.0791 4.05109 21.0001 4.25 21.0001H20.75C20.9489 21.0001 21.1397 21.0791 21.2803 21.2197C21.421 21.3604 21.5 21.5512 21.5 21.7501C21.5 21.949 21.421 22.1397 21.2803 22.2804C21.1397 22.4211 20.9489 22.5001 20.75 22.5001H4.25C4.05109 22.5001 3.86032 22.4211 3.71967 22.2804C3.57902 22.1397 3.5 21.949 3.5 21.7501ZM8 4.50007C7.99995 3.74605 8.18937 3.0041 8.55086 2.34238C8.91235 1.68066 9.43432 1.12038 10.0688 0.713017C10.7033 0.305648 11.43 0.0642494 12.1822 0.0109946C12.9343 -0.0422603 13.6878 0.094336 14.3734 0.408236C15.0589 0.722137 15.6546 1.20328 16.1058 1.80746C16.5569 2.41164 16.849 3.1195 16.9552 3.86601C17.0613 4.61251 16.9782 5.37374 16.7135 6.07976C16.4488 6.78577 16.0108 7.41394 15.44 7.90657C15.2525 8.52757 15.125 9.16507 15.125 9.75007C15.125 10.9801 15.2375 12.4351 15.338 13.5001H18.5C19.6935 13.5001 20.8381 13.9742 21.682 14.8181C22.5259 15.662 23 16.8066 23 18.0001C23 18.3979 22.842 18.7794 22.5607 19.0607C22.2794 19.342 21.8978 19.5001 21.5 19.5001H3.5C3.10218 19.5001 2.72064 19.342 2.43934 19.0607C2.15804 18.7794 2 18.3979 2 18.0001C2 16.8066 2.47411 15.662 3.31802 14.8181C4.16193 13.9742 5.30653 13.5001 6.5 13.5001H9.662C9.7625 12.4351 9.875 10.9801 9.875 9.75007C9.875 9.16507 9.7475 8.52757 9.56 7.90657C9.07052 7.48416 8.67781 6.96124 8.40861 6.3734C8.13941 5.78556 8.00005 5.14662 8 4.50007Z" fill="#B5CDB7"/>
</g>
<defs>
<clipPath id="clip0_254_819">
<rect width="24" height="24" fill="white" transform="translate(0.5)"/>
</clipPath>
</defs>
</svg>
