<svg width="21" height="20" viewBox="0 0 21 20" fill="none" xmlns="http://www.w3.org/2000/svg">
<path fill-rule="evenodd" clip-rule="evenodd" d="M10.5 1C5.52944 1 1.5 5.02944 1.5 10C1.5 14.9706 5.52944 19 10.5 19C15.4706 19 19.5 14.9706 19.5 10C19.5 5.02944 15.4706 1 10.5 1ZM12.6657 7.6882C12.9229 7.35486 13.4015 7.29309 13.7349 7.55024C14.0682 7.8074 14.13 8.2861 13.8729 8.61944L10.8198 12.5772C10.7157 12.7122 10.5943 12.8697 10.4722 12.9889C10.3266 13.1309 10.0862 13.314 9.73666 13.3313C9.38712 13.3486 9.12979 13.1901 8.97093 13.0632C8.8376 12.9567 8.70123 12.8119 8.58436 12.6878L7.17617 11.1943C6.88735 10.8879 6.90154 10.4055 7.20786 10.1167C7.51419 9.82784 7.99664 9.84203 8.28546 10.1484L9.65079 11.5964L12.6657 7.6882Z" fill="#FAFAFA"/>
</svg>
