<svg width="18" height="19" viewBox="0 0 18 19" fill="none" xmlns="http://www.w3.org/2000/svg">
<g id="icon/undo">
<path id="Vector" fill-rule="evenodd" clip-rule="evenodd" d="M5.34779 1.59741C5.61048 1.8601 5.61048 2.28601 5.34779 2.5487L3.19506 4.70143H10.6489C14.2109 4.70143 17.0984 7.58896 17.0984 11.1509C17.0984 14.7128 14.2109 17.6004 10.6489 17.6004H1.5711C1.1996 17.6004 0.898438 17.2993 0.898438 16.9277C0.898438 16.5562 1.1996 16.2551 1.5711 16.2551H10.6489C13.4679 16.2551 15.7531 13.9699 15.7531 11.1509C15.7531 8.33197 13.4679 6.04676 10.6489 6.04676H3.19506L5.34779 8.19949C5.61048 8.46218 5.61048 8.88808 5.34779 9.15078C5.08509 9.41347 4.65919 9.41347 4.39649 9.15078L1.09546 5.84974C0.832764 5.58705 0.832764 5.16114 1.09546 4.89845L4.39649 1.59741C4.65919 1.33472 5.08509 1.33472 5.34779 1.59741Z" fill="#254434" fill-opacity="0.5"/>
</g>
</svg>
