<svg width="24" height="25" viewBox="0 0 24 25" fill="none" xmlns="http://www.w3.org/2000/svg">
<g id="user">
<path id="Vector" d="M6.2998 5.66456C6.2998 2.70175 8.96842 0.5 11.9998 0.5C15.0311 0.5 17.6998 2.70175 17.6998 5.66456C17.6998 8.62737 15.0311 10.8291 11.9998 10.8291C8.96842 10.8291 6.2998 8.62737 6.2998 5.66456Z" fill="#B5CDB7"/>
<path id="Vector_2" d="M4.53878 24.486C4.66919 24.5005 4.82417 24.5005 5.13416 24.5005H18.8667C19.1766 24.5005 19.3316 24.5005 19.462 24.486C20.5804 24.3618 21.4635 23.4675 21.5861 22.335C21.6004 22.203 21.6004 22.046 21.6004 21.7321V21.12C21.6004 18.6069 20.309 16.2751 18.1914 14.9647C14.3908 12.6127 9.60998 12.6127 5.80939 14.9647C3.69187 16.2751 2.40039 18.6069 2.40039 21.12V21.7321C2.40039 22.046 2.40039 22.203 2.41469 22.335C2.53733 23.4675 3.4204 24.3618 4.53878 24.486Z" fill="#B5CDB7"/>
</g>
</svg>
