<svg width="24" height="25" viewBox="0 0 24 25" fill="none" xmlns="http://www.w3.org/2000/svg">
<g id="icon/user/deactivated">
<path id="Vector" fill-rule="evenodd" clip-rule="evenodd" d="M6.34961 5.66456C6.34961 2.70174 8.99508 0.5 12.0002 0.5C15.0053 0.5 17.6507 2.70174 17.6507 5.66456C17.6507 8.62737 15.0053 10.8291 12.0002 10.8291C8.99508 10.8291 6.34961 8.62737 6.34961 5.66456ZM12.0002 2.32279C9.74931 2.32279 8.134 3.92946 8.134 5.66456C8.134 7.39965 9.74931 9.00633 12.0002 9.00633C14.2511 9.00633 15.8664 7.39965 15.8664 5.66456C15.8664 3.92946 14.2511 2.32279 12.0002 2.32279Z" fill="#9C9CA1" fill-opacity="0.5"/>
<path id="Vector_2" fill-rule="evenodd" clip-rule="evenodd" d="M5.91908 13.9503C9.65192 11.5901 14.3478 11.5901 18.0807 13.9503C20.2673 15.3328 21.5999 17.7923 21.5999 20.4417V21.0584C21.5999 21.3008 21.6 21.494 21.5815 21.6677C21.4247 23.1475 20.2949 24.3184 18.861 24.4811C18.6927 24.5002 18.5057 24.5001 18.2715 24.5001H5.72829C5.49414 24.5001 5.30714 24.5002 5.1388 24.4811C3.70488 24.3184 2.57505 23.1475 2.41821 21.6677C2.39979 21.494 2.39984 21.3008 2.39991 21.0583V20.4417C2.39991 17.7923 3.73255 15.3328 5.91908 13.9503ZM17.1415 15.533C13.9851 13.5371 10.0148 13.5371 6.85825 15.533C5.20633 16.5775 4.1979 18.4369 4.1979 20.4417V21.0085C4.1979 21.3241 4.19925 21.4066 4.20553 21.4659C4.271 22.0837 4.74193 22.5689 5.33527 22.6363C5.3921 22.6427 5.47153 22.6441 5.77666 22.6441H18.2231C18.5283 22.6441 18.6077 22.6427 18.6646 22.6363C19.2579 22.5689 19.7287 22.0837 19.7943 21.4659C19.8005 21.4066 19.8019 21.3241 19.8019 21.0085V20.4417C19.8019 18.4369 18.7935 16.5775 17.1415 15.533Z" fill="#9C9CA1" fill-opacity="0.5"/>
</g>
</svg>
