<svg width="25" height="25" viewBox="0 0 25 25" fill="none" xmlns="http://www.w3.org/2000/svg">
<g id="icon/exit">
<path id="Vector" d="M18.5485 17.3387C18.9517 17.742 19.3961 18.4206 18.908 18.9087C18.4199 19.3969 17.6284 19.3969 17.1403 18.9087L12.4999 14.1129L7.66138 18.9517C7.25816 19.3549 6.57989 19.3969 6.09174 18.9087C5.60357 18.4206 5.60357 17.6291 6.09174 17.141L10.7321 12.5006L6.0917 7.86019C5.60355 7.37204 5.60355 6.58058 6.0917 6.09243C6.57985 5.60428 7.37135 5.9635 7.8595 6.45165L12.4999 11.2904L17.3388 6.09243C17.8269 5.60428 18.4199 5.60428 18.908 6.09243C19.3962 6.58058 19.3962 7.37204 18.908 7.86019L14.113 12.9033L18.5485 17.3387Z" fill="#254434" fill-opacity="0.7"/>
</g>
</svg>
