<svg width="21" height="21" viewBox="0 0 21 21" fill="none" xmlns="http://www.w3.org/2000/svg">
<path d="M10.5132 1.77612L10.5132 5.52612M15.5132 10.5261L19.2632 10.5261M1.76318 10.5261L5.51318 10.5261M10.5132 15.5261L10.5132 19.2761M17.3882 10.5261C17.3882 12.3495 16.6639 14.0982 15.3745 15.3875C14.0852 16.6768 12.3365 17.4011 10.5132 17.4011C8.68982 17.4011 6.94114 16.6768 5.65182 15.3875C4.36251 14.0982 3.63818 12.3495 3.63818 10.5261C3.63818 8.70276 4.36251 6.95408 5.65182 5.66476C6.94114 4.37545 8.68982 3.65112 10.5132 3.65112C12.3365 3.65112 14.0852 4.37545 15.3745 5.66476C16.6639 6.95408 17.3882 8.70276 17.3882 10.5261ZM11.1382 10.5261C11.1382 10.6919 11.0723 10.8509 10.9551 10.9681C10.8379 11.0853 10.6789 11.1511 10.5132 11.1511C10.3474 11.1511 10.1885 11.0853 10.0712 10.9681C9.95403 10.8509 9.88818 10.6919 9.88818 10.5261C9.88818 10.3604 9.95403 10.2014 10.0712 10.0842C10.1885 9.96697 10.3474 9.90112 10.5132 9.90112C10.6789 9.90112 10.8379 9.96697 10.9551 10.0842C11.0723 10.2014 11.1382 10.3604 11.1382 10.5261Z" stroke="#254434" stroke-width="1.25"/>
</svg>
