<svg width="19" height="19" viewBox="0 0 19 19" fill="none" xmlns="http://www.w3.org/2000/svg">
<path fill-rule="evenodd" clip-rule="evenodd" d="M2.30029 7.96286C2.30029 1.56465 5.90029 0.193604 9.50029 0.193604C13.1003 0.193604 16.7003 1.56465 16.7003 7.96286C16.7003 12.9877 12.2594 16.6032 10.353 17.9238C9.83365 18.2835 9.1669 18.2835 8.64752 17.9238C6.74112 16.6032 2.30029 12.9877 2.30029 7.96286ZM9.50029 10.248C10.9915 10.248 12.2003 9.02025 12.2003 7.50584C12.2003 5.99143 10.9915 4.76375 9.50029 4.76375C8.00913 4.76375 6.80029 5.99143 6.80029 7.50584C6.80029 9.02025 8.00913 10.248 9.50029 10.248Z" fill="#FBFBEE"/>
</svg>
