<svg width="46" height="50" viewBox="0 0 46 50" fill="none" xmlns="http://www.w3.org/2000/svg">
<g opacity="0.3">
<path d="M39.97 25.0567C37.2763 23.3903 34.5103 23.871 33.4811 24.0649C33.056 24.1465 29.8565 24.7928 28.5688 26.9772C28.0799 27.8051 28.2217 28.2571 28.2575 28.3597C28.5045 29.0491 29.5308 29.2074 29.933 29.2793C33.6551 29.927 34.1889 31.7573 37.1229 31.643C39.552 31.5496 42.627 30.1595 42.7673 28.3882C42.886 26.8585 40.7725 25.55 39.9709 25.0541L39.97 25.0567Z" fill="#EFE8DC" stroke="#756238" stroke-width="0.533713" stroke-miterlimit="10" stroke-linecap="round"/>
<path d="M-6.22169 5.69973C-3.18279 6.43566 -1.46991 8.79328 -0.842216 9.68144C-0.583919 10.0494 1.33948 12.8425 0.877773 15.373C0.703456 16.3328 0.309444 16.5603 0.217408 16.6093C-0.405823 16.934 -1.25759 16.3053 -1.59775 16.0661C-4.73411 13.8397 -6.29967 14.7903 -8.37061 12.5786C-10.086 10.7484 -11.4408 7.50199 -10.4057 6.10565C-9.51015 4.90151 -7.12512 5.47818 -6.22072 5.69712L-6.22169 5.69973Z" fill="#EFE8DC" stroke="#756238" stroke-width="0.533713" stroke-miterlimit="10" stroke-linecap="round"/>
<path d="M-9.3244 6.40768C-4.85962 7.65657 -1.60925 10.6857 -1.15506 14.2462C-1.05839 15.0115 -1.05253 16.0982 -1.46908 17.4275" fill="#EFE8DC"/>
<path d="M-9.3244 6.40768C-4.85962 7.65657 -1.60925 10.6857 -1.15506 14.2462C-1.05839 15.0115 -1.05253 16.0982 -1.46908 17.4275" stroke="#756238" stroke-width="0.533713" stroke-miterlimit="10" stroke-linecap="round"/>
<path d="M41.6023 27.7489C37.537 25.4232 33.2161 25.2795 30.5975 27.5524C30.0353 28.0417 29.3332 28.8316 28.7839 30.1053" fill="#EFE8DC"/>
<path d="M41.6023 27.7489C37.537 25.4232 33.2161 25.2795 30.5975 27.5524C30.0353 28.0417 29.3332 28.8316 28.7839 30.1053" stroke="#756238" stroke-width="0.533713" stroke-miterlimit="10" stroke-linecap="round"/>
<path d="M29.0492 43.2321C30.2165 42.5586 30.7154 41.0916 30.2822 39.8017C30.3551 39.7507 30.429 39.6971 30.4989 39.6388C31.5377 38.7605 31.7899 37.2233 31.1525 36.0321C31.216 35.9681 31.278 35.9005 31.3386 35.8292C32.2191 34.7728 32.2165 33.2104 31.3938 32.159C31.4469 32.0846 31.4986 32.0066 31.5429 31.9255C32.2367 30.7214 31.9801 29.1854 30.9966 28.2992C31.036 28.216 31.0729 28.1318 31.1059 28.043C31.5937 26.7283 31.089 25.2636 29.9759 24.5736C30.0005 24.4843 30.0227 24.3939 30.0434 24.2999C30.3095 22.9166 29.5723 21.5658 28.3645 21.0928C28.3758 21.001 28.3823 20.907 28.3838 20.811C28.4187 19.4002 27.4726 18.2065 26.2055 17.9624C26.2002 17.8696 26.1924 17.7757 26.1787 17.6824C25.9835 16.2869 24.8553 15.2857 23.5686 15.278C23.5481 15.1878 23.5251 15.0967 23.4962 15.006C23.0755 13.6671 21.8021 12.8888 20.5316 13.1205C20.4984 13.0341 20.4592 12.9482 20.4157 12.8665C19.7825 11.6257 18.4027 11.0958 17.1892 11.5567C17.1413 11.4793 17.0908 11.4008 17.036 11.3265C16.2101 10.2223 14.7642 9.95466 13.6435 10.6326C13.5834 10.5651 13.5198 10.4992 13.4527 10.4349C12.4592 9.49911 10.9895 9.50231 10.0003 10.3773C9.93032 10.3208 9.85696 10.2659 9.78068 10.2188C8.64823 9.4815 7.2033 9.7548 6.36935 10.8005C6.29114 10.7587 6.21196 10.7195 6.12838 10.6845C4.89189 10.1663 3.5139 10.7032 2.86459 11.8867C2.78056 11.8606 2.69556 11.837 2.60713 11.8151C1.30594 11.5325 0.0350581 12.3166 -0.410154 13.6008C-0.496575 13.5887 -0.584932 13.5819 -0.675232 13.5803C-2.0023 13.5436 -3.12547 14.5497 -3.35546 15.8968C-3.44279 15.9025 -3.53108 15.9108 -3.61885 15.9254C-4.93158 16.1333 -5.87378 17.333 -5.88138 18.7008C-5.96618 18.7227 -6.05195 18.7471 -6.13719 18.7779C-7.39683 19.2254 -8.12929 20.5795 -7.91173 21.9299C-7.99303 21.9653 -8.07381 22.007 -8.15065 22.0533C-9.318 22.7268 -9.81686 24.1938 -9.38365 25.4837C-9.45654 25.5347 -9.5304 25.5883 -9.60031 25.6465C-10.6392 26.5249 -10.8914 28.062 -10.254 29.2533C-10.3175 29.3172 -10.3795 29.3849 -10.44 29.4561C-11.3205 30.5126 -11.318 32.075 -10.4952 33.1264C-10.5484 33.2008 -10.6 33.2788 -10.6443 33.3599C-11.3382 34.564 -11.0815 36.1 -10.0981 36.9862C-10.1375 37.0694 -10.1744 37.1536 -10.2073 37.2424C-10.6951 38.557 -10.1905 40.0218 -9.07735 40.7117C-9.10198 40.8011 -9.12415 40.8914 -9.14482 40.9854C-9.41097 42.3688 -8.67374 43.7196 -7.46592 44.1925C-7.47728 44.2844 -7.48373 44.3783 -7.48526 44.4743C-7.52016 45.8851 -6.57409 47.0788 -5.30694 47.323C-5.30161 47.4158 -5.29383 47.5096 -5.28016 47.603C-5.08498 48.9984 -3.95673 49.9997 -2.67003 50.0074C-2.64951 50.0975 -2.62652 50.1887 -2.59765 50.2793C-2.17699 51.6183 -0.903515 52.3966 0.366903 52.1649C0.400169 52.2513 0.439322 52.3372 0.482871 52.4188C1.11607 53.6596 2.4959 54.1895 3.70935 53.7286C3.75729 53.8061 3.8077 53.8846 3.8625 53.9589C4.68843 55.063 6.13431 55.3307 7.25502 54.6528C7.31519 54.7203 7.37879 54.7862 7.44581 54.8505C8.4393 55.7863 9.90899 55.7831 10.8983 54.9081C10.9682 54.9646 11.0416 55.0195 11.1179 55.0666C12.2503 55.8039 13.6952 55.5306 14.5292 54.4848C14.6074 54.5267 14.6866 54.5659 14.7702 54.6009C16.0067 55.1191 17.3846 54.5822 18.034 53.3987C18.118 53.4248 18.203 53.4483 18.2914 53.4703C19.5926 53.7528 20.8635 52.9687 21.3087 51.6846C21.3951 51.6966 21.4835 51.7035 21.5738 51.7051C22.9009 51.7417 24.024 50.7357 24.254 49.3885C24.3413 49.3828 24.4296 49.3745 24.5174 49.36C25.8301 49.1521 26.7723 47.9524 26.7799 46.5845C26.8647 46.5627 26.9505 46.5382 27.0357 46.5075C28.2954 46.0599 29.0278 44.7059 28.8103 43.3554C28.8916 43.32 28.9724 43.2784 29.0492 43.2321Z" fill="white" stroke="#B8B8B8" stroke-miterlimit="10" stroke-linecap="round"/>
<path d="M3.29026 52.179C13.383 56.4084 24.7922 51.1382 28.7736 40.4077C32.7549 29.6772 27.8007 17.5498 17.708 13.3204C7.61534 9.09097 -3.79393 14.3611 -7.77529 25.0916C-11.7566 35.8221 -6.80243 47.9496 3.29026 52.179Z" fill="white" stroke="#B8B8B8" stroke-miterlimit="10" stroke-linecap="round"/>
<path d="M5.02359 47.3851C12.6142 50.566 21.1949 46.6023 24.1892 38.5321C27.1835 30.4618 23.4575 21.341 15.867 18.1601C8.27641 14.9792 -0.304328 18.9429 -3.29865 27.0131C-6.29297 35.0834 -2.56697 44.2042 5.02359 47.3851Z" fill="#EFE8DC" stroke="#756238" stroke-width="0.533713" stroke-miterlimit="10" stroke-linecap="round"/>
<path d="M9.16402 26.993C9.14733 26.992 9.12825 27.0052 9.10381 27.0251C8.98999 27.1405 8.82022 27.2536 8.65295 27.268C8.12579 27.3491 7.68283 26.7286 7.91946 26.2057C7.99025 26.0149 8.15899 25.8893 8.31214 25.7904C8.43908 25.6473 7.86039 25.5075 7.74544 25.4804C5.65489 25.1359 4.97097 28.1199 6.99174 28.8821C7.83917 29.201 8.8779 28.7364 9.14996 27.7964C9.21414 27.5545 9.28225 27.2026 9.17825 26.9929L9.16842 26.9888L9.16402 26.993Z" fill="black"/>
<path d="M17.8339 30.6263C17.8173 30.6253 17.7982 30.6385 17.7737 30.6584C17.6599 30.7738 17.4901 30.8869 17.3229 30.9013C16.7957 30.9824 16.3527 30.3619 16.5894 29.839C16.6602 29.6482 16.8289 29.5226 16.9821 29.4237C17.109 29.2806 16.5303 29.1408 16.4154 29.1137C14.3248 28.7692 13.6409 31.7532 15.6617 32.5154C16.5091 32.8343 17.5478 32.3697 17.8199 31.4297C17.8841 31.1878 17.9522 30.8359 17.8482 30.6262L17.8383 30.6221L17.8339 30.6263Z" fill="black"/>
<path d="M1.41329 30.4129C2.77772 30.9846 4.08222 30.9134 4.32697 30.2537C4.57172 29.5941 3.66404 28.5958 2.29962 28.0241C0.935189 27.4523 -0.369308 27.5235 -0.614059 28.1832C-0.85881 28.8428 0.0488671 29.8411 1.41329 30.4129Z" fill="#FFC0C0" stroke="#D88080" stroke-width="0.533713" stroke-miterlimit="10"/>
<path d="M18.4885 37.5681C19.8529 38.1399 21.1574 38.0687 21.4022 37.409C21.6469 36.7494 20.7392 35.7511 19.3748 35.1793C18.0104 34.6076 16.7059 34.6788 16.4611 35.3384C16.2164 35.9981 17.1241 36.9964 18.4885 37.5681Z" fill="#FFC0C0" stroke="#D88080" stroke-width="0.533713" stroke-miterlimit="10"/>
<path d="M10.5517 32.5875C9.98091 32.3573 9.49412 31.9238 9.09066 31.4648C8.8802 31.2589 8.69217 31.023 8.41248 31.0266C7.92866 31.144 7.87671 32.0343 8.03319 32.6766C8.4952 34.3712 10.5491 35.3043 12.0367 34.5869C12.5216 34.3824 13.4411 33.4812 12.9953 32.9985C12.6065 32.7298 11.9695 32.9461 11.2912 32.8068C11.0481 32.7653 10.8122 32.6967 10.5836 32.6009L10.5517 32.5875Z" fill="black" stroke="white" stroke-width="0.533713" stroke-miterlimit="10" stroke-linecap="round"/>
<path d="M8.47461 34.9365L9.02718 36.364L10.3478 35.7215" stroke="black" stroke-width="0.533713" stroke-miterlimit="10"/>
</g>
</svg>
