<svg width="46" height="69" viewBox="0 0 46 69" fill="none" xmlns="http://www.w3.org/2000/svg">
<g opacity="0.3">
<path d="M29.8178 48.5194C31.0024 47.8733 31.5102 46.4688 31.0725 45.235C31.1465 45.1861 31.2215 45.1347 31.2925 45.0789C32.3471 44.2369 32.6048 42.7656 31.96 41.6265C32.0245 41.5652 32.0874 41.5004 32.1489 41.4321C33.0432 40.4199 33.0426 38.9248 32.2096 37.9197C32.2636 37.8485 32.3161 37.7738 32.3611 37.6961C33.0663 36.5429 32.808 35.0733 31.8118 34.2266C31.8519 34.1469 31.8894 34.0663 31.923 33.9812C32.4193 32.7225 31.9094 31.3215 30.7816 30.6628C30.8067 30.5773 30.8292 30.4908 30.8503 30.4008C31.122 29.0766 30.3761 27.7849 29.1519 27.334C29.1636 27.2461 29.1702 27.1562 29.1719 27.0643C29.2091 25.7142 28.2513 24.5732 26.9666 24.3413C26.9613 24.2525 26.9536 24.1626 26.9398 24.0734C26.7437 22.7382 25.6008 21.7816 24.296 21.776C24.2753 21.6898 24.2522 21.6025 24.223 21.5159C23.7981 20.2351 22.5077 19.4921 21.2191 19.7155C21.1855 19.6329 21.1459 19.5507 21.1019 19.4727C20.4614 18.2861 19.0628 17.7809 17.8317 18.2237C17.7832 18.1496 17.7321 18.0745 17.6767 18.0035C16.8405 16.948 15.3746 16.6939 14.2373 17.3442C14.1764 17.2796 14.1119 17.2167 14.0441 17.1552C13.0378 16.2611 11.5474 16.2661 10.5431 17.1048C10.4722 17.0508 10.3979 16.9984 10.3206 16.9535C9.17316 16.2494 7.70754 16.513 6.8605 17.5148C6.78125 17.4749 6.701 17.4375 6.61629 17.4041C5.36307 16.9099 3.96499 17.4256 3.30502 18.5591C3.21984 18.5341 3.13367 18.5117 3.04402 18.4908C1.72489 18.2223 0.435109 18.9744 -0.0180244 20.2038C-0.105646 20.1924 -0.195244 20.186 -0.286812 20.1846C-1.63252 20.1513 -2.77279 21.1156 -3.00775 22.4051C-3.09631 22.4107 -3.18586 22.4187 -3.27489 22.4328C-4.60636 22.6335 -5.56336 23.7829 -5.57284 25.0919C-5.65886 25.1129 -5.74586 25.1364 -5.83235 25.1659C-7.11029 25.596 -7.8548 26.8927 -7.63592 28.1848C-7.71842 28.2188 -7.80039 28.2587 -7.87837 28.3032C-9.06301 28.9493 -9.57079 30.3538 -9.13315 31.5876C-9.20713 31.6365 -9.2821 31.6879 -9.35307 31.7437C-10.4077 32.5857 -10.6654 34.057 -10.0206 35.1961C-10.0851 35.2574 -10.148 35.3222 -10.2095 35.3905C-11.1038 36.4027 -11.1032 37.8978 -10.2702 38.9029C-10.3242 38.9741 -10.3767 39.0488 -10.4217 39.1265C-11.1269 40.2797 -10.8686 41.7493 -9.87245 42.596C-9.91249 42.6757 -9.95003 42.7563 -9.98358 42.8414C-10.4799 44.1001 -9.97005 45.5011 -8.84216 46.1598C-8.86725 46.2453 -8.88985 46.3318 -8.91094 46.4218C-9.18262 47.746 -8.43674 49.0377 -7.21253 49.4886C-7.22418 49.5765 -7.23084 49.6664 -7.23252 49.7583C-7.26972 51.1084 -6.31187 52.2494 -5.0272 52.4813C-5.02192 52.5701 -5.01415 52.66 -5.00041 52.7492C-4.80428 54.0844 -3.66145 55.041 -2.35664 55.0466C-2.33595 55.1328 -2.31276 55.2201 -2.2836 55.3067C-1.85874 56.5875 -0.568338 57.3305 0.720258 57.1071C0.753881 57.1897 0.79347 57.2719 0.837525 57.3499C1.47804 58.5365 2.87661 59.0417 4.10773 58.5989C4.15625 58.673 4.20726 58.7481 4.26274 58.8191C5.09887 59.8746 6.56475 60.1287 7.70211 59.4784C7.76304 59.543 7.82746 59.6059 7.89535 59.6674C8.90161 60.5615 10.392 60.5564 11.3963 59.7178C11.4672 59.7718 11.5415 59.8242 11.6188 59.8691C12.7662 60.5732 14.2319 60.3096 15.0789 59.3078C15.1582 59.3477 15.2384 59.3851 15.3231 59.4185C16.5763 59.9127 17.9744 59.397 18.6344 58.2635C18.7196 58.2885 18.8057 58.3109 18.8954 58.3318C20.2145 58.6003 21.5043 57.8482 21.9574 56.6188C22.045 56.6302 22.1346 56.6366 22.2262 56.638C23.5719 56.6713 24.7122 55.707 24.9472 54.4175C25.0357 54.4119 25.1253 54.4039 25.2143 54.3898C26.5458 54.1891 27.5028 53.0397 27.5122 51.7307C27.5983 51.7097 27.6853 51.6862 27.7717 51.6567C29.0497 51.2266 29.7942 49.9299 29.5753 48.6378C29.6578 48.6038 29.7398 48.5639 29.8178 48.5194Z" fill="white" stroke="#B8B8B8" stroke-width="0.499077" stroke-miterlimit="10" stroke-linecap="round"/>
<path d="M3.68302 57.113C13.9123 61.1466 25.489 56.0876 29.5402 45.8135C33.5914 35.5394 28.5831 23.9407 18.3538 19.9071C8.12451 15.8736 -3.45214 20.9326 -7.50336 31.2067C-11.5546 41.4808 -6.54627 53.0795 3.68302 57.113Z" fill="white" stroke="#9D9D9D" stroke-opacity="0.7" stroke-width="0.499077" stroke-miterlimit="10" stroke-linecap="round"/>
<path d="M5.56912 52.2208C13.2624 55.2544 21.969 51.4496 25.0159 43.7226C28.0628 35.9956 24.2961 27.2724 16.6028 24.2389C8.9095 21.2053 0.202879 25.0101 -2.84399 32.7371C-5.89085 40.4641 -2.12417 49.1873 5.56912 52.2208Z" fill="#C8E0CA" stroke="#254434" stroke-opacity="0.5" stroke-width="0.499077" stroke-miterlimit="10"/>
<path d="M17.8325 42.703C18.0314 41.4976 15.8148 40.132 12.8781 39.6507C12.0884 39.5214 11.3284 39.4704 10.6342 39.4858C10.1375 39.0008 9.54712 38.5194 8.88176 38.0748C6.4069 36.4223 3.85479 35.9076 3.1775 36.9243C2.5002 37.9411 3.95817 40.1063 6.43054 41.7578C7.37571 42.3907 8.33523 42.8558 9.19408 43.1309C10.013 43.5145 11.0292 43.8285 12.151 44.0135C15.0877 44.4948 17.6286 43.9064 17.8275 42.701L17.8325 42.703Z" fill="#FFCA55" fill-opacity="0.7" stroke="#C9850E" stroke-opacity="0.5" stroke-width="0.499077" stroke-miterlimit="10"/>
<path d="M10.8352 33.6319C10.8183 33.631 10.7989 33.6436 10.7716 33.6618C10.656 33.7723 10.4827 33.8833 10.3106 33.8964C9.77341 33.9737 9.32502 33.3805 9.56665 32.8772C9.63868 32.6946 9.80995 32.5742 9.96637 32.4768C10.0953 32.3397 9.50614 32.2057 9.3921 32.181C7.26759 31.8521 6.56972 34.7171 8.62044 35.4448C9.48188 35.7498 10.5393 35.3022 10.8164 34.4023C10.8818 34.1708 10.9523 33.8313 10.8436 33.6323L10.8337 33.6284L10.8352 33.6319Z" fill="black"/>
<path d="M17.2112 36.1461C17.1942 36.1452 17.1749 36.1578 17.1476 36.1759C17.032 36.2865 16.8587 36.3974 16.6866 36.4105C16.1494 36.4878 15.701 35.8947 15.9426 35.3914C16.0147 35.2087 16.1859 35.0883 16.3423 34.991C16.4713 34.8538 15.8821 34.7198 15.7681 34.6951C13.6436 34.3663 12.9457 37.2313 14.9964 37.959C15.8579 38.2639 16.9153 37.8163 17.1924 36.9165C17.2578 36.6849 17.3283 36.3455 17.2196 36.1465L17.2097 36.1426L17.2112 36.1461Z" fill="black"/>
<path d="M2.40872 34.7621C3.79161 35.3074 5.11456 35.2374 5.36361 34.6058C5.61265 33.9742 4.69349 33.0202 3.31059 32.4749C1.9277 31.9296 0.604749 31.9996 0.355703 32.6311C0.106657 33.2627 1.02582 34.2168 2.40872 34.7621Z" fill="#FFC0C0" stroke="#D88080" stroke-opacity="0.7" stroke-width="0.499077" stroke-miterlimit="10"/>
<path d="M19.7173 41.587C21.1002 42.1323 22.4231 42.0624 22.6722 41.4308C22.9212 40.7992 22.0021 39.8451 20.6192 39.2998C19.2363 38.7545 17.9133 38.8245 17.6643 39.4561C17.4153 40.0877 18.3344 41.0418 19.7173 41.587Z" fill="#FFC0C0" stroke="#D88080" stroke-opacity="0.7" stroke-width="0.499077" stroke-miterlimit="10"/>
<path d="M-3.52559 12.0635C-0.753118 13.1567 2.38453 11.7855 3.48255 9.00092C4.58056 6.2163 3.22314 3.07268 0.450671 1.97946C-2.3218 0.886233 -5.45945 2.25738 -6.55747 5.042C-7.65548 7.82662 -6.29806 10.9702 -3.52559 12.0635Z" fill="#C8E0CA" stroke="#254434" stroke-opacity="0.5" stroke-width="0.425908" stroke-miterlimit="10"/>
<path d="M36.9617 28.0283C39.7342 29.1215 42.8718 27.7504 43.9699 24.9658C45.0679 22.1811 43.7104 19.0375 40.938 17.9443C38.1655 16.8511 35.0279 18.2222 33.9298 21.0068C32.8318 23.7915 34.1892 26.9351 36.9617 28.0283Z" fill="#C8E0CA" stroke="#254434" stroke-opacity="0.5" stroke-width="0.425908" stroke-miterlimit="10"/>
</g>
</svg>
