<svg width="48" height="74" viewBox="0 0 48 74" fill="none" xmlns="http://www.w3.org/2000/svg">
<g opacity="0.2">
<path d="M8.09763 27.9588C7.43447 29.6895 11.0606 33.4259 12.9031 35.4202C14.4526 36.9532 17.1588 39.8515 19.297 40.0208C20.8721 40.0205 21.5964 38.8219 22.2766 37.9234C23.3781 36.1832 26.592 30.3765 24.572 28.2219C23.001 26.6871 18.7444 26.6306 16.5445 26.515C13.874 26.4972 8.93958 26.3244 8.10643 27.9429L8.09997 27.9606L8.09763 27.9588Z" fill="#FFC783" stroke="#775026" stroke-width="0.543572" stroke-miterlimit="10" stroke-linecap="round"/>
<path d="M22.3148 10.0787C23.8517 9.04269 28.3089 11.7339 30.667 13.0797C32.5097 14.2441 35.943 16.2278 36.5897 18.2728C36.9443 19.8076 35.9397 20.7833 35.2174 21.6484C33.7701 23.1136 28.8367 27.553 26.2824 26.0703C24.4332 24.8854 23.4192 20.751 22.811 18.6337C22.1921 16.0358 20.9121 11.2672 22.3013 10.0908L22.3171 10.0806L22.3148 10.0787Z" fill="#FFC783" stroke="#775026" stroke-width="0.543572" stroke-miterlimit="10" stroke-linecap="round"/>
<path d="M8.15696 28.4694C8.15696 28.4694 19.4713 28.407 20.7198 35.8961C21.9682 43.3852 16.794 39.4041 16.794 39.4041C16.794 39.4041 7.49468 31.2062 8.1551 28.4717L8.15696 28.4694Z" fill="#FFF2E3" stroke="#775026" stroke-width="0.543572" stroke-miterlimit="10" stroke-linecap="round"/>
<path d="M22.812 10.0399C22.812 10.0399 25.3001 21.0774 32.8779 20.6067C40.4557 20.1359 35.4113 15.9915 35.4113 15.9915C35.4113 15.9915 25.3292 8.77806 22.8138 10.0375L22.812 10.0399Z" fill="#FFF2E3" stroke="#775026" stroke-width="0.543572" stroke-miterlimit="10" stroke-linecap="round"/>
<path d="M57.9534 22.8848C57.6531 21.4161 56.3268 20.4224 54.874 20.4895C54.8461 20.395 54.816 20.2987 54.7798 20.2051C54.2291 18.8115 52.7504 18.0622 51.3306 18.3802C51.2865 18.2918 51.2382 18.2039 51.1857 18.1165C50.4021 16.8384 48.814 16.3562 47.4752 16.9177C47.4171 16.8372 47.3549 16.7573 47.287 16.6843C46.292 15.5618 44.6471 15.362 43.4233 16.1481C43.3518 16.0798 43.2784 16.0138 43.199 15.9507C42.0239 15.0162 40.3698 15.1061 39.3028 16.0931C39.2201 16.0388 39.1356 15.9869 39.0469 15.9354C37.7291 15.2188 36.1143 15.595 35.2366 16.7516C35.147 16.7108 35.0537 16.6747 34.9567 16.6432C33.5349 16.1676 32.011 16.818 31.3463 18.1096C31.2502 18.0865 31.1523 18.0658 31.053 18.0516C29.5711 17.8291 28.1828 18.7357 27.7518 20.1218C27.6535 20.116 27.5533 20.1125 27.4518 20.1155C25.9531 20.1538 24.7436 21.2864 24.5611 22.7293C24.4624 22.7383 24.3623 22.7539 24.265 22.7756C22.7962 23.0737 21.8041 24.3982 21.8732 25.8507C21.7787 25.8784 21.6824 25.9084 21.5889 25.9445C20.1955 26.493 19.4481 27.9702 19.7682 29.3899C19.6798 29.4339 19.5919 29.4821 19.5046 29.5345C18.2271 30.3161 17.747 31.903 18.3105 33.2421C18.2301 33.3001 18.1502 33.3622 18.0773 33.4299C16.9558 34.4231 16.7582 36.0671 17.5463 37.2916C17.4781 37.363 17.4122 37.4363 17.3491 37.5156C16.4161 38.6891 16.5083 40.3427 17.4971 41.4107C17.4429 41.4933 17.391 41.5777 17.3396 41.6663C16.6246 42.9827 17.0032 44.5975 18.1614 45.4766C18.1207 45.5661 18.0847 45.6593 18.0534 45.7563C17.5797 47.1769 18.2323 48.7012 19.5253 49.3675C19.5023 49.4635 19.4817 49.5614 19.4677 49.6606C19.2471 51.1417 20.156 52.5308 21.5431 52.9636C21.5375 53.0619 21.5341 53.1621 21.5373 53.2636C21.5777 54.7618 22.7123 55.9725 24.1559 56.1569C24.1651 56.2556 24.1808 56.3557 24.2026 56.453C24.5029 57.9217 25.8292 58.9154 27.282 58.8483C27.3099 58.9428 27.34 59.0392 27.3763 59.1327C27.9269 60.5264 29.4056 61.2757 30.8254 60.9576C30.8695 61.046 30.9178 61.1339 30.9703 61.2214C31.7539 62.4994 33.3421 62.9816 34.6808 62.4202C34.7389 62.5006 34.8012 62.5806 34.869 62.6535C35.864 63.7761 37.5089 63.9759 38.7327 63.1897C38.8042 63.258 38.8776 63.324 38.957 63.3872C40.1322 64.3216 41.7862 64.2317 42.8532 63.2447C42.9359 63.299 43.0204 63.351 43.1091 63.4025C44.4269 64.1191 46.0417 63.7428 46.9194 62.5863C47.009 62.627 47.1023 62.6632 47.1993 62.6946C48.6211 63.1702 50.145 62.5198 50.8098 61.2282C50.9058 61.2513 51.0037 61.272 51.103 61.2862C52.5849 61.5088 53.9732 60.6021 54.4042 59.216C54.5025 59.2218 54.6027 59.2253 54.7043 59.2223C56.2029 59.184 57.4124 58.0514 57.5949 56.6086C57.6936 56.5995 57.7937 56.5839 57.891 56.5623C59.3598 56.2641 60.352 54.9396 60.2828 53.4871C60.3773 53.4595 60.4736 53.4294 60.5671 53.3934C61.9605 52.8448 62.708 51.3677 62.3878 49.9479C62.4762 49.9039 62.5641 49.8557 62.6515 49.8034C63.9289 49.0218 64.409 47.4348 63.8455 46.0957C63.9259 46.0378 64.0058 45.9756 64.0787 45.9079C65.2002 44.9148 65.3978 43.2707 64.6097 42.0462C64.6779 41.9748 64.7438 41.9015 64.8069 41.8222C65.7399 40.6488 65.6477 38.9951 64.6589 37.9271C64.7131 37.8445 64.765 37.7601 64.8164 37.6715C65.5314 36.3551 65.1528 34.7403 63.9946 33.8613C64.0353 33.7717 64.0713 33.6785 64.1026 33.5816C64.5764 32.1609 63.9237 30.6366 62.6307 29.9703C62.6537 29.8743 62.6743 29.7764 62.6884 29.6772C62.9089 28.1961 62 26.807 60.6129 26.3742C60.6186 26.2759 60.6219 26.1758 60.6188 26.0742C60.5783 24.576 59.4437 23.3654 58.0001 23.1809C57.9909 23.0822 57.9752 22.9821 57.9534 22.8848Z" fill="white" stroke="#B8B8B8" stroke-width="0.543572" stroke-miterlimit="10" stroke-linecap="round"/>
<path d="M58.5684 53.4607C66.1846 43.8825 64.583 29.9349 54.9912 22.3078C45.3994 14.6808 31.4495 16.2624 23.8333 25.8406C16.2171 35.4187 17.8187 49.3663 27.4105 56.9934C37.0024 64.6205 50.9522 63.0388 58.5684 53.4607Z" fill="white" stroke="#B8B8B8" stroke-width="0.543572" stroke-miterlimit="10" stroke-linecap="round"/>
<path d="M54.2697 50.1003C59.9977 42.8967 58.7932 32.4069 51.5793 26.6707C44.3654 20.9345 33.8739 22.124 28.1459 29.3276C22.4179 36.5312 23.6224 47.021 30.8363 52.7572C38.0502 58.4934 48.5416 57.3038 54.2697 50.1003Z" fill="#FFC783" stroke="#775026" stroke-width="0.543572" stroke-miterlimit="10" stroke-linecap="round"/>
<path d="M35.8404 48.7274C36.8701 47.4325 37.2267 46.0027 36.6371 45.5339C36.0474 45.065 34.7348 45.7346 33.7051 47.0295C32.6755 48.3243 32.3188 49.7541 32.9085 50.223C33.4981 50.6919 34.8108 50.0223 35.8404 48.7274Z" fill="#FFC0C0" stroke="#D88080" stroke-width="0.543572" stroke-miterlimit="10"/>
<path d="M48.7262 32.5226C49.7558 31.2277 50.1125 29.7979 49.5228 29.329C48.9332 28.8602 47.6205 29.5298 46.5909 30.8246C45.5612 32.1195 45.2046 33.5493 45.7942 34.0182C46.3839 34.487 47.6966 33.8174 48.7262 32.5226Z" fill="#FFC0C0" stroke="#D88080" stroke-width="0.543572" stroke-miterlimit="10"/>
<path d="M33.7814 41.8081C34.5389 40.4189 36.0462 39.9382 37.2998 40.4094C37.819 40.6053 38.075 40.6527 38.0523 40.825C38.0206 41.0855 37.0107 40.8498 35.8294 41.5441C34.5049 42.3225 34.0462 44.2806 33.5743 44.6822C33.218 44.9815 32.9821 43.2784 33.7795 41.8104L33.7814 41.8081Z" fill="black" stroke="black" stroke-width="0.543572" stroke-miterlimit="10" stroke-linecap="round"/>
<path d="M41.4246 32.196C40.2418 33.2471 40.1129 34.8239 40.8545 35.9391C41.1623 36.4008 41.2661 36.6395 41.429 36.5786C41.6756 36.4891 41.2184 35.5582 41.6287 34.2509C42.0888 32.7851 43.8932 31.897 44.1782 31.3468C44.3896 30.9323 42.6771 31.0861 41.4265 32.1937L41.4246 32.196Z" fill="black" stroke="black" stroke-width="0.543572" stroke-miterlimit="10" stroke-linecap="round"/>
<path d="M42.191 40.4491C41.7871 40.9618 40.7389 41.8915 40.3997 40.9705C40.1013 39.8879 41.688 38.2137 42.616 38.6964C43.1157 39.1471 42.5521 39.9518 42.2207 40.4117L42.191 40.4491Z" fill="black" stroke="black" stroke-width="0.543572" stroke-miterlimit="10" stroke-linecap="round"/>
</g>
</svg>
