<svg width="46" height="68" viewBox="0 0 46 68" fill="none" xmlns="http://www.w3.org/2000/svg">
<g opacity="0.2">
<path d="M26.0745 20.6014C26.7795 19.8041 23.2176 12.7351 17.3545 12.6729C13.3863 12.6319 9.27552 15.8078 8.96772 18.7267C8.84854 19.8573 9.10667 22.4449 12.0896 22.1781C14.2062 21.9888 14.8133 19.3511 17.6193 18.4006C21.6224 17.0441 25.454 21.3023 26.0745 20.6014Z" fill="#FFE49F" stroke="#E2B249" stroke-width="1.06015" stroke-miterlimit="10" stroke-linecap="round"/>
<path d="M30.3451 20.7962C32.0652 20.7993 33.4774 10.1359 31.3051 4.50597C31.0967 3.96983 30.6119 2.96035 29.3479 1.8019C28.1674 0.718607 25.2526 -0.638336 23.1158 0.591514C21.5983 1.46611 21.0404 3.334 21.391 4.7536C21.8119 6.44262 23.486 7.33727 24.3697 7.92533C30.3405 11.8922 28.7712 20.7925 30.3425 20.7972L30.3451 20.7962Z" fill="#FFE49F" stroke="#E2B249" stroke-width="1.06015" stroke-miterlimit="10" stroke-linecap="round"/>
<path d="M57.1832 32.6108C57.6244 31.2812 57.0145 29.8558 55.8081 29.23C55.8296 29.1404 55.85 29.0483 55.8643 28.9556C56.0681 27.5696 55.2211 26.2707 53.9245 25.8635C53.93 25.7713 53.9318 25.6775 53.9301 25.5821C53.8916 24.1806 52.8316 23.0467 51.4872 22.8745C51.4777 22.7822 51.4646 22.6883 51.4437 22.5975C51.1617 21.2229 49.9243 20.2911 48.5682 20.3546C48.5422 20.2658 48.5136 20.178 48.4787 20.0897C47.9635 18.7831 46.5837 18.0815 45.2609 18.3811C45.2193 18.2984 45.1751 18.2168 45.1274 18.1335C44.3952 16.9365 42.9138 16.4851 41.6651 17.0105C41.6117 16.9355 41.553 16.8626 41.4892 16.7917C40.5607 15.7411 39.0251 15.5542 37.8858 16.2887C37.8188 16.225 37.7493 16.1624 37.6756 16.1044C36.5806 15.2305 35.0353 15.3146 34.041 16.235C33.9642 16.1842 33.8848 16.1345 33.8013 16.0894C32.5712 15.4188 31.0653 15.7696 30.2456 16.8522C30.1615 16.8133 30.0733 16.7791 29.9845 16.7511C28.6576 16.3048 27.2381 16.9126 26.6175 18.1209C26.5281 18.0991 26.4362 18.0783 26.3438 18.0637C24.9613 17.8555 23.6686 18.7015 23.2662 20.0008C23.1742 19.995 23.0807 19.9929 22.9856 19.9944C21.5883 20.0291 20.4607 21.0891 20.2927 22.437C20.2007 22.4463 20.1071 22.4592 20.0166 22.4799C18.6469 22.7589 17.7212 23.9974 17.7883 25.3577C17.6999 25.3836 17.6125 25.412 17.5245 25.4467C16.2231 25.9599 15.5275 27.3418 15.8298 28.6694C15.7475 28.7109 15.6662 28.7549 15.5834 28.8026C14.3918 29.5336 13.9459 31.0182 14.4732 32.272C14.3986 32.3255 14.3261 32.3841 14.2556 32.4479C13.2106 33.3763 13.0286 34.9159 13.764 36.0606C13.7007 36.1276 13.6385 36.1972 13.5809 36.2709C12.7126 37.3667 12.8007 38.9169 13.7211 39.9166C13.6707 39.9935 13.6213 40.073 13.5766 40.1567C12.9114 41.3886 13.2653 42.8999 14.347 43.725C14.3085 43.8093 14.2746 43.8977 14.2469 43.9866C13.8056 45.3163 14.4155 46.7416 15.622 47.3675C15.6005 47.457 15.58 47.5491 15.5657 47.6418C15.3619 49.0279 16.209 50.3267 17.5056 50.7339C17.5001 50.8262 17.4982 50.9199 17.4999 51.0153C17.5384 52.4169 18.5984 53.5507 19.9428 53.723C19.9523 53.8153 19.9654 53.9091 19.9863 54C20.2683 55.3746 21.5057 56.3064 22.8618 56.2429C22.8878 56.3317 22.9165 56.4194 22.9513 56.5077C23.4666 57.8144 24.8463 58.5159 26.1692 58.2164C26.2107 58.2991 26.2549 58.3807 26.3026 58.4639C27.0348 59.661 28.5162 60.1124 29.7649 59.587C29.8184 59.6619 29.877 59.7348 29.9408 59.8057C30.8694 60.8563 32.4049 61.0432 33.5443 60.3088C33.6112 60.3724 33.6808 60.435 33.7544 60.493C34.8494 61.3669 36.3947 61.2828 37.389 60.3625C37.4658 60.4132 37.5452 60.463 37.6288 60.508C38.8588 61.1786 40.3647 60.8279 41.1844 59.7452C41.2685 59.7841 41.3567 59.8184 41.4455 59.8464C42.7724 60.2926 44.1919 59.6848 44.8126 58.4766C44.9019 58.4984 44.9938 58.5192 45.0862 58.5337C46.4688 58.7419 47.7615 57.896 48.1639 56.5967C48.2558 56.6024 48.3493 56.6046 48.4444 56.6031C49.8418 56.5684 50.9693 55.5084 51.1373 54.1604C51.2293 54.1512 51.3229 54.1383 51.4134 54.1176C52.7832 53.8386 53.7088 52.6001 53.6417 51.2398C53.7302 51.2139 53.8176 51.1854 53.9055 51.1507C55.2069 50.6376 55.9026 49.2556 55.6003 47.928C55.6826 47.8866 55.7638 47.8425 55.8467 47.7949C57.0382 47.0638 57.4841 45.5793 56.9568 44.3254C57.0314 44.272 57.1039 44.2134 57.1744 44.1495C58.2194 43.2212 58.4015 41.6816 57.666 40.5368C57.7293 40.4699 57.7916 40.4003 57.8492 40.3265C58.7175 39.2307 58.6294 37.6806 57.7089 36.6808C57.7593 36.6039 57.8087 36.5244 57.8534 36.4407C58.5186 35.2089 58.1648 33.6975 57.083 32.8724C57.1216 32.7882 57.1555 32.6998 57.1832 32.6108Z" fill="white" stroke="#B8B8B8" stroke-width="1.06015" stroke-miterlimit="10" stroke-linecap="round"/>
<path d="M43.4381 57.6529C54.0602 53.4641 59.2616 41.4226 55.0558 30.7574C50.85 20.0922 38.8296 14.842 28.2076 19.0308C17.5855 23.2196 12.3841 35.2611 16.5899 45.9263C20.7957 56.5915 32.816 61.8417 43.4381 57.6529Z" fill="white" stroke="#B8B8B8" stroke-width="1.06015" stroke-miterlimit="10" stroke-linecap="round"/>
<path d="M41.5269 52.9194C49.5156 49.7691 53.4275 40.7128 50.2644 32.6917C47.1013 24.6705 38.0609 20.7219 30.0722 23.8723C22.0835 27.0226 18.1716 36.0788 21.3348 44.1C24.4979 52.1211 33.5382 56.0697 41.5269 52.9194Z" fill="#FFE49F" stroke="#E2B249" stroke-width="1.06015" stroke-miterlimit="10" stroke-linecap="round"/>
<path d="M31.0328 34.0481C31.0214 34.0646 31.0218 34.1035 31.0231 34.16C31.0609 34.4452 31.0612 34.7873 30.9645 34.9815C30.6997 35.6443 29.812 35.1899 29.4584 34.1797C29.3191 33.8264 29.3074 33.4708 29.31 33.1666C29.2534 32.8258 28.741 33.2169 28.6441 33.2972C26.9533 34.9455 29.4014 40.0163 31.4499 39.0554C32.3096 38.6504 32.5328 36.8965 31.8001 35.2433C31.6068 34.8213 31.3112 34.2385 31.0385 34.0398L31.0282 34.0439L31.0328 34.0481Z" fill="black"/>
<path d="M39.0709 30.8782C39.0595 30.8947 39.0599 30.9336 39.0612 30.99C39.099 31.2753 39.0993 31.6174 39.0025 31.8116C38.7377 32.4743 37.8501 32.02 37.4965 31.0098C37.3572 30.6565 37.3455 30.3009 37.3481 29.9967C37.2915 29.6558 36.7791 30.047 36.6821 30.1272C34.9914 31.7755 37.4395 36.8464 39.488 35.8855C40.3477 35.4804 40.5708 33.7265 39.8382 32.0734C39.6449 31.6514 39.3493 31.0686 39.0766 30.8699L39.0663 30.874L39.0709 30.8782Z" fill="black"/>
<path d="M27.1936 43.0237C28.6296 42.4575 29.5841 41.4669 29.3256 40.8113C29.067 40.1556 27.6933 40.0832 26.2573 40.6495C24.8213 41.2157 23.8668 42.2063 24.1254 42.8619C24.3839 43.5176 25.7576 43.59 27.1936 43.0237Z" fill="#FFC0C0" stroke="#D88080" stroke-width="1.06015" stroke-miterlimit="10"/>
<path d="M45.1663 35.9358C46.6023 35.3696 47.5568 34.379 47.2982 33.7234C47.0397 33.0677 45.666 32.9953 44.23 33.5616C42.794 34.1279 41.8395 35.1184 42.098 35.774C42.3566 36.4297 43.7303 36.5021 45.1663 35.9358Z" fill="#FFC0C0" stroke="#D88080" stroke-width="1.06015" stroke-miterlimit="10"/>
<path d="M36.2173 38.8639C36.1741 38.7999 36.1387 38.7328 36.11 38.6601C36.0556 38.6815 35.8461 38.7642 35.7918 38.7856C35.8194 38.8557 35.8393 38.9289 35.8525 39.0078C35.9681 39.7786 35.3937 40.4674 34.3664 40.6444C34.8864 41.9101 36.3935 44.3445 37.9678 43.9247C39.174 43.6022 39.0104 40.4129 38.4982 39.1141C38.49 39.0933 38.4793 39.0735 38.4685 39.0538C37.6209 39.5501 36.6424 39.4797 36.2199 38.8629L36.2173 38.8639Z" fill="#FFA4A4" stroke="#7F2525" stroke-width="1.06015" stroke-miterlimit="10"/>
<path d="M34.6553 38.6184C36.2695 38.9214 35.8855 39.0998 36.8363 37.7583L34.6553 38.6184Z" fill="#FF929F"/>
<path d="M34.6553 38.6184C36.2695 38.9214 35.8855 39.0998 36.8363 37.7583" stroke="#7F2525" stroke-width="1.06015" stroke-miterlimit="10" stroke-linecap="round"/>
</g>
</svg>
