<svg width="14" height="14" viewBox="0 0 14 14" fill="none" xmlns="http://www.w3.org/2000/svg">
<path fill-rule="evenodd" clip-rule="evenodd" d="M1.40039 6.04276C1.40039 1.06637 4.20039 0 7.00039 0C9.80039 0 12.6004 1.06637 12.6004 6.04276C12.6004 9.95099 9.14638 12.763 7.66364 13.7901C7.25967 14.0699 6.74108 14.0699 6.33713 13.7901C4.85437 12.763 1.40039 9.95099 1.40039 6.04276ZM7.00039 7.82005C8.16022 7.82005 9.10039 6.86517 9.10039 5.6873C9.10039 4.50942 8.16022 3.55456 7.00039 3.55456C5.8406 3.55456 4.90039 4.50942 4.90039 5.6873C4.90039 6.86517 5.8406 7.82005 7.00039 7.82005Z" fill="#254736" fill-opacity="0.7"/>
</svg>
