<svg width="15" height="15" viewBox="0 0 15 15" fill="none" xmlns="http://www.w3.org/2000/svg">
<path fill-rule="evenodd" clip-rule="evenodd" d="M3.09105 0.996187C3.69805 0.667938 4.42965 0.667938 5.03665 0.996187C5.30061 1.13893 5.53681 1.37542 5.8525 1.69151C5.87069 1.70971 5.88913 1.72819 5.90787 1.74691L6.5997 2.43874C6.63196 2.471 6.65702 2.49606 6.67981 2.52049C7.22698 3.10714 7.34833 3.9736 6.98337 4.68801C6.96817 4.71777 6.95094 4.74877 6.92875 4.7887L6.92479 4.79584C6.88915 4.85999 6.87685 4.88224 6.86665 4.90202C6.60035 5.41844 6.6428 6.04001 6.97686 6.51541C6.98966 6.53364 7.00486 6.554 7.04889 6.61271L7.12253 6.71089C7.19245 6.80413 7.22317 6.84503 7.25427 6.88477C7.50532 7.20557 7.79445 7.49467 8.11522 7.74577C8.15497 7.77682 8.19585 7.80757 8.28907 7.87747L8.38732 7.95112C8.44597 7.99515 8.46637 8.01037 8.4846 8.02312C8.96002 8.35717 9.58155 8.39962 10.098 8.13337C10.1177 8.12317 10.1401 8.1108 10.2042 8.07525L10.2115 8.0712C10.2513 8.049 10.2823 8.03182 10.312 8.01667C11.0264 7.65165 11.8928 7.773 12.4795 8.3202C12.5039 8.343 12.529 8.36805 12.5612 8.4003L13.2531 9.09217C13.2718 9.11085 13.2903 9.1293 13.3085 9.14752C13.6246 9.4632 13.861 9.69937 14.0038 9.96337C14.332 10.5703 14.332 11.302 14.0038 11.9089C13.861 12.1729 13.6246 12.4091 13.3085 12.7248C13.2903 12.743 13.2718 12.7615 13.2531 12.7801C13.2366 12.7966 13.2203 12.8129 13.2043 12.829C12.7252 13.3083 12.4153 13.6184 12.026 13.839C11.1761 14.3209 9.99547 14.3854 9.09818 13.9988C8.6874 13.8218 8.37952 13.5745 7.9074 13.1953C7.89315 13.1839 7.87867 13.1723 7.86412 13.1606C6.90184 12.3881 5.77109 11.416 4.67754 10.3225C3.58399 9.2289 2.61187 8.0982 1.83941 7.13592C1.8277 7.12132 1.81611 7.10689 1.80463 7.0926C1.42551 6.62049 1.17828 6.31262 1.00127 5.90183C0.614642 5.00455 0.679041 3.82389 1.16097 2.97399C1.38168 2.58475 1.69169 2.27485 2.171 1.79574C2.18709 1.77966 2.20336 1.76338 2.21983 1.74691C2.23856 1.72819 2.25701 1.70971 2.27519 1.69151C2.59089 1.37542 2.82709 1.13893 3.09105 0.996187Z" fill="#254434" fill-opacity="0.7"/>
</svg>
