<svg width="37" height="35" viewBox="0 0 37 35" fill="none" xmlns="http://www.w3.org/2000/svg">
<path d="M33.0837 21.7035C33.6411 21.0362 33.6135 20.0741 33.0595 19.438C33.0923 19.3912 33.1251 19.3426 33.1544 19.2924C33.5876 18.5383 33.3943 17.5954 32.7385 17.065C32.7627 17.013 32.7851 16.9592 32.8058 16.9037C33.1027 16.0856 32.7489 15.1894 32.0119 14.7838C32.0275 14.7283 32.0413 14.6711 32.0499 14.6139C32.2 13.7559 31.6978 12.936 30.9005 12.6638C30.9057 12.6066 30.9091 12.5494 30.9091 12.4905C30.9091 11.6186 30.2723 10.8992 29.4404 10.771C29.4352 10.7138 29.4283 10.6566 29.4197 10.5976C29.2696 9.7396 28.5171 9.14158 27.6766 9.16065C27.6628 9.10518 27.6456 9.04971 27.6248 8.99424C27.328 8.17607 26.4841 7.71846 25.6591 7.88313C25.635 7.83113 25.6091 7.77913 25.5797 7.72886C25.1465 6.97483 24.2353 6.67148 23.4518 6.97656C23.419 6.92976 23.3845 6.88296 23.3465 6.83789C22.789 6.17053 21.8398 6.03012 21.1202 6.46867C21.0805 6.42707 21.0373 6.3872 20.9924 6.3508C20.328 5.79091 19.3702 5.81865 18.7368 6.37507C18.6902 6.34213 18.6419 6.3092 18.5918 6.27973C17.8411 5.84465 16.9022 6.03879 16.3741 6.69748C16.3223 6.67321 16.2688 6.65068 16.2136 6.62988C15.399 6.33173 14.5067 6.68708 14.1029 7.42724C14.0477 7.41164 13.9907 7.39778 13.9338 7.38911C13.0795 7.2383 12.2632 7.74272 11.9922 8.54356C11.9352 8.53835 11.8783 8.53489 11.8196 8.53489C10.9515 8.53489 10.2353 9.17451 10.1076 10.01C10.0506 10.0152 9.99368 10.0221 9.935 10.0308C9.08071 10.1816 8.48529 10.9374 8.50428 11.7815C8.44905 11.7954 8.39382 11.8127 8.3386 11.8335C7.524 12.1317 7.06838 12.9793 7.23233 13.8079C7.18056 13.8322 7.12878 13.8582 7.07873 13.8876C6.32799 14.3227 6.02597 15.238 6.32972 16.0249C6.28312 16.0578 6.23653 16.0925 6.19165 16.1307C5.52721 16.6905 5.38741 17.6439 5.82405 18.3667C5.78263 18.4066 5.74294 18.4499 5.70669 18.495C5.14925 19.1624 5.17686 20.1244 5.73085 20.7606C5.69806 20.8074 5.66527 20.8559 5.63593 20.9062C5.20275 21.6602 5.39604 22.6032 6.05186 23.1336C6.0277 23.1856 6.00526 23.2393 5.98455 23.2948C5.68771 24.113 6.04151 25.0091 6.77844 25.4147C6.76291 25.4702 6.7491 25.5274 6.74047 25.5846C6.59032 26.4427 7.09254 27.2626 7.88988 27.5347C7.8847 27.5919 7.88125 27.6491 7.88125 27.708C7.88125 28.5799 8.51808 29.2993 9.34994 29.4276C9.35512 29.4848 9.36202 29.542 9.37065 29.6009C9.5208 30.4589 10.2733 31.057 11.1137 31.0379C11.1276 31.0934 11.1448 31.1488 11.1655 31.2043C11.4624 32.0225 12.3063 32.4801 13.1313 32.3154C13.1554 32.3674 13.1813 32.4194 13.2106 32.4697C13.6438 33.2237 14.5551 33.5271 15.3386 33.222C15.3714 33.2688 15.4059 33.3156 15.4439 33.3607C16.0013 34.028 16.9505 34.1684 17.6702 33.7299C17.7099 33.7715 17.753 33.8113 17.7979 33.8477C18.4624 34.4076 19.4202 34.3799 20.0536 33.8235C20.1002 33.8564 20.1485 33.8893 20.1986 33.9188C20.9493 34.3539 21.8882 34.1598 22.4163 33.5011C22.468 33.5253 22.5215 33.5479 22.5768 33.5687C23.3914 33.8668 24.2836 33.5115 24.6875 32.7713C24.7427 32.7869 24.7996 32.8008 24.8566 32.8094C25.7109 32.9602 26.5272 32.4558 26.7982 31.655C26.8551 31.6602 26.9121 31.6637 26.9708 31.6637C27.8389 31.6637 28.5551 31.024 28.6828 30.1885C28.7397 30.1833 28.7967 30.1764 28.8554 30.1677C29.7097 30.0169 30.3051 29.2612 30.2861 28.417C30.3413 28.4031 30.3965 28.3858 30.4518 28.365C31.2664 28.0669 31.722 27.2192 31.558 26.3906C31.6098 26.3664 31.6616 26.3404 31.7116 26.3109C32.4624 25.8758 32.7644 24.9606 32.4606 24.1736C32.5072 24.1407 32.5538 24.106 32.5987 24.0679C33.2632 23.508 33.403 22.5546 32.9663 21.8318C33.0077 21.7919 33.0474 21.7486 33.0837 21.7035Z" fill="white" stroke="#B8B8B8" stroke-width="0.321607" stroke-miterlimit="10" stroke-linecap="round"/>
<path d="M19.4476 33.0328C26.5333 33.0328 32.2774 27.2635 32.2774 20.1467C32.2774 13.0299 26.5333 7.26062 19.4476 7.26062C12.3618 7.26062 6.61768 13.0299 6.61768 20.1467C6.61768 27.2635 12.3618 33.0328 19.4476 33.0328Z" fill="white" stroke="#9D9D9D" stroke-opacity="0.7" stroke-width="0.321607" stroke-miterlimit="10" stroke-linecap="round"/>
<path d="M19.4221 29.6545C24.7512 29.6545 29.0713 25.3155 29.0713 19.9631C29.0713 14.6106 24.7512 10.2716 19.4221 10.2716C14.093 10.2716 9.77295 14.6106 9.77295 19.9631C9.77295 25.3155 14.093 29.6545 19.4221 29.6545Z" fill="#C8E0CA" stroke="#254434" stroke-opacity="0.5" stroke-width="0.321607" stroke-miterlimit="10"/>
<path d="M24.5232 21.0498C24.3575 20.2801 22.7059 19.9855 20.8316 20.3911C20.3277 20.5003 19.86 20.6494 19.4475 20.8227C19.035 20.6494 18.5673 20.5003 18.0634 20.3911C16.1891 19.9855 14.5375 20.2801 14.3718 21.0498C14.2062 21.8194 15.592 22.7728 17.4645 23.1784C18.1808 23.3344 18.8659 23.3864 19.4458 23.3483C20.0274 23.3847 20.7108 23.3327 21.4271 23.1784C23.3013 22.7728 24.6854 21.8194 24.5198 21.0498H24.5232Z" fill="#FFCA55" fill-opacity="0.7" stroke="#C9850E" stroke-opacity="0.5" stroke-width="0.321607" stroke-miterlimit="10"/>
<path d="M18.1842 17.2658C18.1739 17.2693 18.1652 17.2814 18.1531 17.2988C18.11 17.3924 18.0323 17.4999 17.9322 17.5484C17.6285 17.7217 17.2195 17.4721 17.2454 17.1133C17.2454 16.9868 17.3196 16.8741 17.3903 16.7788C17.4352 16.6661 17.0503 16.725 16.9761 16.7372C15.6248 17.0422 15.8837 18.9247 17.285 18.8762C17.8736 18.8554 18.4017 18.3371 18.3551 17.7321C18.3395 17.5779 18.3016 17.3577 18.1894 17.2641H18.1825L18.1842 17.2658Z" fill="black"/>
<path d="M22.6007 17.2658C22.5904 17.2693 22.5817 17.2814 22.5697 17.2988C22.5265 17.3924 22.4488 17.4999 22.3487 17.5484C22.045 17.7217 21.636 17.4721 21.6619 17.1133C21.6619 16.9868 21.7361 16.8741 21.8068 16.7788C21.8517 16.6661 21.4668 16.725 21.3926 16.7372C20.0413 17.0422 20.3002 18.9247 21.7016 18.8762C22.2901 18.8554 22.8182 18.3371 22.7716 17.7321C22.756 17.5779 22.7181 17.3577 22.6059 17.2641H22.599L22.6007 17.2658Z" fill="black"/>
<path d="M13.4 19.9352C14.3579 19.9352 15.1345 19.5805 15.1345 19.143C15.1345 18.7055 14.3579 18.3508 13.4 18.3508C12.4421 18.3508 11.6655 18.7055 11.6655 19.143C11.6655 19.5805 12.4421 19.9352 13.4 19.9352Z" fill="#FFC0C0" stroke="#D88080" stroke-opacity="0.7" stroke-width="0.321607" stroke-miterlimit="10"/>
<path d="M25.3897 19.9352C26.3477 19.9352 27.1242 19.5805 27.1242 19.143C27.1242 18.7055 26.3477 18.3508 25.3897 18.3508C24.4318 18.3508 23.6553 18.7055 23.6553 19.143C23.6553 19.5805 24.4318 19.9352 25.3897 19.9352Z" fill="#FFC0C0" stroke="#D88080" stroke-opacity="0.7" stroke-width="0.321607" stroke-miterlimit="10"/>
<path d="M4.47732 7.73059C6.39779 7.73059 7.95464 6.16692 7.95464 4.23804C7.95464 2.30915 6.39779 0.745483 4.47732 0.745483C2.55685 0.745483 1 2.30915 1 4.23804C1 6.16692 2.55685 7.73059 4.47732 7.73059Z" fill="#C8E0CA" stroke="#254434" stroke-opacity="0.5" stroke-width="0.274457" stroke-miterlimit="10"/>
<path d="M32.5227 7.73059C34.4432 7.73059 36 6.16692 36 4.23804C36 2.30915 34.4432 0.745483 32.5227 0.745483C30.6023 0.745483 29.0454 2.30915 29.0454 4.23804C29.0454 6.16692 30.6023 7.73059 32.5227 7.73059Z" fill="#C8E0CA" stroke="#254434" stroke-opacity="0.5" stroke-width="0.274457" stroke-miterlimit="10"/>
</svg>
