<svg width="45" height="53" viewBox="0 0 45 53" fill="none" xmlns="http://www.w3.org/2000/svg">
<path d="M12.4647 1.02236C10.9035 1.5154 10.3137 6.0767 9.94777 8.44699C9.73978 10.3612 9.22374 13.8256 10.2821 15.397C11.1483 16.486 12.3752 16.3278 13.3704 16.304C15.1792 16.1089 20.9609 15.1387 21.34 12.5574C21.5375 10.6274 19.2364 7.65338 18.1069 6.06879C16.6509 4.21263 14.0576 0.705968 12.4805 1.01972L12.4647 1.025V1.02236Z" fill="#FFC783" stroke="#775026" stroke-width="0.480159" stroke-miterlimit="10" stroke-linecap="round"/>
<path d="M32.6431 1.02236C34.2043 1.5154 34.7941 6.0767 35.16 8.44699C35.368 10.3612 35.8841 13.8256 34.8257 15.397C33.9595 16.486 32.7326 16.3278 31.7374 16.304C29.9286 16.1089 24.1469 15.1387 23.7678 12.5574C23.5703 10.6274 25.8714 7.65338 27.0009 6.06879C28.4569 4.21263 31.0502 0.705968 32.6273 1.01972L32.6431 1.025V1.02236Z" fill="#FFC783" stroke="#775026" stroke-width="0.480159" stroke-miterlimit="10" stroke-linecap="round"/>
<path d="M12.1439 1.34399C12.1439 1.34399 18.4074 9.13248 13.9158 14.113C9.42418 19.0935 9.33203 13.3273 9.33203 13.3273C9.33203 13.3273 9.88756 2.39072 12.1413 1.34399H12.1439Z" fill="#FFF2E3" stroke="#775026" stroke-width="0.480159" stroke-miterlimit="10" stroke-linecap="round"/>
<path d="M32.9434 1.34399C32.9434 1.34399 26.6799 9.13248 31.1715 14.113C35.6631 19.0935 35.7553 13.3273 35.7553 13.3273C35.7553 13.3273 35.1998 2.39072 32.9461 1.34399H32.9434Z" fill="#FFF2E3" stroke="#775026" stroke-width="0.480159" stroke-miterlimit="10" stroke-linecap="round"/>
<path d="M43.3823 32.7036C44.2327 31.6885 44.1905 30.2252 43.3454 29.2575C43.3954 29.1863 43.4454 29.1125 43.4902 29.0361C44.151 27.8891 43.8562 26.4548 42.8557 25.648C42.8925 25.5689 42.9268 25.4872 42.9584 25.4028C43.4112 24.1584 42.8715 22.7953 41.7473 22.1783C41.771 22.0939 41.792 22.0069 41.8052 21.9199C42.0342 20.6148 41.2681 19.3677 40.0517 18.9537C40.0596 18.8667 40.0649 18.7797 40.0649 18.6901C40.0649 17.3639 39.0934 16.2697 37.8244 16.0746C37.8165 15.9876 37.8059 15.9006 37.7928 15.8109C37.5637 14.5058 36.4158 13.5962 35.1336 13.6252C35.1126 13.5408 35.0862 13.4565 35.0546 13.3721C34.6018 12.1276 33.3143 11.4316 32.0558 11.682C32.019 11.6029 31.9795 11.5238 31.9347 11.4474C31.2739 10.3005 29.8838 9.83906 28.6885 10.3031C28.6384 10.2319 28.5858 10.1607 28.5279 10.0922C27.6775 9.07709 26.2294 8.86352 25.1315 9.53058C25.071 9.4673 25.0051 9.40666 24.9367 9.35129C23.923 8.49967 22.4618 8.54186 21.4956 9.3882C21.4245 9.33811 21.3508 9.28801 21.2744 9.24319C20.1291 8.58141 18.6969 8.87671 17.8912 9.87861C17.8123 9.8417 17.7306 9.80742 17.6464 9.77578C16.4037 9.32229 15.0425 9.86279 14.4264 10.9886C14.3422 10.9649 14.2553 10.9438 14.1684 10.9306C12.8652 10.7012 11.6198 11.4685 11.2065 12.6866C11.1196 12.6787 11.0327 12.6734 10.9432 12.6734C9.6189 12.6734 8.52628 13.6463 8.33145 14.9171C8.24456 14.925 8.15768 14.9356 8.06817 14.9488C6.76492 15.1782 5.85659 16.3277 5.88555 17.6117C5.8013 17.6328 5.71705 17.6592 5.6328 17.6908C4.39011 18.1443 3.69504 19.4336 3.94516 20.6939C3.86617 20.7308 3.78719 20.7704 3.71084 20.8152C2.56556 21.477 2.10482 22.8691 2.56819 24.0661C2.49711 24.1162 2.42602 24.1689 2.35757 24.2269C1.34393 25.0785 1.13067 26.5287 1.79678 27.6281C1.73359 27.6888 1.67303 27.7547 1.61774 27.8232C0.76734 28.8383 0.809465 30.3016 1.6546 31.2693C1.60458 31.3404 1.55455 31.4143 1.5098 31.4907C0.848956 32.6376 1.14383 34.0719 2.14431 34.8787C2.10745 34.9578 2.07322 35.0396 2.04163 35.1239C1.58878 36.3684 2.12851 37.7315 3.25273 38.3485C3.22903 38.4329 3.20797 38.5199 3.19481 38.6069C2.96575 39.912 3.7319 41.1591 4.94827 41.573C4.94037 41.6601 4.9351 41.7471 4.9351 41.8367C4.9351 43.1629 5.90662 44.2571 7.17564 44.4522C7.18354 44.5392 7.19407 44.6262 7.20723 44.7159C7.43629 46.021 8.5842 46.9306 9.86639 46.9016C9.88745 46.986 9.91378 47.0703 9.94537 47.1547C10.3982 48.3992 11.6857 49.0952 12.9442 48.8448C12.981 48.9239 13.0205 49.003 13.0653 49.0794C13.7261 50.2263 15.1162 50.6877 16.3115 50.2237C16.3616 50.2949 16.4142 50.3661 16.4721 50.4346C17.3225 51.4497 18.7706 51.6633 19.8685 50.9962C19.929 51.0595 19.9949 51.1201 20.0633 51.1755C21.077 52.0271 22.5382 51.9849 23.5044 51.1386C23.5755 51.1887 23.6492 51.2388 23.7256 51.2836C24.8709 51.9454 26.3031 51.6501 27.1088 50.6482C27.1877 50.6851 27.2694 50.7194 27.3536 50.751C28.5963 51.2045 29.9575 50.664 30.5736 49.5382C30.6578 49.5619 30.7447 49.583 30.8316 49.5962C32.1348 49.8256 33.3802 49.0583 33.7935 47.8402C33.8804 47.8481 33.9673 47.8534 34.0568 47.8534C35.3811 47.8534 36.4737 46.8805 36.6685 45.6097C36.7554 45.6018 36.8423 45.5912 36.9318 45.578C38.2351 45.3486 39.1434 44.1991 39.1144 42.9151C39.1987 42.894 39.2829 42.8676 39.3672 42.836C40.6099 42.3825 41.305 41.0932 41.0548 39.8329C41.1338 39.796 41.2128 39.7564 41.2892 39.7116C42.4344 39.0498 42.8952 37.6577 42.4318 36.4607C42.5029 36.4106 42.574 36.3579 42.6424 36.2999C43.6561 35.4482 43.8693 33.9981 43.2032 32.8987C43.2664 32.838 43.327 32.7721 43.3823 32.7036Z" fill="white" stroke="#B8B8B8" stroke-width="0.480159" stroke-miterlimit="10" stroke-linecap="round"/>
<path d="M22.5802 49.9391C33.3898 49.9391 42.1527 41.1637 42.1527 30.3387C42.1527 19.5137 33.3898 10.7383 22.5802 10.7383C11.7707 10.7383 3.00781 19.5137 3.00781 30.3387C3.00781 41.1637 11.7707 49.9391 22.5802 49.9391Z" fill="white" stroke="#B8B8B8" stroke-width="0.480159" stroke-miterlimit="10" stroke-linecap="round"/>
<path d="M22.5409 45.1193C30.6706 45.1193 37.2611 38.5195 37.2611 30.3781C37.2611 22.2368 30.6706 15.637 22.5409 15.637C14.4112 15.637 7.8208 22.2368 7.8208 30.3781C7.8208 38.5195 14.4112 45.1193 22.5409 45.1193Z" fill="#FFC783" stroke="#775026" stroke-width="0.480159" stroke-miterlimit="10" stroke-linecap="round"/>
<path d="M13.3574 31.6225C14.8188 31.6225 16.0034 31.083 16.0034 30.4176C16.0034 29.7521 14.8188 29.2126 13.3574 29.2126C11.8961 29.2126 10.7114 29.7521 10.7114 30.4176C10.7114 31.083 11.8961 31.6225 13.3574 31.6225Z" fill="#FFC0C0" stroke="#D88080" stroke-width="0.480159" stroke-miterlimit="10"/>
<path d="M31.645 31.6225C33.1063 31.6225 34.291 31.083 34.291 30.4176C34.291 29.7521 33.1063 29.2126 31.645 29.2126C30.1837 29.2126 28.999 29.7521 28.999 30.4176C28.999 31.083 30.1837 31.6225 31.645 31.6225Z" fill="#FFC0C0" stroke="#D88080" stroke-width="0.480159" stroke-miterlimit="10"/>
<path d="M17.0092 26.3942C18.3862 26.1542 19.5473 26.932 19.9106 28.0579C20.0607 28.5245 20.1686 28.7276 20.037 28.8067C19.8395 28.9279 19.4472 28.1 18.3177 27.665C17.0513 27.1772 15.4453 27.9366 14.9082 27.8311C14.5054 27.7494 15.5533 26.6499 17.0066 26.3942H17.0092Z" fill="black" stroke="black" stroke-width="0.480159" stroke-miterlimit="10" stroke-linecap="round"/>
<path d="M27.8565 26.3942C26.4796 26.1542 25.3185 26.932 24.9552 28.0579C24.8051 28.5245 24.6971 28.7276 24.8288 28.8067C25.0262 28.9279 25.4185 28.1 26.548 27.665C27.8144 27.1772 29.4204 27.9366 29.9575 27.8311C30.3604 27.7494 29.3125 26.6499 27.8592 26.3942H27.8565Z" fill="black" stroke="black" stroke-width="0.480159" stroke-miterlimit="10" stroke-linecap="round"/>
<path d="M22.572 31.4617C21.9954 31.4643 20.7764 31.2508 21.2266 30.5099C21.8111 29.7084 23.841 29.885 24.0174 30.792C23.9806 31.3852 23.1144 31.438 22.6141 31.4617H22.572Z" fill="black" stroke="black" stroke-width="0.480159" stroke-miterlimit="10" stroke-linecap="round"/>
</svg>
