<svg width="162" height="153" viewBox="0 0 162 153" fill="none" xmlns="http://www.w3.org/2000/svg">
<rect width="128.518" height="128.518" transform="translate(17.4473 11.2983)" fill="#254434"/>
<rect x="99.3599" y="118.632" width="33.8947" height="33.8947" rx="16.9474" transform="rotate(90 99.3599 118.632)" fill="#254434"/>
<rect x="129.018" y="118.632" width="33.8947" height="33.8947" rx="16.9474" transform="rotate(90 129.018 118.632)" fill="#254434"/>
<rect x="66.877" y="118.632" width="33.8947" height="33.8947" rx="16.9474" transform="rotate(90 66.877 118.632)" fill="#254434"/>
<rect x="0.5" y="57.9036" width="33.8947" height="33.8947" rx="16.9474" fill="#254434"/>
<rect x="0.5" y="28.2456" width="33.8947" height="33.8947" rx="16.9474" fill="#254434"/>
<rect x="0.5" y="90.386" width="33.8947" height="33.8947" rx="16.9474" fill="#254434"/>
<rect x="127.605" y="57.9036" width="33.8947" height="33.8947" rx="16.9474" fill="#254434"/>
<rect x="127.605" y="28.2456" width="33.8947" height="33.8947" rx="16.9474" fill="#254434"/>
<rect x="127.605" y="118.632" width="33.8947" height="33.8947" rx="16.9474" fill="#254434"/>
<rect x="127.605" y="90.386" width="33.8947" height="33.8947" rx="16.9474" fill="#254434"/>
<rect x="100.772" width="33.8947" height="33.8947" rx="16.9474" transform="rotate(90 100.772 0)" fill="#254434"/>
<rect x="130.43" width="33.8947" height="33.8947" rx="16.9474" transform="rotate(90 130.43 0)" fill="#254434"/>
<rect x="68.2896" width="33.8947" height="33.8947" rx="16.9474" transform="rotate(90 68.2896 0)" fill="#254434"/>
<rect x="0.5" y="118.632" width="33.8947" height="33.8947" rx="16.9474" fill="#254434"/>
<rect x="0.5" width="33.8947" height="33.8947" rx="16.9474" fill="#254434"/>
<rect x="127.605" width="33.8947" height="33.8947" rx="16.9474" fill="#254434"/>
</svg>
