<svg width="128" height="119" viewBox="0 0 128 119" fill="none" xmlns="http://www.w3.org/2000/svg">
<path d="M56.7221 45.2505C57.3138 44.712 55.2264 39.1423 50.8497 38.6206C47.8874 38.2683 44.5572 40.3077 44.0899 42.4633C43.9089 43.2983 43.8915 45.2523 46.1425 45.2948C47.7397 45.3249 48.4078 43.4036 50.5821 42.921C53.684 42.2321 56.2015 45.7238 56.7221 45.2505Z" fill="#FFE49F" stroke="#EDCE89" stroke-miterlimit="10" stroke-linecap="round"/>
<path d="M59.8983 45.742C61.1836 45.8837 63.1056 38.0321 61.9398 33.6501C61.8276 33.2327 61.5473 32.4393 60.6968 31.4714C59.9026 30.5664 57.8346 29.3165 56.1377 30.062C54.9325 30.5924 54.3638 31.9426 54.5104 33.0315C54.6877 34.3274 55.8661 35.1315 56.4787 35.6424C60.6185 39.0899 58.7224 45.6117 59.8963 45.7426L59.8983 45.742Z" fill="#FFE49F" stroke="#EDCE89" stroke-miterlimit="10" stroke-linecap="round"/>
<path d="M78.9952 56.7435C79.433 55.786 79.093 54.6717 78.2423 54.1064C78.2656 54.0412 78.2884 53.9741 78.3066 53.906C78.5716 52.887 78.0441 51.8481 77.1082 51.4388C77.1198 51.3703 77.1288 51.3004 77.1353 51.229C77.2204 50.1788 76.5204 49.2459 75.5297 49.0082C75.5301 48.9385 75.5279 48.8673 75.5197 48.7978C75.4207 47.748 74.5716 46.9516 73.553 46.8891C73.5407 46.8207 73.5265 46.7528 73.5076 46.684C73.2287 45.6661 72.2546 45.0302 71.2417 45.1467C71.2173 45.0816 71.1909 45.017 71.162 44.951C70.7121 43.9973 69.6417 43.5401 68.6658 43.8314C68.6319 43.771 68.594 43.7118 68.5521 43.6537C67.9436 42.7935 66.8112 42.5295 65.9 42.9858C65.8551 42.9328 65.8082 42.8804 65.7579 42.8311C65.0106 42.0895 63.8489 42.027 63.031 42.634C62.9777 42.5899 62.9224 42.5463 62.8637 42.5058C61.9989 41.9052 60.845 42.0451 60.1444 42.7875C60.0847 42.7516 60.0215 42.7189 59.9575 42.6908C59.0021 42.2498 57.8918 42.5888 57.3298 43.4412C57.2648 43.4176 57.1978 43.3947 57.1299 43.3763C56.1136 43.1087 55.0788 43.6358 54.6724 44.5739C54.6042 44.5621 54.5345 44.5529 54.4633 44.5463C53.4162 44.459 52.4873 45.1595 52.2522 46.1529C52.1827 46.1523 52.1118 46.1544 52.0424 46.1625C50.9961 46.2599 50.2037 47.1101 50.1432 48.1318C50.075 48.1439 50.0074 48.1581 49.9388 48.1769C48.9246 48.4548 48.2923 49.4308 48.4104 50.4471C48.3455 50.4714 48.2812 50.4977 48.2154 50.5266C47.2655 50.9761 46.8116 52.049 47.1038 53.0285C47.0437 53.0623 46.9847 53.1002 46.9268 53.1422C46.0704 53.751 45.8092 54.8864 46.2658 55.8012C46.2131 55.8461 46.1609 55.8931 46.1118 55.9435C45.3739 56.6918 45.3137 57.8569 45.9204 58.6784C45.8764 58.7318 45.8331 58.7872 45.7929 58.8461C45.1956 59.7124 45.3372 60.8701 46.0786 61.5742C46.043 61.634 46.0104 61.6973 45.9825 61.7615C45.5447 62.7191 45.8846 63.8334 46.7354 64.3987C46.7121 64.4638 46.6893 64.531 46.6711 64.5991C46.4061 65.618 46.9336 66.657 47.8695 67.0663C47.8579 67.1347 47.8489 67.2046 47.8424 67.276C47.7573 68.3262 48.4573 69.2592 49.448 69.4968C49.4476 69.5665 49.4498 69.6377 49.458 69.7073C49.557 70.757 50.4061 71.5534 51.4247 71.6159C51.4369 71.6844 51.4512 71.7522 51.4701 71.821C51.7489 72.8389 52.7231 73.4749 53.736 73.3583C53.7604 73.4235 53.7867 73.488 53.8157 73.5541C54.2656 74.5077 55.336 74.965 56.3119 74.6737C56.3458 74.734 56.3837 74.7932 56.4256 74.8514C57.0341 75.7115 58.1665 75.9756 59.0777 75.5193C59.1226 75.5722 59.1695 75.6247 59.2198 75.674C59.9671 76.4156 61.1288 76.478 61.9467 75.871C62 75.9152 62.0553 75.9587 62.114 75.9992C62.9788 76.5999 64.1327 76.4599 64.8333 75.7176C64.893 75.7534 64.9562 75.7861 65.0202 75.8143C65.9756 76.2552 67.0859 75.9162 67.6479 75.0639C67.7129 75.0874 67.7799 75.1104 67.8478 75.1288C68.8641 75.3964 69.8989 74.8692 70.3053 73.9312C70.3735 73.9429 70.4432 73.9521 70.5144 73.9587C71.5615 74.046 72.4904 73.3455 72.7254 72.3522C72.795 72.3527 72.8659 72.3507 72.9353 72.3425C73.9816 72.2451 74.774 71.3949 74.8345 70.3733C74.9027 70.3611 74.9703 70.3469 75.0389 70.3281C76.0531 70.0503 76.6854 69.0743 76.5673 68.058C76.6322 68.0337 76.6965 68.0074 76.7623 67.9785C77.7122 67.5289 78.1661 66.456 77.8739 65.4766C77.934 65.4427 77.993 65.4048 78.0509 65.3628C78.9073 64.754 79.1685 63.6186 78.7119 62.7038C78.7646 62.6589 78.8168 62.612 78.8658 62.5615C79.6038 61.8133 79.664 60.6481 79.0573 59.8266C79.1013 59.7733 79.1446 59.7179 79.1848 59.659C79.7821 58.7927 79.6405 57.6349 78.8991 56.9308C78.9347 56.871 78.9673 56.8077 78.9952 56.7435Z" fill="white" stroke="#B8B8B8" stroke-miterlimit="10" stroke-linecap="round"/>
<path d="M66.6878 74.3368C74.9666 72.0686 79.8325 63.4945 77.5562 55.1861C75.2798 46.8777 66.7231 41.9812 58.4444 44.2494C50.1656 46.5177 45.2997 55.0917 47.5761 63.4001C49.8525 71.7085 58.4091 76.6051 66.6878 74.3368Z" fill="white" stroke="#B8B8B8" stroke-miterlimit="10" stroke-linecap="round"/>
<path d="M65.6442 70.6459C71.8706 68.94 75.5301 62.4915 73.8181 56.2429C72.1061 49.9943 65.6708 46.3117 59.4444 48.0176C53.2181 49.7235 49.5585 56.172 51.2706 62.4206C52.9826 68.6692 59.4179 72.3518 65.6442 70.6459Z" fill="#FFE49F" stroke="#EDCE89" stroke-miterlimit="10" stroke-linecap="round"/>
<path d="M59.335 55.697C59.3251 55.7084 59.3222 55.7375 59.3186 55.7798C59.3237 55.996 59.2961 56.2515 59.208 56.3888C58.9562 56.8624 58.3298 56.451 58.1476 55.6677C58.0722 55.3925 58.0924 55.1259 58.1191 54.8988C58.1044 54.6396 57.6897 54.8903 57.6108 54.9424C56.2132 56.0367 57.6307 60.0233 59.2397 59.4715C59.9151 59.2386 60.2244 57.9465 59.8112 56.6521C59.7011 56.3211 59.5275 55.8618 59.3399 55.6913L59.3318 55.6935L59.335 55.697Z" fill="black"/>
<path d="M65.5998 53.9807C65.59 53.9921 65.5871 54.0212 65.5835 54.0635C65.5885 54.2796 65.561 54.5352 65.4729 54.6725C65.2211 55.1461 64.5946 54.7347 64.4125 53.9514C64.3371 53.6761 64.3573 53.4096 64.384 53.1825C64.3693 52.9233 63.9546 53.174 63.8757 53.2261C62.4781 54.3204 63.8955 58.307 65.5046 57.7552C66.18 57.5223 66.4893 56.2301 66.0761 54.9358C65.966 54.6048 65.7924 54.1455 65.6048 53.975L65.5967 53.9772L65.5998 53.9807Z" fill="black"/>
<path d="M55.7369 62.0912C56.8561 61.7846 57.6499 61.122 57.51 60.6112C57.37 60.1005 56.3493 59.935 55.2301 60.2416C54.1109 60.5483 53.3171 61.2109 53.457 61.7217C53.5969 62.2324 54.6177 62.3979 55.7369 62.0912Z" fill="#FFC0C0" stroke="#D88080" stroke-miterlimit="10"/>
<path d="M69.7449 58.2534C70.8641 57.9467 71.658 57.2841 71.518 56.7733C71.3781 56.2626 70.3574 56.0971 69.2382 56.4038C68.119 56.7104 67.3251 57.373 67.4651 57.8838C67.605 58.3945 68.6257 58.56 69.7449 58.2534Z" fill="#FFC0C0" stroke="#D88080" stroke-miterlimit="10"/>
<path d="M62.8185 59.7161C62.7914 59.6648 62.7704 59.6118 62.7549 59.5551C62.7126 59.5667 62.5492 59.6115 62.5069 59.6231C62.5218 59.6777 62.5308 59.734 62.5342 59.794C62.558 60.3792 62.0727 60.8472 61.2905 60.8962C61.5763 61.8839 62.5048 63.8246 63.7155 63.6387C64.6431 63.4955 64.7801 61.0997 64.5028 60.0879C64.4984 60.0717 64.492 60.056 64.4855 60.0404C63.8117 60.3425 63.0862 60.2106 62.8205 59.7156L62.8185 59.7161Z" fill="#FFA4A4" stroke="#7F2525" stroke-miterlimit="10"/>
<path d="M61.6711 59.4058C62.8529 59.7629 62.5514 59.8651 63.371 58.94L61.6711 59.4058Z" fill="#FF929F"/>
<path d="M61.6711 59.4058C62.8529 59.7629 62.5514 59.8651 63.371 58.94" stroke="#7F2525" stroke-miterlimit="10" stroke-linecap="round"/>
<path d="M39.6176 50.8655C42.2469 50.1451 43.7923 47.422 43.0693 44.7833C42.3464 42.1446 39.6288 40.5895 36.9995 41.3099C34.3702 42.0303 32.8248 44.7534 33.5478 47.3921C34.2708 50.0308 36.9883 51.5859 39.6176 50.8655Z" fill="#FFE49F" stroke="#EDCE89" stroke-miterlimit="10" stroke-linecap="round"/>
<path d="M78.0121 40.346C80.6414 39.6256 82.1868 36.9025 81.4639 34.2638C80.7409 31.6251 78.0233 30.07 75.3941 30.7904C72.7648 31.5107 71.2194 34.2338 71.9423 36.8725C72.6653 39.5112 75.3828 41.0663 78.0121 40.346Z" fill="#FFE49F" stroke="#EDCE89" stroke-miterlimit="10" stroke-linecap="round"/>
</svg>
