<svg width="152" height="51" viewBox="0 0 152 51" fill="none" xmlns="http://www.w3.org/2000/svg">
<path d="M84.2424 16.5619C84.9901 16.181 84.4222 9.96582 80.1399 8.22433C77.2411 7.04646 73.3073 8.18691 72.2373 10.2388C71.8229 11.0336 71.2637 13.0063 73.5288 13.6734C75.1361 14.1467 76.3443 12.3876 78.6773 12.5021C82.0059 12.665 83.5846 16.8965 84.2424 16.5619Z" fill="#FFE49F" stroke="#E2B249" stroke-width="0.835871" stroke-miterlimit="10" stroke-linecap="round"/>
<path d="M87.3185 17.9401C88.5793 18.4399 92.6994 11.027 92.7345 6.26928C92.7367 5.81574 92.6731 4.93509 92.0811 3.7198C91.5285 2.58376 89.7831 0.745403 87.8601 1.02941C86.494 1.23196 85.5446 2.44065 85.3911 3.5833C85.2113 4.9439 86.1805 6.08434 86.6585 6.77125C89.8906 11.4079 86.1651 17.4821 87.3163 17.9401H87.3185Z" fill="#FFE49F" stroke="#E2B249" stroke-width="0.835871" stroke-miterlimit="10" stroke-linecap="round"/>
<path d="M103.587 34.3686C104.295 33.521 104.26 32.2991 103.556 31.4911C103.598 31.4317 103.639 31.37 103.677 31.3062C104.227 30.3485 103.981 29.1508 103.148 28.4771C103.179 28.4111 103.207 28.3428 103.234 28.2723C103.611 27.2332 103.161 26.0949 102.225 25.5798C102.245 25.5093 102.262 25.4367 102.273 25.364C102.464 24.2742 101.826 23.2328 100.813 22.8872C100.819 22.8145 100.824 22.7419 100.824 22.667C100.824 21.5596 100.015 20.6459 98.9578 20.483C98.9512 20.4104 98.9425 20.3377 98.9315 20.2628C98.7407 19.173 97.7847 18.4135 96.7169 18.4377C96.6993 18.3672 96.6774 18.2968 96.6511 18.2263C96.2739 17.1872 95.2017 16.6059 94.1536 16.8151C94.1229 16.7491 94.09 16.683 94.0527 16.6192C93.5023 15.6614 92.3446 15.2762 91.3491 15.6637C91.3074 15.6042 91.2636 15.5448 91.2153 15.4875C90.5071 14.6399 89.3011 14.4616 88.3867 15.0186C88.3363 14.9657 88.2815 14.9151 88.2244 14.8689C87.3803 14.1577 86.1633 14.193 85.3586 14.8997C85.2994 14.8579 85.238 14.816 85.1744 14.7786C84.2205 14.226 83.0277 14.4726 82.3567 15.3092C82.291 15.2784 82.223 15.2497 82.1528 15.2233C81.1178 14.8446 79.9842 15.296 79.4711 16.2361C79.4009 16.2163 79.3286 16.1986 79.2562 16.1876C78.1708 15.9961 77.1337 16.6368 76.7894 17.6539C76.7171 17.6473 76.6447 17.6429 76.5702 17.6429C75.4672 17.6429 74.5572 18.4553 74.395 19.5165C74.3226 19.5231 74.2503 19.5319 74.1757 19.5429C73.0903 19.7345 72.3338 20.6944 72.3579 21.7666C72.2878 21.7842 72.2176 21.8062 72.1474 21.8326C71.1125 22.2113 70.5336 23.2879 70.7419 24.3402C70.6761 24.3711 70.6103 24.4041 70.5468 24.4415C69.5929 24.9941 69.2092 26.1566 69.5951 27.1561C69.5359 27.198 69.4767 27.242 69.4197 27.2904C68.5755 28.0016 68.3979 29.2124 68.9526 30.1305C68.9 30.1812 68.8496 30.2362 68.8035 30.2934C68.0953 31.1411 68.1304 32.363 68.8342 33.171C68.7926 33.2304 68.7509 33.2921 68.7136 33.3559C68.1633 34.3136 68.4089 35.5113 69.2421 36.185C69.2114 36.251 69.1829 36.3193 69.1566 36.3897C68.7794 37.4289 69.2289 38.5671 70.1652 39.0823C70.1455 39.1528 70.1279 39.2254 70.117 39.2981C69.9262 40.3879 70.5643 41.4293 71.5773 41.7749C71.5708 41.8476 71.5664 41.9202 71.5664 41.9951C71.5664 43.1025 72.3755 44.0162 73.4324 44.1791C73.4389 44.2517 73.4477 44.3244 73.4587 44.3992C73.6494 45.489 74.6055 46.2486 75.6733 46.2244C75.6909 46.2948 75.7128 46.3653 75.7391 46.4357C76.1163 47.4749 77.1885 48.0561 78.2366 47.847C78.2673 47.913 78.3002 47.9791 78.3375 48.0429C78.8879 49.0006 80.0456 49.3859 81.0411 48.9984C81.0828 49.0579 81.1266 49.1173 81.1749 49.1746C81.8831 50.0222 83.0891 50.2005 84.0035 49.6435C84.0539 49.6964 84.1087 49.747 84.1657 49.7932C85.0099 50.5043 86.2269 50.4691 87.0316 49.7624C87.0908 49.8042 87.1522 49.8461 87.2158 49.8835C88.1696 50.4361 89.3625 50.1895 90.0334 49.3529C90.0992 49.3837 90.1672 49.4123 90.2374 49.4388C91.2723 49.8174 92.406 49.3661 92.9191 48.426C92.9892 48.4458 93.0616 48.4634 93.1339 48.4745C94.2193 48.666 95.2565 48.0253 95.6008 47.0082C95.6731 47.0148 95.7455 47.0192 95.82 47.0192C96.923 47.0192 97.8329 46.2068 97.9952 45.1456C98.0676 45.139 98.1399 45.1302 98.2145 45.1192C99.2999 44.9276 100.056 43.9677 100.032 42.8955C100.102 42.8779 100.173 42.8559 100.243 42.8295C101.278 42.4508 101.857 41.3742 101.648 40.3218C101.714 40.291 101.78 40.258 101.843 40.2206C102.797 39.668 103.181 38.5055 102.795 37.506C102.854 37.4641 102.913 37.4201 102.97 37.3717C103.815 36.6605 103.992 35.4496 103.438 34.5316C103.49 34.4809 103.541 34.4259 103.587 34.3686Z" fill="white" stroke="#B8B8B8" stroke-width="0.835871" stroke-miterlimit="10" stroke-linecap="round"/>
<path d="M86.2621 48.7606C95.2647 48.7606 102.563 41.4329 102.563 32.3937C102.563 23.3546 95.2647 16.0269 86.2621 16.0269C77.2595 16.0269 69.9614 23.3546 69.9614 32.3937C69.9614 41.4329 77.2595 48.7606 86.2621 48.7606Z" fill="white" stroke="#B8B8B8" stroke-width="0.835871" stroke-miterlimit="10" stroke-linecap="round"/>
<path d="M86.2292 44.7362C92.9999 44.7362 98.4887 39.2252 98.4887 32.427C98.4887 25.6287 92.9999 20.1177 86.2292 20.1177C79.4585 20.1177 73.9697 25.6287 73.9697 32.427C73.9697 39.2252 79.4585 44.7362 86.2292 44.7362Z" fill="#FFE49F" stroke="#E2B249" stroke-width="0.835871" stroke-miterlimit="10" stroke-linecap="round"/>
<path d="M83.9902 27.8585C83.9771 27.8673 83.9661 27.8959 83.9507 27.9378C83.8959 28.1579 83.7973 28.4089 83.6701 28.5234C83.2842 28.9329 82.7645 28.3428 82.7974 27.4996C82.7974 27.2002 82.8917 26.936 82.9816 26.7136C83.0386 26.4472 82.5496 26.586 82.4553 26.6168C80.7384 27.3367 81.0673 31.7642 82.8478 31.6519C83.5955 31.6035 84.2665 30.3816 84.2073 28.9571C84.1876 28.5916 84.1393 28.0787 83.9968 27.8541H83.988L83.9902 27.8585Z" fill="black"/>
<path d="M90.8032 27.8585C90.7901 27.8673 90.7791 27.8959 90.7637 27.9378C90.7089 28.1579 90.6102 28.4089 90.4831 28.5234C90.0971 28.9329 89.5775 28.3428 89.6104 27.4996C89.6104 27.2002 89.7047 26.936 89.7946 26.7136C89.8516 26.4472 89.3626 26.586 89.2683 26.6168C87.5514 27.3367 87.8803 31.7642 89.6608 31.6519C90.4085 31.6035 91.0795 30.3816 91.0203 28.9571C91.0005 28.5916 90.9523 28.0787 90.8098 27.8541H90.801L90.8032 27.8585Z" fill="black"/>
<path d="M78.5787 33.3316C79.7957 33.3316 80.7824 32.8812 80.7824 32.3255C80.7824 31.7698 79.7957 31.3193 78.5787 31.3193C77.3616 31.3193 76.375 31.7698 76.375 32.3255C76.375 32.8812 77.3616 33.3316 78.5787 33.3316Z" fill="#FFC0C0" stroke="#D88080" stroke-width="0.835871" stroke-miterlimit="10"/>
<path d="M93.8116 33.3316C95.0287 33.3316 96.0153 32.8812 96.0153 32.3255C96.0153 31.7698 95.0287 31.3193 93.8116 31.3193C92.5945 31.3193 91.6079 31.7698 91.6079 32.3255C91.6079 32.8812 92.5945 33.3316 93.8116 33.3316Z" fill="#FFC0C0" stroke="#D88080" stroke-width="0.835871" stroke-miterlimit="10"/>
<path d="M86.3999 32.8915C86.3868 32.832 86.3802 32.7726 86.3802 32.7109C86.3341 32.7109 86.1565 32.7109 86.1105 32.7109C86.1105 32.7704 86.1039 32.8298 86.0908 32.8915C85.9526 33.4903 85.3321 33.8294 84.5273 33.662C84.5427 34.7408 84.944 36.9623 86.2201 37.1098C87.1981 37.2221 88.0006 34.8355 88.0006 33.7347C88.0006 33.7171 87.9984 33.6995 87.9962 33.6819C87.231 33.8007 86.5337 33.4661 86.4021 32.8915H86.3999Z" fill="#FFA4A4" stroke="#7F2525" stroke-width="0.835871" stroke-miterlimit="10"/>
<path d="M85.3257 32.2595C86.422 32.9486 86.0888 32.9684 87.1741 32.2595H85.3257Z" fill="#FF929F"/>
<path d="M85.3257 32.2595C86.422 32.9486 86.0888 32.9684 87.1741 32.2595" stroke="#7F2525" stroke-width="0.835871" stroke-miterlimit="10" stroke-linecap="round"/>
<path d="M4 23.78C4.45333 24.6333 4.95333 25.2533 5.5 25.64C6.04667 26.0267 6.60667 26.22 7.18 26.22C8.08667 26.22 8.76667 26.0333 9.22 25.66C9.68667 25.2733 9.92 24.7533 9.92 24.1C9.92 23.7 9.79333 23.36 9.54 23.08C9.28667 22.8 8.96667 22.5733 8.58 22.4C8.20667 22.2133 7.68 22 7 21.76C6.06667 21.4267 5.3 21.1067 4.7 20.8C4.11333 20.48 3.60667 20.0333 3.18 19.46C2.76667 18.8733 2.56 18.12 2.56 17.2C2.56 16.3733 2.76667 15.6533 3.18 15.04C3.59333 14.4267 4.16667 13.96 4.9 13.64C5.63333 13.3067 6.47333 13.14 7.42 13.14C8.40667 13.14 9.34667 13.4333 10.24 14.02C11.1333 14.6067 11.8 15.4933 12.24 16.68L9.96 17.5C9.66667 16.74 9.3 16.1933 8.86 15.86C8.42 15.5267 7.95333 15.3533 7.46 15.34C6.74 15.34 6.17333 15.5133 5.76 15.86C5.34667 16.2067 5.14 16.6533 5.14 17.2C5.14 17.6 5.26667 17.9467 5.52 18.24C5.78667 18.52 6.11333 18.7533 6.5 18.94C6.88667 19.1267 7.42 19.3533 8.1 19.62C9.02 19.98 9.77333 20.32 10.36 20.64C10.9467 20.9467 11.4467 21.3867 11.86 21.96C12.2733 22.5333 12.48 23.2533 12.48 24.12C12.48 24.96 12.2667 25.7067 11.84 26.36C11.4133 27.0133 10.8 27.52 10 27.88C9.21333 28.24 8.28667 28.42 7.22 28.42C6.11333 28.42 5.10667 28.1267 4.2 27.54C3.30667 26.94 2.54 26.0867 1.9 24.98L4 23.78ZM21.6414 28.42C20.2147 28.42 18.9414 28.1 17.8214 27.46C16.7014 26.8067 15.8281 25.9 15.2014 24.74C14.5747 23.58 14.2614 22.26 14.2614 20.78C14.2614 19.3 14.5681 17.98 15.1814 16.82C15.8081 15.66 16.6747 14.76 17.7814 14.12C18.9014 13.4667 20.1747 13.14 21.6014 13.14C22.6147 13.14 23.5747 13.3333 24.4814 13.72C25.3881 14.1067 26.1747 14.6533 26.8414 15.36L25.1814 17.12C24.7681 16.5867 24.2414 16.1667 23.6014 15.86C22.9747 15.54 22.3147 15.38 21.6214 15.38C20.6614 15.38 19.8214 15.6067 19.1014 16.06C18.3814 16.5 17.8214 17.1267 17.4214 17.94C17.0347 18.7533 16.8414 19.7 16.8414 20.78C16.8414 21.86 17.0347 22.8067 17.4214 23.62C17.8214 24.4333 18.3814 25.06 19.1014 25.5C19.8214 25.94 20.6614 26.16 21.6214 26.16C22.3547 26.16 23.0147 26.0067 23.6014 25.7C24.1881 25.3933 24.6747 24.9933 25.0614 24.5L26.8414 26.18C25.3747 27.6867 23.6414 28.4333 21.6414 28.42ZM42.3044 28.26H39.5644L38.1444 24.34H32.3644L30.8844 28.26H28.1444L33.7244 13.3H36.8444L42.3044 28.26ZM37.3244 22.12L35.2844 16.52L33.1844 22.12H37.3244ZM56.8581 28.26H53.9781L47.1181 17.64V28.26H44.5381V13.3H47.3981L54.2581 23.9V13.3H56.8581V28.26Z" fill="#254434"/>
<path d="M116.15 17.78V28.26H113.57V13.3H116.43L121.43 21.68L126.41 13.3H129.29V28.26H126.71V17.78L122.49 24.96H120.35L116.15 17.78ZM142.255 15.52H134.895V19.44H141.195V21.66H134.895V26.02H142.255V28.26H132.315V13.3H142.255V15.52ZM148.26 23.8H145.76L145.3 12.44H148.64L148.26 23.8ZM147.02 25.78C147.433 25.78 147.767 25.9133 148.02 26.18C148.287 26.4467 148.42 26.7867 148.42 27.2C148.42 27.6133 148.287 27.9533 148.02 28.22C147.767 28.4867 147.433 28.62 147.02 28.62C146.607 28.62 146.267 28.4867 146 28.22C145.733 27.9533 145.6 27.6133 145.6 27.2C145.6 26.7733 145.733 26.4333 146 26.18C146.267 25.9133 146.607 25.78 147.02 25.78Z" fill="#254434"/>
</svg>
