<svg width="311" height="27" viewBox="0 0 311 27" fill="none" xmlns="http://www.w3.org/2000/svg">
<circle cx="3.33655" cy="23.6163" r="3.33655" fill="#211D19" fill-opacity="0.48"/>
<path d="M3.19165 2L3.19165 23.47" stroke="#F8EFE8" stroke-width="3.77175" stroke-linecap="round"/>
<circle cx="20.6681" cy="23.6163" r="3.33655" fill="#211D19" fill-opacity="0.48"/>
<path d="M20.5232 2L20.5232 23.47" stroke="#F8EFE8" stroke-width="3.77175" stroke-linecap="round"/>
<circle cx="38.0001" cy="23.6163" r="3.33655" fill="#211D19" fill-opacity="0.48"/>
<path d="M37.8552 2L37.8552 23.47" stroke="#F8EFE8" stroke-width="3.77175" stroke-linecap="round"/>
<circle cx="55.3317" cy="23.6163" r="3.33655" fill="#211D19" fill-opacity="0.48"/>
<path d="M55.1868 2L55.1868 23.47" stroke="#F8EFE8" stroke-width="3.77175" stroke-linecap="round"/>
<circle cx="72.6637" cy="23.6163" r="3.33655" fill="#211D19" fill-opacity="0.48"/>
<path d="M72.5188 2L72.5188 23.47" stroke="#F8EFE8" stroke-width="3.77175" stroke-linecap="round"/>
<circle cx="238.337" cy="23.6163" r="3.33655" fill="#211D19" fill-opacity="0.48"/>
<path d="M238.192 2L238.192 23.47" stroke="#F8EFE8" stroke-width="3.77175" stroke-linecap="round"/>
<circle cx="255.668" cy="23.6163" r="3.33655" fill="#211D19" fill-opacity="0.48"/>
<path d="M255.523 2L255.523 23.47" stroke="#F8EFE8" stroke-width="3.77175" stroke-linecap="round"/>
<circle cx="273" cy="23.6163" r="3.33655" fill="#211D19" fill-opacity="0.48"/>
<path d="M272.855 2L272.855 23.47" stroke="#F8EFE8" stroke-width="3.77175" stroke-linecap="round"/>
<circle cx="290.332" cy="23.6163" r="3.33655" fill="#211D19" fill-opacity="0.48"/>
<path d="M290.187 2L290.187 23.47" stroke="#F8EFE8" stroke-width="3.77175" stroke-linecap="round"/>
<circle cx="307.664" cy="23.6163" r="3.33655" fill="#211D19" fill-opacity="0.48"/>
<path d="M307.519 2L307.519 23.47" stroke="#F8EFE8" stroke-width="3.77175" stroke-linecap="round"/>
</svg>
