<svg width="45" height="61" viewBox="0 0 45 61" fill="none" xmlns="http://www.w3.org/2000/svg">
<path d="M20.0862 19.6175C20.9808 19.1618 20.3013 11.7262 15.1781 9.64281C11.7101 8.23366 7.00396 9.59803 5.72381 12.0529C5.22801 13.0037 4.55907 15.3637 7.26891 16.1618C9.19177 16.7281 10.6372 14.6236 13.4284 14.7605C17.4105 14.9554 19.2993 20.0179 20.0862 19.6175Z" fill="#FFE49F" stroke="#E2B249" stroke-miterlimit="10" stroke-linecap="round"/>
<path d="M23.7667 21.2664C25.2751 21.8643 30.2042 12.9959 30.2462 7.30394C30.2488 6.76135 30.1727 5.70778 29.4645 4.25385C28.8034 2.89474 26.7153 0.695411 24.4147 1.03519C22.7804 1.27751 21.6445 2.72354 21.4608 4.09055C21.2457 5.71831 22.4052 7.08269 22.9771 7.90447C26.8438 13.4515 22.3869 20.7185 23.7641 21.2664H23.7667Z" fill="#FFE49F" stroke="#E2B249" stroke-miterlimit="10" stroke-linecap="round"/>
<path d="M43.2285 40.9208C44.0758 39.9068 44.0338 38.4449 43.1918 37.4783C43.2416 37.4072 43.2915 37.3334 43.3361 37.257C43.9945 36.1113 43.7007 34.6784 42.7038 33.8724C42.7406 33.7934 42.7747 33.7118 42.8062 33.6275C43.2574 32.3843 42.7196 31.0225 41.5994 30.4062C41.6231 30.3219 41.644 30.235 41.6572 30.1481C41.8854 28.8443 41.122 27.5984 39.9101 27.1849C39.9179 27.098 39.9232 27.011 39.9232 26.9215C39.9232 25.5966 38.9552 24.5036 37.6908 24.3086C37.6829 24.2217 37.6724 24.1348 37.6593 24.0452C37.4311 22.7415 36.2873 21.8327 35.0098 21.8617C34.9888 21.7774 34.9626 21.6931 34.9311 21.6089C34.4799 20.3656 33.1971 19.6703 31.9432 19.9205C31.9065 19.8415 31.8671 19.7625 31.8225 19.6861C31.1641 18.5403 29.779 18.0794 28.588 18.543C28.5382 18.4719 28.4857 18.4007 28.428 18.3323C27.5807 17.3182 26.1379 17.1048 25.044 17.7712C24.9836 17.708 24.918 17.6474 24.8498 17.5921C23.8399 16.7414 22.384 16.7835 21.4212 17.629C21.3504 17.579 21.2769 17.5289 21.2009 17.4841C20.0597 16.823 18.6327 17.118 17.83 18.1189C17.7513 18.082 17.6699 18.0478 17.586 18.0162C16.3478 17.5631 14.9916 18.1031 14.3777 19.2278C14.2938 19.2041 14.2072 19.183 14.1206 19.1698C12.8221 18.9407 11.5813 19.7072 11.1695 20.924C11.0829 20.9161 10.9963 20.9109 10.9071 20.9109C9.58763 20.9109 8.49897 21.8828 8.30485 23.1523C8.21828 23.1602 8.13171 23.1708 8.04252 23.184C6.744 23.4131 5.83897 24.5615 5.86783 25.8442C5.78388 25.8653 5.69994 25.8916 5.61599 25.9232C4.37781 26.3763 3.68526 27.6643 3.93447 28.9233C3.85578 28.9602 3.77708 28.9997 3.701 29.0444C2.55988 29.7056 2.10081 31.0963 2.5625 32.2921C2.49168 32.3421 2.42085 32.3948 2.35264 32.4527C1.34268 33.3035 1.13019 34.7522 1.79388 35.8505C1.73092 35.9111 1.67059 35.9769 1.6155 36.0454C0.768184 37.0595 0.810156 38.5213 1.65223 39.488C1.60238 39.5591 1.55254 39.6328 1.50795 39.7092C0.849504 40.855 1.14331 42.2878 2.14016 43.0938C2.10343 43.1728 2.06933 43.2545 2.03785 43.3388C1.58665 44.582 2.12441 45.9437 3.24455 46.5601C3.22094 46.6444 3.19996 46.7313 3.18684 46.8182C2.95862 48.122 3.72199 49.3678 4.93394 49.7814C4.92607 49.8683 4.92082 49.9552 4.92082 50.0448C4.92082 51.3696 5.88882 52.4627 7.15323 52.6576C7.1611 52.7445 7.1716 52.8314 7.18471 52.921C7.41294 54.2248 8.55668 55.1335 9.83422 55.1045C9.8552 55.1888 9.88144 55.2731 9.91292 55.3574C10.3641 56.6006 11.6469 57.296 12.9008 57.0457C12.9376 57.1248 12.9769 57.2038 13.0215 57.2802C13.6799 58.4259 15.065 58.8869 16.256 58.4233C16.3058 58.4944 16.3583 58.5655 16.416 58.634C17.2633 59.6481 18.7061 59.8614 19.8 59.195C19.8604 59.2582 19.926 59.3188 19.9942 59.3741C21.0041 60.2249 22.46 60.1827 23.4228 59.3373C23.4936 59.3873 23.5671 59.4373 23.6431 59.4821C24.7843 60.1432 26.2113 59.8482 27.014 58.8473C27.0927 58.8842 27.1741 58.9185 27.258 58.9501C28.4962 59.4031 29.8524 58.8631 30.4663 57.7385C30.5502 57.7622 30.6368 57.7832 30.7234 57.7964C32.0219 58.0256 33.2627 57.2591 33.6745 56.0422C33.7611 56.0501 33.8477 56.0554 33.9369 56.0554C35.2564 56.0554 36.345 55.0835 36.5392 53.8139C36.6257 53.806 36.7123 53.7955 36.8015 53.7823C38.1 53.5532 39.005 52.4048 38.9762 51.122C39.0601 51.101 39.1441 51.0746 39.228 51.043C40.4662 50.59 41.1587 49.302 40.9095 48.043C40.9882 48.0061 41.0669 47.9666 41.143 47.9218C42.2841 47.2607 42.7432 45.87 42.2815 44.6742C42.3523 44.6241 42.4232 44.5714 42.4914 44.5135C43.5013 43.6627 43.7138 42.2141 43.0501 41.1157C43.1131 41.0552 43.1734 40.9893 43.2285 40.9208Z" fill="white" stroke="#B8B8B8" stroke-miterlimit="10" stroke-linecap="round"/>
<path d="M22.5019 58.1388C33.2722 58.1388 42.0033 49.3722 42.0033 38.5582C42.0033 27.7441 33.2722 18.9775 22.5019 18.9775C11.7316 18.9775 3.00049 27.7441 3.00049 38.5582C3.00049 49.3722 11.7316 58.1388 22.5019 58.1388Z" fill="white" stroke="#B8B8B8" stroke-miterlimit="10" stroke-linecap="round"/>
<path d="M22.4626 53.3239C30.5628 53.3239 37.1293 46.7307 37.1293 38.5976C37.1293 30.4645 30.5628 23.8713 22.4626 23.8713C14.3624 23.8713 7.7959 30.4645 7.7959 38.5976C7.7959 46.7307 14.3624 53.3239 22.4626 53.3239Z" fill="#FFE49F" stroke="#E2B249" stroke-miterlimit="10" stroke-linecap="round"/>
<path d="M19.7843 33.1324C19.7686 33.1429 19.7555 33.1771 19.7371 33.2272C19.6715 33.4906 19.5535 33.7908 19.4013 33.9278C18.9396 34.4177 18.3179 33.7118 18.3573 32.703C18.3573 32.3448 18.4701 32.0288 18.5776 31.7627C18.6458 31.444 18.0608 31.61 17.948 31.6468C15.894 32.5081 16.2875 37.805 18.4176 37.6706C19.3121 37.6127 20.1149 36.1508 20.044 34.4467C20.0204 34.0095 19.9627 33.3958 19.7922 33.1271H19.7817L19.7843 33.1324Z" fill="black"/>
<path d="M27.9347 33.1324C27.919 33.1429 27.9058 33.1771 27.8875 33.2272C27.8219 33.4906 27.7039 33.7908 27.5517 33.9278C27.09 34.4177 26.4683 33.7118 26.5076 32.703C26.5076 32.3448 26.6204 32.0288 26.728 31.7627C26.7962 31.444 26.2112 31.61 26.0984 31.6468C24.0444 32.5081 24.4379 37.805 26.568 37.6706C27.4625 37.6127 28.2652 36.1508 28.1944 34.4467C28.1708 34.0095 28.1131 33.3958 27.9426 33.1271H27.9321L27.9347 33.1324Z" fill="black"/>
<path d="M13.3102 39.6804C14.7663 39.6804 15.9466 39.1414 15.9466 38.4767C15.9466 37.8119 14.7663 37.2729 13.3102 37.2729C11.8542 37.2729 10.6738 37.8119 10.6738 38.4767C10.6738 39.1414 11.8542 39.6804 13.3102 39.6804Z" fill="#FFC0C0" stroke="#D88080" stroke-miterlimit="10"/>
<path d="M31.5343 39.6804C32.9904 39.6804 34.1707 39.1414 34.1707 38.4767C34.1707 37.8119 32.9904 37.2729 31.5343 37.2729C30.0783 37.2729 28.8979 37.8119 28.8979 38.4767C28.8979 39.1414 30.0783 39.6804 31.5343 39.6804Z" fill="#FFC0C0" stroke="#D88080" stroke-miterlimit="10"/>
<path d="M22.667 39.1535C22.6513 39.0824 22.6434 39.0113 22.6434 38.9375C22.5883 38.9375 22.3759 38.9375 22.3208 38.9375C22.3208 39.0086 22.3129 39.0797 22.2972 39.1535C22.1319 39.8699 21.3895 40.2755 20.4268 40.0754C20.4451 41.366 20.9252 44.0236 22.4519 44.2001C23.6219 44.3344 24.582 41.4792 24.582 40.1623C24.582 40.1412 24.5794 40.1201 24.5768 40.0991C23.6613 40.2413 22.8271 39.8409 22.6697 39.1535H22.667Z" fill="#FFA4A4" stroke="#7F2525" stroke-miterlimit="10"/>
<path d="M21.3818 38.3975C22.6935 39.2219 22.2947 39.2456 23.5933 38.3975H21.3818Z" fill="#FF929F"/>
<path d="M21.3818 38.3975C22.6935 39.2219 22.2947 39.2456 23.5933 38.3975" stroke="#7F2525" stroke-miterlimit="10" stroke-linecap="round"/>
</svg>
