<svg width="127" height="98" viewBox="0 0 127 98" fill="none" xmlns="http://www.w3.org/2000/svg">
<path d="M117.429 10.9438C110.737 9.92165 105.507 13.0398 103.573 14.2285C102.775 14.7223 96.7941 18.5008 95.8297 23.6805C95.4624 25.6444 96.088 26.3909 96.2373 26.5574C97.2533 27.6714 99.4459 27.1546 100.313 26.9709C108.32 25.2367 110.771 28.2916 116.614 25.7362C121.453 23.623 126.625 18.5295 125.58 15.0496C124.673 12.0463 119.421 11.2424 117.429 10.9381V10.9438Z" fill="#EFE8DC" stroke="#756238" stroke-width="1.40255" stroke-miterlimit="10" stroke-linecap="round"/>
<path d="M9.56984 10.944C16.2627 9.92189 21.4918 13.04 23.4262 14.2287C24.2241 14.7225 30.2051 18.501 31.1695 23.6807C31.5368 25.6446 30.9112 26.3911 30.7619 26.5576C29.7459 27.6717 27.5533 27.1549 26.6865 26.9711C18.6792 25.2369 16.2282 28.2918 10.3849 25.7365C5.5461 23.6233 0.374362 18.5298 1.41904 15.0499C2.32596 12.0466 7.57806 11.2426 9.56984 10.9383V10.944Z" fill="#EFE8DC" stroke="#756238" stroke-width="1.40255" stroke-miterlimit="10" stroke-linecap="round"/>
<path d="M3.83008 14.7628C13.789 13.5798 22.6286 16.7497 26.2161 23.1582C26.9852 24.5364 27.8118 26.5979 27.9668 29.4576" fill="#EFE8DC"/>
<path d="M3.83008 14.7628C13.789 13.5798 22.6286 16.7497 26.2161 23.1582C26.9852 24.5364 27.8118 26.5979 27.9668 29.4576" stroke="#756238" stroke-width="1.40255" stroke-miterlimit="10" stroke-linecap="round"/>
<path d="M122.745 14.7628C112.786 13.5798 103.947 16.7497 100.359 23.1582C99.5899 24.5364 98.7634 26.5979 98.6084 29.4576" fill="#EFE8DC"/>
<path d="M122.745 14.7628C112.786 13.5798 103.947 16.7497 100.359 23.1582C99.5899 24.5364 98.7634 26.5979 98.6084 29.4576" stroke="#756238" stroke-width="1.40255" stroke-miterlimit="10" stroke-linecap="round"/>
<path d="M108.985 54.2078C110.839 51.997 110.748 48.81 108.905 46.7025C109.014 46.5475 109.123 46.3867 109.221 46.2202C110.661 43.7222 110.019 40.5983 107.837 38.8412C107.918 38.6689 107.992 38.4909 108.061 38.3071C109.048 35.5967 107.872 32.6279 105.421 31.2842C105.472 31.1004 105.518 30.9109 105.547 30.7214C106.046 27.8789 104.376 25.1628 101.724 24.2612C101.741 24.0717 101.753 23.8822 101.753 23.687C101.753 20.7985 99.6349 18.4154 96.8682 17.9905C96.851 17.801 96.828 17.6115 96.7993 17.4162C96.2999 14.5738 93.7973 12.5926 91.0019 12.6558C90.956 12.472 90.8986 12.2883 90.8297 12.1045C89.8425 9.3941 87.0356 7.8781 84.2919 8.42363C84.2115 8.25136 84.1254 8.07909 84.0278 7.91256C82.5871 5.41461 79.5564 4.40969 76.9504 5.42036C76.8414 5.26531 76.7266 5.11026 76.6003 4.96096C74.7463 2.75014 71.5893 2.285 69.1957 3.73783C69.0637 3.60001 68.9202 3.46794 68.7709 3.34735C66.561 1.49255 63.3753 1.58443 61.2687 3.42774C61.1138 3.31863 60.953 3.20953 60.7866 3.11191C58.2897 1.67056 55.1671 2.31371 53.4107 4.49583C53.2385 4.41543 53.0605 4.34078 52.8769 4.27187C50.1676 3.28418 47.2 4.46137 45.8568 6.91338C45.6732 6.86169 45.4837 6.81576 45.2943 6.78704C42.453 6.28745 39.738 7.9585 38.8368 10.6115C38.6474 10.5943 38.458 10.5828 38.2628 10.5828C35.3756 10.5828 32.9935 12.7017 32.5687 15.4696C32.3793 15.4868 32.1899 15.5098 31.9947 15.5385C29.1534 16.0381 27.1731 18.5418 27.2363 21.3383C27.0526 21.3842 26.8689 21.4417 26.6852 21.5106C23.976 22.4983 22.4606 25.3063 23.0059 28.0512C22.8337 28.1316 22.6615 28.2177 22.495 28.3153C19.9981 29.7567 18.9936 32.7887 20.0039 35.3957C19.8489 35.5048 19.6939 35.6197 19.5447 35.746C17.3348 37.6008 16.8698 40.7591 18.3221 43.1537C18.1843 43.2858 18.0523 43.4294 17.9317 43.5787C16.0777 45.7895 16.1696 48.9765 18.0121 51.084C17.903 51.239 17.794 51.3998 17.6964 51.5663C16.2557 54.0643 16.8985 57.1882 19.0797 58.9453C18.9994 59.1176 18.9248 59.2956 18.8559 59.4794C17.8686 62.1898 19.0453 65.1586 21.4963 66.5023C21.4446 66.6861 21.3987 66.8756 21.37 67.0651C20.8706 69.9076 22.541 72.6238 25.1928 73.5253C25.1756 73.7148 25.1641 73.9043 25.1641 74.0996C25.1641 76.988 27.2822 79.3711 30.0489 79.796C30.0661 79.9855 30.0891 80.175 30.1178 80.3703C30.6171 83.2127 33.1198 85.1939 35.9152 85.1307C35.9611 85.3145 36.0185 85.4982 36.0874 85.682C37.0746 88.3924 39.8815 89.9084 42.6252 89.3629C42.7056 89.5351 42.7917 89.7074 42.8893 89.8739C44.33 92.3719 47.3607 93.3768 49.9667 92.3661C50.0757 92.5212 50.1905 92.6762 50.3168 92.8255C52.1708 95.0364 55.3278 95.5015 57.7214 94.0487C57.8534 94.1865 57.9969 94.3186 58.1462 94.4392C60.3561 96.294 63.5418 96.2021 65.6484 94.3588C65.8033 94.4679 65.9641 94.577 66.1305 94.6746C68.6274 96.1159 71.75 95.4728 73.5064 93.2907C73.6786 93.3711 73.8566 93.4457 74.0402 93.5146C76.7495 94.5023 79.7171 93.3251 81.0602 90.8731C81.2439 90.9248 81.4333 90.9707 81.6228 90.9995C84.4641 91.499 87.1791 89.828 88.0803 87.175C88.2697 87.1922 88.4591 87.2037 88.6543 87.2037C91.5415 87.2037 93.9236 85.0848 94.3484 82.3169C94.5378 82.2997 94.7272 82.2767 94.9224 82.248C97.7637 81.7484 99.7439 79.2447 99.6808 76.4482C99.8645 76.4023 100.048 76.3448 100.232 76.2759C102.941 75.2882 104.456 72.4802 103.911 69.7353C104.083 69.6549 104.256 69.5688 104.422 69.4712C106.919 68.0298 107.923 64.9978 106.913 62.3908C107.068 62.2817 107.223 62.1668 107.372 62.0405C109.582 60.1857 110.047 57.0274 108.595 54.6328C108.733 54.5007 108.865 54.3571 108.985 54.2078Z" fill="white" stroke="#B8B8B8" stroke-width="2.62791" stroke-miterlimit="10" stroke-linecap="round"/>
<path d="M63.6394 91.746C87.2061 91.746 106.311 72.6335 106.311 49.057C106.311 25.4805 87.2061 6.36792 63.6394 6.36792C40.0728 6.36792 20.9683 25.4805 20.9683 49.057C20.9683 72.6335 40.0728 91.746 63.6394 91.746Z" fill="white" stroke="#B8B8B8" stroke-width="2.62791" stroke-miterlimit="10" stroke-linecap="round"/>
<path d="M63.5479 81.249C81.272 81.249 95.6403 66.8747 95.6403 49.1432C95.6403 31.4116 81.272 17.0374 63.5479 17.0374C45.8238 17.0374 31.4556 31.4116 31.4556 49.1432C31.4556 66.8747 45.8238 81.249 63.5479 81.249Z" fill="#EFE8DC" stroke="#756238" stroke-width="1.40255" stroke-miterlimit="10" stroke-linecap="round"/>
<path d="M56.6248 39.1746C56.5903 39.1861 56.5616 39.2263 56.5272 39.2837C56.3837 39.5938 56.1254 39.9441 55.7982 40.1049C54.7937 40.6791 53.4334 39.8522 53.5195 38.6693C53.5195 38.2501 53.7663 37.8768 54.0016 37.5667C54.1509 37.1935 52.8766 37.3887 52.624 37.4289C48.1411 38.4396 48.9963 44.6586 53.6515 44.4978C55.6031 44.4289 57.3538 42.7177 57.1988 40.7136C57.1471 40.2025 57.0208 39.4789 56.6535 39.1631H56.6305L56.6248 39.1746Z" fill="black"/>
<path d="M76.8704 39.1746C76.836 39.1861 76.8072 39.2263 76.7728 39.2837C76.6293 39.5938 76.371 39.9441 76.0438 40.1049C75.0393 40.6791 73.679 39.8522 73.7651 38.6693C73.7651 38.2501 74.0119 37.8768 74.2472 37.5667C74.3965 37.1935 73.1222 37.3887 72.8696 37.4289C68.3867 38.4396 69.2419 44.6586 73.8971 44.4978C75.8487 44.4289 77.5994 42.7177 77.4444 40.7136C77.3927 40.2025 77.2664 39.4789 76.8991 39.1631H76.8761L76.8704 39.1746Z" fill="black"/>
<path d="M43.527 51.8533C46.713 51.8533 49.2957 50.6784 49.2957 49.229C49.2957 47.7797 46.713 46.6047 43.527 46.6047C40.341 46.6047 37.7583 47.7797 37.7583 49.229C37.7583 50.6784 40.341 51.8533 43.527 51.8533Z" fill="#FFC0C0" stroke="#D88080" stroke-width="1.40255" stroke-miterlimit="10"/>
<path d="M83.3971 51.8533C86.5831 51.8533 89.1658 50.6784 89.1658 49.229C89.1658 47.7797 86.5831 46.6047 83.3971 46.6047C80.2111 46.6047 77.6284 47.7797 77.6284 49.229C77.6284 50.6784 80.2111 51.8533 83.3971 51.8533Z" fill="#FFC0C0" stroke="#D88080" stroke-width="1.40255" stroke-miterlimit="10"/>
<path d="M63.623 48.7068C62.297 48.7241 60.9883 48.2876 59.8288 47.7364C59.2491 47.5124 58.6923 47.2138 58.1298 47.4435C57.2401 48.0522 57.8026 49.7864 58.6005 50.8832C60.8046 53.7372 65.6549 53.875 68.1231 51.3254C68.9497 50.5501 70.1321 48.1039 68.8693 47.5411C67.882 47.3401 66.757 48.2589 65.2818 48.5346C64.7595 48.6494 64.2314 48.7068 63.6976 48.7068H63.623Z" fill="black" stroke="white" stroke-width="1.40255" stroke-miterlimit="10" stroke-linecap="round"/>
<path d="M61.1885 54.8279L63.3754 57.1019L65.5623 54.8279" stroke="black" stroke-width="1.40255" stroke-miterlimit="10"/>
</svg>
