<svg width="67" height="67" viewBox="0 0 67 67" fill="none" xmlns="http://www.w3.org/2000/svg">
<path d="M65.0662 37.1985C66.3517 35.6656 66.288 33.4559 65.0105 31.9947C65.0861 31.8872 65.1617 31.7757 65.2294 31.6602C66.2283 29.9283 65.7826 27.7623 64.2702 26.544C64.326 26.4245 64.3777 26.3011 64.4254 26.1737C65.11 24.2944 64.2941 22.236 62.5947 21.3043C62.6305 21.1769 62.6624 21.0455 62.6823 20.9141C63.0285 18.9433 61.8704 17.06 60.0317 16.4349C60.0436 16.3035 60.0516 16.1721 60.0516 16.0367C60.0516 14.034 58.583 12.3817 56.6647 12.0871C56.6528 11.9557 56.6369 11.8243 56.617 11.6889C56.2707 9.71807 54.5355 8.34444 52.5973 8.38823C52.5655 8.26083 52.5257 8.13342 52.4779 8.00601C51.7934 6.12673 49.8472 5.07561 47.9449 5.45385C47.8892 5.33441 47.8295 5.21496 47.7618 5.0995C46.7629 3.36754 44.6615 2.67077 42.8547 3.37152C42.779 3.26402 42.6994 3.15652 42.6119 3.053C41.3264 1.52011 39.1375 1.1976 37.4779 2.20493C37.3863 2.10937 37.2868 2.0178 37.1834 1.93419C35.6511 0.648157 33.4423 0.711861 31.9817 1.98993C31.8742 1.91428 31.7628 1.83863 31.6474 1.77094C29.9161 0.771583 27.7511 1.21751 26.5333 2.73049C26.4139 2.67475 26.2905 2.62299 26.1631 2.57521C24.2846 1.89039 22.2271 2.7066 21.2958 4.40671C21.1684 4.37088 21.0371 4.33902 20.9058 4.31912C18.9357 3.97272 17.0533 5.13135 16.4284 6.97081C16.2971 6.95887 16.1657 6.9509 16.0304 6.9509C14.0286 6.9509 12.3769 8.42009 12.0824 10.3392C11.9511 10.3511 11.8198 10.3671 11.6844 10.387C9.71441 10.7334 8.34136 12.4693 8.38513 14.4083C8.25778 14.4402 8.13043 14.48 8.00307 14.5277C6.12458 15.2126 5.0739 17.1595 5.45199 19.0627C5.33259 19.1184 5.21319 19.1782 5.09778 19.2458C3.36654 20.2452 2.67007 22.3475 3.37052 24.1551C3.26307 24.2307 3.15561 24.3103 3.05213 24.3979C1.51989 25.684 1.19752 27.8738 2.20442 29.5341C2.10891 29.6257 2.01737 29.7252 1.9338 29.8287C0.648304 31.3616 0.711982 33.5714 1.98951 35.0326C1.9139 35.1401 1.83828 35.2516 1.77062 35.367C0.771678 37.099 1.21742 39.2649 2.72977 40.4833C2.67405 40.6027 2.62231 40.7262 2.57455 40.8536C1.89002 42.7329 2.70589 44.7913 4.40528 45.723C4.36946 45.8504 4.33762 45.9818 4.31772 46.1132C3.97148 48.084 5.12962 49.9673 6.96831 50.5924C6.95637 50.7238 6.94841 50.8552 6.94841 50.9905C6.94841 52.9932 8.41698 54.6456 10.3353 54.9402C10.3472 55.0716 10.3631 55.203 10.383 55.3384C10.7293 57.3092 12.4645 58.6828 14.4027 58.639C14.4345 58.7664 14.4743 58.8939 14.5221 59.0213C15.2066 60.9005 17.1528 61.9517 19.0551 61.5734C19.1108 61.6929 19.1705 61.8123 19.2382 61.9278C20.2371 63.6597 22.3385 64.3565 24.1454 63.6558C24.221 63.7633 24.3006 63.8708 24.3881 63.9743C25.6736 65.5072 27.8625 65.8297 29.5221 64.8223C29.6137 64.9179 29.7132 65.0095 29.8166 65.0931C31.3489 66.3791 33.5577 66.3154 35.0183 65.0373C35.1258 65.113 35.2372 65.1886 35.3526 65.2563C37.0839 66.2557 39.2489 65.8098 40.4667 64.2968C40.5861 64.3525 40.7095 64.4043 40.8369 64.4521C42.7154 65.1369 44.7729 64.3207 45.7042 62.6206C45.8316 62.6564 45.9629 62.6882 46.0942 62.7082C48.0643 63.0546 49.9467 61.8959 50.5716 60.0565C50.7029 60.0684 50.8342 60.0764 50.9696 60.0764C52.9714 60.0764 54.6231 58.6072 54.9176 56.6881C55.0489 56.6762 55.1803 56.6602 55.3156 56.6403C57.2856 56.2939 58.6586 54.558 58.6149 52.619C58.7422 52.5871 58.8696 52.5473 58.9969 52.4995C60.8754 51.8147 61.9261 49.8677 61.548 47.9646C61.6674 47.9088 61.7868 47.8491 61.9022 47.7814C63.6335 46.7821 64.3299 44.6798 63.6295 42.8722C63.7369 42.7966 63.8444 42.7169 63.9479 42.6293C65.4801 41.3433 65.8025 39.1535 64.7956 37.4932C64.8911 37.4016 64.9826 37.3021 65.0662 37.1985Z" fill="white" stroke="#B8B8B8" stroke-width="1.52" stroke-miterlimit="10" stroke-linecap="round"/>
<path d="M33.6253 63.2258C49.9653 63.2258 63.2115 49.9741 63.2115 33.6272C63.2115 17.2803 49.9653 4.02856 33.6253 4.02856C17.2853 4.02856 4.03906 17.2803 4.03906 33.6272C4.03906 49.9741 17.2853 63.2258 33.6253 63.2258Z" fill="white" stroke="#B8B8B8" stroke-width="1.52" stroke-miterlimit="10" stroke-linecap="round"/>
<path d="M33.5624 55.9474C45.8515 55.9474 55.8138 45.981 55.8138 33.6867C55.8138 21.3925 45.8515 11.426 33.5624 11.426C21.2733 11.426 11.311 21.3925 11.311 33.6867C11.311 45.981 21.2733 55.9474 33.5624 55.9474Z" fill="#EFE8DC" stroke="#756238" stroke-width="0.807114" stroke-miterlimit="10" stroke-linecap="round"/>
<path d="M28.7612 26.775C28.7373 26.783 28.7174 26.8108 28.6935 26.8507C28.594 27.0657 28.4149 27.3085 28.1881 27.42C27.4916 27.8182 26.5484 27.2448 26.6081 26.4246C26.6081 26.134 26.7792 25.8752 26.9424 25.6602C27.0459 25.4014 26.1623 25.5367 25.9872 25.5646C22.879 26.2654 23.472 30.5774 26.6996 30.4659C28.0528 30.4181 29.2666 29.2316 29.1592 27.842C29.1234 27.4877 29.0358 26.986 28.7811 26.767H28.7652L28.7612 26.775Z" fill="black"/>
<path d="M42.7983 26.775C42.7744 26.783 42.7545 26.8108 42.7306 26.8507C42.6311 27.0657 42.452 27.3085 42.2252 27.42C41.5287 27.8182 40.5855 27.2448 40.6452 26.4246C40.6452 26.134 40.8163 25.8752 40.9795 25.6602C41.083 25.4014 40.1994 25.5367 40.0243 25.5646C36.9161 26.2654 37.5091 30.5774 40.7367 30.4659C42.0899 30.4181 43.3037 29.2316 43.1963 27.842C43.1605 27.4877 43.0729 26.986 42.8182 26.767H42.8023L42.7983 26.775Z" fill="black"/>
<path d="M19.6804 35.5659C21.8894 35.5659 23.6802 34.7512 23.6802 33.7463C23.6802 32.7414 21.8894 31.9268 19.6804 31.9268C17.4714 31.9268 15.6807 32.7414 15.6807 33.7463C15.6807 34.7512 17.4714 35.5659 19.6804 35.5659Z" fill="#FFC0C0" stroke="#D88080" stroke-width="0.807114" stroke-miterlimit="10"/>
<path d="M47.3249 35.5659C49.5339 35.5659 51.3247 34.7512 51.3247 33.7463C51.3247 32.7414 49.5339 31.9268 47.3249 31.9268C45.1159 31.9268 43.3252 32.7414 43.3252 33.7463C43.3252 34.7512 45.1159 35.5659 47.3249 35.5659Z" fill="#FFC0C0" stroke="#D88080" stroke-width="0.807114" stroke-miterlimit="10"/>
<path d="M33.6136 33.3844C32.6942 33.3964 31.7868 33.0938 30.9829 32.7115C30.5809 32.5563 30.1949 32.3492 29.8048 32.5085C29.188 32.9305 29.578 34.1329 30.1312 34.8934C31.6594 36.8722 35.0224 36.9678 36.7338 35.2C37.3069 34.6625 38.1267 32.9664 37.2511 32.5762C36.5666 32.4368 35.7865 33.0739 34.7637 33.265C34.4016 33.3446 34.0354 33.3844 33.6653 33.3844H33.6136Z" fill="black" stroke="white" stroke-width="0.807114" stroke-miterlimit="10" stroke-linecap="round"/>
<path d="M31.9258 37.6284L33.4421 39.2051L34.9584 37.6284" stroke="black" stroke-width="0.807114" stroke-miterlimit="10"/>
</svg>
