<svg width="54" height="53" viewBox="0 0 54 53" fill="none" xmlns="http://www.w3.org/2000/svg">
<path d="M6.35211 11.399C9.22251 11.399 11.5494 9.07111 11.5494 6.1995C11.5494 3.3279 9.22251 1 6.35211 1C3.4817 1 1.15479 3.3279 1.15479 6.1995C1.15479 9.07111 3.4817 11.399 6.35211 11.399Z" fill="#515151" stroke="black" stroke-width="0.446428" stroke-miterlimit="10" stroke-linecap="round"/>
<path d="M48.2676 11.399C51.138 11.399 53.465 9.07111 53.465 6.1995C53.465 3.3279 51.138 1 48.2676 1C45.3972 1 43.0703 3.3279 43.0703 6.1995C43.0703 9.07111 45.3972 11.399 48.2676 11.399Z" fill="#515151" stroke="black" stroke-width="0.446428" stroke-miterlimit="10" stroke-linecap="round"/>
<path d="M7.32568 49.3064C7.32568 51.7707 12.0079 52.1935 16.9256 52.1935C21.8434 52.1935 24.1394 50.1961 24.1394 47.7318C24.1394 45.2675 21.8434 43.27 16.9256 43.27C12.0079 43.27 7.32568 46.8421 7.32568 49.3064Z" fill="#515151" stroke="black" stroke-width="0.446428" stroke-miterlimit="10" stroke-linecap="round"/>
<path d="M47.2292 49.3064C47.2292 51.7707 42.547 52.1935 37.6293 52.1935C32.7115 52.1935 30.4155 50.1961 30.4155 47.7318C30.4155 45.2675 32.7115 43.27 37.6293 43.27C42.547 43.27 47.2292 46.8421 47.2292 49.3064Z" fill="#515151" stroke="black" stroke-width="0.446428" stroke-miterlimit="10" stroke-linecap="round"/>
<path d="M47.9396 11.2754C45.3728 10.8834 43.3674 12.0793 42.6256 12.5351C42.3196 12.7245 40.0258 14.1736 39.656 16.16C39.5151 16.9132 39.7551 17.1995 39.8123 17.2634C40.2019 17.6906 41.0428 17.4924 41.3752 17.4219C44.4461 16.7568 45.386 17.9284 47.627 16.9484C49.4827 16.138 51.4661 14.1846 51.0654 12.8501C50.7176 11.6983 48.7034 11.39 47.9396 11.2732V11.2754Z" fill="#EFE8DC" stroke="#756238" stroke-width="0.446428" stroke-miterlimit="10" stroke-linecap="round"/>
<path d="M6.57397 11.2754C9.14071 10.8834 11.1461 12.0793 11.888 12.5351C12.1939 12.7245 14.4877 14.1736 14.8575 16.16C14.9984 16.9132 14.7585 17.1995 14.7012 17.2634C14.3116 17.6906 13.4707 17.4924 13.1383 17.4219C10.0675 16.7568 9.1275 17.9284 6.88655 16.9484C5.03084 16.138 3.04745 14.1846 3.44809 12.8501C3.7959 11.6983 5.81011 11.39 6.57397 11.2732V11.2754Z" fill="#EFE8DC" stroke="#756238" stroke-width="0.446428" stroke-miterlimit="10" stroke-linecap="round"/>
<path d="M4.37256 12.7401C8.19185 12.2864 11.5819 13.502 12.9577 15.9597C13.2527 16.4883 13.5697 17.2789 13.6291 18.3756" fill="#EFE8DC"/>
<path d="M4.37256 12.7401C8.19185 12.2864 11.5819 13.502 12.9577 15.9597C13.2527 16.4883 13.5697 17.2789 13.6291 18.3756" stroke="#756238" stroke-width="0.446428" stroke-miterlimit="10" stroke-linecap="round"/>
<path d="M49.9778 12.7401C46.1585 12.2864 42.7684 13.502 41.3926 15.9597C41.0976 16.4883 40.7806 17.2789 40.7212 18.3756" fill="#EFE8DC"/>
<path d="M49.9778 12.7401C46.1585 12.2864 42.7684 13.502 41.3926 15.9597C41.0976 16.4883 40.7806 17.2789 40.7212 18.3756" stroke="#756238" stroke-width="0.446428" stroke-miterlimit="10" stroke-linecap="round"/>
<path d="M44.7012 27.8672C45.4122 27.0194 45.377 25.7971 44.6704 24.9889C44.7122 24.9294 44.754 24.8678 44.7915 24.8039C45.344 23.8459 45.0974 22.6479 44.2609 21.974C44.2918 21.9079 44.3204 21.8397 44.3468 21.7692C44.7254 20.7297 44.2741 19.5912 43.3342 19.0759C43.354 19.0054 43.3716 18.9327 43.3826 18.86C43.5741 17.7699 42.9335 16.7283 41.9165 16.3825C41.9231 16.3098 41.9275 16.2372 41.9275 16.1623C41.9275 15.0546 41.1152 14.1406 40.0542 13.9777C40.0476 13.905 40.0388 13.8323 40.0278 13.7574C39.8363 12.6673 38.8765 11.9075 37.8045 11.9318C37.7868 11.8613 37.7648 11.7908 37.7384 11.7204C37.3598 10.6809 36.2833 10.0995 35.2311 10.3087C35.2003 10.2426 35.1673 10.1766 35.1299 10.1127C34.5773 9.15474 33.415 8.76935 32.4156 9.15694C32.3738 9.09748 32.3298 9.03802 32.2813 8.98076C31.5703 8.1329 30.3596 7.95451 29.4416 8.51168C29.391 8.45883 29.336 8.40818 29.2787 8.36193C28.4312 7.6506 27.2095 7.68584 26.4016 8.39276C26.3422 8.35092 26.2805 8.30908 26.2167 8.27164C25.2591 7.71887 24.0616 7.96553 23.388 8.80238C23.322 8.77155 23.2537 8.74292 23.1833 8.71649C22.1443 8.33771 21.0062 8.78916 20.4911 9.72952C20.4206 9.7097 20.348 9.69208 20.2753 9.68107C19.1857 9.48948 18.1445 10.1303 17.7988 11.1478C17.7262 11.1412 17.6536 11.1368 17.5787 11.1368C16.4715 11.1368 15.5579 11.9494 15.395 13.0109C15.3224 13.0175 15.2497 13.0263 15.1749 13.0373C14.0852 13.2289 13.3258 14.1891 13.35 15.2616C13.2795 15.2792 13.2091 15.3012 13.1387 15.3276C12.0996 15.7064 11.5185 16.7833 11.7276 17.836C11.6616 17.8668 11.5955 17.8999 11.5317 17.9373C10.5741 18.4901 10.1889 19.6528 10.5763 20.6527C10.5169 20.6945 10.4574 20.7385 10.4002 20.787C9.5527 21.4983 9.37439 22.7096 9.93132 23.6279C9.87849 23.6785 9.82786 23.7336 9.78163 23.7909C9.07061 24.6387 9.10583 25.861 9.81245 26.6692C9.77063 26.7287 9.7288 26.7903 9.69138 26.8542C9.13885 27.8122 9.3854 29.0102 10.2219 29.6841C10.1911 29.7501 10.1625 29.8184 10.136 29.8889C9.75742 30.9283 10.2087 32.0669 11.1487 32.5822C11.1288 32.6527 11.1112 32.7254 11.1002 32.798C10.9087 33.8882 11.5493 34.9298 12.5663 35.2756C12.5597 35.3482 12.5553 35.4209 12.5553 35.4958C12.5553 36.6035 13.3676 37.5175 14.4286 37.6804C14.4352 37.7531 14.444 37.8258 14.455 37.9006C14.6466 38.9908 15.6063 39.7505 16.6784 39.7263C16.696 39.7968 16.718 39.8672 16.7444 39.9377C17.123 40.9772 18.1995 41.5586 19.2517 41.3494C19.2825 41.4154 19.3156 41.4815 19.353 41.5454C19.9055 42.5033 21.0678 42.8887 22.0672 42.5011C22.109 42.5606 22.1531 42.6201 22.2015 42.6773C22.9125 43.5252 24.1232 43.7036 25.0412 43.1464C25.0918 43.1992 25.1469 43.2499 25.2041 43.2961C26.0516 44.0075 27.2733 43.9722 28.0812 43.2653C28.1407 43.3072 28.2023 43.349 28.2661 43.3864C29.2237 43.9392 30.4212 43.6925 31.0948 42.8557C31.1609 42.8865 31.2291 42.9152 31.2996 42.9416C32.3386 43.3204 33.4767 42.8689 33.9918 41.9286C34.0622 41.9484 34.1349 41.966 34.2075 41.977C35.2972 42.1686 36.3384 41.5277 36.684 40.5103C36.7566 40.5169 36.8293 40.5213 36.9041 40.5213C38.0114 40.5213 38.9249 39.7087 39.0878 38.6472C39.1605 38.6406 39.2331 38.6318 39.308 38.6208C40.3976 38.4292 41.1571 37.469 41.1329 36.3965C41.2033 36.3789 41.2737 36.3569 41.3442 36.3304C42.3832 35.9517 42.9644 34.8748 42.7552 33.8221C42.8213 33.7913 42.8873 33.7582 42.9511 33.7208C43.9087 33.168 44.294 32.0052 43.9065 31.0054C43.966 30.9636 44.0254 30.9195 44.0826 30.8711C44.9301 30.1598 45.1084 28.9485 44.5515 28.0302C44.6043 27.9795 44.655 27.9245 44.7012 27.8672Z" fill="white" stroke="#BBBBBB" stroke-width="0.446428" stroke-miterlimit="10" stroke-linecap="round"/>
<path d="M27.3109 42.263C36.3488 42.263 43.6755 34.9332 43.6755 25.8915C43.6755 16.8498 36.3488 9.52002 27.3109 9.52002C18.273 9.52002 10.9463 16.8498 10.9463 25.8915C10.9463 34.9332 18.273 42.263 27.3109 42.263Z" fill="white" stroke="#BBBBBB" stroke-width="0.446428" stroke-miterlimit="10" stroke-linecap="round"/>
<path d="M27.2754 38.2373C34.0727 38.2373 39.583 32.7247 39.583 25.9246C39.583 19.1244 34.0727 13.6118 27.2754 13.6118C20.4781 13.6118 14.9678 19.1244 14.9678 25.9246C14.9678 32.7247 20.4781 38.2373 27.2754 38.2373Z" fill="#EFE8DC" stroke="#756238" stroke-width="0.446428" stroke-miterlimit="10" stroke-linecap="round"/>
<path d="M24.6209 22.1017C24.6077 22.1061 24.5967 22.1215 24.5835 22.1436C24.5285 22.2625 24.4294 22.3968 24.3039 22.4585C23.9187 22.6787 23.397 22.3616 23.43 21.9079C23.43 21.7472 23.5247 21.604 23.6149 21.4851C23.6722 21.3419 23.1835 21.4168 23.0866 21.4322C21.3674 21.8198 21.6954 24.2049 23.4806 24.1432C24.2291 24.1168 24.9005 23.4605 24.8411 22.6919C24.8212 22.4959 24.7728 22.2184 24.6319 22.0973H24.6231L24.6209 22.1017Z" fill="black"/>
<path d="M32.3851 22.1017C32.3719 22.1061 32.3609 22.1215 32.3477 22.1436C32.2926 22.2625 32.1936 22.3968 32.0681 22.4585C31.6829 22.6787 31.1611 22.3616 31.1942 21.9079C31.1942 21.7472 31.2888 21.604 31.3791 21.4851C31.4363 21.3419 30.9476 21.4168 30.8508 21.4322C29.1315 21.8198 29.4595 24.2049 31.2448 24.1432C31.9933 24.1168 32.6647 23.4605 32.6052 22.6919C32.5854 22.4959 32.537 22.2184 32.3961 22.0973H32.3873L32.3851 22.1017Z" fill="black"/>
<path d="M19.5976 26.964C20.8194 26.964 21.8099 26.5134 21.8099 25.9576C21.8099 25.4018 20.8194 24.9512 19.5976 24.9512C18.3757 24.9512 17.3853 25.4018 17.3853 25.9576C17.3853 26.5134 18.3757 26.964 19.5976 26.964Z" fill="#FFC0C0" stroke="#D88080" stroke-width="0.446428" stroke-miterlimit="10"/>
<path d="M34.8876 26.964C36.1095 26.964 37.1 26.5134 37.1 25.9576C37.1 25.4018 36.1095 24.9512 34.8876 24.9512C33.6658 24.9512 32.6753 25.4018 32.6753 25.9576C32.6753 26.5134 33.6658 26.964 34.8876 26.964Z" fill="#FFC0C0" stroke="#D88080" stroke-width="0.446428" stroke-miterlimit="10"/>
<path d="M27.3038 25.7574C26.7953 25.764 26.2934 25.5966 25.8488 25.3852C25.6264 25.2993 25.4129 25.1848 25.1972 25.2729C24.856 25.5063 25.0717 26.1714 25.3777 26.5921C26.223 27.6866 28.0831 27.7394 29.0297 26.7616C29.3467 26.4643 29.8001 25.5262 29.3158 25.3103C28.9372 25.2333 28.5058 25.5856 27.94 25.6913C27.7397 25.7354 27.5372 25.7574 27.3325 25.7574H27.3038Z" fill="black" stroke="white" stroke-width="0.446428" stroke-miterlimit="10" stroke-linecap="round"/>
<path d="M26.3706 28.105L27.2093 28.9771L28.048 28.105" stroke="black" stroke-width="0.446428" stroke-miterlimit="10"/>
</svg>
