<svg width="67" height="68" viewBox="0 0 67 68" fill="none" xmlns="http://www.w3.org/2000/svg">
<path d="M65.0657 37.3419C66.3512 35.803 66.2875 33.5845 65.01 32.1174C65.0856 32.0095 65.1612 31.8976 65.2289 31.7817C66.2278 30.0429 65.7821 27.8683 64.2697 26.6452C64.3255 26.5252 64.3772 26.4013 64.425 26.2734C65.1095 24.3867 64.2936 22.3201 62.5942 21.3847C62.6301 21.2568 62.6619 21.1249 62.6818 20.993C63.028 19.0143 61.8699 17.1236 60.0312 16.496C60.0431 16.3641 60.0511 16.2322 60.0511 16.0963C60.0511 14.0857 58.5825 12.4268 56.6643 12.131C56.6523 11.9991 56.6364 11.8672 56.6165 11.7313C56.2702 9.75259 54.535 8.37353 52.5968 8.4175C52.565 8.28959 52.5252 8.16167 52.4775 8.03376C51.7929 6.14704 49.8468 5.09176 47.9444 5.4715C47.8887 5.35158 47.829 5.23166 47.7613 5.11574C46.7624 3.37692 44.661 2.67739 42.8542 3.38091C42.7785 3.27298 42.6989 3.16506 42.6114 3.06113C41.3259 1.52218 39.137 1.19839 37.4774 2.20971C37.3858 2.11377 37.2863 2.02183 37.1829 1.93789C35.6506 0.646763 33.4418 0.71072 31.9812 1.99385C31.8737 1.9179 31.7623 1.84196 31.6469 1.774C29.9157 0.770684 27.7506 1.21838 26.5328 2.73735C26.4134 2.68139 26.29 2.62942 26.1627 2.58145C24.2842 1.89392 22.2266 2.71337 21.2953 4.42021C21.1679 4.38423 21.0366 4.35226 20.9053 4.33227C18.9352 3.9845 17.0528 5.14772 16.4279 6.99447C16.2966 6.98247 16.1653 6.97448 16.0299 6.97448C14.0281 6.97448 12.3764 8.44948 12.0819 10.3762C11.9506 10.3882 11.8193 10.4042 11.6839 10.4241C9.71392 10.7719 8.34087 12.5147 8.38465 14.4614C8.2573 14.4934 8.12994 14.5334 8.00258 14.5813C6.12409 15.2689 5.07341 17.2235 5.4515 19.1342C5.3321 19.1902 5.21271 19.2502 5.09729 19.3181C3.36605 20.3214 2.66958 22.432 3.37004 24.2468C3.26258 24.3227 3.15512 24.4027 3.05165 24.4906C1.5194 25.7817 1.19704 27.9803 2.20394 29.6471C2.10843 29.7391 2.01689 29.839 1.93331 29.9429C0.647816 31.4819 0.711493 33.7004 1.98903 35.1674C1.91341 35.2753 1.83779 35.3872 1.77013 35.5032C0.77119 37.242 1.21694 39.4165 2.72928 40.6397C2.67356 40.7596 2.62182 40.8835 2.57407 41.0114C1.88953 42.8981 2.7054 44.9647 4.4048 45.9001C4.36898 46.028 4.33714 46.1599 4.31724 46.2918C3.971 48.2705 5.12913 50.1612 6.96783 50.7888C6.95589 50.9207 6.94793 51.0526 6.94793 51.1885C6.94793 53.1992 8.41649 54.8581 10.3348 55.1539C10.3467 55.2858 10.3626 55.4177 10.3825 55.5536C10.7288 57.5322 12.464 58.9113 14.4022 58.8673C14.434 58.9952 14.4738 59.1232 14.5216 59.2511C15.2061 61.1378 17.1523 62.1931 19.0546 61.8133C19.1104 61.9332 19.17 62.0532 19.2377 62.1691C20.2367 63.9079 22.338 64.6074 24.1449 63.9039C24.2205 64.0118 24.3001 64.1198 24.3876 64.2237C25.6731 65.7626 27.8621 66.0864 29.5217 65.0751C29.6132 65.1711 29.7127 65.263 29.8162 65.3469C31.3484 66.6381 33.5572 66.5741 35.0178 65.291C35.1253 65.3669 35.2367 65.4429 35.3521 65.5108C37.0834 66.5141 39.2484 66.0665 40.4662 64.5475C40.5856 64.6034 40.709 64.6554 40.8364 64.7034C42.7149 65.3909 44.7724 64.5715 45.7037 62.8646C45.8311 62.9006 45.9624 62.9326 46.0938 62.9526C48.0638 63.3003 49.9463 62.1371 50.5711 60.2904C50.7024 60.3024 50.8338 60.3104 50.9691 60.3104C52.9709 60.3104 54.6226 58.8354 54.9171 56.9087C55.0484 56.8967 55.1798 56.8807 55.3151 56.8607C57.2851 56.5129 58.6582 54.7701 58.6144 52.8234C58.7417 52.7914 58.8691 52.7515 58.9964 52.7035C60.8749 52.016 61.9256 50.0613 61.5475 48.1506C61.6669 48.0946 61.7863 48.0347 61.9017 47.9667C63.633 46.9634 64.3294 44.8528 63.629 43.0381C63.7365 42.9621 63.8439 42.8822 63.9474 42.7942C65.4796 41.5031 65.802 39.3046 64.7951 37.6377C64.8906 37.5458 64.9821 37.4458 65.0657 37.3419Z" fill="white" stroke="#B8B8B8" stroke-width="1.52" stroke-miterlimit="10" stroke-linecap="round"/>
<path d="M33.6219 63.4681C49.9619 63.4681 63.2081 50.1639 63.2081 33.7522C63.2081 17.3406 49.9619 4.03638 33.6219 4.03638C17.2819 4.03638 4.03564 17.3406 4.03564 33.7522C4.03564 50.1639 17.2819 63.4681 33.6219 63.4681Z" fill="white" stroke="#9D9D9D" stroke-opacity="0.7" stroke-width="1.52" stroke-miterlimit="10" stroke-linecap="round"/>
<path d="M33.5614 55.6772C45.8505 55.6772 55.8128 45.6713 55.8128 33.3284C55.8128 20.9854 45.8505 10.9795 33.5614 10.9795C21.2723 10.9795 11.3101 20.9854 11.3101 33.3284C11.3101 45.6713 21.2723 55.6772 33.5614 55.6772Z" fill="#C8E0CA" stroke="#254434" stroke-opacity="0.5" stroke-width="0.741639" stroke-miterlimit="10"/>
<path d="M45.3252 35.8346C44.9432 34.0599 41.1345 33.3803 36.8123 34.3157C35.6502 34.5675 34.5717 34.9113 33.6205 35.311C32.6693 34.9113 31.5908 34.5675 30.4287 34.3157C26.1065 33.3803 22.2978 34.0599 21.9157 35.8346C21.5337 37.6094 24.7295 39.808 29.0476 40.7433C30.6993 41.1031 32.2793 41.223 33.6165 41.1351C34.9577 41.219 36.5337 41.0991 38.1854 40.7433C42.5075 39.808 45.6993 37.6094 45.3173 35.8346H45.3252Z" fill="#FFCA55" fill-opacity="0.7" stroke="#C9850E" stroke-opacity="0.5" stroke-width="0.741639" stroke-miterlimit="10"/>
<path d="M30.7084 27.1087C30.6845 27.1167 30.6646 27.1447 30.6367 27.1847C30.5372 27.4005 30.3581 27.6484 30.1273 27.7603C29.4269 28.16 28.4836 27.5844 28.5433 26.757C28.5433 26.4652 28.7145 26.2053 28.8776 25.9855C28.9811 25.7257 28.0936 25.8616 27.9225 25.8896C24.8063 26.5931 25.4032 30.9341 28.6349 30.8222C29.992 30.7743 31.2098 29.5791 31.1024 28.184C31.0666 27.8282 30.979 27.3206 30.7203 27.1047H30.7044L30.7084 27.1087Z" fill="black"/>
<path d="M40.8925 27.1087C40.8686 27.1167 40.8487 27.1447 40.8208 27.1847C40.7213 27.4005 40.5422 27.6484 40.3114 27.7603C39.6109 28.16 38.6677 27.5844 38.7274 26.757C38.7274 26.4652 38.8985 26.2053 39.0617 25.9855C39.1652 25.7257 38.2777 25.8616 38.1066 25.8896C34.9903 26.5931 35.5873 30.9341 38.819 30.8222C40.1761 30.7743 41.3939 29.5791 41.2865 28.184C41.2506 27.8282 41.1631 27.3206 40.9044 27.1047H40.8885L40.8925 27.1087Z" fill="black"/>
<path d="M19.6746 33.2644C21.8836 33.2644 23.6743 32.4465 23.6743 31.4376C23.6743 30.4287 21.8836 29.6108 19.6746 29.6108C17.4656 29.6108 15.6748 30.4287 15.6748 31.4376C15.6748 32.4465 17.4656 33.2644 19.6746 33.2644Z" fill="#FFC0C0" stroke="#D88080" stroke-opacity="0.7" stroke-width="0.741639" stroke-miterlimit="10"/>
<path d="M47.3225 33.2644C49.5315 33.2644 51.3222 32.4465 51.3222 31.4376C51.3222 30.4287 49.5315 29.6108 47.3225 29.6108C45.1135 29.6108 43.3228 30.4287 43.3228 31.4376C43.3228 32.4465 45.1135 33.2644 47.3225 33.2644Z" fill="#FFC0C0" stroke="#D88080" stroke-opacity="0.7" stroke-width="0.741639" stroke-miterlimit="10"/>
</svg>
