<svg width="56" height="54" viewBox="0 0 56 54" fill="none" xmlns="http://www.w3.org/2000/svg">
<path d="M50.7878 33.5232C51.6529 32.4876 51.6101 30.9947 50.7504 30.0075C50.8012 29.9349 50.8521 29.8595 50.8977 29.7815C51.5699 28.6114 51.2699 27.1481 50.2522 26.325C50.2897 26.2443 50.3245 26.1609 50.3567 26.0748C50.8173 24.8052 50.2683 23.4145 49.1247 22.785C49.1488 22.6989 49.1702 22.6102 49.1836 22.5214C49.4166 21.1899 48.6373 19.9176 47.3999 19.4952C47.408 19.4065 47.4133 19.3177 47.4133 19.2263C47.4133 17.8732 46.4251 16.7569 45.1342 16.5578C45.1262 16.4691 45.1154 16.3803 45.1021 16.2888C44.869 14.9573 43.7014 14.0293 42.3971 14.0589C42.3756 13.9728 42.3489 13.8867 42.3167 13.8007C41.8561 12.531 40.5464 11.8209 39.2663 12.0764C39.2288 11.9957 39.1886 11.915 39.1431 11.837C38.4708 10.6669 37.0568 10.1962 35.8409 10.6696C35.79 10.597 35.7364 10.5243 35.6775 10.4544C34.8124 9.41877 33.3394 9.20089 32.2226 9.88144C32.161 9.81688 32.0941 9.75501 32.0244 9.69852C30.9933 8.82968 29.5069 8.87272 28.524 9.73618C28.4517 9.68507 28.3767 9.63397 28.2991 9.58824C27.1341 8.91307 25.6771 9.21434 24.8576 10.2365C24.7772 10.1989 24.6942 10.1639 24.6085 10.1316C23.3444 9.66893 21.9598 10.2204 21.3331 11.369C21.2474 11.3448 21.159 11.3232 21.0706 11.3098C19.7449 11.0758 18.4781 11.8585 18.0577 13.1013C17.9693 13.0932 17.8809 13.0878 17.7898 13.0878C16.4427 13.0878 15.3313 14.0804 15.1331 15.377C15.0447 15.385 14.9563 15.3958 14.8653 15.4092C13.5395 15.6433 12.6156 16.8161 12.645 18.1261C12.5593 18.1476 12.4736 18.1745 12.3879 18.2068C11.1238 18.6694 10.4168 19.9848 10.6712 21.2706C10.5909 21.3083 10.5105 21.3486 10.4328 21.3943C9.26783 22.0695 8.79915 23.4898 9.27051 24.711C9.1982 24.7621 9.12588 24.8159 9.05625 24.8751C8.02515 25.7439 7.80822 27.2234 8.4858 28.3451C8.42152 28.407 8.35992 28.4742 8.30368 28.5442C7.43862 29.5798 7.48147 31.0727 8.34117 32.0599C8.29029 32.1325 8.2394 32.2078 8.19387 32.2859C7.52165 33.456 7.82161 34.9193 8.83932 35.7424C8.80182 35.8231 8.76701 35.9065 8.73487 35.9926C8.27422 37.2622 8.82325 38.6529 9.96684 39.2824C9.94274 39.3684 9.92131 39.4572 9.90792 39.546C9.67492 40.8775 10.4543 42.1498 11.6916 42.5721C11.6836 42.6609 11.6782 42.7497 11.6782 42.8411C11.6782 44.1942 12.6665 45.3105 13.9573 45.5095C13.9654 45.5983 13.9761 45.6871 13.9895 45.7785C14.2225 47.1101 15.3902 48.0381 16.6945 48.0085C16.7159 48.0946 16.7427 48.1806 16.7748 48.2667C17.2355 49.5364 18.5451 50.2465 19.8253 49.991C19.8628 50.0717 19.9029 50.1524 19.9485 50.2304C20.6207 51.4005 22.0348 51.8712 23.2507 51.3978C23.3016 51.4704 23.3551 51.543 23.414 51.613C24.2791 52.6486 25.7521 52.8665 26.8689 52.1859C26.9305 52.2505 26.9975 52.3124 27.0671 52.3689C28.0982 53.2377 29.5846 53.1947 30.5675 52.3312C30.6398 52.3823 30.7148 52.4334 30.7925 52.4791C31.9575 53.1543 33.4144 52.8531 34.2339 51.8309C34.3143 51.8685 34.3973 51.9035 34.483 51.9358C35.7471 52.3984 37.1317 51.847 37.7584 50.6984C37.8441 50.7226 37.9325 50.7441 38.0209 50.7576C39.3466 50.9916 40.6134 50.2088 41.0339 48.9661C41.1223 48.9742 41.2106 48.9796 41.3017 48.9796C42.6488 48.9796 43.7603 47.987 43.9585 46.6904C44.0468 46.6824 44.1352 46.6716 44.2263 46.6581C45.552 46.4241 46.476 45.2513 46.4465 43.9413C46.5322 43.9198 46.6179 43.8929 46.7036 43.8606C47.9677 43.398 48.6748 42.0826 48.4203 40.7968C48.5007 40.7591 48.581 40.7188 48.6587 40.6731C49.8237 39.9979 50.2924 38.5776 49.821 37.3564C49.8933 37.3053 49.9656 37.2515 50.0353 37.1923C51.0664 36.3234 51.2833 34.844 50.6057 33.7223C50.67 33.6604 50.7316 33.5932 50.7878 33.5232Z" fill="white" stroke="#B8B8B8" stroke-width="0.499077" stroke-miterlimit="10" stroke-linecap="round"/>
<path d="M29.6277 51.1047C40.6235 51.1047 49.5374 42.1518 49.5374 31.1078C49.5374 20.0638 40.6235 11.1108 29.6277 11.1108C18.6319 11.1108 9.71802 20.0638 9.71802 31.1078C9.71802 42.1518 18.6319 51.1047 29.6277 51.1047Z" fill="white" stroke="#9D9D9D" stroke-opacity="0.7" stroke-width="0.499077" stroke-miterlimit="10" stroke-linecap="round"/>
<path d="M29.5873 45.8615C37.8571 45.8615 44.5611 39.1281 44.5611 30.8221C44.5611 22.5161 37.8571 15.7827 29.5873 15.7827C21.3175 15.7827 14.6135 22.5161 14.6135 30.8221C14.6135 39.1281 21.3175 45.8615 29.5873 45.8615Z" fill="#C8E0CA" stroke="#254434" stroke-opacity="0.5" stroke-width="0.499077" stroke-miterlimit="10"/>
<path d="M37.5041 32.5089C37.247 31.3145 34.6839 30.8572 31.7754 31.4867C30.9934 31.6562 30.2676 31.8875 29.6275 32.1565C28.9874 31.8875 28.2616 31.6562 27.4796 31.4867C24.5711 30.8572 22.0081 31.3145 21.751 32.5089C21.4938 33.7032 23.6444 35.1826 26.5503 35.8121C27.6617 36.0542 28.725 36.1349 29.6248 36.0757C30.5274 36.1322 31.588 36.0515 32.6994 35.8121C35.6079 35.1826 37.7558 33.7032 37.4987 32.5089H37.5041Z" fill="#FFCA55" fill-opacity="0.7" stroke="#C9850E" stroke-opacity="0.5" stroke-width="0.499077" stroke-miterlimit="10"/>
<path d="M27.6672 26.637C27.6511 26.6424 27.6377 26.6612 27.619 26.6881C27.552 26.8334 27.4315 27.0001 27.2762 27.0755C26.8048 27.3444 26.1701 26.9571 26.2103 26.4003C26.2103 26.2039 26.3254 26.0291 26.4352 25.8811C26.5049 25.7063 25.9076 25.7977 25.7925 25.8166C23.6954 26.29 24.0972 29.2113 26.2719 29.1359C27.1851 29.1037 28.0047 28.2994 27.9323 27.3606C27.9082 27.1212 27.8493 26.7796 27.6752 26.6343H27.6645L27.6672 26.637Z" fill="black"/>
<path d="M34.5207 26.637C34.5046 26.6424 34.4913 26.6612 34.4725 26.6881C34.4056 26.8334 34.285 27.0001 34.1297 27.0755C33.6583 27.3444 33.0236 26.9571 33.0638 26.4003C33.0638 26.2039 33.1789 26.0291 33.2887 25.8811C33.3584 25.7063 32.7611 25.7977 32.646 25.8166C30.549 26.29 30.9507 29.2113 33.1254 29.1359C34.0386 29.1037 34.8582 28.2994 34.7859 27.3606C34.7618 27.1212 34.7028 26.7796 34.5288 26.6343H34.518L34.5207 26.637Z" fill="black"/>
<path d="M20.2431 30.7794C21.7296 30.7794 22.9347 30.229 22.9347 29.5501C22.9347 28.8712 21.7296 28.3208 20.2431 28.3208C18.7566 28.3208 17.5515 28.8712 17.5515 29.5501C17.5515 30.229 18.7566 30.7794 20.2431 30.7794Z" fill="#FFC0C0" stroke="#D88080" stroke-opacity="0.7" stroke-width="0.499077" stroke-miterlimit="10"/>
<path d="M38.8487 30.7794C40.3352 30.7794 41.5403 30.229 41.5403 29.5501C41.5403 28.8712 40.3352 28.3208 38.8487 28.3208C37.3622 28.3208 36.1571 28.8712 36.1571 29.5501C36.1571 30.229 37.3622 30.7794 38.8487 30.7794Z" fill="#FFC0C0" stroke="#D88080" stroke-opacity="0.7" stroke-width="0.499077" stroke-miterlimit="10"/>
<path d="M6.39618 11.8396C9.3764 11.8396 11.7924 9.41311 11.7924 6.41982C11.7924 3.42654 9.3764 1 6.39618 1C3.41595 1 1 3.42654 1 6.41982C1 9.41311 3.41595 11.8396 6.39618 11.8396Z" fill="#C8E0CA" stroke="#254434" stroke-opacity="0.5" stroke-width="0.425908" stroke-miterlimit="10"/>
<path d="M49.9177 11.8396C52.8979 11.8396 55.3138 9.41311 55.3138 6.41982C55.3138 3.42654 52.8979 1 49.9177 1C46.9374 1 44.5215 3.42654 44.5215 6.41982C44.5215 9.41311 46.9374 11.8396 49.9177 11.8396Z" fill="#C8E0CA" stroke="#254434" stroke-opacity="0.5" stroke-width="0.425908" stroke-miterlimit="10"/>
</svg>
