<svg width="54" height="55" viewBox="0 0 54 55" fill="none" xmlns="http://www.w3.org/2000/svg">
<path d="M27.1044 7.70536C27.0692 7.78243 26.9261 7.76481 26.9371 7.68554C27.1176 6.39728 27.7186 4.21274 29.8516 3.05882C30.7034 2.59857 31.8943 2.25283 32.0132 2.40257C32.1518 2.57654 30.7761 3.31867 29.5544 4.41094C28.2953 5.53624 27.5557 6.71659 27.1022 7.70536H27.1044Z" fill="#C8E0CA" stroke="#91A199" stroke-width="0.446409" stroke-miterlimit="10"/>
<path d="M27.8746 7.57752C27.8328 7.60615 27.7601 7.59954 27.7755 7.5643C27.9759 7.11947 28.3501 6.18135 30.1 5.78497C30.7494 5.63742 32.2727 5.63742 32.3079 5.69688C32.3475 5.76735 31.2315 5.97435 30.1859 6.35532C29.1117 6.74731 28.4139 7.21196 27.8724 7.57752H27.8746Z" fill="#C8E0CA" stroke="#91A199" stroke-width="0.446409" stroke-miterlimit="10"/>
<path d="M44.7007 28.9406C45.4117 28.0928 45.3765 26.8706 44.6699 26.0624C44.7117 26.0029 44.7535 25.9413 44.7909 25.8774C45.3434 24.9195 45.0969 23.7215 44.2604 23.0476C44.2912 22.9816 44.3199 22.9133 44.3463 22.8428C44.7249 21.8034 44.2736 20.6649 43.3337 20.1496C43.3535 20.0791 43.3711 20.0065 43.3821 19.9338C43.5737 18.8437 42.9331 17.8021 41.9161 17.4564C41.9227 17.3837 41.9271 17.311 41.9271 17.2362C41.9271 16.1285 41.1149 15.2146 40.0539 15.0516C40.0473 14.9789 40.0385 14.9063 40.0275 14.8314C39.836 13.7413 38.8762 12.9816 37.8042 13.0058C37.7866 12.9353 37.7646 12.8649 37.7382 12.7944C37.3596 11.755 36.2832 11.1736 35.231 11.3828C35.2002 11.3168 35.1672 11.2507 35.1297 11.1868C34.5772 10.2289 33.415 9.84353 32.4156 10.2311C32.3738 10.1716 32.3298 10.1122 32.2813 10.0549C31.5704 9.20711 30.3597 9.02873 29.4418 9.58587C29.3911 9.53302 29.3361 9.48237 29.2789 9.43613C28.4314 8.72483 27.2097 8.76007 26.4019 9.46696C26.3424 9.42512 26.2808 9.38328 26.217 9.34584C25.2594 8.7931 24.062 9.03974 23.3884 9.87656C23.3223 9.84573 23.2541 9.8171 23.1837 9.79067C22.1447 9.4119 21.0067 9.86335 20.4916 10.8037C20.4211 10.7838 20.3485 10.7662 20.2758 10.7552C19.1862 10.5636 18.1451 11.2045 17.7995 12.2219C17.7268 12.2152 17.6542 12.2108 17.5793 12.2108C16.4721 12.2108 15.5586 13.0234 15.3957 14.0849C15.3231 14.0915 15.2504 14.1003 15.1756 14.1113C14.086 14.3029 13.3266 15.263 13.3508 16.3355C13.2803 16.3531 13.2099 16.3751 13.1395 16.4015C12.1005 16.7803 11.5194 17.8572 11.7285 18.9098C11.6624 18.9406 11.5964 18.9736 11.5326 19.0111C10.575 19.5638 10.1898 20.7266 10.5772 21.7263C10.5178 21.7682 10.4584 21.8122 10.4011 21.8607C9.55366 22.572 9.37536 23.7832 9.93227 24.7014C9.87945 24.7521 9.82882 24.8072 9.78259 24.8644C9.07159 25.7122 9.10681 26.9344 9.81341 27.7426C9.77158 27.8021 9.72976 27.8637 9.69234 27.9276C9.13983 28.8855 9.38637 30.0835 10.2228 30.7574C10.192 30.8234 10.1634 30.8917 10.137 30.9622C9.75838 32.0016 10.2096 33.1401 11.1496 33.6554C11.1297 33.7259 11.1121 33.7985 11.1011 33.8712C10.9096 34.9613 11.5502 36.0029 12.5671 36.3486C12.5605 36.4213 12.5561 36.494 12.5561 36.5688C12.5561 37.6765 13.3684 38.5904 14.4294 38.7534C14.436 38.8261 14.4448 38.8987 14.4558 38.9736C14.6473 40.0637 15.607 40.8234 16.679 40.7992C16.6966 40.8696 16.7187 40.9401 16.7451 41.0106C17.1237 42.05 18.2001 42.6314 19.2523 42.4222C19.2831 42.4882 19.3161 42.5543 19.3535 42.6182C19.906 43.5761 21.0683 43.9615 22.0676 43.5739C22.1095 43.6334 22.1535 43.6928 22.2019 43.7501C22.9129 44.5979 24.1236 44.7763 25.0415 44.2191C25.0921 44.272 25.1472 44.3226 25.2044 44.3689C26.0519 45.0802 27.2736 45.0449 28.0814 44.338C28.1408 44.3799 28.2025 44.4217 28.2663 44.4592C29.2238 45.0119 30.4213 44.7653 31.0949 43.9284C31.1609 43.9593 31.2292 43.9879 31.2996 44.0143C32.3386 44.3931 33.4766 43.9417 33.9917 43.0013C34.0621 43.0211 34.1348 43.0388 34.2074 43.0498C35.297 43.2414 36.3382 42.6005 36.6838 41.5831C36.7564 41.5898 36.8291 41.5942 36.9039 41.5942C38.0111 41.5942 38.9247 40.7816 39.0875 39.7201C39.1602 39.7135 39.2328 39.7047 39.3077 39.6937C40.3973 39.5021 41.1567 38.542 41.1325 37.4695C41.2029 37.4519 41.2734 37.4299 41.3438 37.4035C42.3828 37.0247 42.9639 35.9478 42.7548 34.8952C42.8208 34.8644 42.8869 34.8313 42.9507 34.7939C43.9082 34.2412 44.2935 33.0784 43.906 32.0787C43.9655 32.0368 44.0249 31.9928 44.0821 31.9443C44.9296 31.233 45.1079 30.0218 44.551 29.1036C44.6038 29.0529 44.6545 28.9978 44.7007 28.9406Z" fill="white" stroke="#BBBBBB" stroke-width="0.446409" stroke-miterlimit="10" stroke-linecap="round"/>
<path d="M27.3088 43.3339C36.3463 43.3339 43.6727 36.0044 43.6727 26.9631C43.6727 17.9217 36.3463 10.5923 27.3088 10.5923C18.2712 10.5923 10.9448 17.9217 10.9448 26.9631C10.9448 36.0044 18.2712 43.3339 27.3088 43.3339Z" fill="white" stroke="#BBBBBB" stroke-width="0.446409" stroke-miterlimit="10" stroke-linecap="round"/>
<path d="M27.2758 39.042C34.0728 39.042 39.5829 33.5296 39.5829 26.7297C39.5829 19.9299 34.0728 14.4175 27.2758 14.4175C20.4788 14.4175 14.9688 19.9299 14.9688 26.7297C14.9688 33.5296 20.4788 39.042 27.2758 39.042Z" fill="#C8E0CA" stroke="#91A199" stroke-width="0.446409" stroke-miterlimit="10"/>
<path d="M33.7831 28.1106C33.5718 27.1329 31.4652 26.7585 29.0747 27.2738C28.4319 27.4126 27.8354 27.6019 27.3093 27.8222C26.7832 27.6019 26.1867 27.4126 25.5439 27.2738C23.1534 26.7585 21.0468 27.1329 20.8355 28.1106C20.6242 29.0884 22.3918 30.2996 24.7801 30.8149C25.6936 31.0131 26.5675 31.0791 27.3071 31.0307C28.0489 31.0769 28.9206 31.0109 29.8341 30.8149C32.2247 30.2996 33.99 29.0884 33.7787 28.1106H33.7831Z" fill="#EED178" stroke="#DBAA43" stroke-width="0.446409" stroke-miterlimit="10"/>
<path d="M25.6978 23.3031C25.6846 23.3075 25.6736 23.3229 25.6582 23.3449C25.6032 23.4639 25.5041 23.6004 25.3764 23.6621C24.989 23.8823 24.4673 23.5652 24.5004 23.1093C24.5004 22.9486 24.595 22.8054 24.6853 22.6843C24.7425 22.5412 24.2516 22.616 24.157 22.6315C22.4334 23.019 22.7636 25.4106 24.551 25.3489C25.3016 25.3225 25.9752 24.664 25.9157 23.8955C25.8959 23.6995 25.8475 23.4198 25.7044 23.3009H25.6956L25.6978 23.3031Z" fill="black"/>
<path d="M31.3306 23.3031C31.3174 23.3075 31.3064 23.3229 31.291 23.3449C31.236 23.4639 31.1369 23.6004 31.0093 23.6621C30.6218 23.8823 30.1001 23.5652 30.1332 23.1093C30.1332 22.9486 30.2278 22.8054 30.3181 22.6843C30.3753 22.5412 29.8844 22.616 29.7898 22.6315C28.0662 23.019 28.3964 25.4106 30.1838 25.3489C30.9344 25.3225 31.608 24.664 31.5486 23.8955C31.5287 23.6995 31.4803 23.4198 31.3372 23.3009H31.3284L31.3306 23.3031Z" fill="black"/>
<path d="M19.596 26.6944C20.8178 26.6944 21.8083 26.2438 21.8083 25.688C21.8083 25.1322 20.8178 24.6816 19.596 24.6816C18.3742 24.6816 17.3838 25.1322 17.3838 25.688C17.3838 26.2438 18.3742 26.6944 19.596 26.6944Z" fill="#FFC0C0" stroke="#D88080" stroke-width="0.446409" stroke-miterlimit="10"/>
<path d="M34.888 26.6944C36.1098 26.6944 37.1002 26.2438 37.1002 25.688C37.1002 25.1322 36.1098 24.6816 34.888 24.6816C33.6662 24.6816 32.6758 25.1322 32.6758 25.688C32.6758 26.2438 33.6662 26.6944 34.888 26.6944Z" fill="#FFC0C0" stroke="#D88080" stroke-width="0.446409" stroke-miterlimit="10"/>
<path d="M6.35189 11.3986C9.22217 11.3986 11.549 9.07076 11.549 6.19928C11.549 3.3278 9.22217 1 6.35189 1C3.48161 1 1.15479 3.3278 1.15479 6.19928C1.15479 9.07076 3.48161 11.3986 6.35189 11.3986Z" fill="#C8E0CA" stroke="#91A199" stroke-width="0.446409" stroke-miterlimit="10"/>
<path d="M48.2674 11.3986C51.1377 11.3986 53.4645 9.07076 53.4645 6.19928C53.4645 3.3278 51.1377 1 48.2674 1C45.3971 1 43.0703 3.3278 43.0703 6.19928C43.0703 9.07076 45.3971 11.3986 48.2674 11.3986Z" fill="#C8E0CA" stroke="#91A199" stroke-width="0.446409" stroke-miterlimit="10"/>
<path d="M7.32471 50.914C7.32471 53.3782 12.0067 53.801 16.9243 53.801C21.8418 53.801 24.1377 51.8037 24.1377 49.3395C24.1377 46.8753 21.8418 44.8779 16.9243 44.8779C12.0067 44.8779 7.32471 48.4498 7.32471 50.914Z" fill="#EED178" stroke="#DBAA43" stroke-width="0.446409" stroke-miterlimit="10"/>
<path d="M47.2285 50.914C47.2285 53.3782 42.5465 53.801 37.629 53.801C32.7114 53.801 30.4155 51.8037 30.4155 49.3395C30.4155 46.8753 32.7114 44.8779 37.629 44.8779C42.5465 44.8779 47.2285 48.4498 47.2285 50.914Z" fill="#EED178" stroke="#DBAA43" stroke-width="0.446409" stroke-miterlimit="10"/>
</svg>
