<svg width="37" height="37" viewBox="0 0 37 37" fill="none" xmlns="http://www.w3.org/2000/svg">
<path d="M35.4967 20.5223C36.1889 19.6956 36.1546 18.5039 35.4667 17.7158C35.5074 17.6578 35.5481 17.5977 35.5846 17.5354C36.1225 16.6014 35.8824 15.4333 35.0681 14.7762C35.0981 14.7118 35.126 14.6452 35.1517 14.5765C35.5203 13.563 35.081 12.4528 34.1659 11.9504C34.1852 11.8816 34.2023 11.8108 34.213 11.7399C34.3995 10.677 33.7759 9.66135 32.7858 9.32423C32.7922 9.25337 32.7965 9.18251 32.7965 9.1095C32.7965 8.02942 32.0058 7.13829 30.9728 6.97939C30.9664 6.90853 30.9578 6.83767 30.9471 6.76466C30.7607 5.70176 29.8263 4.96095 28.7827 4.98457C28.7655 4.91585 28.7441 4.84714 28.7184 4.77843C28.3498 3.76491 27.3019 3.19803 26.2775 3.40202C26.2475 3.3376 26.2154 3.27318 26.1789 3.21091C25.6411 2.27684 24.5095 1.90107 23.5366 2.27899C23.4959 2.22101 23.4531 2.16304 23.4059 2.10721C22.7137 1.2805 21.5351 1.10657 20.6414 1.64984C20.5921 1.5983 20.5386 1.54891 20.4829 1.50382C19.6578 0.810247 18.4684 0.844603 17.682 1.53388C17.6241 1.49308 17.5641 1.45229 17.5019 1.41578C16.5697 0.876815 15.404 1.11731 14.7482 1.93328C14.6839 1.90321 14.6175 1.8753 14.5489 1.84953C13.5374 1.4802 12.4295 1.92039 11.928 2.83728C11.8594 2.81796 11.7887 2.80078 11.718 2.79004C10.6572 2.60323 9.64357 3.22809 9.30712 4.22013C9.2364 4.21369 9.16568 4.2094 9.09282 4.2094C8.01489 4.2094 7.12555 5.00174 6.96697 6.03674C6.89625 6.04318 6.82553 6.05177 6.75267 6.0625C5.69189 6.24932 4.95255 7.18553 4.97613 8.23126C4.90755 8.24844 4.83897 8.26991 4.7704 8.29568C3.7589 8.66501 3.19315 9.71503 3.39673 10.7414C3.33244 10.7715 3.26815 10.8037 3.20601 10.8402C2.2738 11.3792 1.89878 12.5129 2.27595 13.4878C2.21809 13.5286 2.16023 13.5716 2.10451 13.6188C1.27945 14.3124 1.10587 15.4934 1.64805 16.3888C1.59662 16.4382 1.54733 16.4919 1.50233 16.5477C0.810137 17.3744 0.844425 18.5661 1.53233 19.3542C1.49161 19.4122 1.45089 19.4723 1.41446 19.5346C0.876569 20.4686 1.11659 21.6368 1.93092 22.2938C1.90092 22.3582 1.87306 22.4248 1.84735 22.4935C1.47875 23.507 1.91807 24.6172 2.83313 25.1196C2.81384 25.1884 2.7967 25.2592 2.78598 25.3301C2.59954 26.393 3.22315 27.4086 4.21322 27.7458C4.20679 27.8166 4.2025 27.8875 4.2025 27.9605C4.2025 29.0406 4.99327 29.9317 6.02619 30.0906C6.03262 30.1615 6.04119 30.2323 6.05191 30.3053C6.23835 31.3682 7.1727 32.1091 8.21634 32.0854C8.23348 32.1541 8.25491 32.2229 8.28063 32.2916C8.64922 33.3051 9.69715 33.872 10.7215 33.668C10.7515 33.7324 10.7836 33.7968 10.8201 33.8591C11.358 34.7932 12.4895 35.1689 13.4624 34.791C13.5031 34.849 13.546 34.907 13.5931 34.9628C14.2853 35.7895 15.464 35.9634 16.3576 35.4202C16.4069 35.4717 16.4604 35.5211 16.5162 35.5662C17.3412 36.2598 18.5306 36.2254 19.3171 35.5361C19.3749 35.5769 19.4349 35.6177 19.4971 35.6542C20.4293 36.1932 21.5951 35.9527 22.2508 35.1367C22.3151 35.1668 22.3816 35.1947 22.4501 35.2205C23.4616 35.5898 24.5696 35.1496 25.071 34.2327C25.1396 34.252 25.2103 34.2692 25.281 34.28C26.3418 34.4668 27.3555 33.8419 27.6919 32.8499C27.7626 32.8563 27.8333 32.8606 27.9062 32.8606C28.9841 32.8606 29.8735 32.0683 30.0321 31.0333C30.1028 31.0268 30.1735 31.0182 30.2464 31.0075C31.3071 30.8207 32.0465 29.8845 32.0229 28.8387C32.0915 28.8216 32.16 28.8001 32.2286 28.7743C33.2401 28.405 33.8059 27.355 33.6023 26.3286C33.6666 26.2985 33.7309 26.2663 33.793 26.2298C34.7252 25.6908 35.1002 24.5571 34.7231 23.5822C34.7809 23.5414 34.8388 23.4984 34.8945 23.4512C35.7196 22.7576 35.8932 21.5766 35.351 20.6812C35.4024 20.6318 35.4517 20.5781 35.4967 20.5223Z" fill="white" stroke="#B8B8B8" stroke-width="0.82" stroke-miterlimit="10" stroke-linecap="round"/>
<path d="M18.5653 34.5567C27.3638 34.5567 34.4964 27.4098 34.4964 18.5938C34.4964 9.7777 27.3638 2.63086 18.5653 2.63086C9.76685 2.63086 2.63428 9.7777 2.63428 18.5938C2.63428 27.4098 9.76685 34.5567 18.5653 34.5567Z" fill="#E4E7EE" stroke="#B8B8B8" stroke-width="0.82" stroke-miterlimit="10" stroke-linecap="round"/>
<path d="M18.5333 30.3718C25.1505 30.3718 30.5148 24.9967 30.5148 18.3663C30.5148 11.7359 25.1505 6.36084 18.5333 6.36084C11.9161 6.36084 6.55176 11.7359 6.55176 18.3663C6.55176 24.9967 11.9161 30.3718 18.5333 30.3718Z" fill="#E4E7EE" stroke="#B0B7BF" stroke-width="0.82" stroke-miterlimit="10"/>
<path d="M24.8674 19.7124C24.6617 18.7591 22.6108 18.394 20.2835 18.8965C19.6578 19.0318 19.077 19.2164 18.5648 19.4312C18.0527 19.2164 17.4719 19.0318 16.8462 18.8965C14.5189 18.394 12.468 18.7591 12.2623 19.7124C12.0566 20.6658 13.7774 21.8468 16.1025 22.3493C16.9919 22.5426 17.8427 22.607 18.5627 22.5597C19.2849 22.6048 20.1335 22.5404 21.0229 22.3493C23.3502 21.8468 25.0688 20.6658 24.8631 19.7124H24.8674Z" fill="white" stroke="#B9C0C8" stroke-width="0.741639" stroke-miterlimit="10"/>
<path d="M16.9967 15.0253C16.9838 15.0296 16.9731 15.0446 16.9581 15.0661C16.9046 15.182 16.8081 15.3152 16.6838 15.3753C16.3067 15.59 15.7988 15.2808 15.8309 14.8363C15.8309 14.6796 15.9231 14.54 16.0109 14.4219C16.0666 14.2823 15.5888 14.3553 15.4966 14.3704C13.8186 14.7483 14.1401 17.0802 15.8802 17.0201C16.611 16.9944 17.2667 16.3523 17.2089 15.6029C17.1896 15.4118 17.1424 15.1391 17.0031 15.0231H16.9946L16.9967 15.0253Z" fill="#B2B9C1"/>
<path d="M22.4806 15.0253C22.4677 15.0296 22.457 15.0446 22.442 15.0661C22.3884 15.182 22.292 15.3152 22.1677 15.3753C21.7905 15.59 21.2827 15.2808 21.3148 14.8363C21.3148 14.6796 21.4069 14.54 21.4948 14.4219C21.5505 14.2823 21.0726 14.3553 20.9805 14.3704C19.3025 14.7483 19.624 17.0802 21.3641 17.0201C22.0949 16.9943 22.7506 16.3523 22.6927 15.6029C22.6735 15.4118 22.6263 15.1391 22.487 15.0231H22.4784L22.4806 15.0253Z" fill="#B2B9C1"/>
<path d="M11.0556 18.3318C12.245 18.3318 13.2093 17.8924 13.2093 17.3504C13.2093 16.8085 12.245 16.3691 11.0556 16.3691C9.86611 16.3691 8.90186 16.8085 8.90186 17.3504C8.90186 17.8924 9.86611 18.3318 11.0556 18.3318Z" fill="white" stroke="#B9C0C8" stroke-width="0.741639" stroke-miterlimit="10"/>
<path d="M25.9433 18.3318C27.1327 18.3318 28.097 17.8924 28.097 17.3504C28.097 16.8085 27.1327 16.3691 25.9433 16.3691C24.7538 16.3691 23.7896 16.8085 23.7896 17.3504C23.7896 17.8924 24.7538 18.3318 25.9433 18.3318Z" fill="white" stroke="#B9C0C8" stroke-width="0.741639" stroke-miterlimit="10"/>
</svg>
