<svg width="37" height="37" viewBox="0 0 37 37" fill="none" xmlns="http://www.w3.org/2000/svg">
<path d="M35.4972 20.5223C36.1894 19.6956 36.1551 18.5039 35.4672 17.7158C35.5079 17.6578 35.5486 17.5977 35.585 17.5354C36.1229 16.6014 35.8829 15.4332 35.0686 14.7762C35.0986 14.7118 35.1264 14.6452 35.1522 14.5765C35.5208 13.563 35.0814 12.4528 34.1664 11.9504C34.1857 11.8816 34.2028 11.8108 34.2135 11.7399C34.4 10.677 33.7764 9.66135 32.7863 9.32423C32.7927 9.25337 32.797 9.18251 32.797 9.1095C32.797 8.02941 32.0062 7.13829 30.9733 6.97939C30.9669 6.90853 30.9583 6.83767 30.9476 6.76466C30.7612 5.70176 29.8268 4.96094 28.7832 4.98456C28.766 4.91585 28.7446 4.84714 28.7189 4.77843C28.3503 3.76491 27.3024 3.19803 26.278 3.40202C26.248 3.3376 26.2159 3.27318 26.1794 3.21091C25.6415 2.27684 24.51 1.90107 23.5371 2.27899C23.4964 2.22101 23.4535 2.16303 23.4064 2.10721C22.7142 1.2805 21.5356 1.10657 20.6419 1.64983C20.5926 1.5983 20.5391 1.54891 20.4833 1.50382C19.6583 0.810247 18.4689 0.844603 17.6824 1.53388C17.6246 1.49308 17.5646 1.45228 17.5024 1.41578C16.5702 0.876812 15.4044 1.11731 14.7487 1.93328C14.6844 1.90321 14.618 1.8753 14.5494 1.84953C13.5379 1.4802 12.43 1.92039 11.9285 2.83728C11.8599 2.81796 11.7892 2.80078 11.7185 2.79004C10.6577 2.60323 9.64406 3.22809 9.30761 4.22013C9.23689 4.21369 9.16617 4.20939 9.09331 4.20939C8.01538 4.20939 7.12604 5.00174 6.96746 6.03674C6.89674 6.04318 6.82602 6.05177 6.75316 6.0625C5.69237 6.24932 4.95304 7.18553 4.97661 8.23126C4.90804 8.24844 4.83946 8.26991 4.77088 8.29568C3.75939 8.66501 3.19364 9.71503 3.39722 10.7414C3.33293 10.7715 3.26864 10.8037 3.2065 10.8402C2.27429 11.3792 1.89927 12.5129 2.27644 13.4878C2.21858 13.5286 2.16071 13.5716 2.105 13.6188C1.27994 14.3124 1.10636 15.4934 1.64854 16.3888C1.59711 16.4382 1.54782 16.4919 1.50281 16.5477C0.810625 17.3744 0.844913 18.5661 1.53282 19.3542C1.4921 19.4122 1.45138 19.4723 1.41495 19.5346C0.877058 20.4686 1.11707 21.6368 1.93141 22.2938C1.90141 22.3582 1.87355 22.4248 1.84784 22.4935C1.47924 23.507 1.91856 24.6172 2.83362 25.1196C2.81433 25.1884 2.79719 25.2592 2.78647 25.3301C2.60003 26.393 3.22364 27.4087 4.2137 27.7458C4.20728 27.8166 4.20299 27.8875 4.20299 27.9605C4.20299 29.0406 4.99376 29.9317 6.02668 30.0906C6.03311 30.1615 6.04168 30.2323 6.0524 30.3053C6.23884 31.3682 7.17319 32.1091 8.21683 32.0854C8.23397 32.1541 8.2554 32.2229 8.28112 32.2916C8.64971 33.3051 9.69764 33.872 10.722 33.668C10.752 33.7324 10.7841 33.7968 10.8206 33.8591C11.3585 34.7932 12.49 35.1689 13.4629 34.791C13.5036 34.849 13.5465 34.907 13.5936 34.9628C14.2858 35.7895 15.4644 35.9634 16.3581 35.4202C16.4074 35.4717 16.4609 35.5211 16.5167 35.5662C17.3417 36.2598 18.5311 36.2254 19.3176 35.5361C19.3754 35.5769 19.4354 35.6177 19.4976 35.6542C20.4298 36.1932 21.5956 35.9527 22.2513 35.1367C22.3156 35.1668 22.382 35.1947 22.4506 35.2205C23.4621 35.5898 24.57 35.1496 25.0715 34.2327C25.1401 34.252 25.2108 34.2692 25.2815 34.28C26.3423 34.4668 27.3559 33.8419 27.6924 32.8499C27.7631 32.8563 27.8338 32.8606 27.9067 32.8606C28.9846 32.8606 29.874 32.0683 30.0325 31.0333C30.1033 31.0268 30.174 31.0182 30.2468 31.0075C31.3076 30.8207 32.047 29.8845 32.0234 28.8387C32.092 28.8216 32.1605 28.8001 32.2291 28.7743C33.2406 28.405 33.8064 27.355 33.6028 26.3286C33.6671 26.2985 33.7314 26.2663 33.7935 26.2298C34.7257 25.6908 35.1007 24.5571 34.7236 23.5822C34.7814 23.5414 34.8393 23.4984 34.895 23.4512C35.7201 22.7576 35.8936 21.5766 35.3515 20.6812C35.4029 20.6318 35.4522 20.5781 35.4972 20.5223Z" fill="white" stroke="#B8B8B8" stroke-width="0.82" stroke-miterlimit="10" stroke-linecap="round"/>
<path d="M18.5653 34.5591C27.3638 34.5591 34.4964 27.4123 34.4964 18.5962C34.4964 9.78014 27.3638 2.6333 18.5653 2.6333C9.76685 2.6333 2.63428 9.78014 2.63428 18.5962C2.63428 27.4123 9.76685 34.5591 18.5653 34.5591Z" fill="#E4E7EE" stroke="#B8B8B8" stroke-width="0.82" stroke-miterlimit="10" stroke-linecap="round"/>
<path d="M18.5328 30.634C25.15 30.634 30.5143 25.2589 30.5143 18.6285C30.5143 11.9981 25.15 6.62305 18.5328 6.62305C11.9156 6.62305 6.55127 11.9981 6.55127 18.6285C6.55127 25.2589 11.9156 30.634 18.5328 30.634Z" fill="#E4E7EE" stroke="#B0B7BF" stroke-width="0.82" stroke-miterlimit="10" stroke-linecap="round"/>
<path d="M11.059 19.6418C12.2484 19.6418 13.2127 19.2025 13.2127 18.6605C13.2127 18.1185 12.2484 17.6792 11.059 17.6792C9.86952 17.6792 8.90527 18.1185 8.90527 18.6605C8.90527 19.2025 9.86952 19.6418 11.059 19.6418Z" fill="white" stroke="#B9C0C8" stroke-width="0.725822" stroke-miterlimit="10"/>
<path d="M25.9447 19.6418C27.1342 19.6418 28.0984 19.2025 28.0984 18.6605C28.0984 18.1185 27.1342 17.6792 25.9447 17.6792C24.7553 17.6792 23.791 18.1185 23.791 18.6605C23.791 19.2025 24.7553 19.6418 25.9447 19.6418Z" fill="white" stroke="#B9C0C8" stroke-width="0.725822" stroke-miterlimit="10"/>
<path d="M14.0309 15.3836C15.1517 15.1882 16.0967 15.8217 16.3924 16.7386C16.5146 17.1186 16.6025 17.284 16.4953 17.3484C16.3346 17.4472 16.0153 16.7729 15.0959 16.4186C14.0652 16.0214 12.7579 16.6398 12.3208 16.5539C11.9929 16.4873 12.8458 15.5919 14.0287 15.3836H14.0309Z" fill="#B2B9C1" stroke="#B2B9C1" stroke-width="0.725822" stroke-miterlimit="10" stroke-linecap="round"/>
<path d="M22.8603 15.3836C21.7395 15.1882 20.7945 15.8217 20.4988 16.7386C20.3766 17.1186 20.2887 17.284 20.3959 17.3484C20.5566 17.4472 20.8759 16.7729 21.7953 16.4186C22.826 16.0214 24.1333 16.6398 24.5704 16.5539C24.8983 16.4873 24.0454 15.5919 22.8625 15.3836H22.8603Z" fill="#B2B9C1" stroke="#B2B9C1" stroke-width="0.725822" stroke-miterlimit="10" stroke-linecap="round"/>
<path d="M18.5584 19.5108C18.0891 19.5129 17.0969 19.339 17.4633 18.7356C17.9391 18.0828 19.5913 18.2267 19.7349 18.9653C19.7049 19.4485 18.9999 19.4914 18.5927 19.5108H18.5584Z" fill="#B2B9C1" stroke="#B2B9C1" stroke-width="0.725822" stroke-miterlimit="10" stroke-linecap="round"/>
</svg>
