<svg width="25" height="25" viewBox="0 0 25 25" fill="none" xmlns="http://www.w3.org/2000/svg">
<path d="M24.363 14.2138C24.8318 13.6543 24.8085 12.8476 24.3427 12.3142C24.3702 12.275 24.3978 12.2343 24.4225 12.1921C24.7868 11.5599 24.6242 10.7692 24.0727 10.3245C24.093 10.2809 24.1119 10.2358 24.1293 10.1893C24.3789 9.50333 24.0814 8.75192 23.4617 8.41183C23.4748 8.36532 23.4864 8.31736 23.4936 8.26939C23.6199 7.54996 23.1976 6.8625 22.527 6.63431C22.5314 6.58635 22.5343 6.53839 22.5343 6.48897C22.5343 5.75791 21.9988 5.15475 21.2992 5.0472C21.2949 4.99923 21.2891 4.95127 21.2818 4.90185C21.1555 4.18242 20.5228 3.68099 19.816 3.69698C19.8044 3.65047 19.7898 3.60396 19.7724 3.55746C19.5228 2.87145 18.8131 2.48775 18.1194 2.62582C18.099 2.58222 18.0773 2.53862 18.0526 2.49647C17.6883 1.86424 16.922 1.60989 16.2631 1.86569C16.2355 1.82645 16.2065 1.78721 16.1746 1.74942C15.7058 1.18986 14.9076 1.07213 14.3024 1.43984C14.269 1.40496 14.2327 1.37154 14.195 1.34101C13.6362 0.871564 12.8307 0.894818 12.2981 1.36136C12.2589 1.33375 12.2182 1.30613 12.1762 1.28142C11.5448 0.916619 10.7553 1.0794 10.3112 1.63169C10.2677 1.61135 10.2227 1.59245 10.1762 1.57501C9.4912 1.32503 8.74086 1.62297 8.40125 2.24358C8.35481 2.2305 8.30691 2.21887 8.25902 2.2116C7.54061 2.08516 6.85413 2.5081 6.62627 3.17957C6.57838 3.17521 6.53048 3.1723 6.48114 3.1723C5.75112 3.1723 5.14882 3.70861 5.04142 4.40915C4.99353 4.41351 4.94563 4.41932 4.89629 4.42659C4.17788 4.55304 3.67717 5.18672 3.69313 5.89453C3.64669 5.90616 3.60025 5.92069 3.55381 5.93813C2.86878 6.18812 2.48563 6.89883 2.6235 7.59356C2.57996 7.61391 2.53642 7.63571 2.49433 7.66042C1.86301 8.02522 1.60902 8.79262 1.86446 9.45246C1.82527 9.48008 1.78609 9.50915 1.74835 9.54112C1.18959 10.0106 1.07203 10.8099 1.43922 11.416C1.40439 11.4494 1.371 11.4858 1.34053 11.5236C0.871747 12.0831 0.894969 12.8898 1.36085 13.4232C1.33327 13.4624 1.30569 13.5031 1.28102 13.5453C0.916738 14.1775 1.07929 14.9681 1.63079 15.4129C1.61047 15.4565 1.59161 15.5015 1.57419 15.548C1.32456 16.2341 1.62209 16.9855 2.2418 17.3256C2.22874 17.3721 2.21713 17.42 2.20987 17.468C2.08361 18.1874 2.50594 18.8749 3.17646 19.1031C3.17211 19.151 3.1692 19.199 3.1692 19.2484C3.1692 19.9795 3.70474 20.5826 4.40429 20.6902C4.40864 20.7381 4.41444 20.7861 4.4217 20.8355C4.54797 21.555 5.18075 22.0564 5.88755 22.0404C5.89916 22.0869 5.91367 22.1334 5.93109 22.1799C6.18071 22.8659 6.89041 23.2496 7.58415 23.1116C7.60447 23.1552 7.62624 23.1988 7.65091 23.2409C8.01519 23.8731 8.7815 24.1275 9.4404 23.8717C9.46798 23.9109 9.497 23.9502 9.52893 23.988C9.99771 24.5475 10.7959 24.6653 11.4012 24.2975C11.4345 24.3324 11.4708 24.3658 11.5085 24.3964C12.0673 24.8658 12.8728 24.8426 13.4054 24.376C13.4446 24.4036 13.4853 24.4313 13.5273 24.456C14.1587 24.8208 14.9482 24.658 15.3923 24.1057C15.4358 24.126 15.4808 24.1449 15.5273 24.1624C16.2123 24.4124 16.9626 24.1144 17.3023 23.4938C17.3487 23.5069 17.3966 23.5185 17.4445 23.5258C18.1629 23.6522 18.8494 23.2293 19.0772 22.5578C19.1251 22.5622 19.173 22.5651 19.2224 22.5651C19.9524 22.5651 20.5547 22.0288 20.6621 21.3282C20.71 21.3239 20.7579 21.3181 20.8072 21.3108C21.5256 21.1843 22.0263 20.5507 22.0104 19.8429C22.0568 19.8312 22.1033 19.8167 22.1497 19.7992C22.8347 19.5493 23.2179 18.8386 23.08 18.1438C23.1235 18.1235 23.1671 18.1017 23.2092 18.077C23.8405 17.7122 24.0945 16.9448 23.8391 16.2849C23.8782 16.2573 23.9174 16.2282 23.9552 16.1963C24.5139 15.7268 24.6315 14.9274 24.2643 14.3214C24.2991 14.2879 24.3325 14.2516 24.363 14.2138Z" fill="white" stroke="#B8B8B8" stroke-width="0.54" stroke-miterlimit="10" stroke-linecap="round"/>
<path d="M12.8961 23.7147C18.8548 23.7147 23.6853 18.8773 23.6853 12.9101C23.6853 6.94286 18.8548 2.10547 12.8961 2.10547C6.93742 2.10547 2.10693 6.94286 2.10693 12.9101C2.10693 18.8773 6.93742 23.7147 12.8961 23.7147Z" fill="white" stroke="#B8B8B8" stroke-width="0.54" stroke-miterlimit="10" stroke-linecap="round"/>
<path d="M12.8742 21.0579C17.3556 21.0579 20.9885 17.4198 20.9885 12.9319C20.9885 8.44404 17.3556 4.80591 12.8742 4.80591C8.3927 4.80591 4.75977 8.44404 4.75977 12.9319C4.75977 17.4198 8.3927 21.0579 12.8742 21.0579Z" fill="#FFC783" stroke="#775026" stroke-width="0.264685" stroke-miterlimit="10" stroke-linecap="round"/>
<path d="M7.8121 13.6177C8.61766 13.6177 9.27069 13.3203 9.27069 12.9535C9.27069 12.5867 8.61766 12.2893 7.8121 12.2893C7.00655 12.2893 6.35352 12.5867 6.35352 12.9535C6.35352 13.3203 7.00655 13.6177 7.8121 13.6177Z" fill="#FFC0C0" stroke="#D88080" stroke-width="0.264685" stroke-miterlimit="10"/>
<path d="M17.8927 13.6177C18.6982 13.6177 19.3513 13.3203 19.3513 12.9535C19.3513 12.5867 18.6982 12.2893 17.8927 12.2893C17.0871 12.2893 16.4341 12.5867 16.4341 12.9535C16.4341 13.3203 17.0871 13.6177 17.8927 13.6177Z" fill="#FFC0C0" stroke="#D88080" stroke-width="0.264685" stroke-miterlimit="10"/>
<path d="M9.82522 10.7357C10.5843 10.6034 11.2243 11.0322 11.4246 11.6528C11.5073 11.91 11.5668 12.022 11.4942 12.0656C11.3854 12.1324 11.1692 11.676 10.5465 11.4362C9.84844 11.1674 8.96313 11.5859 8.66706 11.5278C8.445 11.4827 9.02263 10.8767 9.82377 10.7357H9.82522Z" fill="black" stroke="black" stroke-width="0.264685" stroke-miterlimit="10" stroke-linecap="round"/>
<path d="M15.8047 10.7357C15.0457 10.6034 14.4056 11.0322 14.2054 11.6528C14.1226 11.91 14.0631 12.022 14.1357 12.0656C14.2445 12.1324 14.4608 11.676 15.0834 11.4362C15.7815 11.1674 16.6668 11.5859 16.9629 11.5278C17.1849 11.4827 16.6073 10.8767 15.8062 10.7357H15.8047Z" fill="black" stroke="black" stroke-width="0.264685" stroke-miterlimit="10" stroke-linecap="round"/>
<path d="M12.8912 13.5291C12.5734 13.5305 11.9014 13.4128 12.1496 13.0044C12.4718 12.5626 13.5907 12.6599 13.688 13.1599C13.6677 13.4869 13.1902 13.516 12.9144 13.5291H12.8912Z" fill="black" stroke="black" stroke-width="0.264685" stroke-miterlimit="10" stroke-linecap="round"/>
</svg>
