<svg width="41" height="49" viewBox="0 0 41 49" fill="none" xmlns="http://www.w3.org/2000/svg">
<path d="M11.253 1.0206C9.81434 1.47493 9.2709 5.67805 8.93367 7.86222C8.74201 9.62607 8.2665 12.8185 9.24179 14.2665C10.04 15.2699 11.1705 15.1241 12.0876 15.1023C13.7543 14.9225 19.082 14.0284 19.4313 11.6499C19.6133 9.87145 17.4929 7.13092 16.4521 5.67076C15.1105 3.96036 12.7208 0.729057 11.2676 1.01817L11.253 1.02303V1.0206Z" fill="#FFC783" stroke="#775026" stroke-width="0.442455" stroke-miterlimit="10" stroke-linecap="round"/>
<path d="M29.8466 1.0206C31.2852 1.47493 31.8287 5.67805 32.1659 7.86222C32.3576 9.62607 32.8331 12.8185 31.8578 14.2665C31.0596 15.2699 29.929 15.1241 29.012 15.1023C27.3453 14.9225 22.0176 14.0284 21.6682 11.6499C21.4863 9.87145 23.6067 7.13092 24.6475 5.67076C25.9891 3.96036 28.3788 0.729057 29.832 1.01817L29.8466 1.02303V1.0206Z" fill="#FFC783" stroke="#775026" stroke-width="0.442455" stroke-miterlimit="10" stroke-linecap="round"/>
<path d="M10.9573 1.31696C10.9573 1.31696 16.7289 8.49385 12.59 13.0833C8.45112 17.6727 8.36621 12.3593 8.36621 12.3593C8.36621 12.3593 8.87811 2.28149 10.9548 1.31696H10.9573Z" fill="#FFF2E3" stroke="#775026" stroke-width="0.442455" stroke-miterlimit="10" stroke-linecap="round"/>
<path d="M30.1232 1.31702C30.1232 1.31702 24.3516 8.49391 28.4905 13.0833C32.6294 17.6728 32.7143 12.3593 32.7143 12.3593C32.7143 12.3593 32.2024 2.28155 30.1257 1.31702H30.1232Z" fill="#FFF2E3" stroke="#775026" stroke-width="0.442455" stroke-miterlimit="10" stroke-linecap="round"/>
<path d="M39.7427 30.2141C40.5263 29.2787 40.4875 27.9303 39.7087 27.0386C39.7548 26.973 39.8009 26.905 39.8421 26.8346C40.4511 25.7777 40.1794 24.456 39.2575 23.7126C39.2914 23.6397 39.323 23.5644 39.3521 23.4866C39.7694 22.3399 39.272 21.0838 38.2361 20.5153C38.2579 20.4376 38.2773 20.3574 38.2894 20.2772C38.5005 19.0746 37.7945 17.9254 36.6737 17.544C36.681 17.4638 36.6858 17.3836 36.6858 17.301C36.6858 16.0789 35.7906 15.0707 34.6212 14.8909C34.6139 14.8107 34.6042 14.7305 34.5921 14.6479C34.381 13.4453 33.3233 12.6071 32.1418 12.6338C32.1223 12.5561 32.0981 12.4783 32.069 12.4006C31.6517 11.2539 30.4653 10.6125 29.3057 10.8433C29.2717 10.7704 29.2353 10.6975 29.1941 10.627C28.5851 9.57017 27.3041 9.145 26.2027 9.5726C26.1566 9.50701 26.1081 9.44141 26.0547 9.37824C25.2711 8.44286 23.9367 8.24607 22.9251 8.86074C22.8693 8.80243 22.8086 8.74656 22.7455 8.69554C21.8115 7.91079 20.465 7.94966 19.5746 8.72955C19.5091 8.68339 19.4412 8.63723 19.3709 8.59592C18.3155 7.98611 16.9957 8.25822 16.2533 9.18145C16.1805 9.14743 16.1053 9.11585 16.0277 9.08669C14.8826 8.66881 13.6283 9.16687 13.0606 10.2043C12.983 10.1824 12.9029 10.163 12.8229 10.1508C11.6219 9.93946 10.4744 10.6465 10.0935 11.7689C10.0134 11.7616 9.93338 11.7568 9.8509 11.7568C8.63058 11.7568 7.62375 12.6533 7.44422 13.8243C7.36416 13.8316 7.2841 13.8413 7.20162 13.8535C6.0007 14.0648 5.16371 15.1241 5.19039 16.3073C5.11276 16.3268 5.03512 16.351 4.95749 16.3802C3.81238 16.7981 3.17189 17.9861 3.40237 19.1475C3.32959 19.1815 3.2568 19.2179 3.18645 19.2592C2.1311 19.869 1.70654 21.1518 2.13353 22.2549C2.06802 22.301 2.00252 22.3496 1.93944 22.4031C1.0054 23.1878 0.808887 24.5241 1.42269 25.5372C1.36446 25.5931 1.30866 25.6538 1.25771 25.717C0.474086 26.6523 0.512903 28.0007 1.29168 28.8924C1.24558 28.958 1.19948 29.026 1.15824 29.0965C0.549294 30.1533 0.821016 31.475 1.74293 32.2184C1.70896 32.2913 1.67742 32.3667 1.64831 32.4444C1.23102 33.5911 1.72837 34.8472 2.76431 35.4157C2.74248 35.4935 2.72307 35.5737 2.71094 35.6538C2.49987 36.8565 3.20585 38.0056 4.3267 38.3871C4.31943 38.4673 4.31458 38.5474 4.31458 38.63C4.31458 39.8521 5.2098 40.8604 6.37917 41.0401C6.38645 41.1203 6.39615 41.2005 6.40828 41.2831C6.61935 42.4857 7.67713 43.3239 8.85863 43.2972C8.87804 43.3749 8.9023 43.4527 8.93141 43.5304C9.3487 44.6772 10.5351 45.3186 11.6947 45.0878C11.7287 45.1607 11.7651 45.2336 11.8063 45.304C12.4153 46.3609 13.6962 46.786 14.7977 46.3584C14.8438 46.424 14.8923 46.4896 14.9457 46.5528C15.7293 47.4882 17.0636 47.685 18.0753 47.0703C18.1311 47.1286 18.1918 47.1845 18.2549 47.2355C19.1889 48.0202 20.5354 47.9814 21.4257 47.2015C21.4912 47.2477 21.5592 47.2938 21.6295 47.3351C22.6849 47.9449 24.0047 47.6728 24.747 46.7496C24.8198 46.7836 24.895 46.8152 24.9727 46.8443C26.1178 47.2622 27.3721 46.7642 27.9398 45.7267C28.0174 45.7486 28.0975 45.7681 28.1775 45.7802C29.3784 45.9916 30.526 45.2846 30.9069 44.1621C30.9869 44.1694 31.067 44.1743 31.1495 44.1743C32.3698 44.1743 33.3766 43.2778 33.5562 42.1067C33.6362 42.0994 33.7163 42.0897 33.7988 42.0776C34.9997 41.8662 35.8367 40.8069 35.81 39.6237C35.8876 39.6043 35.9653 39.58 36.0429 39.5508C37.188 39.1329 37.8285 37.9449 37.598 36.7836C37.6708 36.7496 37.7436 36.7131 37.8139 36.6718C38.8693 36.062 39.2938 34.7792 38.8669 33.6762C38.9324 33.63 38.9979 33.5814 39.0609 33.528C39.995 32.7432 40.1915 31.407 39.5777 30.3939C39.6359 30.338 39.6917 30.2772 39.7427 30.2141Z" fill="white" stroke="#B8B8B8" stroke-width="0.442455" stroke-miterlimit="10" stroke-linecap="round"/>
<path d="M20.5741 46.0961C30.5348 46.0961 38.6096 38.0098 38.6096 28.0348C38.6096 18.0599 30.5348 9.97357 20.5741 9.97357C10.6133 9.97357 2.53857 18.0599 2.53857 28.0348C2.53857 38.0098 10.6133 46.0961 20.5741 46.0961Z" fill="white" stroke="#B8B8B8" stroke-width="0.442455" stroke-miterlimit="10" stroke-linecap="round"/>
<path d="M20.5379 41.6548C28.0292 41.6548 34.1021 35.5733 34.1021 28.0712C34.1021 20.5692 28.0292 14.4876 20.5379 14.4876C13.0465 14.4876 6.97363 20.5692 6.97363 28.0712C6.97363 35.5733 13.0465 41.6548 20.5379 41.6548Z" fill="#FFC783" stroke="#775026" stroke-width="0.442455" stroke-miterlimit="10" stroke-linecap="round"/>
<path d="M12.0759 29.2179C13.4225 29.2179 14.5141 28.7208 14.5141 28.1076C14.5141 27.4944 13.4225 26.9973 12.0759 26.9973C10.7293 26.9973 9.6377 27.4944 9.6377 28.1076C9.6377 28.7208 10.7293 29.2179 12.0759 29.2179Z" fill="#FFC0C0" stroke="#D88080" stroke-width="0.442455" stroke-miterlimit="10"/>
<path d="M28.9275 29.2178C30.2741 29.2178 31.3657 28.7207 31.3657 28.1075C31.3657 27.4943 30.2741 26.9972 28.9275 26.9972C27.5809 26.9972 26.4893 27.4943 26.4893 28.1075C26.4893 28.7207 27.5809 29.2178 28.9275 29.2178Z" fill="#FFC0C0" stroke="#D88080" stroke-width="0.442455" stroke-miterlimit="10"/>
<path d="M15.4404 24.4001C16.7093 24.179 17.7792 24.8957 18.114 25.9331C18.2523 26.3632 18.3517 26.5502 18.2304 26.6231C18.0485 26.7349 17.687 25.972 16.6462 25.5711C15.4792 25.1217 13.9993 25.8214 13.5044 25.7242C13.1332 25.6489 14.0988 24.6358 15.438 24.4001H15.4404Z" fill="black" stroke="black" stroke-width="0.442455" stroke-miterlimit="10" stroke-linecap="round"/>
<path d="M25.4359 24.4002C24.1671 24.1791 23.0972 24.8958 22.7624 25.9332C22.6241 26.3632 22.5246 26.5503 22.6459 26.6232C22.8279 26.7349 23.1894 25.9721 24.2301 25.5712C25.3971 25.1217 26.877 25.8214 27.3719 25.7243C27.7431 25.6489 26.7775 24.6358 25.4383 24.4002H25.4359Z" fill="black" stroke="black" stroke-width="0.442455" stroke-miterlimit="10" stroke-linecap="round"/>
<path d="M20.5666 29.0697C20.0353 29.0722 18.912 28.8754 19.3269 28.1927C19.8655 27.4541 21.736 27.6168 21.8985 28.4526C21.8646 28.9993 21.0664 29.0479 20.6054 29.0697H20.5666Z" fill="black" stroke="black" stroke-width="0.442455" stroke-miterlimit="10" stroke-linecap="round"/>
</svg>
