<svg width="54" height="53" viewBox="0 0 54 53" fill="none" xmlns="http://www.w3.org/2000/svg">
<path d="M18.8524 1.80922C17.5471 2.22144 17.054 6.03501 16.748 8.01674C16.5741 9.61712 16.1427 12.5137 17.0276 13.8275C17.7518 14.7379 18.7775 14.6056 19.6096 14.5858C21.1219 14.4227 25.9558 13.6114 26.2727 11.4534C26.4378 9.83976 24.514 7.35322 23.5696 6.02839C22.3523 4.47651 20.1841 1.5447 18.8656 1.80702L18.8524 1.81143V1.80922Z" fill="#FFC783" stroke="#775026" stroke-width="0.401447" stroke-miterlimit="10" stroke-linecap="round"/>
<path d="M35.7223 1.80922C37.0277 2.22144 37.5207 6.03501 37.8267 8.01674C38.0006 9.61712 38.432 12.5137 37.5471 13.8275C36.8229 14.7379 35.7972 14.6056 34.9651 14.5858C33.4529 14.4227 28.619 13.6114 28.302 11.4534C28.1369 9.83976 30.0608 7.35322 31.0051 6.02839C32.2224 4.47651 34.3906 1.5447 35.7091 1.80702L35.7223 1.81143V1.80922Z" fill="#FFC783" stroke="#775026" stroke-width="0.401447" stroke-miterlimit="10" stroke-linecap="round"/>
<path d="M18.5838 2.07812C18.5838 2.07812 23.8205 8.58985 20.0653 12.7539C16.31 16.918 16.2329 12.097 16.2329 12.097C16.2329 12.097 16.6974 2.95326 18.5816 2.07812H18.5838Z" fill="#FFF2E3" stroke="#775026" stroke-width="0.401447" stroke-miterlimit="10" stroke-linecap="round"/>
<path d="M35.974 2.07812C35.974 2.07812 30.7373 8.58985 34.4926 12.7539C38.2479 16.918 38.3249 12.097 38.3249 12.097C38.3249 12.097 37.8605 2.95326 35.9762 2.07812H35.974Z" fill="#FFF2E3" stroke="#775026" stroke-width="0.401447" stroke-miterlimit="10" stroke-linecap="round"/>
<path d="M44.7017 28.2967C45.4127 27.448 45.3774 26.2246 44.6708 25.4156C44.7127 25.3561 44.7545 25.2944 44.7919 25.2304C45.3444 24.2715 45.0979 23.0724 44.2614 22.3978C44.2922 22.3317 44.3209 22.2634 44.3473 22.1928C44.7259 21.1524 44.2746 20.0127 43.3347 19.4969C43.3545 19.4263 43.3721 19.3536 43.3831 19.2808C43.5746 18.1897 42.9341 17.147 41.9171 16.8009C41.9237 16.7282 41.9281 16.6554 41.9281 16.5805C41.9281 15.4717 41.1159 14.5569 40.0549 14.3937C40.0483 14.321 40.0395 14.2483 40.0285 14.1733C39.837 13.0821 38.8772 12.3216 37.8052 12.3459C37.7876 12.2753 37.7656 12.2048 37.7392 12.1343C37.3606 11.0938 36.2842 10.5118 35.232 10.7213C35.2012 10.6551 35.1681 10.589 35.1307 10.5251C34.5782 9.56616 33.416 9.1804 32.4166 9.56837C32.3748 9.50885 32.3308 9.44933 32.2823 9.39201C31.5713 8.54333 30.3607 8.36477 29.4427 8.92248C29.3921 8.86958 29.3371 8.81888 29.2799 8.77259C28.4324 8.06057 27.2107 8.09584 26.4028 8.80345C26.3434 8.76156 26.2818 8.71968 26.2179 8.68221C25.2604 8.12891 24.0629 8.3758 23.3894 9.21346C23.3233 9.1826 23.2551 9.15394 23.1847 9.12749C22.1457 8.74834 21.0076 9.20023 20.4925 10.1415C20.4221 10.1217 20.3495 10.104 20.2768 10.093C19.1872 9.90122 18.146 10.5427 17.8004 11.5611C17.7278 11.5545 17.6552 11.5501 17.5803 11.5501C16.4731 11.5501 15.5596 12.3635 15.3967 13.426C15.3241 13.4326 15.2514 13.4415 15.1766 13.4525C14.087 13.6443 13.3275 14.6054 13.3518 15.6789C13.2813 15.6965 13.2109 15.7186 13.1404 15.745C12.1015 16.1242 11.5203 17.2021 11.7295 18.2558C11.6634 18.2867 11.5974 18.3197 11.5335 18.3572C10.576 18.9105 10.1908 20.0744 10.5782 21.0752C10.5188 21.1171 10.4593 21.1612 10.4021 21.2097C9.55464 21.9217 9.37634 23.1341 9.93325 24.0533C9.88042 24.104 9.82979 24.1591 9.78357 24.2164C9.07257 25.0651 9.10779 26.2885 9.81438 27.0976C9.77256 27.1571 9.73074 27.2188 9.69332 27.2827C9.14081 28.2416 9.38735 29.4408 10.2238 30.1153C10.193 30.1815 10.1644 30.2498 10.138 30.3204C9.75935 31.3608 10.2106 32.5005 11.1505 33.0163C11.1307 33.0868 11.1131 33.1596 11.1021 33.2323C10.9106 34.3235 11.5512 35.3662 12.5681 35.7123C12.5615 35.785 12.5571 35.8577 12.5571 35.9327C12.5571 37.0415 13.3694 37.9563 14.4304 38.1194C14.437 38.1922 14.4458 38.2649 14.4568 38.3399C14.6483 39.431 15.608 40.1915 16.68 40.1673C16.6976 40.2378 16.7196 40.3084 16.7461 40.3789C17.1247 41.4194 18.2011 42.0013 19.2533 41.7919C19.2841 41.858 19.3171 41.9242 19.3545 41.9881C19.907 42.947 21.0693 43.3328 22.0686 42.9448C22.1104 43.0043 22.1545 43.0638 22.2029 43.1212C22.9139 43.9698 24.1246 44.1484 25.0425 43.5907C25.0931 43.6436 25.1481 43.6943 25.2054 43.7406C26.0529 44.4526 27.2745 44.4173 28.0824 43.7097C28.1418 43.7516 28.2034 43.7935 28.2673 43.831C29.2248 44.3843 30.4223 44.1374 31.0959 43.2997C31.1619 43.3306 31.2301 43.3592 31.3006 43.3857C32.3396 43.7648 33.4776 43.3129 33.9927 42.3717C34.0631 42.3915 34.1358 42.4091 34.2084 42.4202C35.298 42.6119 36.3392 41.9705 36.6848 40.9521C36.7574 40.9587 36.8301 40.9631 36.9049 40.9631C38.0121 40.9631 38.9256 40.1497 39.0885 39.0872C39.1612 39.0805 39.2338 39.0717 39.3087 39.0607C40.3983 38.8689 41.1577 37.9078 41.1335 36.8343C41.2039 36.8166 41.2743 36.7946 41.3448 36.7681C42.3838 36.389 42.9649 35.3111 42.7558 34.2574C42.8218 34.2265 42.8879 34.1934 42.9517 34.156C43.9092 33.6027 44.2944 32.4388 43.907 31.438C43.9665 31.3961 44.0259 31.352 44.0831 31.3035C44.9306 30.5915 45.1089 29.3791 44.552 28.4599C44.6048 28.4092 44.6554 28.354 44.7017 28.2967Z" fill="white" stroke="#BBBBBB" stroke-width="0.401447" stroke-miterlimit="10" stroke-linecap="round"/>
<path d="M27.3097 42.7068C36.3473 42.7068 43.6737 35.3699 43.6737 26.3195C43.6737 17.269 36.3473 9.93213 27.3097 9.93213C18.2722 9.93213 10.9458 17.269 10.9458 26.3195C10.9458 35.3699 18.2722 42.7068 27.3097 42.7068Z" fill="white" stroke="#BBBBBB" stroke-width="0.401447" stroke-miterlimit="10" stroke-linecap="round"/>
<path d="M27.2768 38.6772C34.0738 38.6772 39.5839 33.1592 39.5839 26.3525C39.5839 19.5458 34.0738 14.0278 27.2768 14.0278C20.4798 14.0278 14.9697 19.5458 14.9697 26.3525C14.9697 33.1592 20.4798 38.6772 27.2768 38.6772Z" fill="#FFC783" stroke="#775026" stroke-width="0.401447" stroke-miterlimit="10" stroke-linecap="round"/>
<path d="M19.5985 27.3932C20.8203 27.3932 21.8107 26.9422 21.8107 26.3858C21.8107 25.8294 20.8203 25.3784 19.5985 25.3784C18.3767 25.3784 17.3862 25.8294 17.3862 26.3858C17.3862 26.9422 18.3767 27.3932 19.5985 27.3932Z" fill="#FFC0C0" stroke="#D88080" stroke-width="0.401447" stroke-miterlimit="10"/>
<path d="M34.8885 27.3932C36.1103 27.3932 37.1007 26.9422 37.1007 26.3858C37.1007 25.8294 36.1103 25.3784 34.8885 25.3784C33.6667 25.3784 32.6763 25.8294 32.6763 26.3858C32.6763 26.9422 33.6667 27.3932 34.8885 27.3932Z" fill="#FFC0C0" stroke="#D88080" stroke-width="0.401447" stroke-miterlimit="10"/>
<path d="M22.652 23.0218C23.8033 22.8212 24.774 23.4715 25.0778 24.4128C25.2032 24.8029 25.2935 24.9727 25.1834 25.0388C25.0183 25.1402 24.6903 24.448 23.746 24.0843C22.6872 23.6765 21.3445 24.3114 20.8954 24.2232C20.5586 24.1548 21.4347 23.2356 22.6498 23.0218H22.652Z" fill="black" stroke="black" stroke-width="0.401447" stroke-miterlimit="10" stroke-linecap="round"/>
<path d="M31.7211 23.0218C30.5698 22.8212 29.5991 23.4715 29.2953 24.4128C29.1699 24.8029 29.0796 24.9727 29.1897 25.0388C29.3548 25.1402 29.6828 24.448 30.6271 24.0843C31.6859 23.6765 33.0286 24.3114 33.4777 24.2232C33.8145 24.1548 32.9384 23.2356 31.7233 23.0218H31.7211Z" fill="black" stroke="black" stroke-width="0.401447" stroke-miterlimit="10" stroke-linecap="round"/>
<path d="M27.3027 27.2587C26.8207 27.261 25.8015 27.0824 26.1779 26.463C26.6666 25.7928 28.3637 25.9405 28.5112 26.6988C28.4804 27.1948 27.7562 27.2389 27.3379 27.2587H27.3027Z" fill="black" stroke="black" stroke-width="0.401447" stroke-miterlimit="10" stroke-linecap="round"/>
<path d="M6.3514 11.4091C9.22168 11.4091 11.5485 9.07891 11.5485 6.20453C11.5485 3.33015 9.22168 1 6.3514 1C3.48112 1 1.1543 3.33015 1.1543 6.20453C1.1543 9.07891 3.48112 11.4091 6.3514 11.4091Z" fill="#FFC783" stroke="#775026" stroke-width="0.401447" stroke-miterlimit="10" stroke-linecap="round"/>
<path d="M48.2674 11.4091C51.1377 11.4091 53.4645 9.07891 53.4645 6.20453C53.4645 3.33015 51.1377 1 48.2674 1C45.3971 1 43.0703 3.33015 43.0703 6.20453C43.0703 9.07891 45.3971 11.4091 48.2674 11.4091Z" fill="#FFC783" stroke="#775026" stroke-width="0.401447" stroke-miterlimit="10" stroke-linecap="round"/>
<path d="M7.32422 49.7565C7.32422 52.2232 12.0062 52.6465 16.9238 52.6465C21.8413 52.6465 24.1372 50.6471 24.1372 48.1804C24.1372 45.7137 21.8413 43.7144 16.9238 43.7144C12.0062 43.7144 7.32422 47.2899 7.32422 49.7565Z" fill="#FFC783" stroke="#775026" stroke-width="0.401447" stroke-miterlimit="10" stroke-linecap="round"/>
<path d="M47.228 49.7565C47.228 52.2232 42.546 52.6465 37.6285 52.6465C32.7109 52.6465 30.415 50.6471 30.415 48.1804C30.415 45.7137 32.7109 43.7144 37.6285 43.7144C42.546 43.7144 47.228 47.2899 47.228 49.7565Z" fill="#FFC783" stroke="#775026" stroke-width="0.401447" stroke-miterlimit="10" stroke-linecap="round"/>
</svg>
