<svg width="54" height="61" viewBox="0 0 54 61" fill="none" xmlns="http://www.w3.org/2000/svg">
<path d="M25.1284 16.5893C25.8791 16.2078 25.3089 9.98168 21.0097 8.23713C18.0996 7.05719 14.1504 8.19964 13.0762 10.2552C12.6601 11.0513 12.0988 13.0275 14.3728 13.6957C15.9863 14.1699 17.1993 12.4077 19.5415 12.5224C22.8831 12.6856 24.468 16.9246 25.1284 16.5893Z" fill="#FFE49F" stroke="#E2B249" stroke-width="0.400025" stroke-miterlimit="10" stroke-linecap="round"/>
<path d="M28.2168 17.9699C29.4825 18.4705 33.6188 11.0446 33.654 6.27854C33.6562 5.82421 33.5924 4.94201 32.998 3.72458C32.4433 2.58654 30.6911 0.744955 28.7605 1.02946C27.3891 1.23237 26.4359 2.44319 26.2818 3.58784C26.1013 4.95084 27.0743 6.09328 27.5542 6.7814C30.7989 11.4262 27.0589 17.5111 28.2146 17.9699H28.2168Z" fill="#FFE49F" stroke="#E2B249" stroke-width="0.400025" stroke-miterlimit="10" stroke-linecap="round"/>
<path d="M44.5484 34.4275C45.2594 33.5784 45.2242 32.3544 44.5175 31.5449C44.5594 31.4854 44.6012 31.4236 44.6386 31.3597C45.1912 30.4003 44.9446 29.2005 44.1081 28.5256C44.1389 28.4595 44.1675 28.3911 44.194 28.3205C44.5726 27.2795 44.1213 26.1393 43.1813 25.6232C43.2012 25.5526 43.2188 25.4798 43.2298 25.407C43.4213 24.3153 42.7807 23.2721 41.7637 22.9259C41.7703 22.8531 41.7747 22.7803 41.7747 22.7053C41.7747 21.596 40.9624 20.6807 39.9014 20.5175C39.8948 20.4447 39.886 20.3719 39.875 20.2969C39.6834 19.2052 38.7237 18.4443 37.6516 18.4686C37.634 18.398 37.612 18.3274 37.5856 18.2568C37.207 17.2158 36.1305 16.6336 35.0783 16.8431C35.0475 16.7769 35.0144 16.7108 34.977 16.6468C34.4245 15.6874 33.2622 15.3015 32.2628 15.6896C32.221 15.6301 32.1769 15.5705 32.1285 15.5132C31.4175 14.6641 30.2068 14.4854 29.2888 15.0434C29.2382 14.9905 29.1831 14.9398 29.1259 14.8935C28.2784 14.1811 27.0567 14.2164 26.2488 14.9243C26.1893 14.8824 26.1277 14.8405 26.0639 14.803C25.1063 14.2494 23.9088 14.4965 23.2352 15.3346C23.1691 15.3037 23.1009 15.275 23.0304 15.2485C21.9914 14.8692 20.8533 15.3213 20.3382 16.2631C20.2678 16.2432 20.1951 16.2256 20.1225 16.2145C19.0328 16.0227 17.9916 16.6645 17.646 17.6834C17.5734 17.6768 17.5007 17.6724 17.4259 17.6724C16.3186 17.6724 15.4051 18.4862 15.2422 19.5493C15.1695 19.5559 15.0969 19.5647 15.022 19.5757C13.9324 19.7676 13.1729 20.7292 13.1971 21.8033C13.1267 21.8209 13.0563 21.843 12.9858 21.8694C11.9468 22.2488 11.3656 23.3273 11.5748 24.3815C11.5087 24.4124 11.4427 24.4455 11.3789 24.4829C10.4213 25.0365 10.036 26.201 10.4235 27.2023C10.364 27.2442 10.3046 27.2883 10.2474 27.3369C9.39987 28.0492 9.22156 29.2623 9.77849 30.1819C9.72566 30.2327 9.67503 30.2878 9.6288 30.3452C8.91778 31.1943 8.953 32.4183 9.65962 33.2277C9.6178 33.2873 9.57597 33.349 9.53855 33.413C8.98602 34.3724 9.23257 35.5722 10.0691 36.2471C10.0382 36.3132 10.0096 36.3816 9.98322 36.4522C9.60459 37.4932 10.0559 38.6334 10.9958 39.1495C10.976 39.2201 10.9584 39.2928 10.9474 39.3656C10.7559 40.4573 11.3965 41.5006 12.4135 41.8468C12.4069 41.9196 12.4025 41.9924 12.4025 42.0674C12.4025 43.1767 13.2148 44.092 14.2758 44.2552C14.2824 44.328 14.2912 44.4008 14.3022 44.4758C14.4937 45.5675 15.4535 46.3284 16.5255 46.3041C16.5432 46.3747 16.5652 46.4453 16.5916 46.5158C16.9702 47.5568 18.0467 48.1391 19.0989 47.9296C19.1297 47.9957 19.1627 48.0619 19.2001 48.1259C19.7527 49.0853 20.915 49.4712 21.9144 49.083C21.9562 49.1426 22.0002 49.2021 22.0487 49.2595C22.7597 50.1086 23.9704 50.2872 24.8884 49.7293C24.939 49.7822 24.994 49.8329 25.0513 49.8792C25.8988 50.5916 27.1205 50.5563 27.9284 49.8484C27.9878 49.8903 28.0495 49.9322 28.1133 49.9697C29.0709 50.5232 30.2684 50.2762 30.942 49.4381C31.008 49.469 31.0763 49.4977 31.1467 49.5241C32.1857 49.9035 33.3238 49.4514 33.8389 48.5096C33.9094 48.5295 33.982 48.5471 34.0547 48.5581C35.1443 48.75 36.1855 48.1082 36.5312 47.0893C36.6038 47.0959 36.6764 47.1003 36.7513 47.1003C37.8586 47.1003 38.7721 46.2865 38.935 45.2234C39.0076 45.2168 39.0803 45.208 39.1551 45.197C40.2448 45.0051 41.0042 44.0435 40.98 42.9694C41.0505 42.9518 41.1209 42.9297 41.1913 42.9032C42.2304 42.5239 42.8115 41.4454 42.6024 40.3912C42.6684 40.3603 42.7345 40.3272 42.7983 40.2897C43.7559 39.7362 44.1411 38.5716 43.7537 37.5704C43.8131 37.5285 43.8726 37.4843 43.9298 37.4358C44.7773 36.7234 44.9556 35.5104 44.3987 34.5907C44.4515 34.54 44.5021 34.4849 44.5484 34.4275Z" fill="white" stroke="#BBBBBB" stroke-width="0.400025" stroke-miterlimit="10" stroke-linecap="round"/>
<path d="M27.1556 48.845C36.1936 48.845 43.5203 41.5044 43.5203 32.4494C43.5203 23.3943 36.1936 16.0537 27.1556 16.0537C18.1177 16.0537 10.791 23.3943 10.791 32.4494C10.791 41.5044 18.1177 48.845 27.1556 48.845Z" fill="white" stroke="#BBBBBB" stroke-width="0.400025" stroke-miterlimit="10" stroke-linecap="round"/>
<path d="M27.123 44.8132C33.9203 44.8132 39.4306 39.2925 39.4306 32.4823C39.4306 25.6721 33.9203 20.1514 27.123 20.1514C20.3257 20.1514 14.8154 25.6721 14.8154 32.4823C14.8154 39.2925 20.3257 44.8132 27.123 44.8132Z" fill="#FFE49F" stroke="#E2B249" stroke-width="0.400025" stroke-miterlimit="10" stroke-linecap="round"/>
<path d="M24.8752 27.9062C24.862 27.915 24.851 27.9437 24.8356 27.9856C24.7805 28.2061 24.6815 28.4576 24.5538 28.5723C24.1664 28.9825 23.6446 28.3914 23.6777 27.5467C23.6777 27.2468 23.7723 26.9821 23.8626 26.7593C23.9198 26.4925 23.4289 26.6314 23.3343 26.6623C21.6106 27.3835 21.9408 31.8187 23.7283 31.7063C24.4789 31.6577 25.1525 30.4337 25.0931 29.0067C25.0733 28.6406 25.0249 28.1267 24.8818 27.9018H24.873L24.8752 27.9062Z" fill="black"/>
<path d="M31.7145 27.9062C31.7013 27.915 31.6903 27.9437 31.6749 27.9856C31.6199 28.2061 31.5208 28.4576 31.3931 28.5723C31.0057 28.9825 30.484 28.3914 30.517 27.5467C30.517 27.2468 30.6117 26.9821 30.7019 26.7593C30.7592 26.4925 30.2683 26.6314 30.1736 26.6623C28.45 27.3835 28.7802 31.8187 30.5676 31.7063C31.3183 31.6577 31.9919 30.4337 31.9325 29.0067C31.9127 28.6406 31.8642 28.1267 31.7211 27.9018H31.7123L31.7145 27.9062Z" fill="black"/>
<path d="M19.4423 33.3889C20.6641 33.3889 21.6546 32.9376 21.6546 32.381C21.6546 31.8243 20.6641 31.373 19.4423 31.373C18.2205 31.373 17.23 31.8243 17.23 32.381C17.23 32.9376 18.2205 33.3889 19.4423 33.3889Z" fill="#FFC0C0" stroke="#D88080" stroke-width="0.400025" stroke-miterlimit="10"/>
<path d="M34.7353 33.3889C35.9571 33.3889 36.9476 32.9376 36.9476 32.381C36.9476 31.8243 35.9571 31.373 34.7353 31.373C33.5134 31.373 32.5229 31.8243 32.5229 32.381C32.5229 32.9376 33.5134 33.3889 34.7353 33.3889Z" fill="#FFC0C0" stroke="#D88080" stroke-width="0.400025" stroke-miterlimit="10"/>
<path d="M27.2945 32.9479C27.2813 32.8884 27.2747 32.8288 27.2747 32.7671C27.2284 32.7671 27.0501 32.7671 27.0039 32.7671C27.0039 32.8266 26.9973 32.8862 26.9841 32.9479C26.8454 33.5478 26.2224 33.8875 25.4146 33.7199C25.43 34.8006 25.8328 37.0259 27.114 37.1737C28.0958 37.2861 28.9014 34.8954 28.9014 33.7926C28.9014 33.775 28.8992 33.7574 28.897 33.7397C28.1288 33.8588 27.4288 33.5236 27.2967 32.9479H27.2945Z" fill="#FFA4A4" stroke="#7F2525" stroke-width="0.400025" stroke-miterlimit="10"/>
<path d="M26.2158 32.3149C27.3165 33.0053 26.9819 33.0251 28.0715 32.3149H26.2158Z" fill="#FF929F"/>
<path d="M26.2158 32.3149C27.3165 33.0053 26.9819 33.0251 28.0715 32.3149" stroke="#7F2525" stroke-width="0.400025" stroke-miterlimit="10" stroke-linecap="round"/>
<path d="M6.19732 17.531C9.06772 17.531 11.3946 15.1997 11.3946 12.3239C11.3946 9.44803 9.06772 7.1167 6.19732 7.1167C3.32692 7.1167 1 9.44803 1 12.3239C1 15.1997 3.32692 17.531 6.19732 17.531Z" fill="#FFE49F" stroke="#E2B249" stroke-width="0.400025" stroke-miterlimit="10" stroke-linecap="round"/>
<path d="M48.1128 17.531C50.9832 17.531 53.3102 15.1997 53.3102 12.3239C53.3102 9.44803 50.9832 7.1167 48.1128 7.1167C45.2424 7.1167 42.9155 9.44803 42.9155 12.3239C42.9155 15.1997 45.2424 17.531 48.1128 17.531Z" fill="#FFE49F" stroke="#E2B249" stroke-width="0.400025" stroke-miterlimit="10" stroke-linecap="round"/>
<path d="M7.17041 57.1063C7.17041 59.5742 11.8526 59.9977 16.7704 59.9977C21.6881 59.9977 23.9841 57.9973 23.9841 55.5294C23.9841 53.0614 21.6881 51.061 16.7704 51.061C11.8526 51.061 7.17041 54.6383 7.17041 57.1063Z" fill="#FFE49F" stroke="#E2B249" stroke-width="0.400025" stroke-miterlimit="10" stroke-linecap="round"/>
<path d="M47.0759 57.1063C47.0759 59.5742 42.3937 59.9977 37.4759 59.9977C32.5582 59.9977 30.2622 57.9973 30.2622 55.5294C30.2622 53.0614 32.5582 51.061 37.4759 51.061C42.3937 51.061 47.0759 54.6383 47.0759 57.1063Z" fill="#FFE49F" stroke="#E2B249" stroke-width="0.400025" stroke-miterlimit="10" stroke-linecap="round"/>
</svg>
