<svg width="37" height="37" viewBox="0 0 37 37" fill="none" xmlns="http://www.w3.org/2000/svg">
<g opacity="0.7">
<path d="M35.4972 20.5198C36.1894 19.6932 36.1551 18.5016 35.4672 17.7136C35.5079 17.6557 35.5486 17.5956 35.585 17.5333C36.1229 16.5994 35.8829 15.4314 35.0686 14.7744C35.0986 14.71 35.1264 14.6434 35.1522 14.5747C35.5208 13.5613 35.0814 12.4513 34.1664 11.9489C34.1857 11.8802 34.2028 11.8094 34.2135 11.7385C34.4 10.6758 33.7764 9.66023 32.7863 9.32315C32.7927 9.2523 32.797 9.18145 32.797 9.10845C32.797 8.0285 32.0062 7.1375 30.9733 6.97862C30.9669 6.90777 30.9583 6.83692 30.9476 6.76392C30.7612 5.70115 29.8268 4.96043 28.7832 4.98405C28.766 4.91534 28.7446 4.84664 28.7189 4.77794C28.3503 3.76455 27.3024 3.19774 26.278 3.40171C26.248 3.3373 26.2159 3.27289 26.1794 3.21062C25.6415 2.27668 24.51 1.90095 23.5371 2.27882C23.4964 2.22085 23.4535 2.16288 23.4064 2.10706C22.7142 1.28047 21.5356 1.10656 20.6419 1.64975C20.5926 1.59822 20.5391 1.54884 20.4833 1.50375C19.6583 0.810271 18.4689 0.844623 17.6824 1.53381C17.6246 1.49302 17.5646 1.45223 17.5024 1.41573C16.5702 0.876828 15.4044 1.11729 14.7487 1.93316C14.6844 1.9031 14.618 1.87519 14.5494 1.84942C13.5379 1.48014 12.43 1.92027 11.9285 2.83704C11.8599 2.81772 11.7892 2.80054 11.7185 2.78981C10.6577 2.60302 9.64406 3.2278 9.30761 4.21972C9.23689 4.21327 9.16617 4.20898 9.09331 4.20898C8.01538 4.20898 7.12604 5.00123 6.96746 6.03608C6.89674 6.04252 6.82602 6.05111 6.75316 6.06185C5.69237 6.24864 4.95304 7.18473 4.97661 8.23032C4.90804 8.2475 4.83946 8.26897 4.77088 8.29473C3.75939 8.66402 3.19364 9.7139 3.39722 10.7402C3.33293 10.7702 3.26864 10.8024 3.2065 10.8389C2.27429 11.3778 1.89927 12.5115 2.27644 13.4862C2.21858 13.527 2.16071 13.5699 2.105 13.6172C1.27994 14.3106 1.10636 15.4915 1.64854 16.3868C1.5971 16.4362 1.54782 16.4899 1.50281 16.5457C0.810625 17.3723 0.844913 18.5639 1.53282 19.3518C1.4921 19.4098 1.45138 19.4699 1.41495 19.5322C0.877058 20.4661 1.11707 21.6341 1.93141 22.2911C1.90141 22.3555 1.87355 22.422 1.84784 22.4907C1.47924 23.5041 1.91855 24.6141 2.83361 25.1165C2.81433 25.1852 2.79718 25.2561 2.78647 25.3269C2.60003 26.3897 3.22364 27.4052 4.2137 27.7423C4.20728 27.8132 4.20299 27.884 4.20299 27.957C4.20299 29.037 4.99376 29.928 6.02668 30.0868C6.03311 30.1577 6.04168 30.2285 6.0524 30.3015C6.23884 31.3643 7.17318 32.105 8.21682 32.0814C8.23397 32.1501 8.2554 32.2188 8.28111 32.2875C8.64971 33.3009 9.69763 33.8677 10.722 33.6638C10.752 33.7282 10.7841 33.7926 10.8206 33.8548C11.3585 34.7888 12.49 35.1645 13.4629 34.7866C13.5036 34.8446 13.5465 34.9026 13.5936 34.9584C14.2858 35.785 15.4644 35.9589 16.3581 35.4157C16.4074 35.4672 16.4609 35.5166 16.5167 35.5617C17.3417 36.2552 18.5311 36.2208 19.3176 35.5317C19.3754 35.5724 19.4354 35.6132 19.4976 35.6497C20.4298 36.1886 21.5956 35.9482 22.2513 35.1323C22.3156 35.1624 22.382 35.1903 22.4506 35.216C23.4621 35.5853 24.57 35.1452 25.0715 34.2284C25.1401 34.2477 25.2108 34.2649 25.2815 34.2757C26.3423 34.4624 27.3559 33.8377 27.6924 32.8457C27.7631 32.8522 27.8338 32.8565 27.9067 32.8565C28.9846 32.8565 29.874 32.0642 30.0325 31.0294C30.1033 31.0229 30.174 31.0144 30.2468 31.0036C31.3076 30.8168 32.047 29.8807 32.0234 28.8351C32.092 28.818 32.1605 28.7965 32.2291 28.7707C33.2406 28.4014 33.8064 27.3516 33.6028 26.3253C33.6671 26.2952 33.7314 26.263 33.7935 26.2265C34.7257 25.6876 35.1007 24.554 34.7236 23.5793C34.7814 23.5385 34.8393 23.4955 34.895 23.4483C35.7201 22.7548 35.8936 21.574 35.3515 20.6787C35.4029 20.6293 35.4522 20.5756 35.4972 20.5198Z" fill="white" stroke="#B8B8B8" stroke-width="0.816917" stroke-miterlimit="10" stroke-linecap="round"/>
<path d="M18.5653 34.555C27.3638 34.555 34.4964 27.4091 34.4964 18.5941C34.4964 9.77921 27.3638 2.6333 18.5653 2.6333C9.76685 2.6333 2.63428 9.77921 2.63428 18.5941C2.63428 27.4091 9.76685 34.555 18.5653 34.555Z" fill="#E4E7EE" stroke="#B8B8B8" stroke-width="0.816917" stroke-miterlimit="10" stroke-linecap="round"/>
<path d="M18.5333 30.6299C25.1505 30.6299 30.5148 25.2556 30.5148 18.626C30.5148 11.9964 25.1505 6.62207 18.5333 6.62207C11.9161 6.62207 6.55176 11.9964 6.55176 18.626C6.55176 25.2556 11.9161 30.6299 18.5333 30.6299Z" fill="#E4E7EE" stroke="#B0B7BF" stroke-width="0.816917" stroke-miterlimit="10" stroke-linecap="round"/>
<path d="M16.3453 14.1713C16.3325 14.1799 16.3218 14.2078 16.3068 14.2486C16.2532 14.4633 16.1568 14.7081 16.0325 14.8197C15.6553 15.2191 15.1474 14.6437 15.1795 13.8214C15.1795 13.5294 15.2717 13.2717 15.3596 13.0549C15.4153 12.7951 14.9374 12.9304 14.8452 12.9604C13.1673 13.6625 13.4887 17.9801 15.2288 17.8706C15.9596 17.8234 16.6154 16.6318 16.5575 15.2427C16.5382 14.8863 16.4911 14.386 16.3518 14.167H16.3432L16.3453 14.1713Z" fill="#B2B9C1"/>
<path d="M23.0035 14.1713C22.9907 14.1799 22.98 14.2078 22.965 14.2486C22.9114 14.4633 22.815 14.7081 22.6907 14.8197C22.3135 15.2191 21.8056 14.6437 21.8377 13.8214C21.8377 13.5294 21.9299 13.2717 22.0178 13.0549C22.0735 12.7951 21.5956 12.9304 21.5034 12.9604C19.8255 13.6625 20.1469 17.9801 21.887 17.8706C22.6178 17.8234 23.2736 16.6318 23.2157 15.2427C23.1964 14.8863 23.1493 14.386 23.01 14.167H23.0014L23.0035 14.1713Z" fill="#B2B9C1"/>
<path d="M11.0561 19.5088C12.2455 19.5088 13.2098 19.0695 13.2098 18.5276C13.2098 17.9857 12.2455 17.5464 11.0561 17.5464C9.86659 17.5464 8.90234 17.9857 8.90234 18.5276C8.90234 19.0695 9.86659 19.5088 11.0561 19.5088Z" fill="white" stroke="#B9C0C8" stroke-width="0.816917" stroke-miterlimit="10"/>
<path d="M25.9433 19.5088C27.1327 19.5088 28.097 19.0695 28.097 18.5276C28.097 17.9857 27.1327 17.5464 25.9433 17.5464C24.7538 17.5464 23.7896 17.9857 23.7896 18.5276C23.7896 19.0695 24.7538 19.5088 25.9433 19.5088Z" fill="white" stroke="#B9C0C8" stroke-width="0.816917" stroke-miterlimit="10"/>
<path d="M18.7002 19.0789C18.6874 19.0209 18.6809 18.9629 18.6809 18.9028C18.6359 18.9028 18.4624 18.9028 18.4174 18.9028C18.4174 18.9608 18.4109 19.0188 18.3981 19.0789C18.2631 19.6629 17.6566 19.9935 16.8701 19.8303C16.8851 20.8824 17.2773 23.0487 18.5245 23.1925C19.4803 23.302 20.2646 20.9747 20.2646 19.9012C20.2646 19.884 20.2625 19.8668 20.2603 19.8497C19.5124 19.9656 18.831 19.6393 18.7024 19.0789H18.7002Z" fill="white" stroke="#B7BEC6" stroke-width="0.816917" stroke-miterlimit="10"/>
<path d="M17.6499 18.4629C18.7214 19.1349 18.3957 19.1542 19.4565 18.4629H17.6499Z" fill="#FF929F"/>
<path d="M17.6499 18.4629C18.7214 19.1349 18.3957 19.1542 19.4565 18.4629" stroke="#B7BEC6" stroke-width="0.816917" stroke-miterlimit="10" stroke-linecap="round"/>
</g>
</svg>
