<svg width="26" height="25" viewBox="0 0 26 25" fill="none" xmlns="http://www.w3.org/2000/svg">
<g id="icon/background">
<path id="Vector" fill-rule="evenodd" clip-rule="evenodd" d="M10.5 1.02832C14.2177 1.02832 17.3939 3.34687 18.6614 6.61688C21.9314 7.88444 24.2501 11.0606 24.2501 14.7783C24.2501 19.6108 20.3324 23.5283 15.5001 23.5283C11.7823 23.5283 8.60613 21.2098 7.33857 17.9398C4.06856 16.6722 1.75 13.4961 1.75 9.77832C1.75 4.94583 5.66751 1.02832 10.5 1.02832ZM17.3549 10.3074C17.3682 10.1328 17.3751 9.95633 17.3751 9.77832C17.3751 9.20214 17.3042 8.64253 17.1706 8.10771C16.6358 7.9742 16.0762 7.90332 15.5001 7.90332C15.3219 7.90332 15.1456 7.91008 14.9709 7.92337L17.3549 10.3074ZM16.8393 12.4434L12.8349 8.43897C12.3012 8.66361 11.8018 8.95369 11.3467 9.29916L15.9792 13.9316C16.3247 13.4766 16.6147 12.9772 16.8393 12.4434ZM14.6533 15.2574L10.0209 10.625C9.67543 11.08 9.38534 11.5794 9.16069 12.1131L13.1652 16.1177C13.6989 15.8929 14.1983 15.6029 14.6533 15.2574ZM11.0292 16.6333L8.64507 14.2492C8.63177 14.4238 8.625 14.6003 8.625 14.7783C8.625 15.3544 8.69588 15.9141 8.82939 16.4489C9.3642 16.5824 9.92383 16.6533 10.5 16.6533C10.6781 16.6533 10.8545 16.6466 11.0292 16.6333ZM15.5001 6.02832C15.7648 6.02832 16.0269 6.04008 16.2857 6.06312C15.0626 4.16229 12.9283 2.90332 10.5 2.90332C6.70304 2.90332 3.625 5.98136 3.625 9.77832C3.625 12.2066 4.88397 14.3409 6.7848 15.5641C6.76177 15.3052 6.75 15.0432 6.75 14.7783C6.75 9.94583 10.6675 6.02832 15.5001 6.02832ZM19.2501 9.77832C19.2501 9.51351 19.2382 9.25143 19.2152 8.99261C21.1161 10.2157 22.3751 12.35 22.3751 14.7783C22.3751 18.5753 19.2969 21.6533 15.5001 21.6533C13.0717 21.6533 10.9374 20.3943 9.71429 18.4936C9.97312 18.5166 10.2352 18.5283 10.5 18.5283C15.3324 18.5283 19.2501 14.6108 19.2501 9.77832Z" fill="#254434"/>
</g>
</svg>
