<svg width="54" height="53" viewBox="0 0 54 53" fill="none" xmlns="http://www.w3.org/2000/svg">
<path d="M6.35211 11.5924C9.22251 11.5924 11.5494 9.26447 11.5494 6.39286C11.5494 3.52126 9.22251 1.19336 6.35211 1.19336C3.4817 1.19336 1.15479 3.52126 1.15479 6.39286C1.15479 9.26447 3.4817 11.5924 6.35211 11.5924Z" fill="#EBEBEB" stroke="#BDBDBD" stroke-width="0.446428" stroke-miterlimit="10" stroke-linecap="round"/>
<path d="M48.2676 11.5924C51.138 11.5924 53.465 9.26447 53.465 6.39286C53.465 3.52126 51.138 1.19336 48.2676 1.19336C45.3972 1.19336 43.0703 3.52126 43.0703 6.39286C43.0703 9.26447 45.3972 11.5924 48.2676 11.5924Z" fill="#EBEBEB" stroke="#BDBDBD" stroke-width="0.446428" stroke-miterlimit="10" stroke-linecap="round"/>
<path d="M7.32568 49.4997C7.32568 51.964 12.0079 52.3869 16.9256 52.3869C21.8434 52.3869 24.1394 50.3894 24.1394 47.9251C24.1394 45.4608 21.8434 43.4634 16.9256 43.4634C12.0079 43.4634 7.32568 47.0354 7.32568 49.4997Z" fill="#EBEBEB" stroke="#BDBDBD" stroke-width="0.446428" stroke-miterlimit="10" stroke-linecap="round"/>
<path d="M47.2292 49.4997C47.2292 51.964 42.547 52.3869 37.6293 52.3869C32.7115 52.3869 30.4155 50.3894 30.4155 47.9251C30.4155 45.4608 32.7115 43.4634 37.6293 43.4634C42.547 43.4634 47.2292 47.0354 47.2292 49.4997Z" fill="#EBEBEB" stroke="#BDBDBD" stroke-width="0.446428" stroke-miterlimit="10" stroke-linecap="round"/>
<path d="M47.9396 11.4688C45.3728 11.0768 43.3674 12.2726 42.6256 12.7285C42.3196 12.9179 40.0258 14.367 39.656 16.3534C39.5151 17.1066 39.7551 17.3928 39.8123 17.4567C40.2019 17.8839 41.0428 17.6857 41.3752 17.6153C44.4461 16.9502 45.386 18.1218 47.627 17.1418C49.4827 16.3314 51.4661 14.378 51.0654 13.0434C50.7176 11.8916 48.7034 11.5833 47.9396 11.4666V11.4688Z" fill="#EBEBEB" stroke="#BDBDBD" stroke-width="0.446428" stroke-miterlimit="10" stroke-linecap="round"/>
<path d="M6.57397 11.4688C9.14071 11.0768 11.1461 12.2726 11.888 12.7285C12.1939 12.9179 14.4877 14.367 14.8575 16.3534C14.9984 17.1066 14.7585 17.3928 14.7012 17.4567C14.3116 17.8839 13.4707 17.6857 13.1383 17.6153C10.0675 16.9502 9.1275 18.1218 6.88655 17.1418C5.03084 16.3314 3.04745 14.378 3.44809 13.0434C3.7959 11.8916 5.81011 11.5833 6.57397 11.4666V11.4688Z" fill="#EBEBEB" stroke="#BDBDBD" stroke-width="0.446428" stroke-miterlimit="10" stroke-linecap="round"/>
<path d="M4.37256 12.9334C8.19185 12.4798 11.5819 13.6954 12.9577 16.1531C13.2527 16.6816 13.5697 17.4722 13.6291 18.569" fill="#EBEBEB"/>
<path d="M4.37256 12.9334C8.19185 12.4798 11.5819 13.6954 12.9577 16.1531C13.2527 16.6816 13.5697 17.4722 13.6291 18.569" stroke="#BDBDBD" stroke-width="0.446428" stroke-miterlimit="10" stroke-linecap="round"/>
<path d="M49.9778 12.9334C46.1585 12.4798 42.7684 13.6954 41.3926 16.1531C41.0976 16.6816 40.7806 17.4722 40.7212 18.569" fill="#EBEBEB"/>
<path d="M49.9778 12.9334C46.1585 12.4798 42.7684 13.6954 41.3926 16.1531C41.0976 16.6816 40.7806 17.4722 40.7212 18.569" stroke="#BDBDBD" stroke-width="0.446428" stroke-miterlimit="10" stroke-linecap="round"/>
<path d="M44.7012 28.0606C45.4122 27.2127 45.377 25.9905 44.6704 25.1822C44.7122 25.1228 44.754 25.0611 44.7915 24.9972C45.344 24.0393 45.0974 22.8413 44.2609 22.1674C44.2918 22.1013 44.3204 22.033 44.3468 21.9626C44.7254 20.9231 44.2741 19.7845 43.3342 19.2692C43.354 19.1987 43.3716 19.1261 43.3826 19.0534C43.5741 17.9633 42.9335 16.9216 41.9165 16.5759C41.9231 16.5032 41.9275 16.4305 41.9275 16.3556C41.9275 15.2479 41.1152 14.334 40.0542 14.171C40.0476 14.0983 40.0388 14.0257 40.0278 13.9508C39.8363 12.8607 38.8765 12.1009 37.8045 12.1251C37.7868 12.0547 37.7648 11.9842 37.7384 11.9137C37.3598 10.8743 36.2833 10.2929 35.2311 10.5021C35.2003 10.436 35.1673 10.3699 35.1299 10.3061C34.5773 9.3481 33.415 8.9627 32.4156 9.3503C32.3738 9.29084 32.3298 9.23138 32.2813 9.17412C31.5703 8.32626 30.3596 8.14787 29.4416 8.70504C29.391 8.65219 29.336 8.60154 29.2787 8.55529C28.4312 7.84396 27.2095 7.8792 26.4016 8.58612C26.3422 8.54428 26.2805 8.50243 26.2167 8.465C25.2591 7.91223 24.0616 8.15889 23.388 8.99574C23.322 8.96491 23.2537 8.93628 23.1833 8.90985C22.1443 8.53106 21.0062 8.98252 20.4911 9.92288C20.4206 9.90306 20.348 9.88544 20.2753 9.87443C19.1857 9.68284 18.1445 10.3237 17.7988 11.3411C17.7262 11.3345 17.6536 11.3301 17.5787 11.3301C16.4715 11.3301 15.5579 12.1427 15.395 13.2042C15.3224 13.2108 15.2497 13.2196 15.1749 13.2307C14.0852 13.4222 13.3258 14.3824 13.35 15.4549C13.2795 15.4725 13.2091 15.4946 13.1387 15.521C12.0996 15.8998 11.5185 16.9767 11.7276 18.0293C11.6616 18.0602 11.5955 18.0932 11.5317 18.1307C10.5741 18.6834 10.1889 19.8462 10.5763 20.846C10.5169 20.8879 10.4574 20.9319 10.4002 20.9804C9.5527 21.6917 9.37439 22.9029 9.93132 23.8213C9.87849 23.8719 9.82786 23.927 9.78163 23.9842C9.07061 24.8321 9.10583 26.0543 9.81245 26.8626C9.77063 26.922 9.7288 26.9837 9.69138 27.0475C9.13885 28.0055 9.3854 29.2035 10.2219 29.8774C10.1911 29.9435 10.1625 30.0118 10.136 30.0822C9.75742 31.1217 10.2087 32.2603 11.1487 32.7756C11.1288 32.8461 11.1112 32.9187 11.1002 32.9914C10.9087 34.0815 11.5493 35.1232 12.5663 35.4689C12.5597 35.5416 12.5553 35.6143 12.5553 35.6892C12.5553 36.7969 13.3676 37.7108 14.4286 37.8738C14.4352 37.9465 14.444 38.0191 14.455 38.094C14.6466 39.1841 15.6063 39.9439 16.6784 39.9197C16.696 39.9901 16.718 40.0606 16.7444 40.1311C17.123 41.1705 18.1995 41.7519 19.2517 41.5427C19.2825 41.6088 19.3156 41.6749 19.353 41.7387C19.9055 42.6967 21.0678 43.0821 22.0672 42.6945C22.109 42.754 22.1531 42.8134 22.2015 42.8707C22.9125 43.7185 24.1232 43.8969 25.0412 43.3398C25.0918 43.3926 25.1469 43.4433 25.2041 43.4895C26.0516 44.2008 27.2733 44.1656 28.0812 43.4587C28.1407 43.5005 28.2023 43.5424 28.2661 43.5798C29.2237 44.1326 30.4212 43.8859 31.0948 43.0491C31.1609 43.0799 31.2291 43.1085 31.2996 43.1349C32.3386 43.5137 33.4767 43.0623 33.9918 42.1219C34.0622 42.1417 34.1349 42.1593 34.2075 42.1704C35.2972 42.362 36.3384 41.7211 36.684 40.7037C36.7566 40.7103 36.8293 40.7147 36.9041 40.7147C38.0114 40.7147 38.9249 39.902 39.0878 38.8406C39.1605 38.834 39.2331 38.8252 39.308 38.8141C40.3976 38.6225 41.1571 37.6624 41.1329 36.5899C41.2033 36.5723 41.2737 36.5502 41.3442 36.5238C42.3832 36.145 42.9644 35.0681 42.7552 34.0154C42.8213 33.9846 42.8873 33.9516 42.9511 33.9141C43.9087 33.3614 44.294 32.1986 43.9065 31.1988C43.966 31.1569 44.0254 31.1129 44.0826 31.0644C44.9301 30.3531 45.1084 29.1419 44.5515 28.2235C44.6043 28.1729 44.655 28.1178 44.7012 28.0606Z" fill="white" stroke="#BBBBBB" stroke-width="0.446428" stroke-miterlimit="10" stroke-linecap="round"/>
<path d="M27.3109 42.4564C36.3488 42.4564 43.6755 35.1266 43.6755 26.0849C43.6755 17.0431 36.3488 9.71338 27.3109 9.71338C18.273 9.71338 10.9463 17.0431 10.9463 26.0849C10.9463 35.1266 18.273 42.4564 27.3109 42.4564Z" fill="white" stroke="#BBBBBB" stroke-width="0.446428" stroke-miterlimit="10" stroke-linecap="round"/>
<path d="M27.2754 38.4307C34.0727 38.4307 39.583 32.9181 39.583 26.1179C39.583 19.3178 34.0727 13.8052 27.2754 13.8052C20.4781 13.8052 14.9678 19.3178 14.9678 26.1179C14.9678 32.9181 20.4781 38.4307 27.2754 38.4307Z" fill="#EBEBEB" stroke="#BDBDBD" stroke-width="0.446428" stroke-miterlimit="10" stroke-linecap="round"/>
</svg>