<svg width="54" height="54" viewBox="0 0 54 54" fill="none" xmlns="http://www.w3.org/2000/svg">
<path d="M27.1044 7.50614C27.0692 7.58321 26.9261 7.5656 26.9371 7.48632C27.1176 6.19806 27.7186 4.01353 29.8516 2.8596C30.7034 2.39935 31.8943 2.05361 32.0132 2.20336C32.1518 2.37733 30.7761 3.11945 29.5544 4.21172C28.2953 5.33702 27.5557 6.51737 27.1022 7.50614H27.1044Z" fill="#EBEBEB" stroke="#BDBDBD" stroke-width="0.446409" stroke-miterlimit="10"/>
<path d="M27.8746 7.3783C27.8328 7.40693 27.7601 7.40032 27.7755 7.36508C27.9759 6.92025 28.3501 5.98213 30.1 5.58575C30.7494 5.4382 32.2727 5.4382 32.3079 5.49766C32.3475 5.56813 31.2315 5.77513 30.1859 6.1561C29.1117 6.54809 28.4139 7.01274 27.8724 7.3783H27.8746Z" fill="#EBEBEB" stroke="#BDBDBD" stroke-width="0.446409" stroke-miterlimit="10"/>
<path d="M44.7007 28.7414C45.4117 27.8935 45.3765 26.6713 44.6699 25.8632C44.7117 25.8037 44.7535 25.742 44.7909 25.6782C45.3434 24.7202 45.0969 23.5223 44.2604 22.8484C44.2912 22.7823 44.3199 22.7141 44.3463 22.6436C44.7249 21.6042 44.2736 20.4657 43.3337 19.9504C43.3535 19.8799 43.3711 19.8072 43.3821 19.7346C43.5737 18.6445 42.9331 17.6029 41.9161 17.2571C41.9227 17.1845 41.9271 17.1118 41.9271 17.0369C41.9271 15.9293 41.1149 15.0154 40.0539 14.8524C40.0473 14.7797 40.0385 14.7071 40.0275 14.6322C39.836 13.5421 38.8762 12.7824 37.8042 12.8066C37.7866 12.7361 37.7646 12.6657 37.7382 12.5952C37.3596 11.5558 36.2832 10.9744 35.231 11.1836C35.2002 11.1175 35.1672 11.0515 35.1297 10.9876C34.5772 10.0297 33.415 9.64431 32.4156 10.0319C32.3738 9.97243 32.3298 9.91297 32.2813 9.85572C31.5704 9.00789 30.3597 8.82951 29.4418 9.38666C29.3911 9.3338 29.3361 9.28315 29.2789 9.23691C28.4314 8.52561 27.2097 8.56085 26.4019 9.26774C26.3424 9.2259 26.2808 9.18406 26.217 9.14662C25.2594 8.59388 24.062 8.84052 23.3884 9.67734C23.3223 9.64651 23.2541 9.61788 23.1837 9.59145C22.1447 9.21268 21.0067 9.66413 20.4916 10.6044C20.4211 10.5846 20.3485 10.567 20.2758 10.556C19.1862 10.3644 18.1451 11.0052 17.7995 12.0226C17.7268 12.016 17.6542 12.0116 17.5793 12.0116C16.4721 12.0116 15.5586 12.8242 15.3957 13.8857C15.3231 13.8923 15.2504 13.9011 15.1756 13.9121C14.086 14.1037 13.3266 15.0638 13.3508 16.1363C13.2803 16.1539 13.2099 16.1759 13.1395 16.2023C12.1005 16.5811 11.5194 17.6579 11.7285 18.7106C11.6624 18.7414 11.5964 18.7744 11.5326 18.8119C10.575 19.3646 10.1898 20.5273 10.5772 21.5271C10.5178 21.569 10.4584 21.613 10.4011 21.6615C9.55366 22.3727 9.37536 23.5839 9.93227 24.5022C9.87945 24.5529 9.82882 24.6079 9.78259 24.6652C9.07159 25.513 9.10681 26.7352 9.81341 27.5434C9.77158 27.6029 9.72976 27.6645 9.69234 27.7284C9.13983 28.6863 9.38637 29.8843 10.2228 30.5581C10.192 30.6242 10.1634 30.6925 10.137 30.7629C9.75838 31.8024 10.2096 32.9409 11.1496 33.4562C11.1297 33.5266 11.1121 33.5993 11.1011 33.672C10.9096 34.7621 11.5502 35.8037 12.5671 36.1494C12.5605 36.2221 12.5561 36.2948 12.5561 36.3696C12.5561 37.4773 13.3684 38.3912 14.4294 38.5542C14.436 38.6268 14.4448 38.6995 14.4558 38.7744C14.6473 39.8644 15.607 40.6242 16.679 40.6C16.6966 40.6704 16.7187 40.7409 16.7451 40.8114C17.1237 41.8508 18.2001 42.4321 19.2523 42.2229C19.2831 42.289 19.3161 42.3551 19.3535 42.4189C19.906 43.3769 21.0683 43.7623 22.0676 43.3747C22.1095 43.4341 22.1535 43.4936 22.2019 43.5508C22.9129 44.3987 24.1236 44.577 25.0415 44.0199C25.0921 44.0728 25.1472 44.1234 25.2044 44.1697C26.0519 44.8809 27.2736 44.8457 28.0814 44.1388C28.1408 44.1807 28.2025 44.2225 28.2663 44.2599C29.2238 44.8127 30.4213 44.566 31.0949 43.7292C31.1609 43.7601 31.2292 43.7887 31.2996 43.8151C32.3386 44.1939 33.4766 43.7424 33.9917 42.8021C34.0621 42.8219 34.1348 42.8396 34.2074 42.8506C35.297 43.0421 36.3382 42.4013 36.6838 41.3839C36.7564 41.3905 36.8291 41.3949 36.9039 41.3949C38.0111 41.3949 38.9247 40.5823 39.0875 39.5209C39.1602 39.5143 39.2328 39.5055 39.3077 39.4945C40.3973 39.3029 41.1567 38.3428 41.1325 37.2703C41.2029 37.2527 41.2734 37.2307 41.3438 37.2042C42.3828 36.8255 42.9639 35.7486 42.7548 34.696C42.8208 34.6652 42.8869 34.6321 42.9507 34.5947C43.9082 34.042 44.2935 32.8792 43.906 31.8794C43.9655 31.8376 44.0249 31.7936 44.0821 31.7451C44.9296 31.0338 45.1079 29.8226 44.551 28.9043C44.6038 28.8537 44.6545 28.7986 44.7007 28.7414Z" fill="white" stroke="#BBBBBB" stroke-width="0.446409" stroke-miterlimit="10" stroke-linecap="round"/>
<path d="M27.3088 43.1347C36.3463 43.1347 43.6727 35.8052 43.6727 26.7639C43.6727 17.7225 36.3463 10.3931 27.3088 10.3931C18.2712 10.3931 10.9448 17.7225 10.9448 26.7639C10.9448 35.8052 18.2712 43.1347 27.3088 43.1347Z" fill="white" stroke="#BBBBBB" stroke-width="0.446409" stroke-miterlimit="10" stroke-linecap="round"/>
<path d="M27.2758 38.8427C34.0728 38.8427 39.5829 33.3304 39.5829 26.5305C39.5829 19.7306 34.0728 14.2183 27.2758 14.2183C20.4788 14.2183 14.9688 19.7306 14.9688 26.5305C14.9688 33.3304 20.4788 38.8427 27.2758 38.8427Z" fill="#EBEBEB" stroke="#BDBDBD" stroke-width="0.446409" stroke-miterlimit="10"/>
<path d="M6.35189 11.1993C9.22217 11.1993 11.549 8.87154 11.549 6.00006C11.549 3.12858 9.22217 0.800781 6.35189 0.800781C3.48161 0.800781 1.15479 3.12858 1.15479 6.00006C1.15479 8.87154 3.48161 11.1993 6.35189 11.1993Z" fill="#EBEBEB" stroke="#BDBDBD" stroke-width="0.446409" stroke-miterlimit="10"/>
<path d="M48.2674 11.1993C51.1377 11.1993 53.4645 8.87154 53.4645 6.00006C53.4645 3.12858 51.1377 0.800781 48.2674 0.800781C45.3971 0.800781 43.0703 3.12858 43.0703 6.00006C43.0703 8.87154 45.3971 11.1993 48.2674 11.1993Z" fill="#EBEBEB" stroke="#BDBDBD" stroke-width="0.446409" stroke-miterlimit="10"/>
<path d="M7.32471 50.7148C7.32471 53.179 12.0067 53.6018 16.9243 53.6018C21.8418 53.6018 24.1377 51.6045 24.1377 49.1403C24.1377 46.6761 21.8418 44.6787 16.9243 44.6787C12.0067 44.6787 7.32471 48.2506 7.32471 50.7148Z" fill="#EBEBEB" stroke="#BDBDBD" stroke-width="0.446409" stroke-miterlimit="10"/>
<path d="M47.2285 50.7148C47.2285 53.179 42.5465 53.6018 37.629 53.6018C32.7114 53.6018 30.4155 51.6045 30.4155 49.1403C30.4155 46.6761 32.7114 44.6787 37.629 44.6787C42.5465 44.6787 47.2285 48.2506 47.2285 50.7148Z" fill="#EBEBEB" stroke="#BDBDBD" stroke-width="0.446409" stroke-miterlimit="10"/>
</svg>
