<svg width="13" height="15" viewBox="0 0 13 15" fill="none" xmlns="http://www.w3.org/2000/svg">
<path fill-rule="evenodd" clip-rule="evenodd" d="M7.18055 14.5363L7.17367 14.5376L7.1293 14.5595L7.1168 14.562L7.10805 14.5595L7.06367 14.5376C7.05701 14.5355 7.05201 14.5365 7.04867 14.5407L7.04617 14.547L7.03555 14.8145L7.03867 14.827L7.04492 14.8351L7.10992 14.8813L7.1193 14.8838L7.1268 14.8813L7.1918 14.8351L7.1993 14.8251L7.2018 14.8145L7.19117 14.5476C7.1895 14.5409 7.18596 14.5372 7.18055 14.5363ZM7.34617 14.4657L7.33805 14.467L7.22242 14.5251L7.21617 14.5313L7.2143 14.5382L7.22555 14.807L7.22867 14.8145L7.23367 14.8188L7.3593 14.877C7.36721 14.879 7.37326 14.8774 7.37742 14.872L7.37992 14.8632L7.35867 14.4795C7.35659 14.472 7.35242 14.4674 7.34617 14.4657ZM6.8993 14.467C6.89654 14.4653 6.89325 14.4647 6.89011 14.4654C6.88696 14.4661 6.88421 14.468 6.88242 14.4707L6.87867 14.4795L6.85742 14.8632C6.85784 14.8707 6.86138 14.8757 6.86805 14.8782L6.87742 14.877L7.00305 14.8188L7.0093 14.8138L7.0118 14.807L7.02242 14.5382L7.02055 14.5307L7.0143 14.5245L6.8993 14.467Z" fill="#EBEBEB"/>
<path fill-rule="evenodd" clip-rule="evenodd" d="M5.68506 1.87512C5.68506 1.1845 6.12006 0.625122 6.81006 0.625122C7.50006 0.625122 7.93506 1.1845 7.93506 1.87512L8.06006 6.87512C8.06006 6.64762 8.37256 3.33762 8.37256 3.12512C8.37256 2.50012 8.74443 1.87512 9.43506 1.87512C10.1257 1.87512 10.5601 2.4345 10.5601 3.12512V7.66762C10.6119 7.63762 10.7476 5.26387 10.7476 5.00012C10.7476 4.37512 10.9119 3.75012 11.4976 3.75012C12.0838 3.75012 12.4351 4.3095 12.4351 5.00012V8.75012C12.4351 10.0762 11.9083 11.348 10.9706 12.2857C10.0329 13.2233 8.76114 13.7501 7.43506 13.7501H7.01381C6.08531 13.7501 5.17517 13.4915 4.38534 13.0034C3.59551 12.5152 2.9572 11.8168 2.54193 10.9864L0.765684 7.43387C0.538184 6.97887 0.713184 6.39137 1.21568 6.16887C1.48006 6.052 1.77631 5.98637 2.05506 6.07512C2.74756 6.29575 2.64506 6.61262 3.06006 7.00637V3.12512C3.06006 2.4345 3.49443 1.87512 4.18506 1.87512C4.81006 1.87512 5.19068 2.697 5.24756 3.12512C5.32568 3.71137 5.56006 6.64637 5.56006 6.87387L5.68506 1.87512Z" fill="#EBEBEB"/>
</svg>
