<svg width="54" height="53" viewBox="0 0 54 53" fill="none" xmlns="http://www.w3.org/2000/svg">
<path d="M18.8524 1.45571C17.5471 1.86792 17.054 5.68149 16.748 7.66322C16.5741 9.2636 16.1427 12.1601 17.0276 13.474C17.7518 14.3844 18.7775 14.2521 19.6096 14.2323C21.1219 14.0691 25.9558 13.2579 26.2727 11.0998C26.4378 9.48624 24.514 6.99971 23.5696 5.67488C22.3523 4.123 20.1841 1.19118 18.8656 1.4535L18.8524 1.45791V1.45571Z" fill="#EBEBEB" stroke="#BDBDBD" stroke-width="0.401447" stroke-miterlimit="10" stroke-linecap="round"/>
<path d="M35.7223 1.45571C37.0277 1.86792 37.5207 5.68149 37.8267 7.66322C38.0006 9.2636 38.432 12.1601 37.5471 13.474C36.8229 14.3844 35.7972 14.2521 34.9651 14.2323C33.4529 14.0691 28.619 13.2579 28.302 11.0998C28.1369 9.48624 30.0608 6.99971 31.0051 5.67488C32.2224 4.123 34.3906 1.19118 35.7091 1.4535L35.7223 1.45791V1.45571Z" fill="#EBEBEB" stroke="#BDBDBD" stroke-width="0.401447" stroke-miterlimit="10" stroke-linecap="round"/>
<path d="M18.5838 1.72461C18.5838 1.72461 23.8205 8.23633 20.0653 12.4004C16.31 16.5645 16.2329 11.7435 16.2329 11.7435C16.2329 11.7435 16.6974 2.59975 18.5816 1.72461H18.5838Z" fill="#EBEBEB" stroke="#BDBDBD" stroke-width="0.401447" stroke-miterlimit="10" stroke-linecap="round"/>
<path d="M35.974 1.72461C35.974 1.72461 30.7373 8.23633 34.4926 12.4004C38.2479 16.5645 38.3249 11.7435 38.3249 11.7435C38.3249 11.7435 37.8605 2.59975 35.9762 1.72461H35.974Z" fill="#EBEBEB" stroke="#BDBDBD" stroke-width="0.401447" stroke-miterlimit="10" stroke-linecap="round"/>
<path d="M44.7017 27.9432C45.4127 27.0945 45.3774 25.8711 44.6708 25.0621C44.7127 25.0026 44.7545 24.9409 44.7919 24.8769C45.3444 23.918 45.0979 22.7189 44.2614 22.0443C44.2922 21.9782 44.3209 21.9098 44.3473 21.8393C44.7259 20.7988 44.2746 19.6592 43.3347 19.1434C43.3545 19.0728 43.3721 19.0001 43.3831 18.9273C43.5746 17.8362 42.9341 16.7935 41.9171 16.4474C41.9237 16.3747 41.9281 16.3019 41.9281 16.227C41.9281 15.1182 41.1159 14.2034 40.0549 14.0402C40.0483 13.9675 40.0395 13.8947 40.0285 13.8198C39.837 12.7286 38.8772 11.9681 37.8052 11.9924C37.7876 11.9218 37.7656 11.8513 37.7392 11.7807C37.3606 10.7403 36.2842 10.1583 35.232 10.3677C35.2012 10.3016 35.1681 10.2355 35.1307 10.1715C34.5782 9.21264 33.416 8.82688 32.4166 9.21485C32.3748 9.15533 32.3308 9.09581 32.2823 9.0385C31.5713 8.18981 30.3607 8.01126 29.4427 8.56897C29.3921 8.51606 29.3371 8.46536 29.2799 8.41907C28.4324 7.70706 27.2107 7.74233 26.4028 8.44993C26.3434 8.40805 26.2818 8.36616 26.2179 8.32869C25.2604 7.77539 24.0629 8.02228 23.3894 8.85995C23.3233 8.82908 23.2551 8.80043 23.1847 8.77397C22.1457 8.39482 21.0076 8.84672 20.4925 9.78799C20.4221 9.76815 20.3495 9.75051 20.2768 9.73949C19.1872 9.54771 18.146 10.1892 17.8004 11.2076C17.7278 11.201 17.6552 11.1966 17.5803 11.1966C16.4731 11.1966 15.5596 12.01 15.3967 13.0725C15.3241 13.0791 15.2514 13.0879 15.1766 13.099C14.087 13.2907 13.3275 14.2518 13.3518 15.3254C13.2813 15.343 13.2109 15.3651 13.1404 15.3915C12.1015 15.7707 11.5203 16.8486 11.7295 17.9023C11.6634 17.9332 11.5974 17.9662 11.5335 18.0037C10.576 18.557 10.1908 19.7209 10.5782 20.7217C10.5188 20.7636 10.4593 20.8077 10.4021 20.8562C9.55464 21.5682 9.37634 22.7806 9.93325 23.6998C9.88042 23.7505 9.82979 23.8056 9.78357 23.8629C9.07257 24.7116 9.10779 25.935 9.81438 26.744C9.77256 26.8036 9.73074 26.8653 9.69332 26.9292C9.14081 27.8881 9.38735 29.0873 10.2238 29.7618C10.193 29.828 10.1644 29.8963 10.138 29.9668C9.75935 31.0073 10.2106 32.147 11.1505 32.6628C11.1307 32.7333 11.1131 32.8061 11.1021 32.8788C10.9106 33.97 11.5512 35.0127 12.5681 35.3587C12.5615 35.4315 12.5571 35.5042 12.5571 35.5792C12.5571 36.688 13.3694 37.6028 14.4304 37.7659C14.437 37.8387 14.4458 37.9114 14.4568 37.9864C14.6483 39.0775 15.608 39.838 16.68 39.8138C16.6976 39.8843 16.7196 39.9549 16.7461 40.0254C17.1247 41.0659 18.2011 41.6478 19.2533 41.4384C19.2841 41.5045 19.3171 41.5707 19.3545 41.6346C19.907 42.5935 21.0693 42.9793 22.0686 42.5913C22.1104 42.6508 22.1545 42.7103 22.2029 42.7676C22.9139 43.6163 24.1246 43.7949 25.0425 43.2372C25.0931 43.2901 25.1481 43.3408 25.2054 43.3871C26.0529 44.0991 27.2745 44.0638 28.0824 43.3562C28.1418 43.3981 28.2034 43.44 28.2673 43.4774C29.2248 44.0307 30.4223 43.7839 31.0959 42.9462C31.1619 42.9771 31.2301 43.0057 31.3006 43.0322C32.3396 43.4113 33.4776 42.9594 33.9927 42.0182C34.0631 42.038 34.1358 42.0556 34.2084 42.0667C35.298 42.2584 36.3392 41.617 36.6848 40.5985C36.7574 40.6051 36.8301 40.6096 36.9049 40.6096C38.0121 40.6096 38.9256 39.7961 39.0885 38.7336C39.1612 38.727 39.2338 38.7182 39.3087 38.7072C40.3983 38.5154 41.1577 37.5543 41.1335 36.4808C41.2039 36.4631 41.2743 36.4411 41.3448 36.4146C42.3838 36.0355 42.9649 34.9575 42.7558 33.9039C42.8218 33.873 42.8879 33.8399 42.9517 33.8025C43.9092 33.2492 44.2944 32.0852 43.907 31.0845C43.9665 31.0426 44.0259 30.9985 44.0831 30.95C44.9306 30.238 45.1089 29.0256 44.552 28.1063C44.6048 28.0556 44.6554 28.0005 44.7017 27.9432Z" fill="white" stroke="#BBBBBB" stroke-width="0.401447" stroke-miterlimit="10" stroke-linecap="round"/>
<path d="M27.3097 42.3533C36.3473 42.3533 43.6737 35.0164 43.6737 25.9659C43.6737 16.9155 36.3473 9.57861 27.3097 9.57861C18.2722 9.57861 10.9458 16.9155 10.9458 25.9659C10.9458 35.0164 18.2722 42.3533 27.3097 42.3533Z" fill="white" stroke="#BBBBBB" stroke-width="0.401447" stroke-miterlimit="10" stroke-linecap="round"/>
<path d="M27.2768 38.3236C34.0738 38.3236 39.5839 32.8057 39.5839 25.999C39.5839 19.1923 34.0738 13.6743 27.2768 13.6743C20.4798 13.6743 14.9697 19.1923 14.9697 25.999C14.9697 32.8057 20.4798 38.3236 27.2768 38.3236Z" fill="#EBEBEB" stroke="#BDBDBD" stroke-width="0.401447" stroke-miterlimit="10" stroke-linecap="round"/>
<path d="M6.3514 11.0555C9.22168 11.0555 11.5485 8.7254 11.5485 5.85101C11.5485 2.97663 9.22168 0.646484 6.3514 0.646484C3.48112 0.646484 1.1543 2.97663 1.1543 5.85101C1.1543 8.7254 3.48112 11.0555 6.3514 11.0555Z" fill="#EBEBEB" stroke="#BDBDBD" stroke-width="0.401447" stroke-miterlimit="10" stroke-linecap="round"/>
<path d="M48.2674 11.0555C51.1377 11.0555 53.4645 8.7254 53.4645 5.85101C53.4645 2.97663 51.1377 0.646484 48.2674 0.646484C45.3971 0.646484 43.0703 2.97663 43.0703 5.85101C43.0703 8.7254 45.3971 11.0555 48.2674 11.0555Z" fill="#EBEBEB" stroke="#BDBDBD" stroke-width="0.401447" stroke-miterlimit="10" stroke-linecap="round"/>
<path d="M7.32422 49.403C7.32422 51.8697 12.0062 52.293 16.9238 52.293C21.8413 52.293 24.1372 50.2936 24.1372 47.8269C24.1372 45.3602 21.8413 43.3608 16.9238 43.3608C12.0062 43.3608 7.32422 46.9363 7.32422 49.403Z" fill="#EBEBEB" stroke="#BDBDBD" stroke-width="0.401447" stroke-miterlimit="10" stroke-linecap="round"/>
<path d="M47.228 49.403C47.228 51.8697 42.546 52.293 37.6285 52.293C32.7109 52.293 30.415 50.2936 30.415 47.8269C30.415 45.3602 32.7109 43.3608 37.6285 43.3608C42.546 43.3608 47.228 46.9363 47.228 49.403Z" fill="#EBEBEB" stroke="#BDBDBD" stroke-width="0.401447" stroke-miterlimit="10" stroke-linecap="round"/>
</svg>
