<svg width="16" height="15" viewBox="0 0 16 15" fill="none" xmlns="http://www.w3.org/2000/svg">
<path fill-rule="evenodd" clip-rule="evenodd" d="M4.52881 5.15639C4.52878 4.58763 4.6766 4.02863 4.95776 3.53422C5.23892 3.03981 5.64376 2.62697 6.13258 2.3362C6.6214 2.04543 7.17741 1.88672 7.74607 1.87562C8.31472 1.86453 8.87649 2.00144 9.37628 2.27293C9.87607 2.54441 10.2967 2.94115 10.5969 3.42422C10.8972 3.90729 11.0667 4.4601 11.0888 5.02843C11.111 5.59676 10.985 6.16109 10.7233 6.66607C10.4616 7.17104 10.0731 7.59932 9.596 7.90889C9.35787 8.06452 9.23225 8.26233 9.21818 8.43764H12.0288C12.4018 8.43764 12.7595 8.5858 13.0232 8.84952C13.2869 9.11325 13.4351 9.47093 13.4351 9.84389V11.2501H2.18506V9.84389C2.18506 9.47093 2.33322 9.11325 2.59694 8.84952C2.86066 8.5858 3.21835 8.43764 3.59131 8.43764H6.40193C6.38787 8.26233 6.26225 8.06452 6.02412 7.90889C5.56517 7.61112 5.18796 7.20332 4.9268 6.7226C4.66565 6.24187 4.52883 5.70347 4.52881 5.15639ZM13.4351 12.1876V13.1251H2.18506V12.1876H13.4351Z" fill="#EBEBEB"/>
</svg>
