<svg width="54" height="61" viewBox="0 0 54 61" fill="none" xmlns="http://www.w3.org/2000/svg">
<path d="M25.1284 16.5874C25.8791 16.2058 25.3089 9.97973 21.0097 8.23518C18.0996 7.05524 14.1504 8.19769 13.0762 10.2532C12.6601 11.0494 12.0988 13.0255 14.3728 13.6938C15.9863 14.168 17.1993 12.4058 19.5415 12.5205C22.8831 12.6837 24.468 16.9226 25.1284 16.5874Z" fill="#EBEBEB" stroke="#BDBDBD" stroke-width="0.400025" stroke-miterlimit="10" stroke-linecap="round"/>
<path d="M28.2168 17.9679C29.4825 18.4686 33.6188 11.0427 33.654 6.27659C33.6562 5.82226 33.5924 4.94006 32.998 3.72263C32.4433 2.58459 30.6911 0.743002 28.7605 1.02751C27.3891 1.23042 26.4359 2.44123 26.2818 3.58589C26.1013 4.94888 27.0743 6.09133 27.5542 6.77944C30.7989 11.4242 27.0589 17.5092 28.2146 17.9679H28.2168Z" fill="#EBEBEB" stroke="#BDBDBD" stroke-width="0.400025" stroke-miterlimit="10" stroke-linecap="round"/>
<path d="M44.5484 34.4256C45.2594 33.5765 45.2242 32.3524 44.5175 31.543C44.5594 31.4834 44.6012 31.4217 44.6386 31.3577C45.1912 30.3983 44.9446 29.1985 44.1081 28.5237C44.1389 28.4575 44.1675 28.3891 44.194 28.3186C44.5726 27.2776 44.1213 26.1373 43.1813 25.6212C43.2012 25.5507 43.2188 25.4779 43.2298 25.4051C43.4213 24.3134 42.7807 23.2702 41.7637 22.9239C41.7703 22.8511 41.7747 22.7784 41.7747 22.7034C41.7747 21.594 40.9624 20.6787 39.9014 20.5155C39.8948 20.4427 39.886 20.37 39.875 20.295C39.6834 19.2032 38.7237 18.4423 37.6516 18.4666C37.634 18.396 37.612 18.3255 37.5856 18.2549C37.207 17.2139 36.1305 16.6316 35.0783 16.8412C35.0475 16.775 35.0144 16.7088 34.977 16.6449C34.4245 15.6855 33.2622 15.2995 32.2628 15.6877C32.221 15.6281 32.1769 15.5686 32.1285 15.5112C31.4175 14.6621 30.2068 14.4835 29.2888 15.0415C29.2382 14.9885 29.1831 14.9378 29.1259 14.8915C28.2784 14.1791 27.0567 14.2144 26.2488 14.9224C26.1893 14.8805 26.1277 14.8386 26.0639 14.8011C25.1063 14.2475 23.9088 14.4945 23.2352 15.3326C23.1691 15.3017 23.1009 15.2731 23.0304 15.2466C21.9914 14.8672 20.8533 15.3194 20.3382 16.2611C20.2678 16.2413 20.1951 16.2236 20.1225 16.2126C19.0328 16.0207 17.9916 16.6625 17.646 17.6815C17.5734 17.6748 17.5007 17.6704 17.4259 17.6704C16.3186 17.6704 15.4051 18.4843 15.2422 19.5473C15.1695 19.5539 15.0969 19.5627 15.022 19.5738C13.9324 19.7656 13.1729 20.7272 13.1971 21.8013C13.1267 21.819 13.0563 21.841 12.9858 21.8675C11.9468 22.2468 11.3656 23.3253 11.5748 24.3795C11.5087 24.4104 11.4427 24.4435 11.3789 24.481C10.4213 25.0346 10.036 26.1991 10.4235 27.2004C10.364 27.2423 10.3046 27.2864 10.2474 27.3349C9.39987 28.0473 9.22156 29.2603 9.77849 30.18C9.72566 30.2307 9.67503 30.2859 9.6288 30.3432C8.91778 31.1923 8.953 32.4164 9.65962 33.2258C9.6178 33.2853 9.57597 33.3471 9.53855 33.411C8.98602 34.3704 9.23257 35.5702 10.0691 36.2451C10.0382 36.3113 10.0096 36.3796 9.98322 36.4502C9.60459 37.4912 10.0559 38.6315 10.9958 39.1475C10.976 39.2181 10.9584 39.2909 10.9474 39.3637C10.7559 40.4554 11.3965 41.4986 12.4135 41.8449C12.4069 41.9176 12.4025 41.9904 12.4025 42.0654C12.4025 43.1748 13.2148 44.0901 14.2758 44.2533C14.2824 44.326 14.2912 44.3988 14.3022 44.4738C14.4937 45.5655 15.4535 46.3264 16.5255 46.3022C16.5432 46.3727 16.5652 46.4433 16.5916 46.5139C16.9702 47.5549 18.0467 48.1371 19.0989 47.9276C19.1297 47.9938 19.1627 48.0599 19.2001 48.1239C19.7527 49.0833 20.915 49.4693 21.9144 49.0811C21.9562 49.1406 22.0002 49.2002 22.0487 49.2575C22.7597 50.1066 23.9704 50.2853 24.8884 49.7273C24.939 49.7802 24.994 49.831 25.0513 49.8773C25.8988 50.5896 27.1205 50.5544 27.9284 49.8464C27.9878 49.8883 28.0495 49.9302 28.1133 49.9677C29.0709 50.5213 30.2684 50.2743 30.942 49.4362C31.008 49.467 31.0763 49.4957 31.1467 49.5222C32.1857 49.9015 33.3238 49.4494 33.8389 48.5077C33.9094 48.5275 33.982 48.5452 34.0547 48.5562C35.1443 48.7481 36.1855 48.1063 36.5312 47.0873C36.6038 47.0939 36.6764 47.0983 36.7513 47.0983C37.8586 47.0983 38.7721 46.2845 38.935 45.2215C39.0076 45.2149 39.0803 45.206 39.1551 45.195C40.2448 45.0031 41.0042 44.0415 40.98 42.9675C41.0505 42.9498 41.1209 42.9278 41.1913 42.9013C42.2304 42.5219 42.8115 41.4435 42.6024 40.3892C42.6684 40.3584 42.7345 40.3253 42.7983 40.2878C43.7559 39.7342 44.1411 38.5697 43.7537 37.5684C43.8131 37.5265 43.8726 37.4824 43.9298 37.4339C44.7773 36.7215 44.9556 35.5085 44.3987 34.5888C44.4515 34.5381 44.5021 34.4829 44.5484 34.4256Z" fill="white" stroke="#BBBBBB" stroke-width="0.400025" stroke-miterlimit="10" stroke-linecap="round"/>
<path d="M27.1556 48.8431C36.1936 48.8431 43.5203 41.5025 43.5203 32.4474C43.5203 23.3923 36.1936 16.0518 27.1556 16.0518C18.1177 16.0518 10.791 23.3923 10.791 32.4474C10.791 41.5025 18.1177 48.8431 27.1556 48.8431Z" fill="white" stroke="#BBBBBB" stroke-width="0.400025" stroke-miterlimit="10" stroke-linecap="round"/>
<path d="M27.123 44.8113C33.9203 44.8113 39.4306 39.2905 39.4306 32.4803C39.4306 25.6702 33.9203 20.1494 27.123 20.1494C20.3257 20.1494 14.8154 25.6702 14.8154 32.4803C14.8154 39.2905 20.3257 44.8113 27.123 44.8113Z" fill="#EBEBEB" stroke="#BBBBBB" stroke-width="0.400025" stroke-miterlimit="10" stroke-linecap="round"/>
<path d="M6.19732 17.5291C9.06772 17.5291 11.3946 15.1978 11.3946 12.3219C11.3946 9.44608 9.06772 7.11475 6.19732 7.11475C3.32692 7.11475 1 9.44608 1 12.3219C1 15.1978 3.32692 17.5291 6.19732 17.5291Z" fill="#EBEBEB" stroke="#BDBDBD" stroke-width="0.400025" stroke-miterlimit="10" stroke-linecap="round"/>
<path d="M48.1128 17.5291C50.9832 17.5291 53.3102 15.1978 53.3102 12.3219C53.3102 9.44608 50.9832 7.11475 48.1128 7.11475C45.2424 7.11475 42.9155 9.44608 42.9155 12.3219C42.9155 15.1978 45.2424 17.5291 48.1128 17.5291Z" fill="#EBEBEB" stroke="#BDBDBD" stroke-width="0.400025" stroke-miterlimit="10" stroke-linecap="round"/>
<path d="M7.17041 57.1043C7.17041 59.5723 11.8526 59.9957 16.7704 59.9957C21.6881 59.9957 23.9841 57.9954 23.9841 55.5274C23.9841 53.0595 21.6881 51.0591 16.7704 51.0591C11.8526 51.0591 7.17041 54.6364 7.17041 57.1043Z" fill="#EBEBEB" stroke="#BDBDBD" stroke-width="0.400025" stroke-miterlimit="10" stroke-linecap="round"/>
<path d="M47.0759 57.1043C47.0759 59.5723 42.3937 59.9957 37.4759 59.9957C32.5582 59.9957 30.2622 57.9954 30.2622 55.5274C30.2622 53.0595 32.5582 51.0591 37.4759 51.0591C42.3937 51.0591 47.0759 54.6364 47.0759 57.1043Z" fill="#EBEBEB" stroke="#BDBDBD" stroke-width="0.400025" stroke-miterlimit="10" stroke-linecap="round"/>
</svg>
